<svg width="22" height="20" viewBox="0 0 22 20" fill="none" xmlns="http://www.w3.org/2000/svg">
<path d="M10.9981 0C10.0258 0 9.09337 0.395074 8.40586 1.09831C7.71835 1.80155 7.33211 2.75534 7.33211 3.74986C7.33211 4.74439 7.71835 5.69818 8.40586 6.40142C9.09337 7.10465 10.0258 7.49973 10.9981 7.49973C11.9704 7.49973 12.9029 7.10465 13.5904 6.40142C14.2779 5.69818 14.6641 4.74439 14.6641 3.74986C14.6641 2.75534 14.2779 1.80155 13.5904 1.09831C12.9029 0.395074 11.9704 0 10.9981 0ZM4.95286 9.99464C4.91131 10.198 4.89054 10.408 4.89054 10.6246V14.9995C4.88974 15.9069 5.08254 16.8036 5.45548 17.627C5.82842 18.4504 6.37253 19.1807 7.04982 19.7668L6.84086 19.8293C6.22078 19.9994 5.57401 20.0429 4.93748 19.9574C4.30095 19.8718 3.68714 19.6588 3.1311 19.3305C2.57506 19.0023 2.08769 18.5652 1.69681 18.0443C1.30594 17.5233 1.01922 16.9287 0.853032 16.2944L0.0623947 13.2758C0.000121916 13.0379 -0.015739 12.7899 0.0157177 12.5457C0.0471743 12.3016 0.125332 12.0662 0.245729 11.853C0.366126 11.6398 0.526403 11.4529 0.717409 11.3031C0.908415 11.1532 1.12641 11.0433 1.35894 10.9796L4.95286 9.99464ZM14.9513 19.7668C15.6286 19.1807 16.1727 18.4504 16.5457 17.627C16.9186 16.8036 17.1114 15.9069 17.1106 14.9995V10.6246C17.1098 10.408 17.0894 10.198 17.0495 9.99464L20.6422 10.9796C21.1116 11.1085 21.5117 11.4228 21.7546 11.8534C21.9975 12.2839 22.0633 12.7956 21.9375 13.2758L21.1469 16.2944C20.9759 16.9467 20.6776 17.5568 20.2698 18.0878C19.8621 18.6189 19.3534 19.06 18.7744 19.3845C18.1954 19.709 17.5582 19.9102 16.9011 19.9759C16.244 20.0416 15.5808 19.9705 14.9513 19.7668ZM18.9412 2.49991C18.1309 2.49991 17.3539 2.82914 16.7809 3.41517C16.208 4.0012 15.8861 4.79602 15.8861 5.6248C15.8861 6.45357 16.208 7.24839 16.7809 7.83442C17.3539 8.42045 18.1309 8.74968 18.9412 8.74968C19.7514 8.74968 20.5285 8.42045 21.1014 7.83442C21.6743 7.24839 21.9962 6.45357 21.9962 5.6248C21.9962 4.79602 21.6743 4.0012 21.1014 3.41517C20.5285 2.82914 19.7514 2.49991 18.9412 2.49991ZM3.05509 2.49991C2.24485 2.49991 1.46779 2.82914 0.894865 3.41517C0.321939 4.0012 7.23999e-05 4.79602 7.23999e-05 5.6248C7.23999e-05 6.45357 0.321939 7.24839 0.894865 7.83442C1.46779 8.42045 2.24485 8.74968 3.05509 8.74968C3.86533 8.74968 4.64238 8.42045 5.21531 7.83442C5.78823 7.24839 6.1101 6.45357 6.1101 5.6248C6.1101 4.79602 5.78823 4.0012 5.21531 3.41517C4.64238 2.82914 3.86533 2.49991 3.05509 2.49991ZM7.94311 8.74968C7.45697 8.74968 6.99073 8.94722 6.64698 9.29884C6.30322 9.65045 6.1101 10.1274 6.1101 10.6246V14.9995C6.1101 16.3255 6.62509 17.5972 7.54177 18.5349C8.45845 19.4725 9.70174 19.9993 10.9981 19.9993C12.2945 19.9993 13.5378 19.4725 14.4545 18.5349C15.3712 17.5972 15.8861 16.3255 15.8861 14.9995V10.6246C15.8861 10.1274 15.693 9.65045 15.3493 9.29884C15.0055 8.94722 14.5393 8.74968 14.0531 8.74968H7.94311Z" fill="#C3C3C3"/>
</svg>
