<svg width="21" height="21" viewBox="0 0 21 21" fill="none" xmlns="http://www.w3.org/2000/svg">
<path d="M10.4984 21C9.04613 21 7.68134 20.7247 6.40403 20.1741C5.12672 19.6234 4.01564 18.8768 3.07078 17.9342C2.12593 16.9915 1.37809 15.8822 0.827275 14.6063C0.276458 13.3303 0.000699894 11.9677 0 10.5185C0 9.1035 0.293256 7.72798 0.879767 6.39194C1.46628 5.0559 2.2799 3.88092 3.32065 2.86701C4.36139 1.8531 5.59915 1.08446 7.03393 0.561081C8.46872 0.0377051 10.0435 -0.119517 11.7582 0.0894138C12.0207 0.124352 12.2219 0.233709 12.3619 0.417485C12.5019 0.60126 12.5806 0.850021 12.5981 1.16377C12.6331 2.28179 13.0488 3.23841 13.8453 4.0336C14.6418 4.8288 15.5908 5.24352 16.6925 5.27775C17.0599 5.29522 17.3399 5.40004 17.5323 5.5922C17.7248 5.78436 17.8298 6.08134 17.8473 6.48313C17.8823 7.21683 18.1056 7.81952 18.5171 8.29119C18.9286 8.76285 19.5015 9.12097 20.2357 9.36554C20.4806 9.45288 20.6689 9.57971 20.8005 9.74602C20.9321 9.91232 20.9975 10.1174 20.9968 10.3613C21.0318 11.8112 20.7781 13.1825 20.2357 14.4753C19.6933 15.768 18.9496 16.8993 18.0048 17.8692C17.0599 18.8391 15.9401 19.6032 14.6453 20.1615C13.3505 20.7198 11.9682 20.9993 10.4984 21ZM8.92365 8.4222C9.36108 8.4222 9.73308 8.26952 10.0396 7.96416C10.3462 7.6588 10.4991 7.28741 10.4984 6.84998C10.4977 6.41255 10.3448 6.04151 10.0396 5.73684C9.73448 5.43218 9.36248 5.27915 8.92365 5.27775C8.48481 5.27636 8.11317 5.42939 7.80872 5.73684C7.50426 6.0443 7.35099 6.41535 7.34889 6.84998C7.34679 7.28461 7.50006 7.65601 7.80872 7.96416C8.11737 8.27232 8.48901 8.425 8.92365 8.4222ZM6.82397 13.663C7.2614 13.663 7.63339 13.5103 7.93995 13.2049C8.2465 12.8995 8.39943 12.5282 8.39873 12.0907C8.39803 11.6533 8.2451 11.2823 7.93995 10.9776C7.63479 10.6729 7.2628 10.5199 6.82397 10.5185C6.38513 10.5171 6.01349 10.6701 5.70904 10.9776C5.40458 11.285 5.2513 11.6561 5.2492 12.0907C5.24711 12.5254 5.40038 12.8968 5.70904 13.2049C6.01769 13.5131 6.38933 13.6657 6.82397 13.663ZM13.6479 14.7111C13.9454 14.7111 14.1949 14.6105 14.3965 14.4092C14.598 14.208 14.6985 13.9592 14.6978 13.663C14.6971 13.3667 14.5963 13.1179 14.3954 12.9167C14.1945 12.7154 13.9454 12.6148 13.6479 12.6148C13.3505 12.6148 13.1013 12.7154 12.9004 12.9167C12.6996 13.1179 12.5988 13.3667 12.5981 13.663C12.5974 13.9592 12.6982 14.2083 12.9004 14.4103C13.1027 14.6122 13.3519 14.7125 13.6479 14.7111Z" fill="#C3C3C3"/>
</svg>
