<svg width="21" height="22" viewBox="0 0 21 22" fill="none" xmlns="http://www.w3.org/2000/svg">
<path d="M10.5 0C8.54368 0 6.81947 1.25561 6.26684 3.08C5.68105 2.82244 5.06211 2.68293 4.42105 2.68293C3.24852 2.68293 2.124 3.13519 1.2949 3.94022C0.465788 4.74526 0 5.83712 0 6.97561C0.0026187 7.92626 0.329362 8.84932 0.929215 9.60066C1.52907 10.352 2.36827 10.8893 3.31579 11.1288V18.7805H17.6842V11.1288C19.6295 10.6351 21 8.92878 21 6.97561C21 5.83712 20.5342 4.74526 19.7051 3.94022C18.876 3.13519 17.7515 2.68293 16.5789 2.68293C15.9379 2.68293 15.3189 2.82244 14.7332 3.08C14.1805 1.25561 12.4563 0 10.5 0ZM9.94737 9.65854H11.0526V17.1707H9.94737V9.65854ZM6.63158 11.8049H7.73684V17.1707H6.63158V11.8049ZM13.2632 11.8049H14.3684V17.1707H13.2632V11.8049ZM3.31579 19.8537V20.9268C3.31579 21.2115 3.43224 21.4844 3.63951 21.6857C3.84679 21.8869 4.12792 22 4.42105 22H16.5789C16.8721 22 17.1532 21.8869 17.3605 21.6857C17.5678 21.4844 17.6842 21.2115 17.6842 20.9268V19.8537H3.31579Z" fill="#C3C3C3"/>
</svg>
