<svg width="36" height="36" viewBox="0 0 36 36" fill="none" xmlns="http://www.w3.org/2000/svg">
<mask id="mask0_1521_42387" style="mask-type:luminance" maskUnits="userSpaceOnUse" x="6" y="6" width="24" height="23">
<path d="M24.3466 13.5796C24.9841 14.4935 25.4156 15.5348 25.6116 16.6316H28.0049V19.3596H25.6116C25.4156 20.4564 24.9841 21.4977 24.3466 22.4116L26.0397 24.1047L24.1106 26.0339L22.4175 24.3408C21.5036 24.9782 20.4623 25.4098 19.3654 25.6057V27.999H16.6375V25.6057C15.5406 25.4098 14.4993 24.9782 13.5855 24.3408L11.8924 26.0339L9.96322 24.1047L11.6563 22.4116C11.0189 21.4977 10.5873 20.4564 10.3914 19.3596H7.99805V16.6316H10.3914C10.5873 15.5348 11.0189 14.4935 11.6563 13.5796L9.96322 11.8865L11.8924 9.95736L13.5855 11.6504C14.4993 11.013 15.5406 10.5814 16.6375 10.3855V7.99219H19.3654V10.3855C20.4623 10.5814 21.5036 11.013 22.4175 11.6504L24.1106 9.95736L26.0397 11.8865L24.3466 13.5796Z" fill="white" stroke="white" stroke-width="2" stroke-linejoin="round"/>
<path d="M18.0009 20.4958C18.6641 20.4958 19.3002 20.2324 19.7692 19.7634C20.2382 19.2944 20.5017 18.6583 20.5017 17.995C20.5017 17.3317 20.2382 16.6956 19.7692 16.2266C19.3002 15.7576 18.6641 15.4941 18.0009 15.4941C17.3376 15.4941 16.7015 15.7576 16.2325 16.2266C15.7635 16.6956 15.5 17.3317 15.5 17.995C15.5 18.6583 15.7635 19.2944 16.2325 19.7634C16.7015 20.2324 17.3376 20.4958 18.0009 20.4958Z" fill="black" stroke="black" stroke-width="2" stroke-linejoin="round"/>
</mask>
<g mask="url(#mask0_1521_42387)">
<path d="M5.99805 5.99609H30.0062V30.0043H5.99805V5.99609Z" fill="#202020"/>
</g>
</svg>
