<svg width="17" height="22" viewBox="0 0 17 22" fill="none" xmlns="http://www.w3.org/2000/svg">
<path fill-rule="evenodd" clip-rule="evenodd" d="M2.55 5.31161e-05C1.1594 5.31161e-05 0 1.02513 0 2.32535V8.45226L0.0493001 8.45069H17V2.32693C16.9978 2.01929 16.9301 1.71507 16.8007 1.43164C16.6713 1.14821 16.4829 0.891122 16.2461 0.67505C16.0093 0.458979 15.7288 0.288158 15.4206 0.172342C15.1125 0.0565253 14.7826 -0.00201848 14.45 5.31161e-05H2.55ZM0 17.711V10.416H17V17.711C17 18.8744 16.0701 19.8193 14.875 20.0033V20.8208C14.875 21.1336 14.7407 21.4335 14.5016 21.6546C14.2625 21.8758 13.9382 22 13.6 22C13.2618 22 12.9375 21.8758 12.6984 21.6546C12.4593 21.4335 12.325 21.1336 12.325 20.8208V20.0347H4.675V20.8208C4.675 21.1336 4.54067 21.4335 4.30156 21.6546C4.06245 21.8758 3.73815 22 3.4 22C3.06185 22 2.73755 21.8758 2.49844 21.6546C2.25933 21.4335 2.125 21.1336 2.125 20.8208V20.0033C1.53466 19.9158 0.997047 19.6374 0.607903 19.2176C0.218759 18.7978 0.00333826 18.2639 0 17.711ZM5.1697 4.10195C5.1697 3.84134 5.05776 3.5914 4.8585 3.40713C4.65924 3.22285 4.38899 3.11932 4.1072 3.11932C3.82541 3.11932 3.55516 3.22285 3.3559 3.40713C3.15664 3.5914 3.0447 3.84134 3.0447 4.10195V4.88806C3.0447 5.14867 3.15664 5.3986 3.3559 5.58288C3.55516 5.76716 3.82541 5.87069 4.1072 5.87069C4.38899 5.87069 4.65924 5.76716 4.8585 5.58288C5.05776 5.3986 5.1697 5.14867 5.1697 4.88806V4.10195Z" fill="#7D7D7D"/>
</svg>
