<svg width="24" height="24" viewBox="0 0 24 24" fill="none" xmlns="http://www.w3.org/2000/svg">
<path d="M9.16124 7.01176C9.10973 6.95451 9.06947 6.88716 9.04274 6.81357C9.01602 6.73997 9.00335 6.66157 9.00547 6.58284C9.00759 6.5041 9.02446 6.42658 9.0551 6.35469C9.08575 6.2828 9.12957 6.21795 9.18408 6.16385C9.23858 6.10975 9.3027 6.06746 9.37276 6.03939C9.44283 6.01132 9.51747 5.99801 9.59243 6.00024C9.66739 6.00247 9.7412 6.02018 9.80964 6.05237C9.87808 6.08456 9.93982 6.13059 9.99132 6.18784L14.8439 11.5847C14.9442 11.696 15 11.8434 15 11.9966C15 12.1498 14.9442 12.2973 14.8439 12.4086L9.99132 17.806C9.94016 17.8645 9.87844 17.9118 9.80974 17.945C9.74105 17.9782 9.66675 17.9968 9.59117 17.9996C9.51558 18.0024 9.44022 17.9895 9.36945 17.9614C9.29869 17.9334 9.23393 17.8909 9.17894 17.8363C9.12395 17.7818 9.07983 17.7163 9.04913 17.6437C9.01844 17.5711 9.00178 17.4928 9.00014 17.4134C8.99849 17.334 9.01188 17.255 9.03954 17.1811C9.0672 17.1071 9.10856 17.0397 9.16124 16.9827L13.6439 11.9966L9.16124 7.01176Z" fill="#7D7D7D"/>
</svg>
