<svg width="344" height="767" viewBox="0 0 344 767" fill="none" xmlns="http://www.w3.org/2000/svg">
<path d="M25.4209 229.9C22.2472 227.146 22.1242 222.043 25.4658 219.494L35.0655 212.174C37.0116 210.69 39.6369 210.541 41.4882 212.141C43.4525 213.839 46.1863 216.558 49.3217 220.669C52.4571 224.781 54.3549 228.137 55.4729 230.48C56.5265 232.689 55.6881 235.181 53.7419 236.666L44.1422 243.986C40.8006 246.534 35.9116 245.065 34.0951 241.275C33.0314 239.057 31.7819 236.779 30.4633 235.05C29.1448 233.321 27.2795 231.513 25.4209 229.9Z" fill="#C6B2FB"/>
<path d="M313.421 73.9003C310.247 71.1459 310.124 66.0428 313.466 63.4943L323.066 56.1736C325.012 54.6899 327.637 54.5412 329.488 56.141C331.453 57.8394 334.186 60.5578 337.322 64.6691C340.457 68.7814 342.355 72.1368 343.473 74.4802C344.527 76.689 343.688 79.1812 341.742 80.6658L332.142 87.9856C328.801 90.5341 323.912 89.0654 322.095 85.2752C321.031 83.0567 319.782 80.7793 318.463 79.0501C317.145 77.3209 315.279 75.5133 313.421 73.9003Z" fill="#FCA8A8"/>
<path d="M30.2024 17.7618C33.134 14.7513 32.8285 9.65519 29.2849 7.39632L19.105 0.906761C17.0412 -0.408751 14.4128 -0.337205 12.7022 1.41303C10.8872 3.27009 8.39111 6.20788 5.61163 10.5678C2.83206 14.9282 1.22245 18.4314 0.304961 20.8602C-0.559727 23.15 0.484834 25.563 2.54861 26.8786L12.7285 33.3677C16.2721 35.6266 21.0207 33.7531 22.5128 29.8248C23.3867 27.5236 24.4409 25.1502 25.6097 23.3163C26.7786 21.4833 28.4857 19.5253 30.2024 17.7618Z" fill="#8AE6D8"/>
<path d="M36.4605 745.101C38.4137 741.38 36.6701 736.582 32.6301 735.425L21.0239 732.102C18.6712 731.429 16.1718 732.245 15.0303 734.41C13.8191 736.707 12.2625 740.234 10.8391 745.205C9.41581 750.176 8.86995 753.993 8.68197 756.582C8.50485 759.023 10.1932 761.039 12.546 761.713L24.1522 765.036C28.1922 766.192 32.2107 763.044 32.5229 758.854C32.7056 756.4 33.0405 753.824 33.639 751.733C34.2375 749.643 35.3168 747.28 36.4605 745.101Z" fill="#FF8686"/>
</svg>
