<svg width="16" height="16" viewBox="0 0 16 16" fill="none" xmlns="http://www.w3.org/2000/svg">
<path d="M14.6 0C15.3728 0 16 0.6264 16 1.4V14.6C16 14.9713 15.8525 15.3274 15.5899 15.5899C15.3274 15.8525 14.9713 16 14.6 16H1.4C1.0287 16 0.672602 15.8525 0.410051 15.5899C0.1475 15.3274 0 14.9713 0 14.6V1.4C0 0.6264 0.6264 0 1.4 0H14.6ZM12.224 4.976C12.1115 4.86364 11.959 4.80053 11.8 4.80053C11.641 4.80053 11.4885 4.86364 11.376 4.976L6.6 9.7512L4.624 7.776C4.56832 7.72032 4.50222 7.67615 4.42947 7.64602C4.35672 7.61588 4.27874 7.60037 4.2 7.60037C4.12126 7.60037 4.04328 7.61588 3.97053 7.64602C3.89778 7.67615 3.83168 7.72032 3.776 7.776C3.72032 7.83168 3.67615 7.89778 3.64602 7.97053C3.61588 8.04328 3.60037 8.12126 3.60037 8.2C3.60037 8.27874 3.61588 8.35672 3.64602 8.42947C3.67615 8.50222 3.72032 8.56832 3.776 8.624L6.176 11.024C6.2885 11.1364 6.441 11.1995 6.6 11.1995C6.759 11.1995 6.9115 11.1364 7.024 11.024L12.224 5.824C12.3364 5.7115 12.3995 5.559 12.3995 5.4C12.3995 5.241 12.3364 5.0885 12.224 4.976Z" fill="#1FC16F"/>
</svg>
