<svg width="24" height="24" viewBox="0 0 24 24" fill="none" xmlns="http://www.w3.org/2000/svg">
<path d="M19.1429 4H4.85714C3.28143 4 2 5.4352 2 7.2V16.8C2 18.5648 3.28143 20 4.85714 20H19.1429C20.7186 20 22 18.5648 22 16.8V7.2C22 5.4352 20.7186 4 19.1429 4ZM4.85714 5.6H19.1429C19.9314 5.6 20.5714 6.3184 20.5714 7.2V7.5216L12 12.6912L3.42857 7.5216V7.2C3.42857 6.3184 4.06857 5.6 4.85714 5.6ZM19.1429 18.4H4.85714C4.47826 18.4 4.1149 18.2314 3.84699 17.9314C3.57908 17.6313 3.42857 17.2243 3.42857 16.8V9.3392L11.6614 14.304C11.7655 14.3667 11.8818 14.3996 12 14.3996C12.1182 14.3996 12.2345 14.3667 12.3386 14.304L20.5714 9.3392V16.8C20.5714 17.2243 20.4209 17.6313 20.153 17.9314C19.8851 18.2314 19.5217 18.4 19.1429 18.4Z" fill="#7D7D7D"/>
</svg>
