<svg width="158" height="37" viewBox="0 0 158 37" fill="none" xmlns="http://www.w3.org/2000/svg">
<path d="M13.8725 31.8604C6.39151 31.8604 1.54468 26.6624 1.54468 18.6195C1.54468 10.6468 6.56712 5.34335 14.0832 5.34335C20.1593 5.34335 24.69 8.89067 25.5681 14.4048H20.8266C19.9486 11.4195 17.3847 9.66335 13.9779 9.66335C9.23639 9.66335 6.25102 13.1053 6.25102 18.5843C6.25102 24.0282 9.27151 27.5404 13.9779 27.5404C17.4549 27.5404 20.1242 25.7141 20.9671 22.8692H25.6383C24.6549 28.278 19.9486 31.8604 13.8725 31.8604Z" fill="#202020"/>
<path d="M13.8725 31.8604C6.39151 31.8604 1.54468 26.6624 1.54468 18.6195C1.54468 10.6468 6.56712 5.34335 14.0832 5.34335C20.1593 5.34335 24.69 8.89067 25.5681 14.4048H20.8266C19.9486 11.4195 17.3847 9.66335 13.9779 9.66335C9.23639 9.66335 6.25102 13.1053 6.25102 18.5843C6.25102 24.0282 9.27151 27.5404 13.9779 27.5404C17.4549 27.5404 20.1242 25.7141 20.9671 22.8692H25.6383C24.6549 28.278 19.9486 31.8604 13.8725 31.8604Z" fill="black" fill-opacity="0.2"/>
<path d="M50.966 19.1454C50.966 26.9424 45.8382 32.4215 38.4625 32.4215C31.1221 32.4215 26.0645 26.9776 26.0645 19.1454C26.0645 11.3483 31.1572 5.86927 38.4977 5.86927C45.8382 5.86927 50.966 11.3132 50.966 19.1454ZM46.2245 19.1454C46.2245 13.6663 43.204 10.1893 38.4977 10.1893C33.7913 10.1893 30.7708 13.6663 30.7708 19.1454C30.7708 24.6244 33.7913 28.1015 38.4977 28.1015C43.204 28.1015 46.2245 24.5541 46.2245 19.1454Z" fill="#202020"/>
<path d="M50.966 19.1454C50.966 26.9424 45.8382 32.4215 38.4625 32.4215C31.1221 32.4215 26.0645 26.9776 26.0645 19.1454C26.0645 11.3483 31.1572 5.86927 38.4977 5.86927C45.8382 5.86927 50.966 11.3132 50.966 19.1454ZM46.2245 19.1454C46.2245 13.6663 43.204 10.1893 38.4977 10.1893C33.7913 10.1893 30.7708 13.6663 30.7708 19.1454C30.7708 24.6244 33.7913 28.1015 38.4977 28.1015C43.204 28.1015 46.2245 24.5541 46.2245 19.1454Z" fill="black" fill-opacity="0.2"/>
<path d="M76.4269 19.1454C76.4269 26.9424 71.2991 32.4215 63.9235 32.4215C56.583 32.4215 51.5254 26.9776 51.5254 19.1454C51.5254 11.3483 56.6181 5.86927 63.9586 5.86927C71.2991 5.86927 76.4269 11.3132 76.4269 19.1454ZM71.6854 19.1454C71.6854 13.6663 68.6649 10.1893 63.9586 10.1893C59.2523 10.1893 56.2318 13.6663 56.2318 19.1454C56.2318 24.6244 59.2523 28.1015 63.9586 28.1015C68.6649 28.1015 71.6854 24.5541 71.6854 19.1454Z" fill="#202020"/>
<path d="M76.4269 19.1454C76.4269 26.9424 71.2991 32.4215 63.9235 32.4215C56.583 32.4215 51.5254 26.9776 51.5254 19.1454C51.5254 11.3483 56.6181 5.86927 63.9586 5.86927C71.2991 5.86927 76.4269 11.3132 76.4269 19.1454ZM71.6854 19.1454C71.6854 13.6663 68.6649 10.1893 63.9586 10.1893C59.2523 10.1893 56.2318 13.6663 56.2318 19.1454C56.2318 24.6244 59.2523 28.1015 63.9586 28.1015C68.6649 28.1015 71.6854 24.5541 71.6854 19.1454Z" fill="black" fill-opacity="0.2"/>
<path d="M82.9293 6.32585V19.8127L93.3254 6.32585H98.6288L90.1293 17.2839L98.7342 32H93.5361L87.179 21.0771L82.9293 26.521V32H78.4337V6.32585H82.9293Z" fill="#202020"/>
<path d="M82.9293 6.32585V19.8127L93.3254 6.32585H98.6288L90.1293 17.2839L98.7342 32H93.5361L87.179 21.0771L82.9293 26.521V32H78.4337V6.32585H82.9293Z" fill="black" fill-opacity="0.2"/>
<path d="M115.818 32H99.8727V6.32585H115.818V10.4702H104.368V17.0732H114.624V21.042H104.368V27.8556H115.818V32Z" fill="#202020"/>
<path d="M115.818 32H99.8727V6.32585H115.818V10.4702H104.368V17.0732H114.624V21.042H104.368V27.8556H115.818V32Z" fill="black" fill-opacity="0.2"/>
<path d="M134.521 32H118.576V6.32585H134.521V10.4702H123.071V17.0732H133.327V21.042H123.071V27.8556H134.521V32Z" fill="#202020"/>
<path d="M134.521 32H118.576V6.32585H134.521V10.4702H123.071V17.0732H133.327V21.042H123.071V27.8556H134.521V32Z" fill="black" fill-opacity="0.2"/>
<path d="M147.623 23.1493H141.969V32H137.473V6.32585H147.623C152.786 6.32585 156.123 9.69756 156.123 14.72C156.123 19.6722 152.751 23.1493 147.623 23.1493ZM146.745 10.3298H141.969V19.1454H146.675C149.766 19.1454 151.416 17.4946 151.416 14.6849C151.416 11.8751 149.73 10.3298 146.745 10.3298Z" fill="#202020"/>
<path d="M147.623 23.1493H141.969V32H137.473V6.32585H147.623C152.786 6.32585 156.123 9.69756 156.123 14.72C156.123 19.6722 152.751 23.1493 147.623 23.1493ZM146.745 10.3298H141.969V19.1454H146.675C149.766 19.1454 151.416 17.4946 151.416 14.6849C151.416 11.8751 149.73 10.3298 146.745 10.3298Z" fill="black" fill-opacity="0.2"/>
<circle cx="153.591" cy="30.5782" r="2.91951" fill="url(#paint0_linear_4182_40967)"/>
<defs>
<linearGradient id="paint0_linear_4182_40967" x1="153.591" y1="27.6587" x2="153.591" y2="33.4977" gradientUnits="userSpaceOnUse">
<stop stop-color="#32E389"/>
<stop offset="1" stop-color="#1FC16F"/>
</linearGradient>
</defs>
</svg>
