<svg width="28" height="27" viewBox="0 0 28 27" fill="none" xmlns="http://www.w3.org/2000/svg">
<path d="M14.0049 0C15.484 0 16.9097 0.217243 18.248 0.619141C18.0123 1.01372 17.875 1.47471 17.875 1.96777C17.8752 3.096 18.5861 4.05612 19.583 4.43164C19.5554 4.58457 19.5391 4.74243 19.5391 4.90332C19.5394 6.35832 20.7198 7.53791 22.1748 7.53809C22.5404 7.53805 22.8886 7.46272 23.2051 7.32812C23.6801 8.01893 24.4762 8.47255 25.3779 8.47266C25.9327 8.47261 26.4465 8.2988 26.8711 8.00586C27.6035 9.61255 28.0097 11.3834 28.0098 13.2441C28.0098 20.5589 21.7396 26.4893 14.0049 26.4893C6.27035 26.4891 0 20.5588 0 13.2441C0.000182886 5.92963 6.27046 0.000169467 14.0049 0Z" fill="url(#paint0_linear_4182_40868)"/>
<rect width="14.2099" height="7.73874" transform="translate(6.94531 8.47266)" fill="url(#paint1_linear_4182_40868)"/>
<circle cx="17.0969" cy="12.3421" r="3.79617" fill="white"/>
<mask id="mask0_4182_40868" style="mask-type:alpha" maskUnits="userSpaceOnUse" x="13" y="8" width="8" height="9">
<circle cx="17.0969" cy="12.3421" r="3.79617" fill="#D9D9D9"/>
</mask>
<g mask="url(#mask0_4182_40868)">
<circle cx="18.7273" cy="11.9114" r="2.35624" fill="#202020"/>
<circle cx="18.7273" cy="11.9114" r="2.35624" fill="black" fill-opacity="0.2"/>
</g>
<circle cx="10.7493" cy="12.3421" r="3.79617" fill="white"/>
<mask id="mask1_4182_40868" style="mask-type:alpha" maskUnits="userSpaceOnUse" x="6" y="8" width="9" height="9">
<circle cx="10.7415" cy="12.3421" r="3.79617" fill="#D9D9D9"/>
</mask>
<g mask="url(#mask1_4182_40868)">
<circle cx="12.3797" cy="11.9114" r="2.35624" fill="#202020"/>
<circle cx="12.3797" cy="11.9114" r="2.35624" fill="black" fill-opacity="0.2"/>
</g>
<defs>
<linearGradient id="paint0_linear_4182_40868" x1="14.0049" y1="0" x2="14.0049" y2="26.4893" gradientUnits="userSpaceOnUse">
<stop stop-color="#32E389"/>
<stop offset="1" stop-color="#1FC16F"/>
</linearGradient>
<linearGradient id="paint1_linear_4182_40868" x1="7.10497" y1="0" x2="7.10497" y2="7.73874" gradientUnits="userSpaceOnUse">
<stop stop-color="#32E389"/>
<stop offset="1" stop-color="#1FC16F"/>
</linearGradient>
</defs>
</svg>
