<svg width="36" height="36" viewBox="0 0 36 36" fill="none" xmlns="http://www.w3.org/2000/svg">
<path d="M16.74 19.62L14.805 17.685C14.64 17.52 14.43 17.4375 14.175 17.4375C13.92 17.4375 13.71 17.52 13.545 17.685C13.38 17.85 13.2975 18.06 13.2975 18.315C13.2975 18.57 13.38 18.78 13.545 18.945L16.11 21.51C16.29 21.69 16.5 21.78 16.74 21.78C16.98 21.78 17.19 21.69 17.37 21.51L22.455 16.425C22.62 16.26 22.7025 16.05 22.7025 15.795C22.7025 15.54 22.62 15.33 22.455 15.165C22.29 15 22.08 14.9175 21.825 14.9175C21.57 14.9175 21.36 15 21.195 15.165L16.74 19.62ZM18 27C16.755 27 15.585 26.7636 14.49 26.2908C13.395 25.818 12.4425 25.1769 11.6325 24.3675C10.8225 23.5581 10.1814 22.6056 9.7092 21.51C9.237 20.4144 9.0006 19.2444 9 18C8.9994 16.7556 9.2358 15.5856 9.7092 14.49C10.1826 13.3944 10.8237 12.4419 11.6325 11.6325C12.4413 10.8231 13.3938 10.182 14.49 9.7092C15.5862 9.2364 16.7562 9 18 9C19.2438 9 20.4138 9.2364 21.51 9.7092C22.6062 10.182 23.5587 10.8231 24.3675 11.6325C25.1763 12.4419 25.8177 13.3944 26.2917 14.49C26.7657 15.5856 27.0018 16.7556 27 18C26.9982 19.2444 26.7618 20.4144 26.2908 21.51C25.8198 22.6056 25.1787 23.5581 24.3675 24.3675C23.5563 25.1769 22.6038 25.8183 21.51 26.2917C20.4162 26.7651 19.2462 27.0012 18 27Z" fill="#1FC16F"/>
</svg>
