<svg width="40" height="40" viewBox="0 0 40 40" fill="none" xmlns="http://www.w3.org/2000/svg">
<path d="M25.6 17L24.816 25.398C24.6975 26.671 24.6387 27.307 24.368 27.788C24.1306 28.2114 23.7815 28.55 23.3647 28.761C22.8915 29 22.296 29 21.1013 29H18.8987C17.7049 29 17.1085 29 16.6353 28.76C16.2182 28.5491 15.8687 28.2106 15.6311 27.787C15.3623 27.307 15.3025 26.671 15.1831 25.398L14.4 17M21.4 23.5V18.5M18.6 23.5V18.5M13 14.5H17.3073M17.3073 14.5L17.6676 11.828C17.7721 11.342 18.1492 11 18.5823 11H21.4177C21.8508 11 22.2269 11.342 22.3324 11.828L22.6927 14.5M17.3073 14.5H22.6927M22.6927 14.5H27" stroke="#C3C3C3" stroke-width="1.5" stroke-linecap="round" stroke-linejoin="round"/>
</svg>
