<svg width="16" height="16" viewBox="0 0 16 16" fill="none" xmlns="http://www.w3.org/2000/svg">
<path d="M15.2727 2.90909H12.4228V0.727273C12.4228 0.327273 12.0939 0 11.692 0C11.2901 0 10.9613 0.327273 10.9613 0.727273V2.90909H8.11134C7.6802 2.90909 7.34405 3.28 7.38059 3.70909L7.46828 4.58909C10.1574 5.20727 12.4228 7.10545 12.4228 10.1818L12.4374 16H13.6797C14.2935 16 14.7977 15.5273 14.8708 14.9309L15.9961 3.70909C16.04 3.28 15.7038 2.90909 15.2727 2.90909ZM10.2305 14.5455H0.730751C0.328838 14.5455 0 14.8727 0 15.2727C0 15.6727 0.328838 16 0.730751 16H10.2305C10.6324 16 10.9613 15.6727 10.9613 15.2727C10.9613 14.8727 10.6324 14.5455 10.2305 14.5455ZM0.803827 10.1818H10.1574C10.6105 10.1818 10.9686 9.77455 10.8809 9.33818C10.4059 6.98909 7.94327 5.81091 5.48064 5.81091C3.018 5.81091 0.562679 6.98909 0.0803827 9.33818C-0.00730751 9.77455 0.358068 10.1818 0.803827 10.1818ZM10.2305 11.6364H0.730751C0.328838 11.6364 0 11.9636 0 12.3636C0 12.7636 0.328838 13.0909 0.730751 13.0909H10.2305C10.6324 13.0909 10.9613 12.7636 10.9613 12.3636C10.9613 11.9636 10.6324 11.6364 10.2305 11.6364Z" fill="#C3C3C3"/>
</svg>
