<svg width="24" height="24" viewBox="0 0 24 24" fill="none" xmlns="http://www.w3.org/2000/svg">
<path fill-rule="evenodd" clip-rule="evenodd" d="M13.7778 4V5.77778H5.77778V18.2222H18.2222V10.2222H20V19.1111C20 19.3469 19.9064 19.573 19.7397 19.7397C19.573 19.9064 19.3469 20 19.1111 20H4.88889C4.65314 20 4.42705 19.9064 4.26035 19.7397C4.09365 19.573 4 19.3469 4 19.1111V4.88889C4 4.65314 4.09365 4.42705 4.26035 4.26035C4.42705 4.09365 4.65314 4 4.88889 4H13.7778ZM19.0578 4.31467L19.6862 4.94311C19.7695 5.02646 19.8163 5.13948 19.8163 5.25733C19.8163 5.37518 19.7695 5.48821 19.6862 5.57156L11.3902 13.8667L9.61955 14.7378C9.56955 14.7626 9.51304 14.771 9.45797 14.762C9.40291 14.7529 9.35207 14.7269 9.31261 14.6874C9.27315 14.6479 9.24706 14.5971 9.23802 14.542C9.22899 14.487 9.23745 14.4304 9.26222 14.3804L10.1333 12.6098L18.4293 4.31378C18.5127 4.23046 18.6257 4.18365 18.7436 4.18365C18.8614 4.18365 18.9744 4.23046 19.0578 4.31378V4.31467Z" fill="#7D7D7D"/>
</svg>
