<svg width="18" height="18" viewBox="0 0 18 18" fill="none" xmlns="http://www.w3.org/2000/svg">
<path fill-rule="evenodd" clip-rule="evenodd" d="M9.15775 2C9.34292 2 9.52049 2.07355 9.65142 2.20448C9.78235 2.33541 9.8559 2.51299 9.8559 2.69815V3.36977L10.3125 3.12821C10.4762 3.04165 10.6675 3.02365 10.8445 3.07818C11.0214 3.13271 11.1695 3.25531 11.256 3.41899C11.3426 3.58267 11.3606 3.77403 11.3061 3.95098C11.2515 4.12793 11.1289 4.27597 10.9653 4.36254L9.8559 4.94898V6.27686C10.3551 6.40532 10.7998 6.66782 11.1503 7.02458L12.3008 6.36064L12.254 5.10676C12.2471 4.92169 12.314 4.74145 12.4399 4.60568C12.5659 4.4699 12.7406 4.38973 12.9257 4.38278C13.1107 4.37584 13.291 4.4427 13.4268 4.56865C13.5625 4.6946 13.6427 4.86933 13.6496 5.0544L13.6685 5.57103L14.2501 5.23522C14.3295 5.18866 14.4173 5.15826 14.5086 5.14579C14.5998 5.13332 14.6926 5.13901 14.7816 5.16255C14.8706 5.18608 14.9541 5.22699 15.0272 5.28292C15.1004 5.33884 15.1617 5.40868 15.2077 5.48842C15.2538 5.56816 15.2836 5.65621 15.2955 5.74752C15.3073 5.83882 15.301 5.93157 15.2769 6.02042C15.2528 6.10928 15.2113 6.19249 15.1549 6.26525C15.0985 6.33802 15.0282 6.39891 14.9482 6.44442L14.3666 6.77953L14.8044 7.0546C14.882 7.10337 14.9493 7.16697 15.0024 7.24174C15.0555 7.31652 15.0933 7.40103 15.1137 7.49043C15.1342 7.57982 15.1368 7.67237 15.1214 7.76278C15.1061 7.85319 15.0731 7.93969 15.0243 8.01735C14.9755 8.095 14.9119 8.16229 14.8372 8.21537C14.7624 8.26844 14.6779 8.30627 14.5885 8.32669C14.4991 8.34712 14.4065 8.34973 14.3161 8.33438C14.2257 8.31904 14.1392 8.28604 14.0616 8.23726L12.999 7.56983L11.8491 8.23307C11.9852 8.7225 11.9852 9.23978 11.8491 9.72921L12.999 10.3931L14.0616 9.72572C14.2184 9.62721 14.4079 9.59504 14.5885 9.63628C14.769 9.67752 14.9258 9.7888 15.0243 9.94563C15.1228 10.1025 15.155 10.292 15.1137 10.4726C15.0725 10.6531 14.9612 10.8099 14.8044 10.9084L14.3673 11.1828L14.9482 11.5186C15.0282 11.5641 15.0985 11.625 15.1549 11.6977C15.2113 11.7705 15.2528 11.8537 15.2769 11.9426C15.301 12.0314 15.3073 12.1242 15.2955 12.2155C15.2836 12.3068 15.2538 12.3948 15.2077 12.4746C15.1617 12.5543 15.1004 12.6241 15.0272 12.6801C14.9541 12.736 14.8706 12.7769 14.7816 12.8004C14.6926 12.824 14.5998 12.8297 14.5086 12.8172C14.4173 12.8047 14.3295 12.7743 14.2501 12.7278L13.6692 12.3926L13.6496 12.9086C13.6427 13.0936 13.5625 13.2684 13.4268 13.3943C13.291 13.5203 13.1107 13.5871 12.9257 13.5802C12.7406 13.5733 12.5659 13.4931 12.4399 13.3573C12.314 13.2215 12.2471 13.0413 12.254 12.8562L12.3008 11.6023L11.1503 10.9384C10.7998 11.2945 10.3544 11.5577 9.8559 11.6861V13.014L10.9653 13.6004C11.1289 13.687 11.2515 13.835 11.3061 14.012C11.3606 14.1889 11.3426 14.3803 11.256 14.544C11.1695 14.7077 11.0214 14.8303 10.8445 14.8848C10.6675 14.9393 10.4762 14.9213 10.3125 14.8348L9.8559 14.5932V15.2648C9.8559 15.45 9.78235 15.6276 9.65142 15.7585C9.52049 15.8894 9.34292 15.963 9.15775 15.963C8.97259 15.963 8.79502 15.8894 8.66409 15.7585C8.53316 15.6276 8.45961 15.45 8.45961 15.2648V14.5932L8.00302 14.8348C7.92197 14.8776 7.83327 14.9041 7.74199 14.9127C7.65071 14.9213 7.55864 14.9118 7.47102 14.8848C7.3834 14.8578 7.30196 14.8138 7.23135 14.7553C7.16074 14.6968 7.10233 14.625 7.05947 14.544C7.01661 14.4629 6.99013 14.3742 6.98155 14.283C6.97296 14.1917 6.98244 14.0996 7.00944 14.012C7.03644 13.9244 7.08044 13.8429 7.13891 13.7723C7.19739 13.7017 7.2692 13.6433 7.35025 13.6004L8.45961 13.014V11.6861C7.96814 11.5589 7.52065 11.3002 7.16524 10.9377L6.01469 11.6023L6.06146 12.8562C6.06486 12.9479 6.05017 13.0393 6.01823 13.1252C5.9863 13.2112 5.93775 13.29 5.87535 13.3572C5.81295 13.4244 5.73793 13.4786 5.65457 13.5168C5.5712 13.555 5.48113 13.5765 5.3895 13.5798C5.29786 13.5832 5.20645 13.5685 5.12049 13.5366C5.03453 13.5047 4.95571 13.4561 4.88851 13.3937C4.82132 13.3313 4.76707 13.2563 4.72887 13.1729C4.69067 13.0896 4.66926 12.9995 4.66586 12.9079L4.64701 12.3919L4.06546 12.7271C3.98598 12.7762 3.89744 12.8089 3.80509 12.8233C3.71274 12.8376 3.61846 12.8332 3.52782 12.8104C3.43719 12.7876 3.35206 12.7468 3.27748 12.6905C3.20289 12.6342 3.14037 12.5635 3.09363 12.4826C3.04688 12.4017 3.01685 12.3122 3.00533 12.2194C2.9938 12.1267 3.00102 12.0326 3.02654 11.9427C3.05206 11.8528 3.09538 11.7689 3.15391 11.6961C3.21245 11.6232 3.28501 11.5628 3.36731 11.5186L3.94887 11.1828L3.51113 10.9077C3.35845 10.8073 3.25119 10.6511 3.21236 10.4726C3.17354 10.2941 3.20624 10.1075 3.30346 9.95276C3.40068 9.79807 3.55466 9.68766 3.73236 9.64521C3.91006 9.60276 4.09732 9.63166 4.25396 9.72572L5.31654 10.3931L6.46639 9.72921C6.33044 9.24 6.33044 8.72298 6.46639 8.23377L5.31654 7.57053L4.25396 8.23726C4.09732 8.33131 3.91006 8.36021 3.73236 8.31777C3.55466 8.27532 3.40068 8.1649 3.30346 8.01021C3.20624 7.85553 3.17354 7.66889 3.21236 7.49036C3.25119 7.31183 3.35845 7.15564 3.51113 7.0553L3.94887 6.78023L3.36731 6.44511C3.20687 6.35253 3.08977 6.20001 3.04179 6.0211C2.9938 5.84218 3.01886 5.65154 3.11144 5.49109C3.20402 5.33065 3.35654 5.21356 3.53545 5.16557C3.71437 5.11759 3.90502 5.14264 4.06546 5.23522L4.64701 5.57103L4.66586 5.0544C4.67281 4.86933 4.75299 4.6946 4.88876 4.56865C4.95599 4.50628 5.03484 4.45777 5.12082 4.42588C5.20679 4.39399 5.29821 4.37934 5.38985 4.38278C5.48148 4.38622 5.57154 4.40767 5.65489 4.44592C5.73823 4.48416 5.81323 4.53845 5.8756 4.60568C5.93796 4.6729 5.98648 4.75176 6.01837 4.83773C6.05026 4.92371 6.0649 5.01513 6.06146 5.10676L6.01469 6.36064L7.16524 7.02528C7.52065 6.66279 7.96814 6.40405 8.45961 6.27686V4.94898L7.35025 4.36254C7.18657 4.27597 7.06397 4.12793 7.00944 3.95098C6.95491 3.77403 6.97291 3.58267 7.05947 3.41899C7.14603 3.25531 7.29407 3.13271 7.47102 3.07818C7.64797 3.02365 7.83933 3.04165 8.00302 3.12821L8.45961 3.36977V2.69815C8.45961 2.51299 8.53316 2.33541 8.66409 2.20448C8.79502 2.07355 8.97259 2 9.15775 2ZM9.15775 10.3778C9.52808 10.3778 9.88323 10.2307 10.1451 9.96882C10.4069 9.70696 10.5541 9.35181 10.5541 8.98149C10.5541 8.61117 10.4069 8.25601 10.1451 7.99416C9.88323 7.7323 9.52808 7.58519 9.15775 7.58519C8.78743 7.58519 8.43228 7.7323 8.17042 7.99416C7.90857 8.25601 7.76146 8.61117 7.76146 8.98149C7.76146 9.35181 7.90857 9.70696 8.17042 9.96882C8.43228 10.2307 8.78743 10.3778 9.15775 10.3778Z" fill="#32E389"/>
</svg>
