<svg width="18" height="18" viewBox="0 0 18 18" fill="none" xmlns="http://www.w3.org/2000/svg">
<path d="M9 1.5C5.0025 4.9125 3 7.86 3 10.35C3 14.085 5.85 16.5 9 16.5C12.15 16.5 15 14.085 15 10.35C15 7.86 12.9975 4.9125 9 1.5ZM5.8725 10.5C6.15 10.5 6.375 10.695 6.4275 10.965C6.735 12.63 8.1375 13.2 9.1575 13.1175C9.48 13.1025 9.75 13.3575 9.75 13.68C9.75 13.98 9.51 14.2275 9.21 14.2425C7.6125 14.34 5.745 13.425 5.3175 11.1525C5.30447 11.0721 5.30905 10.9898 5.33094 10.9113C5.35283 10.8329 5.39151 10.7601 5.44428 10.6981C5.49706 10.636 5.56269 10.5862 5.63662 10.552C5.71056 10.5178 5.79104 10.5 5.8725 10.5Z" fill="#32E389"/>
</svg>
