<svg width="24" height="24" viewBox="0 0 24 24" fill="none" xmlns="http://www.w3.org/2000/svg">
<path d="M9.49985 13.2496H11.6872M9.49985 10.7498H14.4995M12.6247 6.6875H11.3747C9.31236 6.6875 8.28117 6.6875 7.64059 7.32809C7 7.96867 7 8.99986 7 11.0622V13.8746C7 15.9369 7 16.9681 7.64059 17.6087C8.28117 18.2493 9.31236 18.2493 11.3747 18.2493H13.2496L16.9994 14.4995V11.0622C16.9994 8.99986 16.9994 7.96867 16.3588 7.32809C15.7182 6.6875 14.687 6.6875 12.6247 6.6875Z" stroke="#C3C3C3" stroke-linecap="round" stroke-linejoin="round"/>
<path d="M16.9995 14.4995C15.2321 14.4995 14.3478 14.4995 13.7991 15.0488C13.2498 15.5975 13.2498 16.4818 13.2498 18.2492M14.8122 5.75V7.62489M9.1875 5.75V7.62489M11.9998 5.75V7.62489" stroke="#C3C3C3" stroke-linecap="round" stroke-linejoin="round"/>
</svg>
