<svg width="44" height="44" viewBox="0 0 44 44" fill="none" xmlns="http://www.w3.org/2000/svg">
<path d="M9.15439 8.14215L13.2044 36.1354C13.241 36.3756 13.3623 36.5948 13.5464 36.7534C13.7305 36.912 13.9653 36.9995 14.2083 37H29.7933C30.0373 37.0031 30.274 36.9169 30.4589 36.7577C30.6438 36.5984 30.7641 36.3771 30.7973 36.1354L34.8473 8.14215C34.8662 7.99945 34.8544 7.85433 34.8127 7.71656C34.7709 7.57879 34.7002 7.45154 34.6052 7.34337C34.5102 7.23519 34.3932 7.14858 34.262 7.08936C34.1307 7.03014 33.9884 6.99967 33.8444 7.00001H10.1583C10.0142 6.99937 9.87157 7.02961 9.74009 7.08869C9.60862 7.14778 9.49132 7.23434 9.3961 7.34256C9.30089 7.45077 9.22995 7.57812 9.18807 7.71605C9.14619 7.85397 9.13434 7.99927 9.15332 8.14215" fill="#AEDDFF"/>
<path d="M11.833 14.8152L14.4697 33.2085C14.5126 33.5395 14.8019 33.7849 15.134 33.7849H28.8548C29.1869 33.7849 29.4762 33.5395 29.519 33.2085L32.1655 14.8152C32.2726 14.0781 31.7048 13.4277 30.9548 13.4277H13.0437C12.3044 13.4277 11.7365 14.0888 11.833 14.8152Z" fill="#F3EEF8"/>
<path d="M31.4889 10.4444C31.5089 10.3051 31.5012 10.1633 31.4664 10.0269C31.4315 9.89058 31.3702 9.76244 31.2858 9.64982C31.2014 9.53719 31.0957 9.44229 30.9746 9.37052C30.8536 9.29876 30.7196 9.25154 30.5803 9.23156C30.441 9.21158 30.2991 9.21923 30.1628 9.25408C30.0265 9.28893 29.8983 9.35028 29.7857 9.43465C29.6731 9.51902 29.5782 9.62475 29.5064 9.74579C29.4346 9.86684 29.3874 10.0008 29.3674 10.1401L25.9785 33.7855H28.1428L31.4889 10.4444Z" fill="white"/>
</svg>
