<svg width="18" height="18" viewBox="0 0 18 18" fill="none" xmlns="http://www.w3.org/2000/svg">
<path d="M11.0948 2.88065C11.1523 2.8632 11.2058 2.83438 11.2521 2.79589C11.2983 2.7574 11.3364 2.71002 11.364 2.65656C11.3916 2.60311 11.4083 2.54465 11.4129 2.48466C11.4175 2.42467 11.4101 2.36436 11.391 2.30729C11.3719 2.25023 11.3416 2.19757 11.3018 2.15243C11.262 2.10729 11.2136 2.07059 11.1594 2.0445C11.1051 2.01841 11.0462 2.00346 10.9861 2.00053C10.926 1.9976 10.866 2.00676 10.8095 2.02745C9.96616 2.30825 9.43966 3.00125 9.13006 3.74375C9.08829 3.84404 9.05016 3.94581 9.01576 4.04885C8.84714 3.72949 8.63142 3.43732 8.37586 3.18215C8.02961 2.83591 7.61637 2.56394 7.16141 2.38289C6.70645 2.20183 6.21933 2.11549 5.72986 2.12915C5.20786 2.14355 4.79116 2.56115 4.77676 3.08225C4.7631 3.57173 4.84943 4.05884 5.03049 4.5138C5.21155 4.96877 5.48351 5.38201 5.82976 5.72825L5.85766 5.75525C5.10152 5.91875 4.41817 6.32147 3.90884 6.90375C3.39951 7.48603 3.09129 8.21689 3.02986 8.98805L3.02446 9.05465C2.90564 10.5371 3.22152 12.0221 3.93346 13.3279L4.25746 13.9201C4.26586 13.9357 4.27546 13.9507 4.28626 13.9651L5.18626 15.2269C5.39024 15.5125 5.654 15.7503 5.95921 15.9237C6.26441 16.0971 6.60373 16.2019 6.95355 16.2309C7.30337 16.2598 7.6553 16.2122 7.98486 16.0914C8.31442 15.9705 8.61369 15.7793 8.86186 15.5311C8.89997 15.4929 8.94522 15.4627 8.99502 15.4421C9.04482 15.4214 9.0982 15.4108 9.15211 15.4108C9.20601 15.4108 9.25939 15.4214 9.30919 15.4421C9.359 15.4627 9.40425 15.4929 9.44236 15.5311C9.69052 15.7793 9.9898 15.9705 10.3194 16.0914C10.6489 16.2122 11.0008 16.2598 11.3507 16.2309C11.7005 16.2019 12.0398 16.0971 12.345 15.9237C12.6502 15.7503 12.914 15.5125 13.118 15.2269L14.018 13.966L14.0468 13.9201L14.3699 13.3279C15.0818 12.0221 15.3977 10.5371 15.2789 9.05465L15.2744 8.98805C15.2345 8.49106 15.0919 8.00776 14.8555 7.56877C14.6191 7.12979 14.2941 6.7447 13.9011 6.4379C13.5081 6.1311 13.0556 5.90928 12.5724 5.7865C12.0891 5.66372 11.5857 5.64266 11.0939 5.72465L9.60256 5.97305C9.61156 5.36015 9.71956 4.67075 9.96166 4.08935C10.2137 3.48185 10.5881 3.04985 11.0939 2.88065M6.36886 8.28065C6.23069 8.32434 6.10253 8.39495 5.99178 8.4884C5.88102 8.58185 5.78987 8.6963 5.72356 8.82515C5.55706 9.13835 5.44276 9.65495 5.54806 10.4983C5.55987 10.6152 5.52548 10.7321 5.45225 10.8239C5.37902 10.9158 5.27275 10.9754 5.15615 10.99C5.03956 11.0046 4.92188 10.973 4.82828 10.9019C4.73469 10.8309 4.67259 10.7261 4.65526 10.6099C4.53556 9.65225 4.64626 8.93135 4.92976 8.40125C5.21776 7.86125 5.65606 7.56965 6.08446 7.42655C6.19772 7.38884 6.32132 7.39766 6.42808 7.45108C6.53483 7.5045 6.61599 7.59814 6.65371 7.7114C6.69142 7.82467 6.6826 7.94827 6.62918 8.05502C6.57576 8.16178 6.48212 8.24294 6.36886 8.28065Z" fill="#32E389"/>
</svg>
