<svg width="16" height="16" viewBox="0 0 16 16" fill="none" xmlns="http://www.w3.org/2000/svg">
<path d="M10.9613 15.2727C10.9613 15.6727 10.6324 16 10.2305 16H0.730751C0.328838 16 0 15.6727 0 15.2727C0 14.8727 0.328838 14.5455 0.730751 14.5455H10.2305C10.6324 14.5455 10.9613 14.8727 10.9613 15.2727ZM15.9961 3.70909C16.04 3.28 15.7038 2.90909 15.2727 2.90909H12.4228V0.727273C12.4228 0.327273 12.0939 0 11.692 0C11.2901 0 10.9613 0.327273 10.9613 0.727273V2.90909H8.11134C7.6802 2.90909 7.34405 3.28 7.38059 3.70909L7.55597 5.46182L12.4228 10.3055L15.0681 12.9382L15.9961 3.70909ZM14.7539 15.7164C14.8216 15.6491 14.8754 15.5692 14.912 15.4812C14.9487 15.3932 14.9676 15.2989 14.9676 15.2036C14.9676 15.1084 14.9487 15.0141 14.912 14.9261C14.8754 14.8381 14.8216 14.7582 14.7539 14.6909L8.03827 8L5.85332 5.82545L1.32266 1.31636C1.25506 1.24894 1.17475 1.19545 1.08635 1.15896C0.997951 1.12246 0.903186 1.10368 0.80748 1.10368C0.711775 1.10368 0.617009 1.12246 0.528608 1.15896C0.440206 1.19545 0.359905 1.24894 0.292301 1.31636C-2.17781e-08 1.6 0 2.05818 0.284993 2.34182L3.93144 5.97091C2.06072 6.36364 0.453066 7.48364 0.0730752 9.33818C-0.0073075 9.78182 0.358068 10.1818 0.803827 10.1818H8.16249L9.624 11.6364H0.730751C0.328838 11.6364 0 11.9636 0 12.3636C0 12.7636 0.328838 13.0909 0.730751 13.0909H10.2305C10.4644 13.0909 10.6617 12.9745 10.8005 12.8L13.7235 15.7091C14.0085 16 14.4689 16 14.7539 15.7164Z" fill="#C3C3C3"/>
</svg>
