<svg width="163" height="117" viewBox="0 0 163 117" fill="none" xmlns="http://www.w3.org/2000/svg">
<g clip-path="url(#clip0_2329_46184)">
<path d="M27.6432 10.7916C27.5284 9.14263 28.5818 7.55893 30.2302 6.90562C31.8787 6.2523 33.731 6.68439 34.777 7.96429C35.1887 7.56192 35.6658 7.24324 36.206 7.02916C37.194 6.63759 38.2854 6.62509 39.2401 6.99442C40.1948 7.36374 40.9347 8.08464 41.2969 8.99852C41.9183 10.5663 41.3063 12.3937 39.8242 13.4396L42.0109 18.957C42.1477 19.302 41.9788 19.6926 41.6338 19.8293L30.7762 24.1325C30.4312 24.2692 30.0406 24.1004 29.9039 23.7554L27.7172 18.238C26.8426 18.3622 25.9646 18.2111 25.2201 17.8083C24.4756 17.4056 23.9067 16.7737 23.602 16.0115C23.2398 15.0976 23.2849 14.0656 23.7274 13.1425C24.1699 12.2194 24.9736 11.4809 25.9616 11.0893C26.5017 10.8752 27.0677 10.7805 27.6432 10.7916Z" fill="white"/>
</g>
<ellipse cx="33.8684" cy="98.8373" rx="13.72" ry="10.976" fill="url(#paint0_linear_2329_46184)"/>
<ellipse cx="72.3958" cy="98.8373" rx="13.72" ry="10.976" fill="url(#paint1_linear_2329_46184)"/>
<path d="M53.1768 21.1113C57.5221 21.1113 61.7094 21.7513 65.6406 22.9336C64.9513 24.0902 64.5547 25.4416 64.5547 26.8857C64.5548 30.198 66.6388 33.0224 69.5664 34.123C69.4864 34.569 69.4424 35.0281 69.4424 35.4971C69.4424 39.7667 72.9042 43.2284 77.1738 43.2285C78.248 43.2285 79.2706 43.0082 80.2002 42.6123C81.5939 44.6386 83.928 45.9677 86.5732 45.9678C88.1903 45.9678 89.6905 45.4699 90.9316 44.6211C93.0743 49.3292 94.2636 54.5168 94.2637 59.9678C94.2637 81.4276 75.8686 98.8252 53.1768 98.8252C30.4849 98.8252 12.0898 81.4277 12.0898 59.9678C12.0901 38.508 30.485 21.1113 53.1768 21.1113Z" fill="url(#paint2_linear_2329_46184)"/>
<circle cx="62.1293" cy="56.5414" r="11.1371" fill="white"/>
<mask id="mask0_2329_46184" style="mask-type:alpha" maskUnits="userSpaceOnUse" x="50" y="45" width="24" height="23">
<circle cx="62.1332" cy="56.5414" r="11.1371" fill="#D9D9D9"/>
</mask>
<g mask="url(#mask0_2329_46184)">
<circle cx="66.9322" cy="55.2779" r="6.91269" fill="#202020"/>
<circle cx="66.9322" cy="55.2779" r="6.91269" fill="black" fill-opacity="0.2"/>
</g>
<circle cx="43.5004" cy="56.5414" r="11.1371" fill="white"/>
<mask id="mask1_2329_46184" style="mask-type:alpha" maskUnits="userSpaceOnUse" x="32" y="45" width="23" height="23">
<circle cx="43.5043" cy="56.5414" r="11.1371" fill="#D9D9D9"/>
</mask>
<g mask="url(#mask1_2329_46184)">
<circle cx="48.3033" cy="55.2779" r="6.91269" fill="#202020"/>
<circle cx="48.3033" cy="55.2779" r="6.91269" fill="black" fill-opacity="0.2"/>
</g>
<path d="M42.5508 71.0078C43.9474 77.9441 51.3775 80.8342 56.1028 75.1824" stroke="#202020" stroke-width="2.688" stroke-linecap="round"/>
<path d="M42.5508 71.0078C43.9474 77.9441 51.3775 80.8342 56.1028 75.1824" stroke="black" stroke-opacity="0.2" stroke-width="2.688" stroke-linecap="round"/>
<ellipse cx="12.1441" cy="28.9842" rx="10.08" ry="8.0358" transform="rotate(-58.1622 12.1441 28.9842)" fill="#1FC16F"/>
<path d="M145.153 108.024C147.409 108.024 149.326 107.235 150.905 105.656C152.484 104.077 153.273 102.16 153.273 99.9043V91.7843C153.273 91.0174 153.014 90.375 152.494 89.8572C151.974 89.3393 151.332 89.0794 150.567 89.0776H118.019C117.794 87.589 117.185 86.2582 116.192 85.0853C115.2 83.9124 113.982 83.0779 112.538 82.5816L102.591 79.266C101.869 79.0404 101.17 79.0855 100.493 79.4013C99.8168 79.7171 99.3657 80.2359 99.1401 80.9576C98.9146 81.6794 98.9705 82.3786 99.3079 83.0553C99.6454 83.732 100.176 84.1831 100.899 84.4086L110.846 87.7243C111.388 87.9047 111.828 88.2323 112.167 88.7068C112.507 89.1814 112.675 89.711 112.673 90.2956V99.9043C112.673 102.16 113.463 104.077 115.042 105.656C116.621 107.235 118.538 108.024 120.793 108.024H145.153Z" fill="#202020"/>
<path d="M145.153 108.024C147.409 108.024 149.326 107.235 150.905 105.656C152.484 104.077 153.273 102.16 153.273 99.9043V91.7843C153.273 91.0174 153.014 90.375 152.494 89.8572C151.974 89.3393 151.332 89.0794 150.567 89.0776H118.019C117.794 87.589 117.185 86.2582 116.192 85.0853C115.2 83.9124 113.982 83.0779 112.538 82.5816L102.591 79.266C101.869 79.0404 101.17 79.0855 100.493 79.4013C99.8168 79.7171 99.3657 80.2359 99.1401 80.9576C98.9146 81.6794 98.9705 82.3786 99.3079 83.0553C99.6454 83.732 100.176 84.1831 100.899 84.4086L110.846 87.7243C111.388 87.9047 111.828 88.2323 112.167 88.7068C112.507 89.1814 112.675 89.711 112.673 90.2956V99.9043C112.673 102.16 113.463 104.077 115.042 105.656C116.621 107.235 118.538 108.024 120.793 108.024H145.153Z" fill="black" fill-opacity="0.2"/>
<ellipse cx="10.08" cy="8.0358" rx="10.08" ry="8.0358" transform="matrix(0.374673 -0.927157 -0.927157 -0.374673 101.188 96.5586)" fill="#1FC16F"/>
<path d="M134.398 79.7133C134.286 79.8067 134.169 79.8813 134.048 79.9373C133.927 79.9933 133.792 80.0213 133.642 80.0213C133.491 80.0213 133.342 79.9885 133.194 79.9228C133.045 79.8571 132.914 79.7686 132.802 79.6573C132.036 78.836 131.471 77.996 131.107 77.1373C130.743 76.2787 130.561 75.3733 130.563 74.4213C130.563 73.7307 130.665 73.0027 130.871 72.2373C131.076 71.472 131.431 70.4827 131.935 69.2693C132.364 68.2053 132.663 67.3889 132.831 66.8199C132.999 66.2509 133.083 65.7234 133.083 65.2373C133.083 64.6027 132.943 64.0102 132.663 63.4599C132.383 62.9096 131.944 62.3541 131.347 61.7933C131.235 61.6813 131.146 61.5507 131.081 61.4013C131.016 61.252 130.983 61.1027 130.983 60.9533C130.982 60.804 131.01 60.6689 131.067 60.5479C131.123 60.4269 131.198 60.3101 131.291 60.1973C131.403 60.0853 131.528 60.0013 131.668 59.9453C131.808 59.8893 131.952 59.8613 132.102 59.8613C132.251 59.8613 132.391 59.8893 132.522 59.9453C132.652 60.0013 132.774 60.076 132.886 60.1693C133.707 60.9347 134.318 61.7373 134.719 62.5773C135.12 63.4173 135.321 64.304 135.322 65.2373C135.322 65.8907 135.223 66.5769 135.027 67.2959C134.831 68.0149 134.49 68.9528 134.006 70.1093C133.539 71.2293 133.222 72.088 133.054 72.6853C132.886 73.2827 132.802 73.852 132.802 74.3933C132.802 75.0467 132.937 75.6769 133.208 76.2839C133.479 76.8909 133.894 77.5021 134.454 78.1173C134.547 78.2293 134.622 78.3507 134.678 78.4813C134.734 78.612 134.762 78.752 134.762 78.9013C134.762 79.0507 134.734 79.1955 134.678 79.3359C134.622 79.4763 134.528 79.6021 134.398 79.7133ZM139.858 79.7133C139.746 79.8067 139.629 79.8813 139.508 79.9373C139.387 79.9933 139.252 80.0213 139.102 80.0213C138.951 80.0213 138.802 79.9885 138.654 79.9228C138.505 79.8571 138.374 79.7686 138.262 79.6573C137.496 78.836 136.931 78.0005 136.567 77.1508C136.203 76.3011 136.021 75.4006 136.022 74.4493C136.022 73.7587 136.124 73.0213 136.33 72.2373C136.535 71.4533 136.89 70.464 137.394 69.2693C137.823 68.2053 138.122 67.3933 138.29 66.8333C138.458 66.2733 138.542 65.7507 138.542 65.2653C138.542 64.6307 138.402 64.0289 138.122 63.4599C137.842 62.8909 137.403 62.3354 136.806 61.7933C136.694 61.6813 136.61 61.5555 136.554 61.4159C136.498 61.2763 136.47 61.1314 136.47 60.9813C136.47 60.8313 136.493 60.6957 136.54 60.5748C136.587 60.4538 136.657 60.3373 136.75 60.2253C136.862 60.1133 136.992 60.0245 137.142 59.9588C137.291 59.8931 137.44 59.8606 137.59 59.8613C137.739 59.8621 137.874 59.8901 137.996 59.9453C138.118 60.0006 138.234 60.0753 138.346 60.1693C139.167 60.9347 139.778 61.7373 140.18 62.5773C140.582 63.4173 140.782 64.304 140.782 65.2373C140.782 65.8907 140.684 66.5769 140.488 67.2959C140.292 68.0149 139.952 68.9621 139.466 70.1373C138.999 71.2573 138.682 72.116 138.514 72.7133C138.346 73.3107 138.262 73.8707 138.262 74.3933C138.262 75.0467 138.402 75.6862 138.682 76.3119C138.962 76.9376 139.382 77.5488 139.942 78.1453C140.035 78.2573 140.105 78.3787 140.151 78.5093C140.197 78.64 140.221 78.7707 140.222 78.9013C140.222 79.0507 140.194 79.2 140.138 79.3493C140.082 79.4987 139.988 79.62 139.858 79.7133ZM128.938 79.7133C128.826 79.8067 128.709 79.8813 128.587 79.9373C128.465 79.9933 128.33 80.0213 128.182 80.0213C128.033 80.0213 127.884 79.9885 127.734 79.9228C127.583 79.8571 127.453 79.7686 127.342 79.6573C126.576 78.836 126.011 78.0005 125.647 77.1508C125.283 76.3011 125.101 75.4006 125.102 74.4493C125.102 73.7587 125.204 73.0213 125.41 72.2373C125.615 71.4533 125.97 70.464 126.474 69.2693C126.903 68.2053 127.202 67.3933 127.37 66.8333C127.538 66.2733 127.622 65.7507 127.622 65.2653C127.622 64.6307 127.482 64.0289 127.202 63.4599C126.922 62.8909 126.483 62.3354 125.886 61.7933C125.755 61.6813 125.662 61.5555 125.606 61.4159C125.55 61.2763 125.522 61.1314 125.522 60.9813C125.522 60.8313 125.55 60.6913 125.606 60.5613C125.662 60.4314 125.736 60.3101 125.83 60.1973C125.942 60.0853 126.068 60.0013 126.208 59.9453C126.348 59.8893 126.493 59.8613 126.642 59.8613C126.79 59.8613 126.93 59.8893 127.062 59.9453C127.193 60.0013 127.314 60.076 127.426 60.1693C128.247 60.9347 128.858 61.7329 129.26 62.5639C129.662 63.3949 129.862 64.2861 129.862 65.2373C129.862 65.8907 129.768 66.5769 129.582 67.2959C129.395 68.0149 129.059 68.9528 128.574 70.1093C128.107 71.2293 127.79 72.088 127.622 72.6853C127.454 73.2827 127.37 73.852 127.37 74.3933C127.37 75.0467 127.505 75.6862 127.776 76.3119C128.047 76.9376 128.462 77.5488 129.022 78.1453C129.115 78.2573 129.185 78.3787 129.232 78.5093C129.279 78.64 129.302 78.7707 129.302 78.9013C129.302 79.0507 129.274 79.2 129.218 79.3493C129.162 79.4987 129.068 79.62 128.938 79.7133Z" fill="white"/>
<path d="M32.8402 39.0167C34.4712 34.8212 40.8821 32.3451 45.04 35.8988" stroke="#202020" stroke-width="2.688" stroke-linecap="round"/>
<path d="M32.8402 39.0167C34.4712 34.8212 40.8821 32.3451 45.04 35.8988" stroke="black" stroke-opacity="0.2" stroke-width="2.688" stroke-linecap="round"/>
<defs>
<linearGradient id="paint0_linear_2329_46184" x1="33.8684" y1="87.8613" x2="33.8684" y2="109.813" gradientUnits="userSpaceOnUse">
<stop offset="0.5" stop-color="#202020"/>
<stop offset="1" stop-color="#474747"/>
</linearGradient>
<linearGradient id="paint1_linear_2329_46184" x1="72.3958" y1="87.8613" x2="72.3958" y2="109.813" gradientUnits="userSpaceOnUse">
<stop offset="0.5" stop-color="#202020"/>
<stop offset="1" stop-color="#474747"/>
</linearGradient>
<linearGradient id="paint2_linear_2329_46184" x1="53.1768" y1="21.1113" x2="53.1768" y2="98.8252" gradientUnits="userSpaceOnUse">
<stop stop-color="#32E389"/>
<stop offset="1" stop-color="#1FC16F"/>
</linearGradient>
<clipPath id="clip0_2329_46184">
<rect width="22.2392" height="22.2392" fill="white" transform="translate(18.7617 8.19336) rotate(-21.6198)"/>
</clipPath>
</defs>
</svg>
