<svg width="36" height="36" viewBox="0 0 36 36" fill="none" xmlns="http://www.w3.org/2000/svg">
<path d="M16.2337 6.00391L8.0337 7.49912C8.0337 7.49912 8.13116 15.6072 8.04484 19.4079C7.95852 23.2086 7.9279 28.5963 7.98915 29.2785C8.04206 29.8716 9.86861 31.7566 9.86861 31.7566L16.0193 33.9785L21.9973 33.7641L27.2069 31.3306C27.2069 31.3306 27.9838 30.2864 28.1313 29.9328C28.2455 29.6627 28.1397 22.1004 28.1397 18.5002C28.1397 15.468 28.2928 7.2346 28.2928 7.2346L16.2337 6.00391Z" fill="#FEB502"/>
<path d="M8.06193 30.65C8.1566 31.062 11.4617 34.7848 18.1358 34.7848C24.81 34.7848 28.0092 31.5187 28.0705 31.1818C28.1317 30.8449 28.1428 29.8843 28.1428 29.8843C28.1428 29.8843 24.9018 33.4065 18.2277 33.4371C11.4589 33.4677 7.98119 29.2383 7.98119 29.2383C7.98119 29.2383 7.96727 30.2379 8.06193 30.65Z" fill="#B0B0B0"/>
<path d="M10.8818 3.0625L8.02222 5.20647C8.02222 5.20647 7.93869 6.12253 7.94147 6.55411C7.94704 7.19451 8.03336 7.50358 8.03336 7.50358C8.03336 7.50358 9.95458 10.6221 18.2464 10.8448C25.7392 11.0453 28.2758 8.21081 28.2758 8.21081C28.2758 8.21081 28.596 7.53978 28.6656 7.05529C28.7825 6.25618 28.6433 5.57679 28.6433 5.57679L10.8818 3.0625Z" fill="#E0E0E0"/>
<path d="M18.383 1.25548C13.4241 1.0745 8.03073 2.75626 8.0001 5.3875C7.96947 8.1134 14.8302 9.71163 18.2271 9.73669C22.4454 9.76732 28.5766 8.26654 28.6685 5.81629C28.7632 3.36882 23.807 1.45317 18.383 1.25548Z" fill="#B0B0B0"/>
<path d="M18.3836 4.83731C18.3836 4.83731 10.3618 6.36872 9.90235 5.97055C9.44293 5.57239 9.07539 5.23548 10.1167 4.31664C11.1581 3.39779 14.0316 2.16153 18.6286 2.35643C23.4511 2.56248 27.043 4.19691 27.2741 5.49443C27.3158 5.72274 27.2518 6.1404 26.9901 6.28519C26.9316 6.3186 25.467 7.02583 25.467 7.02583C25.467 7.02583 18.1692 4.80668 18.3836 4.83731Z" fill="#858585"/>
<path d="M23.3446 3.86454C20.2344 2.98468 15.1474 2.75636 12.4521 3.95086C9.75685 5.14535 9.92391 5.98345 9.92391 5.98345C9.92391 5.98345 12.2405 8.1664 18.2937 8.23879C24.7563 8.31676 26.9893 6.27859 26.9893 6.27859C26.9893 6.27859 26.8056 4.84464 23.3446 3.86454Z" fill="#E0E0E0"/>
<path d="M11.4909 13.1986C11.2933 13.296 11.2766 13.658 11.2459 14.1174C11.2153 14.5768 11.1234 27.8054 11.1847 27.9279C11.2459 28.0504 13.3593 30.3169 18.1679 30.225C22.7927 30.1359 25.0564 28.4959 25.0564 28.4959C25.0564 28.4959 25.1177 20.1456 25.1483 18.1854C25.1789 16.2252 25.4017 13.9281 25.1483 13.697C24.7279 13.3127 22.7593 13.839 18.1985 13.7777C13.6377 13.7165 11.8585 13.0148 11.4909 13.1986Z" fill="#719921"/>
<path d="M12.472 14.6381C12.2548 14.9611 12.3411 20.9196 12.3411 22.1141C12.3411 23.3086 12.33 27.0926 12.33 27.0926C12.33 27.0926 14.1928 28.8523 17.8598 28.8467C21.5797 28.8412 23.8824 27.6216 23.8824 27.6216C23.8824 27.6216 23.9854 22.568 24.016 20.3043C24.0467 18.0406 24.1051 15.3537 24.1107 14.9388C24.1163 14.5907 20.6302 15.1532 17.8765 15.0307C14.3877 14.8803 12.6558 14.3624 12.472 14.6381Z" fill="#E5DDA0"/>
<path d="M14.1541 16.8661C13.9676 16.958 13.8562 17.0555 13.82 17.3784C13.7727 17.7961 13.9564 18.0578 14.1653 18.1748C14.3741 18.2917 16.0586 18.378 18.172 18.3892C20.3856 18.4031 22.2678 18.3363 22.2678 18.3363C22.2678 18.3363 22.4989 18.0801 22.4989 17.6179C22.4989 17.2448 22.3931 17.0777 22.2678 16.9914C22.1397 16.9051 19.6728 17.0193 18.0717 17.0081C16.2647 16.9942 14.3379 16.7742 14.1541 16.8661Z" fill="#749B22"/>
<path d="M14.1758 23.1108C14.1758 25.341 15.6153 27.0813 18.2605 27.0562C20.9056 27.0312 22.0277 24.6227 21.9525 23.2249C21.8607 21.507 20.8833 19.4883 18.099 19.4883C15.3146 19.4883 14.1758 21.4875 14.1758 23.1108Z" fill="#FF5119"/>
</svg>
