<svg width="36" height="36" viewBox="0 0 36 36" fill="none" xmlns="http://www.w3.org/2000/svg">
<path d="M4.58539 16.3166C6.10414 11.1697 12.3366 9.09125 17.146 9.07437C21.6995 9.0575 27.1332 10.4244 30.1566 14.1116C30.8345 14.9356 31.3098 15.9031 31.4898 16.9494C31.861 19.0784 30.7529 21.275 29.0569 22.5772C27.5133 23.7676 25.7231 24.5978 23.8173 25.0072C22.771 25.2322 21.6854 25.3925 20.6138 25.4797C19.2329 25.5894 17.8126 25.5725 16.4316 25.4712C15.2335 25.3841 14.0213 25.2266 12.8457 24.9959C10.6604 24.5628 8.29508 23.9187 6.54851 22.4984C5.74414 21.8431 5.11414 20.8756 4.78508 19.9053C4.43633 18.8928 4.27883 17.3572 4.58539 16.3166Z" fill="#855C52"/>
<path d="M35.9226 18.8371C35.9423 17.7936 35.7426 16.7221 35.2364 15.7883C34.8848 15.1358 34.3701 14.5536 33.6923 14.174C33.3464 13.9799 32.9667 13.8449 32.5701 13.7661C32.1258 13.679 31.7067 13.6761 31.327 13.4849C30.9895 13.3161 30.7476 12.9365 30.4973 12.658C30.2189 12.3543 29.9264 12.0646 29.6198 11.7918C29.0047 11.2417 28.3411 10.7484 27.637 10.318C26.0198 9.32239 24.217 8.63896 22.3636 8.27615C18.952 7.60958 15.1917 7.46615 11.8561 8.56865C9.85077 9.2324 7.8764 10.1802 6.28171 11.6033C5.93588 11.9104 5.61778 12.2473 5.33108 12.6102C5.08358 12.9252 4.85296 13.2121 4.50702 13.4315C4.40296 13.4961 4.31296 13.5524 4.19202 13.5749C3.6464 13.6733 3.09233 13.769 2.57765 13.9771C1.14046 14.5536 0.350146 16.5308 0.161708 17.9399C0.0182706 19.0086 -0.00422934 20.1758 0.622958 21.0955C1.3514 22.1615 2.72952 22.0968 3.5114 23.0361C4.15546 23.8096 4.28765 24.9543 4.77983 25.8261C5.50827 27.1171 6.54608 28.2083 7.7414 29.0774C10.0814 30.7733 12.9867 31.6593 15.8498 31.8927C17.4698 32.0249 19.2192 31.9827 20.828 31.7549C23.8964 31.319 26.8805 29.8846 29.0236 27.6318C29.738 26.878 30.3567 26.0315 30.8405 25.1118C31.088 24.6393 31.2989 24.1443 31.4733 23.6408C31.7883 22.7211 32.3676 22.6143 33.2283 22.3949C33.5939 22.3021 33.9455 22.1671 34.2689 21.9815C34.9017 21.6158 35.3686 21.0674 35.6273 20.4205C35.8298 19.9171 35.9114 19.3743 35.9226 18.8371ZM4.58858 16.3171C6.10733 11.1702 12.3398 9.09177 17.1492 9.0749C21.7026 9.05802 27.1364 10.4249 30.1598 14.1121C30.8376 14.9361 31.313 15.9036 31.493 16.9499C31.8642 19.079 30.7561 21.2755 29.0601 22.5777C27.5165 23.7681 25.7263 24.5983 23.8205 25.0077C22.7742 25.2327 21.6886 25.393 20.617 25.4802C19.2361 25.5899 17.8158 25.573 16.4348 25.4718C15.2367 25.3846 14.0245 25.2271 12.8489 24.9965C10.6636 24.5633 8.29827 23.9193 6.55171 22.499C5.74733 21.8436 5.11733 20.8761 4.78827 19.9058C4.43952 18.8933 4.28202 17.3577 4.58858 16.3171Z" fill="#B89278"/>
<mask id="mask0_2258_41926" style="mask-type:luminance" maskUnits="userSpaceOnUse" x="3" y="8" width="29" height="18">
<path d="M3.17556 12.4321C4.6915 7.28246 12.4399 8.3034 17.2521 8.28652C21.8056 8.26965 27.5177 9.45934 30.5412 13.1465C31.2162 13.9706 31.309 15.9028 31.4918 16.949C31.8631 19.0781 30.7549 21.2746 29.059 22.5768C27.5154 23.7672 25.7251 24.5974 23.8193 25.0068C22.7731 25.2318 21.6874 25.3921 20.6159 25.4793C19.2349 25.589 17.8146 25.5721 16.4337 25.4709C15.2356 25.3837 14.0234 25.2262 12.8478 24.9956C10.6624 24.5625 8.29713 23.9184 6.55056 22.4981C5.74619 21.8428 5.11619 20.8753 4.78713 19.905C4.43838 18.8925 2.87181 13.47 3.17556 12.4321Z" fill="white"/>
</mask>
<g mask="url(#mask0_2258_41926)">
<path d="M12.7662 13.41C12.7184 13.0388 13.0643 12.5578 13.2471 12.2485C13.489 11.8435 13.79 11.3091 14.1275 10.9744C14.4059 10.696 15.1681 10.4794 15.5534 10.5497C15.784 10.5891 16.0765 10.7606 16.2846 10.8563C16.6587 11.0222 17.0806 11.2247 17.4321 11.4272C17.7443 11.6072 18.3012 12.1078 18.7118 11.956C18.9818 11.8547 19.2771 11.5481 19.55 11.4103C19.9746 11.1966 20.4134 11.0081 20.8296 10.7831C21.0856 10.6453 21.4625 10.3331 21.769 10.336C22.2134 10.3388 22.6015 10.71 22.9278 10.966C23.1612 11.1488 23.4087 11.2753 23.6281 11.4835C23.8418 11.6888 23.9909 11.925 24.1821 12.1472C24.3678 12.3638 24.9106 12.8194 24.919 13.1288C24.9246 13.4325 23.9993 13.8122 23.7546 13.9135C23.3693 14.0738 22.9503 14.1356 22.5537 14.2706C22.2275 14.3831 21.7718 14.3944 21.4793 14.5716C21.0181 14.85 20.9337 15.7331 20.7875 16.2C20.7003 16.4813 20.63 16.6753 20.6271 16.9847C20.6215 17.3841 20.2643 17.6175 19.9353 17.8425C19.4965 18.1435 19.0437 18.3403 18.5712 18.5738C18.1381 18.7875 17.8793 18.8438 17.39 18.8438C16.9287 18.8466 16.8865 18.7481 16.7487 18.2953C16.5631 17.6878 16.4731 17.086 16.2115 16.501C16.0737 16.1944 15.9078 15.916 15.7868 15.6122C15.694 15.3816 15.649 15.0919 15.4465 14.9231C15.1906 14.701 14.8334 14.5266 14.5493 14.3269C14.344 14.1863 14.164 13.9669 13.9081 13.9135L12.7662 13.41Z" fill="white"/>
<path d="M5.51632 17.5582C5.47976 17.4007 5.44882 17.2348 5.38976 17.0941C5.18445 16.6076 5.23788 16.0704 5.08601 15.581C4.90038 14.9707 4.61351 14.4223 4.60226 13.7641C4.59101 13.061 4.71195 12.611 5.26601 12.1554C5.6007 11.8798 5.90163 11.6154 6.35445 11.6294C7.34445 11.6604 8.01101 12.4085 8.82101 12.8613C9.16976 13.0582 9.61132 12.9794 9.98538 13.1088C10.5957 13.3198 10.8601 13.8429 10.8179 14.456C10.7729 15.0579 10.7026 15.7019 10.711 16.2982C10.7194 16.6638 10.8769 17.3079 10.4832 17.5441C10.2779 17.6679 9.93476 17.6623 9.69851 17.6341C8.93351 17.5413 8.32882 17.0069 7.61445 16.7763C6.91413 16.5485 6.5232 17.1307 6.17445 17.6229C6.07038 17.7691 5.80601 18.1994 5.62882 17.8788C5.57538 17.7832 5.54163 17.6735 5.51632 17.5582Z" fill="#ED6C30"/>
<path d="M4.97661 19.77C4.97098 20.7431 5.48567 21.3731 5.90473 22.1972C6.37442 23.1197 6.9088 23.8228 7.89036 24.2756C8.44442 24.5316 9.19536 24.5934 9.78036 24.4219C10.6916 24.1491 11.1641 23.4319 11.4819 22.5713C11.8166 21.6713 11.7829 20.6756 11.5775 19.7475C11.5072 19.4213 11.6197 19.0556 11.5185 18.7575C11.3947 18.3947 10.956 18.1584 10.6185 18.0375C10.2557 17.9081 9.79161 17.9925 9.40348 17.9841C8.92254 17.9756 8.52317 17.5369 8.18848 17.1994C7.97473 16.9856 7.78911 16.755 7.47973 16.6959C6.9763 16.6003 6.25067 16.6453 5.8513 16.9997C5.0638 17.7 4.98223 18.7913 4.97661 19.77Z" fill="#ED6C30"/>
<path d="M10.336 17.058C10.3304 18.0311 10.845 18.6611 11.2641 19.4852C11.7338 20.4077 12.2682 21.1108 13.2497 21.5636C13.8038 21.8195 14.5519 21.8842 15.1425 21.7098C16.0538 21.437 16.5263 20.7198 16.8441 19.8592C17.1085 19.1448 17.1169 18.0761 16.8216 17.3617C16.6219 16.878 16.3182 16.3802 15.9835 15.9864C15.6488 15.5898 15.2354 15.2439 14.8388 14.9177C14.6307 14.7489 14.4647 14.6027 14.2172 14.4873C13.9725 14.372 13.6913 14.3917 13.4438 14.2933C13.23 14.2089 13.081 14.0261 12.8447 13.9811C12.3413 13.8855 11.6157 13.9305 11.2163 14.2848C10.4232 14.988 10.3444 16.0764 10.336 17.058Z" fill="#ED6C30"/>
<path d="M24.9379 11.9944C24.8169 11.8819 24.7044 11.7835 24.6313 11.7019C23.9338 10.906 23.2757 10.2535 22.3644 9.69099C21.5573 9.19037 20.7782 9.68537 20.0723 10.1101C19.5941 10.3941 18.9079 10.8272 18.3651 11.3307C18.3229 11.3138 18.2807 11.2969 18.2301 11.2857C18.1063 11.2576 17.7379 10.9426 17.6563 10.8891C17.2766 10.6247 16.8773 10.3969 16.4554 10.2113C15.6707 9.87099 15.1869 9.75287 14.4191 10.1888C13.6288 10.6388 13.0438 11.4263 12.4476 12.0957C12.2788 12.2869 12.1298 12.5119 12.0566 12.7622C11.9751 13.0322 11.8991 13.3894 11.5476 13.2769C11.2354 13.1785 11.0666 12.9226 10.8163 12.7341C10.4648 12.4726 9.98945 12.301 9.5507 12.2757C8.75195 12.2279 8.45663 11.6682 7.79007 11.3954C7.1657 11.1366 6.56382 11.1057 5.89445 11.1563C4.77788 11.2435 3.71757 12.1941 3.71195 13.3529C3.70913 14.0026 3.69507 14.6635 3.97351 15.2682C4.08882 15.5213 4.18445 15.5832 4.20976 15.8644C4.22945 16.0894 4.30257 16.2835 4.33913 16.5057C4.3982 16.8601 4.43195 17.3101 4.31663 17.656C4.20413 17.9935 4.16757 18.2972 4.09163 18.6516C4.0382 18.9188 4.01288 19.0651 4.07195 19.3491C4.13663 19.6726 4.21257 19.9876 4.29976 20.3054C4.42632 20.7554 4.58101 21.1941 4.73288 21.6357C4.86507 22.021 4.95507 22.2207 5.21382 22.5413C5.58507 22.9969 6.03507 23.3822 6.33601 23.8857C6.6032 24.3385 7.11226 24.6422 7.64663 24.6535C7.93351 24.6591 8.50445 24.6676 8.57757 24.2963C8.64226 23.9729 8.20351 23.9166 8.00382 23.7816C7.31195 23.3063 6.71007 22.9294 6.28538 22.1785C5.91132 21.5176 5.7257 20.7722 5.55695 20.0382C5.41632 19.4279 5.39945 18.7782 5.59351 18.1763C5.7932 17.5576 6.30226 17.2482 6.95195 17.206C7.38226 17.1779 7.98132 17.9597 8.38632 18.1819C9.09507 18.5672 9.79257 17.9597 10.5294 18.5447C11.1679 19.051 11.0132 20.0832 11.3648 20.7497C11.7951 21.5597 13.0241 20.8426 12.5938 20.0297C12.3716 19.6135 12.3941 19.0426 12.2001 18.5954C11.9638 18.0526 11.6544 17.6419 11.2157 17.3213C11.2129 17.2876 11.2185 17.2566 11.2101 17.2201C10.9654 16.3285 11.151 14.8013 12.3098 14.7085C12.9004 14.6607 13.2013 14.7788 13.6682 15.1444C14.076 15.4622 14.5935 15.5522 14.9423 15.9488C14.9957 16.0079 15.0519 16.0529 15.111 16.0894C15.1701 16.2891 15.2573 16.5001 15.3726 16.7251C15.5526 17.0794 15.6679 17.4788 15.876 17.8191C15.9463 17.9344 16.056 18.0188 16.1263 18.1341C16.2248 18.3001 16.2473 18.4997 16.3457 18.6685C16.4329 18.8176 16.5116 19.0735 16.6973 19.0847C16.8463 19.096 17.0573 19.0116 17.1951 18.9497C17.3582 18.8766 17.5494 18.826 17.6929 18.7276C18.1541 18.4069 16.8604 16.3594 16.6804 15.9601C16.4948 15.5466 16.6382 15.541 16.9982 15.2879C17.5129 14.9222 18.1963 14.3485 18.8713 14.3935C19.2594 14.4216 19.5829 14.6382 19.8191 14.9251C20.0357 15.181 20.3198 15.8363 20.7304 15.4876C20.9019 15.3413 21.0426 15.1529 21.1973 14.9926C21.2591 14.9307 21.3154 14.8576 21.3519 14.7788C21.636 14.1882 20.8569 13.6791 20.4491 13.4119C20.2241 13.2657 20.0413 13.0744 19.7882 12.9619C19.6729 12.9113 19.2004 12.886 19.1385 12.8129C18.8938 12.5232 20.1482 11.7863 20.3113 11.671C20.7135 11.3841 21.4363 10.6838 21.9398 11.0551C22.9354 11.7863 23.5963 12.7566 24.4851 13.5779C24.741 13.8141 25.1657 13.5076 25.3879 13.3444C25.9532 12.9254 25.3766 12.3882 24.9379 11.9944ZM10.1357 17.1582C9.63507 17.1385 9.12882 17.1244 8.87851 16.8797C8.24288 16.261 7.79288 16.0079 6.88726 15.9122C6.46257 15.8672 6.04913 15.9601 5.66663 16.1232C5.57101 15.8335 5.4332 15.5551 5.28413 15.2626C5.01132 14.731 4.88195 14.1826 4.8707 13.5891C4.84257 12.1941 6.06882 12.1491 7.01945 12.3629C7.79007 12.5344 8.08257 13.4654 8.97695 13.5216C9.51413 13.5582 10.1723 13.5272 10.5407 14.0363C10.6054 14.1291 10.6391 14.2219 10.6644 14.3176C10.1216 15.1219 9.96695 16.1794 10.1357 17.1582ZM15.9041 14.4976C15.8338 14.5594 15.7776 14.6213 15.7157 14.6832C15.1166 14.2247 14.3741 13.8704 13.7779 13.4626C13.6316 13.3641 13.3813 13.3416 13.3279 13.1588C13.2801 13.0013 13.4123 12.796 13.4769 12.6554C13.6344 12.2982 14.0338 11.9522 14.3094 11.6822C14.6835 11.3194 15.1166 10.5713 15.7241 10.9285C16.3091 11.2744 16.8688 11.6513 17.4482 12.0057C17.7041 12.1604 18.1288 12.436 18.1626 12.7426C18.1879 12.976 18.3285 13.0576 18.0754 13.1504C17.2907 13.4372 16.5341 13.9491 15.9041 14.4976Z" fill="#FCC21B"/>
<path d="M24.0134 11.974C23.8587 12.0078 23.7097 12.0387 23.5634 12.0669C23.3131 12.1175 23.1022 12.2103 22.8631 12.2947C22.3259 12.4887 21.904 12.6828 21.4962 13.0934C21.1981 13.3972 21.0294 13.7431 20.7959 14.0862C20.6722 14.269 20.6272 14.4772 20.5512 14.6797C20.464 14.9047 20.3375 15.0819 20.27 15.3181C20.1687 15.6725 20.0956 16.0128 20.0675 16.384C20.0337 16.7919 20.18 17.1687 20.2475 17.5709C20.2784 17.765 20.3319 17.9281 20.4134 18.1053C20.5119 18.3219 20.5119 18.5525 20.6019 18.769C20.7678 19.16 21.049 19.5003 21.3219 19.8181C21.6031 20.1472 21.9265 20.42 22.2612 20.69C22.804 21.1287 23.4453 21.2637 24.1259 21.3678C24.8206 21.4775 25.4956 21.3369 26.1931 21.32C26.75 21.3059 27.2675 21.2103 27.8019 21.0556C28.1759 20.9487 28.5922 20.8362 28.9072 20.6084C29.2925 20.33 29.464 19.9419 29.689 19.534C29.9112 19.1262 30.004 18.6594 30.1362 18.2178C30.2544 17.8044 30.3415 17.3769 30.3359 16.9437C30.3162 15.8131 30.2712 14.5869 29.4809 13.6953C28.5837 12.6828 26.9637 11.915 25.625 11.7912C25.1131 11.7462 24.545 11.8615 24.0134 11.974Z" fill="#855C52"/>
<path d="M23.505 17.858V17.8411C23.5275 17.5542 23.4966 17.2561 23.5922 16.9805C23.685 16.7217 23.806 16.4714 23.851 16.1958C23.8988 15.9173 23.6879 15.6502 23.4854 15.487C23.2125 15.2648 22.8497 15.1833 22.5853 14.9498C22.4447 14.8261 22.2647 14.7108 22.4391 14.5448C22.6472 14.3452 23.0832 14.4098 23.3503 14.4352C23.5922 14.4577 23.8594 14.5083 24.0928 14.5702C24.2278 14.6067 24.36 14.6995 24.5063 14.663C24.7088 14.6067 24.8579 14.3648 24.9929 14.2158C25.1532 14.0386 25.3219 13.8698 25.5188 13.732C25.6988 13.6055 26.16 13.2652 26.4075 13.372C26.79 13.538 26.2669 14.1848 26.1938 14.4323C26.115 14.6967 25.7916 15.1973 26.0616 15.428C26.1882 15.5348 26.326 15.6305 26.475 15.7036C26.5932 15.7627 26.6972 15.7908 26.7957 15.878C27.0263 16.0805 27.2935 16.2352 27.5016 16.463C27.6282 16.6036 28.1204 16.9552 27.946 17.1773C27.7688 17.4023 27.1275 17.0958 26.9166 17.017C26.4947 16.8652 26.0532 16.4995 25.5778 16.612C25.3528 16.6655 25.1757 16.8286 25.066 17.0311C24.9619 17.2308 24.8916 17.3686 24.7453 17.5486C24.6385 17.6808 24.5485 17.827 24.4641 17.9733C24.3572 18.1448 24.3038 18.3417 24.2082 18.5133C24.121 18.6708 23.8875 18.9127 23.6822 18.758C23.5191 18.6342 23.4938 18.0548 23.505 17.858Z" fill="white"/>
<path d="M25.9282 21.9347C24.8876 21.9347 23.7401 21.6675 22.3254 21.0909C22.1341 21.0122 21.9513 20.9081 21.7629 20.7703C21.566 20.624 21.3945 20.4665 21.2257 20.309L21.0991 20.1937C20.5507 19.6959 20.157 19.1981 19.9291 18.7144C19.7126 18.2587 19.5691 17.8481 19.5073 17.4881C19.406 16.9172 19.527 16.2253 19.6113 15.7219C19.7182 15.1031 19.9179 14.5153 20.202 13.9669C20.4157 13.5534 20.6576 13.1203 21.0204 12.7547C21.4985 12.2737 22.1088 12.0037 22.646 11.7647C23.276 11.4862 23.9763 11.295 24.671 11.2022C26.7101 10.935 28.9826 12.0965 30.0851 13.9444C30.2904 14.2847 30.4957 14.6531 30.6138 15.0694C30.8135 15.7837 30.9935 16.4165 30.8585 17.2406C30.7516 17.8931 30.6138 18.3853 30.4085 18.8353L30.3523 18.9675C30.2116 19.2769 30.0401 19.6622 29.8291 19.949C28.842 21.2653 27.5285 21.9347 25.9282 21.9347ZM25.2898 12.3047C25.1351 12.3047 24.9748 12.3131 24.8201 12.3356C24.2407 12.4115 23.6332 12.5775 23.1579 12.7856C22.6179 13.0247 22.1566 13.2272 21.8304 13.5562C21.5829 13.8122 21.3973 14.144 21.2145 14.4928C20.981 14.9344 20.8235 15.4097 20.7363 15.9075C20.6632 16.335 20.5648 16.9115 20.6294 17.2884C20.6744 17.5444 20.7841 17.8565 20.9585 18.2165C21.1216 18.5597 21.4366 18.9478 21.867 19.3387L22.002 19.4625C22.1454 19.5947 22.286 19.7269 22.4407 19.8394C22.5532 19.9209 22.6573 19.9828 22.7613 20.025C24.0157 20.5369 25.0535 20.7844 25.931 20.7844C27.1685 20.7844 28.1416 20.2865 28.9123 19.2572C29.0473 19.0744 29.1907 18.7537 29.3032 18.4978L29.3651 18.3628C29.5254 18.0084 29.6379 17.6006 29.7279 17.0494C29.8207 16.4784 29.697 16.034 29.5254 15.4209C29.4354 15.0919 29.2723 14.8106 29.1035 14.5265C28.3076 13.199 26.7748 12.3047 25.2898 12.3047Z" fill="#FCC21B"/>
<path d="M9.66797 24.1222C9.68484 22.7525 10.2811 21.0172 11.5327 20.2888C11.8645 20.0947 12.1683 19.8978 12.5339 19.7741C13.1189 19.5744 13.7489 19.5772 14.3452 19.4281C14.8908 19.2903 15.2114 19.0203 15.6333 18.6659C15.9258 18.4212 16.2689 18.2075 16.6008 18.0219C17.1464 17.7209 17.7989 17.5859 18.4205 17.5859C19.343 17.5859 20.3555 17.7856 21.1177 18.3284C21.4664 18.5759 21.7561 18.9416 21.9952 19.2819C22.2314 19.6278 22.2005 20.0637 22.2286 20.4631C22.2764 21.0762 22.2202 21.6641 22.0655 22.2519C21.9023 22.8706 21.7898 23.5006 21.6042 24.1109C21.4945 24.4737 21.3877 24.8562 21.1823 25.1797C20.9827 25.4947 20.707 25.4328 20.3583 25.5003C20.077 25.5538 19.7958 25.6044 19.5145 25.6466C18.9745 25.7281 18.4317 25.6972 17.8861 25.6972C17.3489 25.7 16.8342 25.6269 16.2998 25.5706C15.8133 25.52 15.3042 25.6072 14.812 25.5734C14.1511 25.5313 13.4227 25.4806 12.7955 25.2669C12.413 25.1403 12.0473 25.0166 11.6592 24.9322C11.378 24.8703 10.9195 24.8281 10.7058 24.6228C10.3598 24.4569 10.0195 24.2712 9.66797 24.1222Z" fill="#757F3F"/>
<path d="M18.9221 28.0648C18.759 28.0648 18.5987 28.062 18.4384 28.0564C18.1993 28.0508 17.9715 28.0339 17.7437 28.0198C16.9478 27.9636 16.1209 28.0058 15.2209 27.9073C13.4518 27.7133 11.604 27.4433 10.1865 26.4505C9.7534 26.1495 9.32028 25.8036 9.15996 25.1989C9.06715 24.8586 9.02778 24.4902 9.04184 24.0992C9.06153 23.5198 9.1909 22.9067 9.44965 22.167C9.71402 21.4077 10.2428 20.3811 11.2525 19.7933L11.41 19.7005C11.6968 19.5317 11.995 19.3545 12.3578 19.2308C12.7431 19.0986 13.12 19.048 13.4884 18.9973C13.7415 18.9608 13.9834 18.927 14.2084 18.8708C14.6247 18.7667 14.8637 18.567 15.2575 18.238C15.5556 17.9877 15.9015 17.757 16.3262 17.5208C16.9253 17.1889 17.6537 17.0117 18.4243 17.0117C19.6084 17.0117 20.6828 17.3127 21.4534 17.8583C21.9034 18.1761 22.2493 18.6373 22.4687 18.9552C22.7556 19.3686 22.7753 19.8298 22.795 20.2011C22.7978 20.2742 22.8006 20.3445 22.8062 20.4177C22.8568 21.087 22.8006 21.7367 22.6262 22.3948C22.5559 22.6395 22.4997 22.887 22.4434 23.1317C22.3562 23.5058 22.269 23.8939 22.1537 24.2764C22.075 24.5352 22.0328 24.8108 21.9878 25.1005C21.9175 25.5505 21.8443 26.0202 21.6278 26.5039L21.5462 26.6923C21.3775 27.0973 21.1834 27.553 20.514 27.8173C19.96 28.0339 19.3721 28.0648 18.9221 28.0648ZM18.4215 18.1564C17.8506 18.1564 17.305 18.2858 16.8775 18.522C16.5146 18.7217 16.2278 18.913 16 19.1042C15.5387 19.4895 15.1534 19.813 14.4868 19.9817C14.2 20.052 13.9159 20.0942 13.6403 20.1308C13.314 20.1758 13.0018 20.218 12.7206 20.3136C12.4703 20.398 12.2481 20.533 11.9893 20.6877L11.8234 20.7833C11.1147 21.1967 10.7265 21.9702 10.5268 22.5467C10.3075 23.1739 10.1978 23.6802 10.1837 24.1414C10.1725 24.417 10.2006 24.6758 10.2653 24.9064C10.3243 25.137 10.5634 25.3198 10.8418 25.5139C12.04 26.352 13.7247 26.5939 15.3447 26.7711C16.2109 26.8639 17.0321 26.8245 17.8225 26.878C18.1894 26.9047 18.5571 26.9187 18.925 26.9202C19.2962 26.9202 19.7265 26.9005 20.095 26.757C20.3087 26.6727 20.3481 26.5967 20.4915 26.2536C20.5168 26.1861 20.5506 26.113 20.5815 26.0398C20.7362 25.6967 20.7925 25.3227 20.8572 24.9289C20.905 24.6111 20.9556 24.2848 21.0596 23.9473C21.1637 23.6014 21.2453 23.2498 21.3296 22.8814C21.3887 22.6227 21.4478 22.3667 21.5153 22.108C21.6559 21.5736 21.7037 21.0505 21.6615 20.5077C21.6559 20.4261 21.6503 20.3417 21.6475 20.2573C21.6362 19.9873 21.625 19.7511 21.5265 19.6077C21.355 19.363 21.0934 19.0086 20.7925 18.792C20.2103 18.3814 19.3693 18.1564 18.4215 18.1564Z" fill="#FCC21B"/>
<path d="M13.7259 25.9106C13.6809 25.6771 13.8609 25.4268 13.9396 25.2131C14.069 24.8615 14.204 24.5071 14.384 24.1781C14.6934 23.6099 14.9606 23.0643 15.3852 22.5693C15.7593 22.1362 16.5187 21.1574 17.2134 21.3487C17.2218 21.4809 17.3062 21.6468 17.3034 21.7678C17.2949 21.9618 17.1656 22.1699 17.0812 22.3415C16.8702 22.7887 16.5384 23.2049 16.2965 23.6409C16.0237 24.1359 15.8071 24.6646 15.5793 25.1793C15.3881 25.6124 15.1546 25.9415 15.1518 26.4224V26.4112" fill="#FCC21B"/>
<path d="M17.6185 25.8851C17.6635 25.7811 17.7085 25.6742 17.745 25.5701C17.9391 25.0189 18.0544 24.4564 18.3103 23.922C18.7913 22.9039 19.5506 21.9926 20.5913 21.523C20.9372 21.3683 21.3169 21.2473 21.6797 21.1292C22.0285 21.0167 22.4785 20.9295 22.7428 20.6651C23.2153 20.1898 23.5866 19.7876 24.2616 19.6133C25.1447 19.3883 26.3822 19.3855 27.2485 19.7005C27.7125 19.8692 28.1175 20.1617 28.4888 20.4851C28.8347 20.7889 29.0963 21.208 29.355 21.5961C29.6981 22.1108 29.7685 22.7351 29.7544 23.337C29.746 23.8911 29.8725 24.6026 29.4647 25.0583C29.3297 25.2045 29.1131 25.2776 28.9472 25.393C28.7025 25.5617 28.4888 25.753 28.2328 25.9133C27.4172 26.4223 26.3597 26.622 25.4513 26.9145C23.3053 27.6008 21.0103 27.6233 18.7828 27.6289C18.3947 27.6317 17.4947 27.6458 17.371 27.2014C17.2388 26.712 17.4385 26.3014 17.6185 25.8851Z" fill="#757F3F"/>
<path d="M20.7266 27.1942C20.7547 26.688 21.1203 26.1536 21.3031 25.6952C21.4888 25.2311 21.7081 24.708 21.9809 24.2917C22.2875 23.8277 22.7431 23.4733 23.1622 23.1217C23.4209 22.9024 23.6994 22.6183 24.0875 22.6914C24.4953 22.7702 24.5263 23.1358 24.3744 23.4789C24.2394 23.7855 23.9975 24.1061 23.8203 24.3902C23.5559 24.8149 23.3563 25.2339 23.1678 25.6867C22.9569 26.1902 22.5294 26.6177 22.5856 27.2111V27.1942" fill="#FCC21B"/>
<path d="M18.6672 28.1978C18.1834 28.1978 17.05 28.1978 16.8165 27.3484C16.6393 26.6987 16.8756 26.1616 17.0612 25.7284L17.095 25.6581C17.1343 25.5653 17.1709 25.4753 17.2047 25.3797C17.2722 25.1912 17.3284 25 17.3847 24.8116C17.4943 24.4403 17.6097 24.0578 17.7897 23.6753C18.2087 22.7922 18.9962 21.6137 20.3547 21.0006C20.7175 20.8375 21.0943 20.7166 21.4572 20.5984C21.5697 20.5619 21.6456 20.5394 21.7243 20.5169C21.9465 20.4522 22.2278 20.3706 22.3347 20.2609L22.419 20.1737C22.8859 19.7041 23.3303 19.2597 24.115 19.06C24.5706 18.9447 25.0937 18.8828 25.6309 18.8828C26.1006 18.8828 26.7981 18.9306 27.4393 19.1641C27.9062 19.3328 28.359 19.6169 28.8597 20.0556C29.2253 20.3734 29.4953 20.7841 29.7372 21.1441L29.8243 21.2762C30.2912 21.9709 30.3334 22.7894 30.3222 23.3462C30.3222 23.4503 30.325 23.5572 30.3278 23.6669C30.3447 24.2181 30.3643 24.9072 29.8862 25.4387C29.7343 25.6075 29.5543 25.7003 29.4109 25.7762C29.3631 25.8016 29.3125 25.8269 29.2703 25.8578C29.1775 25.9225 29.0875 25.99 29.0003 26.0575C28.8484 26.1728 28.6965 26.2881 28.5306 26.3922C27.8584 26.8112 27.0822 27.0306 26.3312 27.2444C26.0865 27.3119 25.8503 27.3794 25.6197 27.4525C23.3387 28.1838 20.9172 28.1894 18.7797 28.195H18.6672V28.1978ZM17.9078 26.9744C17.9893 27.0081 18.189 27.0559 18.67 27.0559H18.7487C20.8384 27.0503 23.1672 27.0447 25.2793 26.3697C25.5212 26.2937 25.7715 26.2234 26.0247 26.1503C26.7025 25.9591 27.3972 25.7622 27.9315 25.4303C28.0665 25.3459 28.1875 25.2531 28.3112 25.1603C28.4125 25.0816 28.5165 25.0028 28.6262 24.9269C28.705 24.8706 28.7922 24.8228 28.8822 24.7778C28.9384 24.7469 29.0228 24.7019 29.0453 24.6794C29.2197 24.4881 29.2056 24.0916 29.1943 23.7119C29.1915 23.5825 29.1887 23.4559 29.1887 23.335C29.2 22.6881 29.1072 22.2522 28.885 21.9231L28.795 21.7853C28.584 21.4703 28.3675 21.1441 28.1172 20.9247C27.7262 20.5816 27.3887 20.365 27.0597 20.2469C26.3762 19.9994 25.2118 19.9712 24.4103 20.1766C23.9293 20.2975 23.6565 20.5731 23.2459 20.9894L23.1559 21.0766C22.8381 21.3944 22.405 21.5238 22.0562 21.625L21.865 21.6841C21.4853 21.8078 21.1393 21.9175 20.8384 22.0553C19.795 22.525 19.1706 23.4672 18.8359 24.1787C18.6897 24.4825 18.5912 24.8088 18.49 25.1519C18.4281 25.3572 18.3662 25.5625 18.2959 25.7678C18.2537 25.8887 18.2031 26.0069 18.1553 26.1222L18.1243 26.1953C17.964 26.5216 17.874 26.7494 17.9078 26.9744Z" fill="#FCC21B"/>
</g>
</svg>
