<svg width="36" height="36" viewBox="0 0 36 36" fill="none" xmlns="http://www.w3.org/2000/svg">
<path fill-rule="evenodd" clip-rule="evenodd" d="M8 10.5C8 10.1022 8.15051 9.72064 8.41842 9.43934C8.68633 9.15804 9.04969 9 9.42857 9H26.5714C26.9503 9 27.3137 9.15804 27.5816 9.43934C27.8495 9.72064 28 10.1022 28 10.5C28 10.8978 27.8495 11.2794 27.5816 11.5607C27.3137 11.842 26.9503 12 26.5714 12H9.42857C9.04969 12 8.68633 11.842 8.41842 11.5607C8.15051 11.2794 8 10.8978 8 10.5ZM8 18C8 17.6022 8.15051 17.2206 8.41842 16.9393C8.68633 16.658 9.04969 16.5 9.42857 16.5H26.5714C26.9503 16.5 27.3137 16.658 27.5816 16.9393C27.8495 17.2206 28 17.6022 28 18C28 18.3978 27.8495 18.7794 27.5816 19.0607C27.3137 19.342 26.9503 19.5 26.5714 19.5H9.42857C9.04969 19.5 8.68633 19.342 8.41842 19.0607C8.15051 18.7794 8 18.3978 8 18ZM8 25.5C8 25.1022 8.15051 24.7206 8.41842 24.4393C8.68633 24.158 9.04969 24 9.42857 24H18C18.3789 24 18.7422 24.158 19.0102 24.4393C19.2781 24.7206 19.4286 25.1022 19.4286 25.5C19.4286 25.8978 19.2781 26.2794 19.0102 26.5607C18.7422 26.842 18.3789 27 18 27H9.42857C9.04969 27 8.68633 26.842 8.41842 26.5607C8.15051 26.2794 8 25.8978 8 25.5Z" fill="#202020"/>
<path fill-rule="evenodd" clip-rule="evenodd" d="M8 10.5C8 10.1022 8.15051 9.72064 8.41842 9.43934C8.68633 9.15804 9.04969 9 9.42857 9H26.5714C26.9503 9 27.3137 9.15804 27.5816 9.43934C27.8495 9.72064 28 10.1022 28 10.5C28 10.8978 27.8495 11.2794 27.5816 11.5607C27.3137 11.842 26.9503 12 26.5714 12H9.42857C9.04969 12 8.68633 11.842 8.41842 11.5607C8.15051 11.2794 8 10.8978 8 10.5ZM8 18C8 17.6022 8.15051 17.2206 8.41842 16.9393C8.68633 16.658 9.04969 16.5 9.42857 16.5H26.5714C26.9503 16.5 27.3137 16.658 27.5816 16.9393C27.8495 17.2206 28 17.6022 28 18C28 18.3978 27.8495 18.7794 27.5816 19.0607C27.3137 19.342 26.9503 19.5 26.5714 19.5H9.42857C9.04969 19.5 8.68633 19.342 8.41842 19.0607C8.15051 18.7794 8 18.3978 8 18ZM8 25.5C8 25.1022 8.15051 24.7206 8.41842 24.4393C8.68633 24.158 9.04969 24 9.42857 24H18C18.3789 24 18.7422 24.158 19.0102 24.4393C19.2781 24.7206 19.4286 25.1022 19.4286 25.5C19.4286 25.8978 19.2781 26.2794 19.0102 26.5607C18.7422 26.842 18.3789 27 18 27H9.42857C9.04969 27 8.68633 26.842 8.41842 26.5607C8.15051 26.2794 8 25.8978 8 25.5Z" fill="black" fill-opacity="0.2"/>
</svg>
