<svg width="36" height="36" viewBox="0 0 36 36" fill="none" xmlns="http://www.w3.org/2000/svg">
<path d="M32.615 26.9387C31.9814 26.306 29.1437 24.5438 26.3735 23.0111C27.9564 20.7518 28.804 18.0594 28.8008 15.3008C28.8008 7.84518 22.7564 1.80078 15.3008 1.80078C7.84428 1.80078 1.80078 7.84518 1.80078 15.3008C1.80078 22.7564 7.84428 28.8008 15.3008 28.8008C18.1439 28.8008 20.7782 27.9179 22.9544 26.4167C24.4889 29.1896 26.2538 32.0327 26.8874 32.6663C28.16 33.9389 29.7008 34.2026 30.6008 34.2008C31.6601 34.199 34.2503 31.6079 34.2008 30.6008C34.1567 29.7017 33.8876 28.2113 32.615 26.9387Z" fill="#292F33"/>
<path d="M15.3 26.1C21.2647 26.1 26.1 21.2647 26.1 15.3C26.1 9.33532 21.2647 4.5 15.3 4.5C9.33532 4.5 4.5 9.33532 4.5 15.3C4.5 21.2647 9.33532 26.1 15.3 26.1Z" fill="#66757F"/>
<path d="M16.1991 24.2999C20.5758 22.9202 19.7991 19.7999 19.7991 16.1999C19.7991 12.5999 23.4 10.1627 20.0997 7.42488C18.1404 5.79948 14.0247 5.24958 12.1122 5.96238C10.3545 6.61668 8.09908 7.94958 8.09908 10.6496C8.09908 13.3496 8.04688 13.2839 6.56188 15.7121C4.19938 19.5749 10.0116 26.2502 16.1991 24.2999Z" fill="#F5F8FA"/>
<path d="M13.4984 21.5984C15.4867 21.5984 17.0984 19.9867 17.0984 17.9984C17.0984 16.0102 15.4867 14.3984 13.4984 14.3984C11.5102 14.3984 9.89844 16.0102 9.89844 17.9984C9.89844 19.9867 11.5102 21.5984 13.4984 21.5984Z" fill="#FFAC33"/>
</svg>
