<svg width="36" height="36" viewBox="0 0 36 36" fill="none" xmlns="http://www.w3.org/2000/svg">
<path d="M29.6904 25.1513C29.1835 24.6452 26.9134 23.2354 24.6972 22.0093C25.9635 20.2018 26.6416 18.0479 26.6391 15.841C26.6391 9.87653 21.8035 5.04102 15.8391 5.04102C9.87386 5.04102 5.03906 9.87653 5.03906 15.841C5.03906 21.8055 9.87386 26.641 15.8391 26.641C18.1135 26.641 20.221 25.9347 21.9619 24.7337C23.1895 26.9521 24.6015 29.2265 25.1083 29.7334C26.1264 30.7515 27.3591 30.9625 28.0791 30.961C28.9265 30.9596 30.9987 28.8867 30.9591 28.081C30.9238 27.3617 30.7085 26.1694 29.6904 25.1513Z" fill="#292F33"/>
<path d="M15.8392 24.4792C20.611 24.4792 24.4792 20.611 24.4792 15.8392C24.4792 11.0675 20.611 7.19922 15.8392 7.19922C11.0675 7.19922 7.19922 11.0675 7.19922 15.8392C7.19922 20.611 11.0675 24.4792 15.8392 24.4792Z" fill="#66757F"/>
<path d="M16.5585 23.0399C20.0598 21.9361 19.4385 19.4399 19.4385 16.5599C19.4385 13.6799 22.3192 11.7301 19.679 9.53991C18.1115 8.23959 14.819 7.79967 13.289 8.36991C11.8828 8.89335 10.0785 9.95967 10.0785 12.1197C10.0785 14.2797 10.0367 14.2271 8.84872 16.1697C6.95872 19.2599 11.6085 24.6001 16.5585 23.0399Z" fill="#F5F8FA"/>
<path d="M14.3995 20.8811C15.9901 20.8811 17.2795 19.5917 17.2795 18.0011C17.2795 16.4105 15.9901 15.1211 14.3995 15.1211C12.809 15.1211 11.5195 16.4105 11.5195 18.0011C11.5195 19.5917 12.809 20.8811 14.3995 20.8811Z" fill="#FFAC33"/>
</svg>
