<svg width="24" height="24" viewBox="0 0 24 24" fill="none" xmlns="http://www.w3.org/2000/svg">
<path d="M19.7094 9.37472C19.0044 9.37472 18.4194 9.95972 18.4194 10.6797V15.9297C18.4194 16.6497 19.0044 17.2497 19.7094 17.2497C20.4144 17.2497 20.9994 16.6647 20.9994 15.9297V10.6797C20.9994 9.95972 20.4144 9.37472 19.7094 9.37472ZM4.27437 9.37472C3.56937 9.37472 2.98438 9.95972 2.98438 10.6797V15.9297C2.98438 16.6497 3.56937 17.2497 4.27437 17.2497C4.97938 17.2497 5.56438 16.6647 5.56438 15.9297V10.6797C5.56438 9.95972 4.97938 9.37472 4.27437 9.37472ZM6.20938 16.5897C6.20938 17.1147 6.41938 17.6097 6.77938 17.9847C7.13938 18.3597 7.63438 18.5547 8.14438 18.5547V21.1797C8.14438 21.8997 8.72938 22.4997 9.43438 22.4997C10.1394 22.4997 10.7244 21.9147 10.7244 21.1797V18.5547H13.2894V21.1797C13.2894 21.8997 13.8744 22.4997 14.5794 22.4997C15.2844 22.4997 15.8694 21.9147 15.8694 21.1797V18.5547C16.3794 18.5547 16.8744 18.3447 17.2344 17.9847C17.5944 17.6097 17.8044 17.1147 17.8044 16.5897V9.37472H6.20938V16.5897ZM17.7444 8.05472C17.6544 7.18472 17.3694 6.34472 16.9194 5.60972C16.4694 4.85972 15.8694 4.22972 15.1494 3.76472L15.7944 2.44472C15.8694 2.29472 15.8844 2.11472 15.8244 1.94972C15.7978 1.86802 15.7549 1.7926 15.6981 1.72812C15.6414 1.66363 15.572 1.61143 15.4944 1.57472C15.4182 1.53649 15.335 1.51412 15.25 1.50897C15.1649 1.50381 15.0796 1.51597 14.9994 1.54472C14.8344 1.60472 14.6994 1.72472 14.6244 1.87472L13.9794 3.19472L13.8144 3.11972C12.6294 2.71472 11.3544 2.71472 10.1694 3.11972L10.0044 3.19472L9.35938 1.87472C9.28117 1.72081 9.14698 1.60272 8.98438 1.54472C8.90413 1.51597 8.81888 1.50381 8.7338 1.50897C8.64872 1.51412 8.56556 1.53649 8.48938 1.57472C8.33938 1.64972 8.21938 1.78472 8.15938 1.94972C8.13063 2.02997 8.11847 2.11521 8.12362 2.2003C8.12878 2.28538 8.15115 2.36853 8.18938 2.44472L8.83438 3.76472C8.11438 4.24472 7.51438 4.87472 7.06438 5.60972C6.61438 6.35972 6.32938 7.18472 6.23938 8.05472V8.71472H17.7744V8.05472H17.7444ZM10.0644 6.74972C9.89938 6.74972 9.73438 6.67472 9.61438 6.55472C9.49039 6.43164 9.42027 6.26442 9.41938 6.08972C9.41938 5.90972 9.47938 5.74472 9.61438 5.62472C9.73438 5.50472 9.89938 5.42972 10.0644 5.42972C10.2294 5.42972 10.3944 5.50472 10.5144 5.62472C10.6344 5.74472 10.7094 5.90972 10.7094 6.08972C10.7094 6.26972 10.6344 6.43472 10.5144 6.55472C10.3944 6.67472 10.2294 6.74972 10.0644 6.74972ZM13.9194 6.74972C13.7544 6.74972 13.5894 6.67472 13.4694 6.55472C13.3454 6.43164 13.2753 6.26442 13.2744 6.08972C13.2744 5.90972 13.3344 5.74472 13.4694 5.62472C13.5894 5.50472 13.7544 5.42972 13.9194 5.42972C14.0844 5.42972 14.2494 5.50472 14.3694 5.62472C14.4894 5.74472 14.5644 5.90972 14.5644 6.08972C14.5644 6.26972 14.4894 6.43472 14.3694 6.55472C14.2494 6.67472 14.0844 6.74972 13.9194 6.74972Z" fill="#EBEBEB"/>
</svg>
