<svg width="24" height="24" viewBox="0 0 24 24" fill="none" xmlns="http://www.w3.org/2000/svg">
<g clip-path="url(#clip0_5220_42136)">
<path d="M18.5508 12.7515C18.5208 9.7125 21.0288 8.2545 21.1413 8.1825C19.7313 6.12 17.5353 5.8365 16.7523 5.805C14.8833 5.616 13.1058 6.906 12.1563 6.906C11.2098 6.906 9.74577 5.8335 8.19627 5.862C6.15927 5.892 4.28127 7.047 3.23127 8.871C1.11477 12.543 2.68977 17.985 4.75227 20.9625C5.76027 22.4205 6.96177 24.0585 8.53977 24C10.0593 23.94 10.6338 23.016 12.4713 23.016C14.3088 23.016 14.8248 24 16.4328 23.9685C18.0678 23.9385 19.1043 22.482 20.1048 21.0195C21.2628 19.3275 21.7383 17.691 21.7668 17.607C21.7308 17.5905 18.5778 16.383 18.5463 12.753L18.5508 12.7515ZM15.5298 3.8325C16.3668 2.817 16.9323 1.407 16.7778 0C15.5718 0.0495 14.1093 0.804 13.2438 1.818C12.4668 2.718 11.7873 4.1535 11.9688 5.532C13.3158 5.637 14.6913 4.848 15.5283 3.834L15.5298 3.8325Z" fill="#EBEBEB"/>
</g>
<defs>
<clipPath id="clip0_5220_42136">
<rect width="24" height="24" fill="white"/>
</clipPath>
</defs>
</svg>
