<svg width="792" height="198" viewBox="0 0 792 198" fill="none" xmlns="http://www.w3.org/2000/svg">
<ellipse cx="51.4662" cy="180.65" rx="20.8372" ry="16.6698" fill="url(#paint0_linear_4172_40632)"/>
<ellipse cx="109.982" cy="180.65" rx="20.8372" ry="16.6698" fill="url(#paint1_linear_4172_40632)"/>
<path d="M80.7764 62.6001C87.3714 62.6001 93.7273 63.5686 99.6943 65.3618C98.6453 67.1197 98.0411 69.1739 98.041 71.3696C98.0412 76.4035 101.21 80.6955 105.661 82.3647C105.54 83.0412 105.474 83.7374 105.474 84.4487C105.474 90.9333 110.73 96.1899 117.215 96.1899C118.844 96.1899 120.395 95.8569 121.805 95.2573C123.922 98.3331 127.465 100.351 131.481 100.351C133.944 100.351 136.228 99.5916 138.115 98.2964C141.372 105.449 143.178 113.332 143.178 121.614C143.178 154.206 115.24 180.627 80.7764 180.627C46.3132 180.627 18.3751 154.206 18.375 121.614C18.375 89.0216 46.3131 62.6001 80.7764 62.6001Z" fill="url(#paint2_linear_4172_40632)"/>
<circle cx="66.1996" cy="117.593" r="16.9145" fill="white"/>
<mask id="mask0_4172_40632" style="mask-type:alpha" maskUnits="userSpaceOnUse" x="49" y="100" width="35" height="35">
<circle cx="66.1957" cy="117.593" r="16.9145" fill="#D9D9D9"/>
</mask>
<g mask="url(#mask0_4172_40632)">
<circle cx="73.483" cy="115.672" r="10.4986" fill="#202020"/>
<circle cx="73.483" cy="115.672" r="10.4986" fill="black" fill-opacity="0.2"/>
</g>
<path d="M88.5447 120.605C92.7121 112.865 101.812 110.058 112.023 117.813" stroke="#202020" stroke-width="4.0824" stroke-linecap="round"/>
<path d="M88.5447 120.605C92.7121 112.865 101.812 110.058 112.023 117.813" stroke="black" stroke-opacity="0.2" stroke-width="4.0824" stroke-linecap="round"/>
<path d="M64.668 139.623C66.7891 150.157 78.0736 154.546 85.2501 145.963" stroke="#202020" stroke-width="4.0824" stroke-linecap="round"/>
<path d="M64.668 139.623C66.7891 150.157 78.0736 154.546 85.2501 145.963" stroke="black" stroke-opacity="0.2" stroke-width="4.0824" stroke-linecap="round"/>
<path d="M51.815 89.891C55.983 84.4721 66.3841 83.5994 70.9275 90.5539" stroke="#202020" stroke-width="4.0824" stroke-linecap="round"/>
<path d="M51.815 89.891C55.983 84.4721 66.3841 83.5994 70.9275 90.5539" stroke="black" stroke-opacity="0.2" stroke-width="4.0824" stroke-linecap="round"/>
<ellipse cx="18.4439" cy="74.5598" rx="15.309" ry="12.2044" transform="rotate(-58.1622 18.4439 74.5598)" fill="#1FC16F"/>
<ellipse cx="15.309" cy="12.2044" rx="15.309" ry="12.2044" transform="matrix(1 0 0 -1 136.723 170.627)" fill="#1FC16F"/>
<path d="M154.409 105.722C157.358 105.722 159.749 108.113 159.749 111.062C159.749 111.063 159.745 111.091 159.795 111.148C159.852 111.214 159.953 111.283 160.085 111.313C171.276 113.87 178.256 124.029 178.256 135.724V137.127C178.256 138.485 177.817 139.741 177.077 140.763C179.195 141.392 180.739 143.352 180.739 145.674C180.739 148.504 178.445 150.799 175.615 150.799H130.921C128.179 150.799 125.941 148.645 125.804 145.938L125.797 145.674L125.804 145.41C125.916 143.205 127.422 141.368 129.458 140.763C128.718 139.741 128.28 138.485 128.28 137.127V135.724C128.28 124.029 135.26 113.87 146.451 111.313C146.583 111.283 146.685 111.214 146.741 111.148C146.791 111.091 146.787 111.063 146.787 111.062C146.787 108.113 149.178 105.722 152.127 105.722H154.409Z" fill="#EBEBEB" stroke="#FAFAFA" stroke-width="5.2731"/>
<ellipse cx="305.645" cy="170.864" rx="20.8372" ry="16.6698" transform="rotate(43.6501 305.645 170.864)" fill="url(#paint3_linear_4172_40632)"/>
<ellipse cx="345.45" cy="168.483" rx="20.8372" ry="16.6698" transform="rotate(43.65 345.45 168.483)" fill="url(#paint4_linear_4172_40632)"/>
<path d="M301.991 45.5923C308.586 45.5923 314.941 46.5601 320.908 48.353C319.859 50.1107 319.255 52.1651 319.255 54.3608C319.255 59.3947 322.424 63.6865 326.875 65.356C326.754 66.0325 326.688 66.7295 326.688 67.4409C326.688 73.9252 331.944 79.182 338.429 79.1821C340.058 79.1821 341.609 78.849 343.019 78.2495C345.136 81.3253 348.679 83.3432 352.695 83.3433C355.158 83.3432 357.443 82.5835 359.331 81.2876C362.588 88.4402 364.393 96.3232 364.393 104.605C364.393 137.197 336.454 163.619 301.991 163.619C267.528 163.619 239.59 137.197 239.59 104.605C239.59 72.013 267.528 45.5924 301.991 45.5923Z" fill="url(#paint5_linear_4172_40632)"/>
<path d="M285.485 123.2C291.269 125.317 299.428 127.613 305.217 128.899C307.082 129.313 301.3 141.537 291.269 138.849C279.442 135.68 283.019 122.298 285.485 123.2Z" fill="#202020"/>
<path d="M285.485 123.2C291.269 125.317 299.428 127.613 305.217 128.899C307.082 129.313 301.3 141.537 291.269 138.849C279.442 135.68 283.019 122.298 285.485 123.2Z" fill="black" fill-opacity="0.2"/>
<path d="M285.485 123.2C291.269 125.317 299.428 127.613 305.217 128.899C307.082 129.313 301.3 141.537 291.269 138.849C279.442 135.68 283.019 122.298 285.485 123.2Z" stroke="#202020" stroke-width="4.0824"/>
<path d="M285.485 123.2C291.269 125.317 299.428 127.613 305.217 128.899C307.082 129.313 301.3 141.537 291.269 138.849C279.442 135.68 283.019 122.298 285.485 123.2Z" stroke="black" stroke-opacity="0.2" stroke-width="4.0824"/>
<path d="M273.83 75.5908C276.307 69.219 286.043 65.4583 292.358 70.8556" stroke="#202020" stroke-width="4.0824" stroke-linecap="round"/>
<path d="M273.83 75.5908C276.307 69.219 286.043 65.4583 292.358 70.8556" stroke="black" stroke-opacity="0.2" stroke-width="4.0824" stroke-linecap="round"/>
<ellipse cx="226.037" cy="125.594" rx="15.309" ry="12.2044" transform="rotate(-112.004 226.037 125.594)" fill="#1FC16F"/>
<ellipse cx="15.309" cy="12.2044" rx="15.309" ry="12.2044" transform="matrix(0.374673 -0.927157 -0.927157 -0.374673 383.688 144.36)" fill="#1FC16F"/>
<circle cx="315.594" cy="100.594" r="16.9145" fill="white"/>
<mask id="mask1_4172_40632" style="mask-type:alpha" maskUnits="userSpaceOnUse" x="298" y="83" width="35" height="35">
<circle cx="315.594" cy="100.594" r="16.9145" fill="#D9D9D9"/>
</mask>
<g mask="url(#mask1_4172_40632)">
<circle cx="316.151" cy="100.486" r="10.4986" fill="#202020"/>
<circle cx="316.151" cy="100.486" r="10.4986" fill="black" fill-opacity="0.2"/>
</g>
<circle cx="287.305" cy="100.594" r="16.9145" fill="white"/>
<mask id="mask2_4172_40632" style="mask-type:alpha" maskUnits="userSpaceOnUse" x="270" y="83" width="35" height="35">
<circle cx="287.305" cy="100.594" r="16.9145" fill="#D9D9D9"/>
</mask>
<g mask="url(#mask2_4172_40632)">
<circle cx="287.866" cy="100.486" r="10.4986" fill="#202020"/>
<circle cx="287.866" cy="100.486" r="10.4986" fill="black" fill-opacity="0.2"/>
</g>
<path d="M354.348 33.5797C354.112 32.4435 354.94 31.3022 356.1 31.3022H359.434C360.11 31.3022 360.711 31.7091 360.849 32.3705C360.996 33.0723 361.142 34.1269 361.142 35.5547C361.142 36.9826 360.996 38.0371 360.849 38.739C360.711 39.4004 360.11 39.8072 359.434 39.8072H356.1C354.94 39.8072 354.112 38.666 354.348 37.5298C354.486 36.8644 354.593 36.1552 354.593 35.5547C354.593 34.9543 354.486 34.2451 354.348 33.5797Z" fill="#FCA8A8"/>
<path d="M378.105 76.0038C377.228 75.2432 377.194 73.834 378.117 73.1303L380.768 71.1089C381.305 70.6991 382.03 70.6579 382.541 71.0999C383.084 71.5688 383.839 72.3194 384.705 73.4548C385.57 74.5901 386.094 75.5167 386.403 76.1639C386.694 76.7739 386.463 77.462 385.925 77.8718L383.274 79.8933C382.352 80.5969 381.002 80.1913 380.5 79.1449C380.206 78.5321 379.861 77.9033 379.497 77.4258C379.133 76.9484 378.618 76.4492 378.105 76.0038Z" fill="#C6B2FB"/>
<path d="M248.788 169.911C247.912 169.15 247.878 167.741 248.801 167.037L251.452 165.016C251.989 164.606 252.714 164.565 253.225 165.007C253.768 165.476 254.522 166.226 255.388 167.361C256.254 168.497 256.778 169.423 257.087 170.071C257.378 170.681 257.146 171.369 256.609 171.779L253.958 173.8C253.035 174.504 251.685 174.098 251.184 173.052C250.89 172.439 250.545 171.81 250.181 171.333C249.817 170.855 249.302 170.356 248.788 169.911Z" fill="#C6B2FB"/>
<path d="M232.789 55.5226C233.025 54.3863 232.197 53.2451 231.037 53.2451H227.703C227.027 53.2451 226.426 53.6519 226.287 54.3134C226.14 55.0152 225.995 56.0698 225.995 57.4976C225.995 58.9254 226.14 59.98 226.287 60.6818C226.426 61.3433 227.027 61.7501 227.703 61.7501H231.037C232.197 61.7501 233.025 60.6089 232.789 59.4727C232.651 58.8073 232.544 58.0981 232.544 57.4976C232.544 56.8972 232.651 56.1879 232.789 55.5226Z" fill="#8AE6D8"/>
<path d="M383.566 22.1149C384.375 21.2835 384.291 19.8763 383.313 19.2526L380.501 17.4606C379.932 17.0973 379.206 17.1171 378.733 17.6004C378.232 18.1132 377.543 18.9244 376.775 20.1284C376.008 21.3324 375.563 22.2997 375.31 22.9705C375.071 23.6027 375.36 24.269 375.93 24.6323L378.741 26.4243C379.719 27.0481 381.03 26.5306 381.443 25.4458C381.684 24.8105 381.975 24.155 382.298 23.6487C382.62 23.1424 383.092 22.6018 383.566 22.1149Z" fill="#8AE6D8"/>
<path d="M279.906 2.28135C280.142 1.14512 279.314 0.00390625 278.154 0.00390625H274.82C274.144 0.00390625 273.543 0.41073 273.404 1.07219C273.258 1.77401 273.112 2.82859 273.112 4.25641C273.112 5.68423 273.258 6.73881 273.404 7.44063C273.543 8.10208 274.144 8.50891 274.82 8.50891H278.154C279.314 8.50891 280.142 7.36769 279.906 6.23147C279.768 5.56608 279.661 4.85686 279.661 4.25641C279.661 3.65596 279.768 2.94674 279.906 2.28135Z" fill="#FF8686"/>
<path d="M382.648 191.092C382.884 189.956 382.056 188.815 380.896 188.815H377.562C376.887 188.815 376.285 189.222 376.147 189.883C376 190.585 375.855 191.64 375.855 193.067C375.855 194.495 376 195.55 376.147 196.252C376.285 196.913 376.887 197.32 377.562 197.32H380.896C382.056 197.32 382.884 196.179 382.648 195.043C382.51 194.377 382.403 193.668 382.403 193.067C382.403 192.467 382.51 191.758 382.648 191.092Z" fill="#FF8686"/>
<path d="M259.937 32.1109C259.562 31.0126 258.27 30.4504 257.27 31.0402L254.399 32.7346C253.817 33.078 253.506 33.7341 253.723 34.3741C253.953 35.0532 254.364 36.0352 255.09 37.2649C255.816 38.4945 256.477 39.3289 256.96 39.8587C257.415 40.3579 258.14 40.4026 258.722 40.0591L261.593 38.3647C262.592 37.7749 262.725 36.3715 261.944 35.5128C261.487 35.0099 261.035 34.4535 260.73 33.9363C260.425 33.4192 260.156 32.7541 259.937 32.1109Z" fill="#F55A5A"/>
<path d="M219.354 29.2438C219.525 28.3201 218.915 27.4328 217.992 27.2613L215.68 26.8322C214.437 26.6014 213.193 27.8085 213.083 29.0682C213.043 29.5326 212.975 30.0551 212.867 30.6351C212.759 31.2151 212.636 31.7273 212.507 32.1752C212.157 33.3903 212.885 34.9635 214.128 35.1943L216.439 35.6234C217.363 35.7949 218.251 35.1855 218.422 34.2619C218.57 33.4638 218.746 32.5184 218.888 31.7528C219.03 30.9873 219.205 30.0418 219.354 29.2438Z" fill="#CBBDEE"/>
<g clip-path="url(#clip0_4172_40632)">
<path d="M464.817 46.9299C464.642 44.4255 466.242 42.0203 468.746 41.028C471.249 40.0358 474.062 40.692 475.651 42.6359C476.276 42.0248 477.001 41.5408 477.821 41.2157C479.322 40.621 480.979 40.602 482.429 41.1629C483.879 41.7238 485.003 42.8187 485.553 44.2066C486.497 46.5878 485.567 49.3631 483.316 50.9515L486.638 59.3311C486.845 59.8551 486.589 60.4482 486.065 60.6559L469.575 67.1913C469.051 67.399 468.458 67.1426 468.25 66.6186L464.929 58.2391C463.601 58.4277 462.267 58.1983 461.136 57.5865C460.006 56.9748 459.142 56.0152 458.679 54.8576C458.129 53.4696 458.197 51.9023 458.869 50.5003C459.542 49.0984 460.762 47.9767 462.263 47.382C463.083 47.0569 463.942 46.913 464.817 46.9299Z" fill="#EBEBEB"/>
</g>
<ellipse cx="474.279" cy="180.65" rx="20.8372" ry="16.6698" fill="url(#paint6_linear_4172_40632)"/>
<ellipse cx="532.794" cy="180.65" rx="20.8372" ry="16.6698" fill="url(#paint7_linear_4172_40632)"/>
<path d="M503.596 62.603C510.19 62.603 516.546 63.5718 522.513 65.3647C521.464 67.1223 520.86 69.1762 520.86 71.3716C520.86 76.4055 524.029 80.6973 528.479 82.3667C528.358 83.0432 528.292 83.7393 528.292 84.4507C528.292 90.9353 533.549 96.1918 540.033 96.1919C541.662 96.1918 543.213 95.8596 544.623 95.2603C546.74 98.3361 550.283 100.354 554.3 100.354C556.762 100.354 559.047 99.594 560.935 98.2983C564.191 105.451 565.997 113.334 565.997 121.617C565.997 154.209 538.059 180.63 503.596 180.63C469.133 180.63 441.195 154.209 441.195 121.617C441.195 89.0246 469.133 62.6032 503.596 62.603Z" fill="url(#paint8_linear_4172_40632)"/>
<circle cx="517.188" cy="116.414" r="16.9145" fill="white"/>
<mask id="mask3_4172_40632" style="mask-type:alpha" maskUnits="userSpaceOnUse" x="500" y="99" width="35" height="35">
<circle cx="517.188" cy="116.414" r="16.9145" fill="#D9D9D9"/>
</mask>
<g mask="url(#mask3_4172_40632)">
<circle cx="522.092" cy="121.808" r="10.4986" fill="#202020"/>
<circle cx="522.092" cy="121.808" r="10.4986" fill="black" fill-opacity="0.2"/>
</g>
<circle cx="488.899" cy="116.414" r="16.9145" fill="white"/>
<mask id="mask4_4172_40632" style="mask-type:alpha" maskUnits="userSpaceOnUse" x="471" y="99" width="35" height="35">
<circle cx="488.899" cy="116.414" r="16.9145" fill="#D9D9D9"/>
</mask>
<g mask="url(#mask4_4172_40632)">
<circle cx="493.811" cy="121.808" r="10.4986" fill="#202020"/>
<circle cx="493.811" cy="121.808" r="10.4986" fill="black" fill-opacity="0.2"/>
</g>
<path d="M487.457 138.383C489.578 148.917 500.863 153.307 508.039 144.723" stroke="#202020" stroke-width="4.0824" stroke-linecap="round"/>
<path d="M487.457 138.383C489.578 148.917 500.863 153.307 508.039 144.723" stroke="black" stroke-opacity="0.2" stroke-width="4.0824" stroke-linecap="round"/>
<path d="M472.709 89.7979C475.186 83.426 484.922 79.6653 491.237 85.0626" stroke="#202020" stroke-width="4.0824" stroke-linecap="round"/>
<path d="M472.709 89.7979C475.186 83.426 484.922 79.6653 491.237 85.0626" stroke="black" stroke-opacity="0.2" stroke-width="4.0824" stroke-linecap="round"/>
<g clip-path="url(#clip1_4172_40632)">
<path d="M578.794 129.649C580.892 129.054 583.073 130.273 583.668 132.369L584.925 136.799C586.012 140.628 585.886 144.7 584.563 148.454C583.24 152.207 580.785 155.459 577.537 157.759L578.128 159.841C578.36 160.659 578.257 161.536 577.843 162.279C577.428 163.022 576.736 163.569 575.918 163.802L565.633 166.719C564.815 166.952 563.938 166.849 563.195 166.435C562.452 166.02 561.905 165.328 561.673 164.509L561.082 162.428C557.11 162.176 553.313 160.698 550.216 158.198C547.119 155.699 544.873 152.3 543.787 148.471L542.53 144.04C541.935 141.942 543.154 139.761 545.25 139.166L578.794 129.649Z" fill="#EBEBEB"/>
</g>
<ellipse cx="15.309" cy="12.2044" rx="15.309" ry="12.2044" transform="matrix(0.716692 -0.69739 -0.69739 -0.716692 570.645 182.673)" fill="#1FC16F"/>
<path d="M447.983 138.417C447.182 137.146 446.884 135.672 447.064 134.26C447.731 129.016 454.675 124.584 460.952 125.384C464.417 125.825 466.871 128.994 466.429 132.46C465.63 138.737 459.6 144.348 454.356 143.68C452.944 143.5 451.592 142.843 450.562 141.749L433.136 155.245C432.215 155.958 430.888 155.789 430.174 154.867C429.461 153.946 429.63 152.619 430.551 151.905L447.983 138.417Z" fill="#ECC581"/>
<ellipse cx="432.059" cy="153.324" rx="15.309" ry="12.2044" transform="rotate(-111.112 432.059 153.324)" fill="#1FC16F"/>
<ellipse cx="677.232" cy="180.65" rx="20.8372" ry="16.6698" fill="url(#paint9_linear_4172_40632)"/>
<ellipse cx="735.747" cy="180.65" rx="20.8372" ry="16.6698" fill="url(#paint10_linear_4172_40632)"/>
<path d="M706.546 62.6006C713.137 62.6006 719.49 63.5681 725.454 65.3594C724.404 67.1177 723.8 69.1734 723.8 71.3701C723.8 76.4041 726.969 80.697 731.42 82.3662C731.299 83.0426 731.232 83.7389 731.232 84.4502C731.233 90.9346 736.489 96.1913 742.974 96.1914C744.602 96.1914 746.153 95.859 747.562 95.2598C749.68 98.3355 753.224 100.353 757.24 100.354C759.706 100.353 761.993 99.5902 763.883 98.291C767.141 105.445 768.947 113.33 768.947 121.614C768.947 154.206 741.009 180.628 706.546 180.628C672.083 180.628 644.145 154.206 644.145 121.614C644.145 89.0221 672.083 62.6007 706.546 62.6006Z" fill="url(#paint11_linear_4172_40632)"/>
<path d="M689.271 140.084C695.233 141.627 703.577 143.117 709.464 143.832C711.36 144.063 706.796 156.792 696.551 155.095C684.472 153.093 686.728 139.426 689.271 140.084Z" fill="#202020"/>
<path d="M689.271 140.084C695.233 141.627 703.577 143.117 709.464 143.832C711.36 144.063 706.796 156.792 696.551 155.095C684.472 153.093 686.728 139.426 689.271 140.084Z" fill="black" fill-opacity="0.2"/>
<path d="M689.271 140.084C695.233 141.627 703.577 143.117 709.464 143.832C711.36 144.063 706.796 156.792 696.551 155.095C684.472 153.093 686.728 139.426 689.271 140.084Z" stroke="#202020" stroke-width="4.0824"/>
<path d="M689.271 140.084C695.233 141.627 703.577 143.117 709.464 143.832C711.36 144.063 706.796 156.792 696.551 155.095C684.472 153.093 686.728 139.426 689.271 140.084Z" stroke="black" stroke-opacity="0.2" stroke-width="4.0824"/>
<circle cx="720.27" cy="117.592" r="16.9145" fill="white"/>
<mask id="mask5_4172_40632" style="mask-type:alpha" maskUnits="userSpaceOnUse" x="703" y="100" width="35" height="35">
<circle cx="720.266" cy="117.592" r="16.9145" fill="#D9D9D9"/>
</mask>
<g mask="url(#mask5_4172_40632)">
<circle cx="720.307" cy="117.665" r="10.4986" fill="#202020"/>
<circle cx="720.307" cy="117.665" r="10.4986" fill="black" fill-opacity="0.2"/>
</g>
<circle cx="691.977" cy="117.592" r="16.9145" fill="white"/>
<mask id="mask6_4172_40632" style="mask-type:alpha" maskUnits="userSpaceOnUse" x="675" y="100" width="34" height="35">
<circle cx="691.977" cy="117.592" r="16.9145" fill="#D9D9D9"/>
</mask>
<g mask="url(#mask6_4172_40632)">
<circle cx="691.897" cy="117.665" r="10.4986" fill="#202020"/>
<circle cx="691.897" cy="117.665" r="10.4986" fill="black" fill-opacity="0.2"/>
</g>
<path d="M677.229 91.9431C679.706 85.5712 686.332 80.8864 695.262 82.3323" stroke="#202020" stroke-width="4.0824" stroke-linecap="round"/>
<path d="M677.229 91.9431C679.706 85.5712 686.332 80.8864 695.262 82.3323" stroke="black" stroke-opacity="0.2" stroke-width="4.0824" stroke-linecap="round"/>
<ellipse cx="15.309" cy="12.2044" rx="15.309" ry="12.2044" transform="matrix(-0.374673 0.927157 0.927157 0.374673 640.945 55.2866)" fill="#1FC16F"/>
<ellipse cx="767.042" cy="74.0531" rx="15.309" ry="12.2044" transform="rotate(67.9959 767.042 74.0531)" fill="#1FC16F"/>
<path fill-rule="evenodd" clip-rule="evenodd" d="M710.54 46.6412C713.684 43.7665 717.117 41.987 718.582 43.7271C720.047 45.4677 718.988 50.07 715.844 52.9449C713.352 55.2235 710.114 55.9706 708.148 55.3169C708.647 58.2904 708.825 62.4821 708.154 63.441C707.53 64.333 704.229 64.7343 703.917 63.9761C703.334 62.5607 704.471 57.0794 705.397 55.3794C703.43 56.0226 700.204 55.273 697.72 53.0015C694.576 50.1266 693.516 45.5243 694.98 43.7837C696.445 42.0434 699.88 43.823 703.023 46.6978C704.76 48.2853 706.132 49.992 706.769 51.4947C707.394 49.9782 708.782 48.2489 710.54 46.6412Z" fill="#1FC16F"/>
<path d="M662.372 35.5543C663.819 35.5543 666.142 38.7001 666.142 41.312C666.142 43.9239 664.454 45.0127 662.372 45.0127C660.29 45.0127 658.602 43.9239 658.602 41.312C658.602 38.7001 660.924 35.5543 662.372 35.5543Z" fill="#8AD2E6"/>
<path d="M646.559 22.2862C648.007 22.2862 650.329 25.432 650.329 28.0439C650.329 30.6558 648.641 31.7446 646.559 31.7446C644.477 31.7446 642.789 30.6558 642.789 28.0439C642.789 25.432 645.112 22.2862 646.559 22.2862Z" fill="#8AD2E6"/>
<path d="M621.547 88.1114C622.995 88.1114 625.318 91.2572 625.318 93.8691C625.318 96.481 623.63 97.5698 621.547 97.5698C619.465 97.5698 617.777 96.481 617.777 93.8691C617.777 91.2572 620.1 88.1114 621.547 88.1114Z" fill="#8AD2E6"/>
<path d="M738.403 17.522C739.85 17.522 742.173 20.6679 742.173 23.2798C742.173 25.8916 740.485 26.9805 738.403 26.9805C736.321 26.9805 734.633 25.8916 734.633 23.2798C734.633 20.6679 736.956 17.522 738.403 17.522Z" fill="#8AD2E6"/>
<path d="M745.895 38.274C747.342 38.274 749.665 41.4198 749.665 44.0317C749.665 46.6436 747.977 47.7324 745.895 47.7324C743.813 47.7324 742.125 46.6436 742.125 44.0317C742.125 41.4198 744.448 38.274 745.895 38.274Z" fill="#8AD2E6"/>
<path d="M777.7 22.2842C779.147 22.2842 781.47 25.4301 781.47 28.042C781.47 30.6538 779.782 31.7427 777.7 31.7427C775.618 31.7427 773.93 30.6538 773.93 28.042C773.93 25.4301 776.253 22.2842 777.7 22.2842Z" fill="#8AD2E6"/>
<path d="M785.188 50.5196C786.635 50.5196 788.958 53.6654 788.958 56.2773C788.958 58.8892 787.27 59.978 785.188 59.978C783.106 59.978 781.418 58.8892 781.418 56.2773C781.418 53.6654 783.741 50.5196 785.188 50.5196Z" fill="#8AD2E6"/>
<path d="M787.907 109.883C789.354 109.883 791.677 113.029 791.677 115.641C791.677 118.253 789.989 119.342 787.907 119.342C785.825 119.342 784.137 118.253 784.137 115.641C784.137 113.029 786.46 109.883 787.907 109.883Z" fill="#8AD2E6"/>
<path d="M633.29 45.0792C634.737 45.0792 637.06 48.225 637.06 50.8369C637.06 53.4488 635.372 54.5376 633.29 54.5376C631.207 54.5376 629.52 53.4488 629.52 50.8369C629.52 48.225 631.842 45.0792 633.29 45.0792Z" fill="#8AD2E6"/>
<defs>
<linearGradient id="paint0_linear_4172_40632" x1="51.4662" y1="163.98" x2="51.4662" y2="197.32" gradientUnits="userSpaceOnUse">
<stop offset="0.5" stop-color="#202020"/>
<stop offset="1" stop-color="#474747"/>
</linearGradient>
<linearGradient id="paint1_linear_4172_40632" x1="109.982" y1="163.98" x2="109.982" y2="197.32" gradientUnits="userSpaceOnUse">
<stop offset="0.5" stop-color="#202020"/>
<stop offset="1" stop-color="#474747"/>
</linearGradient>
<linearGradient id="paint2_linear_4172_40632" x1="80.7764" y1="62.6001" x2="80.7764" y2="180.627" gradientUnits="userSpaceOnUse">
<stop stop-color="#32E389"/>
<stop offset="1" stop-color="#1FC16F"/>
</linearGradient>
<linearGradient id="paint3_linear_4172_40632" x1="305.645" y1="154.194" x2="305.645" y2="187.533" gradientUnits="userSpaceOnUse">
<stop offset="0.5" stop-color="#202020"/>
<stop offset="1" stop-color="#474747"/>
</linearGradient>
<linearGradient id="paint4_linear_4172_40632" x1="345.45" y1="151.813" x2="345.45" y2="185.153" gradientUnits="userSpaceOnUse">
<stop offset="0.5" stop-color="#202020"/>
<stop offset="1" stop-color="#474747"/>
</linearGradient>
<linearGradient id="paint5_linear_4172_40632" x1="301.991" y1="45.5923" x2="301.991" y2="163.619" gradientUnits="userSpaceOnUse">
<stop stop-color="#32E389"/>
<stop offset="1" stop-color="#1FC16F"/>
</linearGradient>
<linearGradient id="paint6_linear_4172_40632" x1="474.279" y1="163.98" x2="474.279" y2="197.32" gradientUnits="userSpaceOnUse">
<stop offset="0.5" stop-color="#202020"/>
<stop offset="1" stop-color="#474747"/>
</linearGradient>
<linearGradient id="paint7_linear_4172_40632" x1="532.794" y1="163.98" x2="532.794" y2="197.32" gradientUnits="userSpaceOnUse">
<stop offset="0.5" stop-color="#202020"/>
<stop offset="1" stop-color="#474747"/>
</linearGradient>
<linearGradient id="paint8_linear_4172_40632" x1="503.596" y1="62.603" x2="503.596" y2="180.63" gradientUnits="userSpaceOnUse">
<stop stop-color="#32E389"/>
<stop offset="1" stop-color="#1FC16F"/>
</linearGradient>
<linearGradient id="paint9_linear_4172_40632" x1="677.232" y1="163.98" x2="677.232" y2="197.32" gradientUnits="userSpaceOnUse">
<stop offset="0.5" stop-color="#202020"/>
<stop offset="1" stop-color="#474747"/>
</linearGradient>
<linearGradient id="paint10_linear_4172_40632" x1="735.747" y1="163.98" x2="735.747" y2="197.32" gradientUnits="userSpaceOnUse">
<stop offset="0.5" stop-color="#202020"/>
<stop offset="1" stop-color="#474747"/>
</linearGradient>
<linearGradient id="paint11_linear_4172_40632" x1="706.546" y1="62.6006" x2="706.546" y2="180.628" gradientUnits="userSpaceOnUse">
<stop stop-color="#32E389"/>
<stop offset="1" stop-color="#1FC16F"/>
</linearGradient>
<clipPath id="clip0_4172_40632">
<rect width="33.7758" height="33.7758" fill="white" transform="translate(451.312 42.9858) rotate(-21.6198)"/>
</clipPath>
<clipPath id="clip1_4172_40632">
<rect width="51.3132" height="51.3132" fill="white" transform="translate(534.406 131.126) rotate(-15.8397)"/>
</clipPath>
</defs>
</svg>
