<svg width="10" height="18" viewBox="0 0 10 18" fill="none" xmlns="http://www.w3.org/2000/svg">
<path d="M0 8.66211C0 9.00391 0.126953 9.29688 0.400391 9.55078L7.99805 16.9922C8.21289 17.207 8.48633 17.3242 8.80859 17.3242C9.45312 17.3242 9.9707 16.8164 9.9707 16.1621C9.9707 15.8398 9.83398 15.5566 9.61914 15.332L2.77344 8.66211L9.61914 1.99219C9.83398 1.76758 9.9707 1.47461 9.9707 1.16211C9.9707 0.507812 9.45312 0 8.80859 0C8.48633 0 8.21289 0.117188 7.99805 0.332031L0.400391 7.76367C0.126953 8.02734 0 8.32031 0 8.66211Z" fill="#C3C3C3"/>
</svg>
