<svg width="13" height="14" viewBox="0 0 13 14" fill="none" xmlns="http://www.w3.org/2000/svg">
<path fill-rule="evenodd" clip-rule="evenodd" d="M6.15775 0C6.34292 0 6.52049 0.0735547 6.65142 0.204483C6.78235 0.335411 6.8559 0.512988 6.8559 0.698149V1.36977L7.31249 1.12821C7.47617 1.04165 7.66754 1.02365 7.84449 1.07818C8.02144 1.13271 8.16948 1.25531 8.25604 1.41899C8.3426 1.58267 8.3606 1.77403 8.30607 1.95098C8.25154 2.12793 8.12894 2.27597 7.96526 2.36254L6.8559 2.94898V4.27686C7.35508 4.40532 7.7998 4.66782 8.15027 5.02458L9.30082 4.36064L9.25404 3.10676C9.2471 2.92169 9.31396 2.74145 9.43991 2.60568C9.56587 2.4699 9.7406 2.38973 9.92566 2.38278C10.1107 2.37584 10.291 2.4427 10.4268 2.56865C10.5625 2.6946 10.6427 2.86933 10.6496 3.0544L10.6685 3.57103L11.2501 3.23522C11.3295 3.18866 11.4173 3.15826 11.5086 3.14579C11.5998 3.13332 11.6926 3.13901 11.7816 3.16255C11.8706 3.18608 11.9541 3.22699 12.0272 3.28292C12.1004 3.33884 12.1617 3.40868 12.2077 3.48842C12.2538 3.56816 12.2836 3.65621 12.2955 3.74752C12.3073 3.83882 12.301 3.93157 12.2769 4.02042C12.2528 4.10928 12.2113 4.19249 12.1549 4.26525C12.0985 4.33802 12.0282 4.39891 11.9482 4.44442L11.3666 4.77953L11.8044 5.0546C11.882 5.10337 11.9493 5.16697 12.0024 5.24174C12.0555 5.31652 12.0933 5.40103 12.1137 5.49043C12.1342 5.57982 12.1368 5.67237 12.1214 5.76278C12.1061 5.85319 12.0731 5.93969 12.0243 6.01735C11.9755 6.095 11.9119 6.16229 11.8372 6.21537C11.7624 6.26844 11.6779 6.30627 11.5885 6.32669C11.4991 6.34712 11.4065 6.34973 11.3161 6.33438C11.2257 6.31904 11.1392 6.28604 11.0616 6.23726L9.99897 5.56983L8.84912 6.23307C8.9852 6.7225 8.9852 7.23978 8.84912 7.72921L9.99897 8.39315L11.0616 7.72572C11.2184 7.62721 11.4079 7.59504 11.5885 7.63628C11.769 7.67752 11.9258 7.7888 12.0243 7.94563C12.1228 8.10246 12.155 8.292 12.1137 8.47255C12.0725 8.6531 11.9612 8.80987 11.8044 8.90838L11.3673 9.18275L11.9482 9.51856C12.0282 9.56407 12.0985 9.62496 12.1549 9.69772C12.2113 9.77049 12.2528 9.8537 12.2769 9.94255C12.301 10.0314 12.3073 10.1242 12.2955 10.2155C12.2836 10.3068 12.2538 10.3948 12.2077 10.4746C12.1617 10.5543 12.1004 10.6241 12.0272 10.6801C11.9541 10.736 11.8706 10.7769 11.7816 10.8004C11.6926 10.824 11.5998 10.8297 11.5086 10.8172C11.4173 10.8047 11.3295 10.7743 11.2501 10.7278L10.6692 10.3926L10.6496 10.9086C10.6427 11.0936 10.5625 11.2684 10.4268 11.3943C10.291 11.5203 10.1107 11.5871 9.92566 11.5802C9.7406 11.5733 9.56587 11.4931 9.43991 11.3573C9.31396 11.2215 9.2471 11.0413 9.25404 10.8562L9.30082 9.60234L8.15027 8.9384C7.7998 9.29446 7.35438 9.55766 6.8559 9.68612V11.014L7.96526 11.6004C8.12894 11.687 8.25154 11.835 8.30607 12.012C8.3606 12.1889 8.3426 12.3803 8.25604 12.544C8.16948 12.7077 8.02144 12.8303 7.84449 12.8848C7.66754 12.9393 7.47617 12.9213 7.31249 12.8348L6.8559 12.5932V13.2648C6.8559 13.45 6.78235 13.6276 6.65142 13.7585C6.52049 13.8894 6.34292 13.963 6.15775 13.963C5.97259 13.963 5.79502 13.8894 5.66409 13.7585C5.53316 13.6276 5.45961 13.45 5.45961 13.2648V12.5932L5.00302 12.8348C4.92197 12.8776 4.83327 12.9041 4.74199 12.9127C4.65071 12.9213 4.55864 12.9118 4.47102 12.8848C4.3834 12.8578 4.30196 12.8138 4.23135 12.7553C4.16074 12.6968 4.10233 12.625 4.05947 12.544C4.01661 12.4629 3.99013 12.3742 3.98155 12.283C3.97296 12.1917 3.98244 12.0996 4.00944 12.012C4.03644 11.9244 4.08044 11.8429 4.13891 11.7723C4.19739 11.7017 4.2692 11.6433 4.35025 11.6004L5.45961 11.014V9.68612C4.96814 9.55893 4.52065 9.30018 4.16524 8.9377L3.01469 9.60234L3.06146 10.8562C3.06486 10.9479 3.05017 11.0393 3.01823 11.1252C2.9863 11.2112 2.93775 11.29 2.87535 11.3572C2.81295 11.4244 2.73793 11.4786 2.65457 11.5168C2.5712 11.555 2.48113 11.5765 2.3895 11.5798C2.29786 11.5832 2.20645 11.5685 2.12049 11.5366C2.03453 11.5047 1.95571 11.4561 1.88851 11.3937C1.82132 11.3313 1.76707 11.2563 1.72887 11.1729C1.69067 11.0896 1.66926 10.9995 1.66586 10.9079L1.64701 10.3919L1.06546 10.7271C0.985982 10.7762 0.897445 10.8089 0.805093 10.8233C0.712741 10.8376 0.618455 10.8332 0.527824 10.8104C0.437194 10.7876 0.352063 10.7468 0.277478 10.6905C0.202894 10.6342 0.140375 10.5635 0.0936261 10.4826C0.0468775 10.4017 0.0168514 10.3122 0.00532782 10.2194C-0.00619572 10.1267 0.00101793 10.0326 0.0265409 9.94267C0.0520639 9.85277 0.0953767 9.76891 0.153912 9.69606C0.212447 9.62321 0.285013 9.56285 0.367308 9.51856L0.948866 9.18275L0.511127 8.90768C0.358448 8.80734 0.251187 8.65114 0.212362 8.47261C0.173538 8.29409 0.206243 8.10745 0.30346 7.95276C0.400678 7.79807 0.554659 7.68766 0.73236 7.64521C0.910062 7.60276 1.09732 7.63166 1.25396 7.72572L2.31654 8.39315L3.46639 7.72921C3.33044 7.24 3.33044 6.72298 3.46639 6.23377L2.31654 5.57053L1.25396 6.23726C1.09732 6.33131 0.910062 6.36021 0.73236 6.31777C0.554659 6.27532 0.400678 6.1649 0.30346 6.01021C0.206243 5.85553 0.173538 5.66889 0.212362 5.49036C0.251187 5.31183 0.358448 5.15564 0.511127 5.0553L0.948866 4.78023L0.367308 4.44511C0.206867 4.35253 0.0897736 4.20001 0.0417884 4.0211C-0.00619683 3.84218 0.0188563 3.65154 0.111437 3.49109C0.204017 3.33065 0.356541 3.21356 0.535454 3.16557C0.714368 3.11759 0.905015 3.14264 1.06546 3.23522L1.64701 3.57103L1.66586 3.0544C1.67281 2.86933 1.75299 2.6946 1.88876 2.56865C1.95599 2.50628 2.03484 2.45777 2.12082 2.42588C2.20679 2.39399 2.29821 2.37934 2.38985 2.38278C2.48148 2.38622 2.57154 2.40767 2.65489 2.44592C2.73823 2.48416 2.81323 2.53845 2.8756 2.60568C2.93796 2.6729 2.98648 2.75176 3.01837 2.83773C3.05026 2.92371 3.0649 3.01513 3.06146 3.10676L3.01469 4.36064L4.16524 5.02528C4.52065 4.66279 4.96814 4.40405 5.45961 4.27686V2.94898L4.35025 2.36254C4.18657 2.27597 4.06397 2.12793 4.00944 1.95098C3.95491 1.77403 3.97291 1.58267 4.05947 1.41899C4.14603 1.25531 4.29407 1.13271 4.47102 1.07818C4.64797 1.02365 4.83933 1.04165 5.00302 1.12821L5.45961 1.36977V0.698149C5.45961 0.512988 5.53316 0.335411 5.66409 0.204483C5.79502 0.0735547 5.97259 0 6.15775 0ZM6.15775 8.37779C6.52808 8.37779 6.88323 8.23068 7.14509 7.96882C7.40694 7.70696 7.55405 7.35181 7.55405 6.98149C7.55405 6.61117 7.40694 6.25601 7.14509 5.99416C6.88323 5.7323 6.52808 5.58519 6.15775 5.58519C5.78743 5.58519 5.43228 5.7323 5.17042 5.99416C4.90857 6.25601 4.76146 6.61117 4.76146 6.98149C4.76146 7.35181 4.90857 7.70696 5.17042 7.96882C5.43228 8.23068 5.78743 8.37779 6.15775 8.37779Z" fill="#202020"/>
<path fill-rule="evenodd" clip-rule="evenodd" d="M6.15775 0C6.34292 0 6.52049 0.0735547 6.65142 0.204483C6.78235 0.335411 6.8559 0.512988 6.8559 0.698149V1.36977L7.31249 1.12821C7.47617 1.04165 7.66754 1.02365 7.84449 1.07818C8.02144 1.13271 8.16948 1.25531 8.25604 1.41899C8.3426 1.58267 8.3606 1.77403 8.30607 1.95098C8.25154 2.12793 8.12894 2.27597 7.96526 2.36254L6.8559 2.94898V4.27686C7.35508 4.40532 7.7998 4.66782 8.15027 5.02458L9.30082 4.36064L9.25404 3.10676C9.2471 2.92169 9.31396 2.74145 9.43991 2.60568C9.56587 2.4699 9.7406 2.38973 9.92566 2.38278C10.1107 2.37584 10.291 2.4427 10.4268 2.56865C10.5625 2.6946 10.6427 2.86933 10.6496 3.0544L10.6685 3.57103L11.2501 3.23522C11.3295 3.18866 11.4173 3.15826 11.5086 3.14579C11.5998 3.13332 11.6926 3.13901 11.7816 3.16255C11.8706 3.18608 11.9541 3.22699 12.0272 3.28292C12.1004 3.33884 12.1617 3.40868 12.2077 3.48842C12.2538 3.56816 12.2836 3.65621 12.2955 3.74752C12.3073 3.83882 12.301 3.93157 12.2769 4.02042C12.2528 4.10928 12.2113 4.19249 12.1549 4.26525C12.0985 4.33802 12.0282 4.39891 11.9482 4.44442L11.3666 4.77953L11.8044 5.0546C11.882 5.10337 11.9493 5.16697 12.0024 5.24174C12.0555 5.31652 12.0933 5.40103 12.1137 5.49043C12.1342 5.57982 12.1368 5.67237 12.1214 5.76278C12.1061 5.85319 12.0731 5.93969 12.0243 6.01735C11.9755 6.095 11.9119 6.16229 11.8372 6.21537C11.7624 6.26844 11.6779 6.30627 11.5885 6.32669C11.4991 6.34712 11.4065 6.34973 11.3161 6.33438C11.2257 6.31904 11.1392 6.28604 11.0616 6.23726L9.99897 5.56983L8.84912 6.23307C8.9852 6.7225 8.9852 7.23978 8.84912 7.72921L9.99897 8.39315L11.0616 7.72572C11.2184 7.62721 11.4079 7.59504 11.5885 7.63628C11.769 7.67752 11.9258 7.7888 12.0243 7.94563C12.1228 8.10246 12.155 8.292 12.1137 8.47255C12.0725 8.6531 11.9612 8.80987 11.8044 8.90838L11.3673 9.18275L11.9482 9.51856C12.0282 9.56407 12.0985 9.62496 12.1549 9.69772C12.2113 9.77049 12.2528 9.8537 12.2769 9.94255C12.301 10.0314 12.3073 10.1242 12.2955 10.2155C12.2836 10.3068 12.2538 10.3948 12.2077 10.4746C12.1617 10.5543 12.1004 10.6241 12.0272 10.6801C11.9541 10.736 11.8706 10.7769 11.7816 10.8004C11.6926 10.824 11.5998 10.8297 11.5086 10.8172C11.4173 10.8047 11.3295 10.7743 11.2501 10.7278L10.6692 10.3926L10.6496 10.9086C10.6427 11.0936 10.5625 11.2684 10.4268 11.3943C10.291 11.5203 10.1107 11.5871 9.92566 11.5802C9.7406 11.5733 9.56587 11.4931 9.43991 11.3573C9.31396 11.2215 9.2471 11.0413 9.25404 10.8562L9.30082 9.60234L8.15027 8.9384C7.7998 9.29446 7.35438 9.55766 6.8559 9.68612V11.014L7.96526 11.6004C8.12894 11.687 8.25154 11.835 8.30607 12.012C8.3606 12.1889 8.3426 12.3803 8.25604 12.544C8.16948 12.7077 8.02144 12.8303 7.84449 12.8848C7.66754 12.9393 7.47617 12.9213 7.31249 12.8348L6.8559 12.5932V13.2648C6.8559 13.45 6.78235 13.6276 6.65142 13.7585C6.52049 13.8894 6.34292 13.963 6.15775 13.963C5.97259 13.963 5.79502 13.8894 5.66409 13.7585C5.53316 13.6276 5.45961 13.45 5.45961 13.2648V12.5932L5.00302 12.8348C4.92197 12.8776 4.83327 12.9041 4.74199 12.9127C4.65071 12.9213 4.55864 12.9118 4.47102 12.8848C4.3834 12.8578 4.30196 12.8138 4.23135 12.7553C4.16074 12.6968 4.10233 12.625 4.05947 12.544C4.01661 12.4629 3.99013 12.3742 3.98155 12.283C3.97296 12.1917 3.98244 12.0996 4.00944 12.012C4.03644 11.9244 4.08044 11.8429 4.13891 11.7723C4.19739 11.7017 4.2692 11.6433 4.35025 11.6004L5.45961 11.014V9.68612C4.96814 9.55893 4.52065 9.30018 4.16524 8.9377L3.01469 9.60234L3.06146 10.8562C3.06486 10.9479 3.05017 11.0393 3.01823 11.1252C2.9863 11.2112 2.93775 11.29 2.87535 11.3572C2.81295 11.4244 2.73793 11.4786 2.65457 11.5168C2.5712 11.555 2.48113 11.5765 2.3895 11.5798C2.29786 11.5832 2.20645 11.5685 2.12049 11.5366C2.03453 11.5047 1.95571 11.4561 1.88851 11.3937C1.82132 11.3313 1.76707 11.2563 1.72887 11.1729C1.69067 11.0896 1.66926 10.9995 1.66586 10.9079L1.64701 10.3919L1.06546 10.7271C0.985982 10.7762 0.897445 10.8089 0.805093 10.8233C0.712741 10.8376 0.618455 10.8332 0.527824 10.8104C0.437194 10.7876 0.352063 10.7468 0.277478 10.6905C0.202894 10.6342 0.140375 10.5635 0.0936261 10.4826C0.0468775 10.4017 0.0168514 10.3122 0.00532782 10.2194C-0.00619572 10.1267 0.00101793 10.0326 0.0265409 9.94267C0.0520639 9.85277 0.0953767 9.76891 0.153912 9.69606C0.212447 9.62321 0.285013 9.56285 0.367308 9.51856L0.948866 9.18275L0.511127 8.90768C0.358448 8.80734 0.251187 8.65114 0.212362 8.47261C0.173538 8.29409 0.206243 8.10745 0.30346 7.95276C0.400678 7.79807 0.554659 7.68766 0.73236 7.64521C0.910062 7.60276 1.09732 7.63166 1.25396 7.72572L2.31654 8.39315L3.46639 7.72921C3.33044 7.24 3.33044 6.72298 3.46639 6.23377L2.31654 5.57053L1.25396 6.23726C1.09732 6.33131 0.910062 6.36021 0.73236 6.31777C0.554659 6.27532 0.400678 6.1649 0.30346 6.01021C0.206243 5.85553 0.173538 5.66889 0.212362 5.49036C0.251187 5.31183 0.358448 5.15564 0.511127 5.0553L0.948866 4.78023L0.367308 4.44511C0.206867 4.35253 0.0897736 4.20001 0.0417884 4.0211C-0.00619683 3.84218 0.0188563 3.65154 0.111437 3.49109C0.204017 3.33065 0.356541 3.21356 0.535454 3.16557C0.714368 3.11759 0.905015 3.14264 1.06546 3.23522L1.64701 3.57103L1.66586 3.0544C1.67281 2.86933 1.75299 2.6946 1.88876 2.56865C1.95599 2.50628 2.03484 2.45777 2.12082 2.42588C2.20679 2.39399 2.29821 2.37934 2.38985 2.38278C2.48148 2.38622 2.57154 2.40767 2.65489 2.44592C2.73823 2.48416 2.81323 2.53845 2.8756 2.60568C2.93796 2.6729 2.98648 2.75176 3.01837 2.83773C3.05026 2.92371 3.0649 3.01513 3.06146 3.10676L3.01469 4.36064L4.16524 5.02528C4.52065 4.66279 4.96814 4.40405 5.45961 4.27686V2.94898L4.35025 2.36254C4.18657 2.27597 4.06397 2.12793 4.00944 1.95098C3.95491 1.77403 3.97291 1.58267 4.05947 1.41899C4.14603 1.25531 4.29407 1.13271 4.47102 1.07818C4.64797 1.02365 4.83933 1.04165 5.00302 1.12821L5.45961 1.36977V0.698149C5.45961 0.512988 5.53316 0.335411 5.66409 0.204483C5.79502 0.0735547 5.97259 0 6.15775 0ZM6.15775 8.37779C6.52808 8.37779 6.88323 8.23068 7.14509 7.96882C7.40694 7.70696 7.55405 7.35181 7.55405 6.98149C7.55405 6.61117 7.40694 6.25601 7.14509 5.99416C6.88323 5.7323 6.52808 5.58519 6.15775 5.58519C5.78743 5.58519 5.43228 5.7323 5.17042 5.99416C4.90857 6.25601 4.76146 6.61117 4.76146 6.98149C4.76146 7.35181 4.90857 7.70696 5.17042 7.96882C5.43228 8.23068 5.78743 8.37779 6.15775 8.37779Z" fill="black" fill-opacity="0.2"/>
</svg>
