<svg width="12" height="15" viewBox="0 0 12 15" fill="none" xmlns="http://www.w3.org/2000/svg">
<path d="M6 0C2.0025 3.4125 0 6.36 0 8.85C0 12.585 2.85 15 6 15C9.15 15 12 12.585 12 8.85C12 6.36 9.9975 3.4125 6 0ZM2.8725 9C3.15 9 3.375 9.195 3.4275 9.465C3.735 11.13 5.1375 11.7 6.1575 11.6175C6.48 11.6025 6.75 11.8575 6.75 12.18C6.75 12.48 6.51 12.7275 6.21 12.7425C4.6125 12.84 2.745 11.925 2.3175 9.6525C2.30447 9.57209 2.30905 9.48981 2.33094 9.41134C2.35283 9.33288 2.39151 9.2601 2.44428 9.19805C2.49706 9.136 2.56269 9.08616 2.63662 9.05196C2.71056 9.01777 2.79104 9.00004 2.8725 9Z" fill="#202020"/>
<path d="M6 0C2.0025 3.4125 0 6.36 0 8.85C0 12.585 2.85 15 6 15C9.15 15 12 12.585 12 8.85C12 6.36 9.9975 3.4125 6 0ZM2.8725 9C3.15 9 3.375 9.195 3.4275 9.465C3.735 11.13 5.1375 11.7 6.1575 11.6175C6.48 11.6025 6.75 11.8575 6.75 12.18C6.75 12.48 6.51 12.7275 6.21 12.7425C4.6125 12.84 2.745 11.925 2.3175 9.6525C2.30447 9.57209 2.30905 9.48981 2.33094 9.41134C2.35283 9.33288 2.39151 9.2601 2.44428 9.19805C2.49706 9.136 2.56269 9.08616 2.63662 9.05196C2.71056 9.01777 2.79104 9.00004 2.8725 9Z" fill="black" fill-opacity="0.2"/>
</svg>
