<svg width="13" height="15" viewBox="0 0 13 15" fill="none" xmlns="http://www.w3.org/2000/svg">
<path d="M8.09476 0.880654C8.15234 0.863201 8.20584 0.834377 8.25209 0.795886C8.29834 0.757396 8.3364 0.710021 8.36402 0.656564C8.39164 0.603107 8.40826 0.544654 8.41289 0.484662C8.41753 0.42467 8.41008 0.364357 8.391 0.307292C8.37192 0.250227 8.34159 0.197569 8.3018 0.152431C8.26201 0.107294 8.21357 0.0705948 8.15935 0.0445043C8.10513 0.0184138 8.04623 0.00346195 7.98613 0.000533346C7.92603 -0.00239526 7.86596 0.0067588 7.80946 0.027454C6.96616 0.308254 6.43966 1.00125 6.13006 1.74375C6.08829 1.84404 6.05016 1.94581 6.01576 2.04885C5.84714 1.72949 5.63142 1.43732 5.37586 1.18215C5.02961 0.835911 4.61637 0.563944 4.16141 0.382888C3.70645 0.201832 3.21933 0.115494 2.72986 0.129154C2.20786 0.143554 1.79116 0.561154 1.77676 1.08225C1.7631 1.57173 1.84943 2.05884 2.03049 2.5138C2.21155 2.96877 2.48351 3.38201 2.82976 3.72825L2.85766 3.75525C2.10152 3.91875 1.41817 4.32147 0.908838 4.90375C0.399505 5.48603 0.0912905 6.21689 0.0298566 6.98805L0.0244566 7.05465C-0.0943598 8.53713 0.221524 10.0221 0.933457 11.3279L1.25746 11.9201C1.26586 11.9357 1.27546 11.9507 1.28626 11.9651L2.18626 13.2269C2.39024 13.5125 2.654 13.7503 2.95921 13.9237C3.26441 14.0971 3.60373 14.2019 3.95355 14.2309C4.30337 14.2598 4.6553 14.2122 4.98486 14.0914C5.31442 13.9705 5.61369 13.7793 5.86186 13.5311C5.89997 13.4929 5.94522 13.4627 5.99502 13.4421C6.04482 13.4214 6.0982 13.4108 6.15211 13.4108C6.20601 13.4108 6.25939 13.4214 6.30919 13.4421C6.359 13.4627 6.40425 13.4929 6.44236 13.5311C6.69052 13.7793 6.9898 13.9705 7.31935 14.0914C7.64891 14.2122 8.00084 14.2598 8.35066 14.2309C8.70049 14.2019 9.0398 14.0971 9.34501 13.9237C9.65021 13.7503 9.91398 13.5125 10.118 13.2269L11.018 11.966L11.0468 11.9201L11.3699 11.3279C12.0818 10.0221 12.3977 8.53713 12.2789 7.05465L12.2744 6.98805C12.2345 6.49106 12.0919 6.00776 11.8555 5.56877C11.6191 5.12979 11.2941 4.7447 10.9011 4.4379C10.5081 4.1311 10.0556 3.90928 9.57236 3.7865C9.08913 3.66372 8.58566 3.64266 8.09386 3.72465L6.60256 3.97305C6.61156 3.36015 6.71956 2.67075 6.96166 2.08935C7.21366 1.48185 7.58806 1.04985 8.09386 0.880654M3.36886 6.28065C3.23069 6.32434 3.10253 6.39495 2.99178 6.4884C2.88102 6.58185 2.78987 6.6963 2.72356 6.82515C2.55706 7.13835 2.44276 7.65495 2.54806 8.49825C2.55987 8.61516 2.52548 8.73205 2.45225 8.82394C2.37902 8.91584 2.27275 8.97544 2.15615 8.99001C2.03956 9.00459 1.92188 8.97298 1.82828 8.90194C1.73469 8.8309 1.67259 8.72607 1.65526 8.60985C1.53556 7.65225 1.64626 6.93135 1.92976 6.40125C2.21776 5.86125 2.65606 5.56965 3.08446 5.42655C3.19772 5.38884 3.32132 5.39766 3.42808 5.45108C3.53483 5.5045 3.61599 5.59814 3.65371 5.7114C3.69142 5.82467 3.6826 5.94827 3.62918 6.05502C3.57576 6.16178 3.48212 6.24294 3.36886 6.28065Z" fill="#202020"/>
<path d="M8.09476 0.880654C8.15234 0.863201 8.20584 0.834377 8.25209 0.795886C8.29834 0.757396 8.3364 0.710021 8.36402 0.656564C8.39164 0.603107 8.40826 0.544654 8.41289 0.484662C8.41753 0.42467 8.41008 0.364357 8.391 0.307292C8.37192 0.250227 8.34159 0.197569 8.3018 0.152431C8.26201 0.107294 8.21357 0.0705948 8.15935 0.0445043C8.10513 0.0184138 8.04623 0.00346195 7.98613 0.000533346C7.92603 -0.00239526 7.86596 0.0067588 7.80946 0.027454C6.96616 0.308254 6.43966 1.00125 6.13006 1.74375C6.08829 1.84404 6.05016 1.94581 6.01576 2.04885C5.84714 1.72949 5.63142 1.43732 5.37586 1.18215C5.02961 0.835911 4.61637 0.563944 4.16141 0.382888C3.70645 0.201832 3.21933 0.115494 2.72986 0.129154C2.20786 0.143554 1.79116 0.561154 1.77676 1.08225C1.7631 1.57173 1.84943 2.05884 2.03049 2.5138C2.21155 2.96877 2.48351 3.38201 2.82976 3.72825L2.85766 3.75525C2.10152 3.91875 1.41817 4.32147 0.908838 4.90375C0.399505 5.48603 0.0912905 6.21689 0.0298566 6.98805L0.0244566 7.05465C-0.0943598 8.53713 0.221524 10.0221 0.933457 11.3279L1.25746 11.9201C1.26586 11.9357 1.27546 11.9507 1.28626 11.9651L2.18626 13.2269C2.39024 13.5125 2.654 13.7503 2.95921 13.9237C3.26441 14.0971 3.60373 14.2019 3.95355 14.2309C4.30337 14.2598 4.6553 14.2122 4.98486 14.0914C5.31442 13.9705 5.61369 13.7793 5.86186 13.5311C5.89997 13.4929 5.94522 13.4627 5.99502 13.4421C6.04482 13.4214 6.0982 13.4108 6.15211 13.4108C6.20601 13.4108 6.25939 13.4214 6.30919 13.4421C6.359 13.4627 6.40425 13.4929 6.44236 13.5311C6.69052 13.7793 6.9898 13.9705 7.31935 14.0914C7.64891 14.2122 8.00084 14.2598 8.35066 14.2309C8.70049 14.2019 9.0398 14.0971 9.34501 13.9237C9.65021 13.7503 9.91398 13.5125 10.118 13.2269L11.018 11.966L11.0468 11.9201L11.3699 11.3279C12.0818 10.0221 12.3977 8.53713 12.2789 7.05465L12.2744 6.98805C12.2345 6.49106 12.0919 6.00776 11.8555 5.56877C11.6191 5.12979 11.2941 4.7447 10.9011 4.4379C10.5081 4.1311 10.0556 3.90928 9.57236 3.7865C9.08913 3.66372 8.58566 3.64266 8.09386 3.72465L6.60256 3.97305C6.61156 3.36015 6.71956 2.67075 6.96166 2.08935C7.21366 1.48185 7.58806 1.04985 8.09386 0.880654M3.36886 6.28065C3.23069 6.32434 3.10253 6.39495 2.99178 6.4884C2.88102 6.58185 2.78987 6.6963 2.72356 6.82515C2.55706 7.13835 2.44276 7.65495 2.54806 8.49825C2.55987 8.61516 2.52548 8.73205 2.45225 8.82394C2.37902 8.91584 2.27275 8.97544 2.15615 8.99001C2.03956 9.00459 1.92188 8.97298 1.82828 8.90194C1.73469 8.8309 1.67259 8.72607 1.65526 8.60985C1.53556 7.65225 1.64626 6.93135 1.92976 6.40125C2.21776 5.86125 2.65606 5.56965 3.08446 5.42655C3.19772 5.38884 3.32132 5.39766 3.42808 5.45108C3.53483 5.5045 3.61599 5.59814 3.65371 5.7114C3.69142 5.82467 3.6826 5.94827 3.62918 6.05502C3.57576 6.16178 3.48212 6.24294 3.36886 6.28065Z" fill="black" fill-opacity="0.2"/>
</svg>
