<svg width="82" height="75" viewBox="0 0 82 75" fill="none" xmlns="http://www.w3.org/2000/svg">
<path fill-rule="evenodd" clip-rule="evenodd" d="M49.029 6.3421C48.0361 6.11566 46.9939 6.29292 46.1316 6.83491C45.2694 7.3769 44.6578 8.23921 44.4313 9.23215L42.1545 19.2158C41.928 20.2087 42.1053 21.2509 42.6473 22.1132C43.1893 22.9754 44.0516 23.587 45.0445 23.8135C46.0375 24.0399 47.0797 23.8627 47.9419 23.3207C48.8041 22.7787 49.4158 21.9164 49.6422 20.9234L51.9191 10.9398C52.1455 9.94686 51.9682 8.90463 51.4263 8.0424C50.8843 7.18017 50.022 6.56855 49.029 6.3421Z" fill="#C3C3C3"/>
<path fill-rule="evenodd" clip-rule="evenodd" d="M35.3967 15.0446L55.294 19.5824C56.9311 19.8825 58.4264 20.7062 59.5548 21.9296C60.6832 23.153 61.3837 24.7098 61.5507 26.3658L61.557 26.4302L62.3616 36.9486L70.5082 38.8065C71.4915 39.0307 72.421 39.4465 73.2437 40.0299C74.0663 40.6134 74.766 41.3532 75.3027 42.2071C75.8394 43.061 76.2027 44.0122 76.3718 45.0065C76.5409 46.0007 76.5126 47.0186 76.2883 48.0019L74.0115 57.9855C73.5586 59.9714 72.3353 61.696 70.6109 62.78C68.8864 63.864 66.8019 64.2185 64.8161 63.7656L9.90606 51.2429C7.92019 50.79 6.19557 49.5667 5.11159 47.8423C4.02762 46.1178 3.67308 44.0334 4.12597 42.0475L6.40283 32.0638C6.85573 30.078 8.07896 28.3534 9.80343 27.2694C11.5279 26.1854 13.6123 25.8309 15.5982 26.2838L21.2889 27.5816L26.8092 18.4584L26.8165 18.4496C27.6843 17.0287 28.9904 15.9283 30.5379 15.3141C32.0855 14.7 33.7907 14.6054 35.3967 15.0446Z" fill="#EBEBEB"/>
<path fill-rule="evenodd" clip-rule="evenodd" d="M12.1037 53.0669C11.6505 55.0541 12.0053 57.14 13.09 58.8656C14.1747 60.5912 15.9005 61.8152 17.8877 62.2684C19.8748 62.7216 21.9607 62.3669 23.6863 61.2822C25.4119 60.1975 26.636 58.4717 27.0892 56.4845C27.5424 54.4973 27.1876 52.4115 26.1029 50.6859C25.0182 48.9602 23.2924 47.7362 21.3052 47.283C19.318 46.8298 17.2322 47.1846 15.5066 48.2693C13.781 49.354 12.5569 51.0797 12.1037 53.0669ZM47.0465 61.036C46.5933 63.0231 46.948 65.109 48.0327 66.8346C49.1174 68.5602 50.8432 69.7843 52.8304 70.2375C54.8176 70.6906 56.9034 70.3359 58.629 69.2512C60.3547 68.1665 61.5787 66.4407 62.0319 64.4535C62.4851 62.4663 62.1303 60.3805 61.0456 58.6549C59.9609 56.9292 58.2352 55.7052 56.248 55.252C54.2608 54.7988 52.1749 55.1536 50.4493 56.2383C48.7237 57.323 47.4997 59.0488 47.0465 61.036Z" fill="#C3C3C3"/>
</svg>
