<svg width="73" height="21" viewBox="0 0 73 21" fill="none" xmlns="http://www.w3.org/2000/svg">
<rect x="3.5" width="66" height="14" rx="3" fill="#EBEBEB"/>
<path d="M16.6406 5.72656C16.6406 6.89844 17.4062 8.10938 18.4844 8.57031L18.0781 9.14844C17.2539 8.78516 16.5977 8.01562 16.2734 7.07812C15.9492 8.07812 15.2891 8.92969 14.4766 9.32812L14.0469 8.74219C15.1016 8.25 15.8828 6.92969 15.8906 5.72656V4.98438H14.2891V4.36719H18.2344V4.98438H16.6406V5.72656ZM19.8594 3.66406V10.6641H19.1172V3.66406H19.8594ZM26.5703 4.01562V4.54688C26.5703 5.09766 26.5703 5.72266 26.3906 6.57031H27.3828V7.17969H20.9766V6.57031H25.6406C25.8281 5.75391 25.8359 5.15625 25.8359 4.625H21.7812V4.01562H26.5703ZM26.5781 8.07031V10.5781H21.7578V8.07031H26.5781ZM22.4844 8.65625V9.97656H25.8438V8.65625H22.4844ZM33.6172 4.375C33.6172 6.4375 32.9297 8.29688 30.3594 9.54688L29.9609 8.96875C31.2148 8.35938 31.9961 7.60547 32.4375 6.71094L30.1016 6.92969L30 6.28125L32.6719 6.10938C32.7812 5.75391 32.8516 5.375 32.8828 4.97656H30.3516V4.375H33.6172ZM35.6641 3.66406V10.6641H34.9141V3.66406H35.6641ZM43.1562 7.64062V8.25781H40.2969V10.6641H39.5703V8.25781H36.75V7.64062H43.1562ZM39.9375 3.92969C41.4141 3.92969 42.4297 4.53125 42.4297 5.48438C42.4297 6.42969 41.4141 7.02344 39.9375 7.02344C38.4531 7.02344 37.4453 6.42969 37.4453 5.48438C37.4453 4.53125 38.4531 3.92969 39.9375 3.92969ZM39.9375 4.52344C38.8984 4.53125 38.2031 4.89062 38.2109 5.48438C38.2031 6.07031 38.8984 6.42969 39.9375 6.42969C40.9766 6.42969 41.6719 6.07031 41.6719 5.48438C41.6719 4.89062 40.9766 4.53125 39.9375 4.52344ZM49.3359 5.71094V6.30469H44.5156V3.91406H45.25V5.71094H49.3359ZM50.0703 7.1875V7.78125H43.6641V7.1875H50.0703ZM49.3828 9.89062V10.5H44.4609V8.44531H45.2031V9.89062H49.3828ZM58.9219 6.90625V7.50781H56.0938V8.17969C57.3789 8.25 58.1406 8.68359 58.1406 9.41406C58.1406 10.2109 57.2344 10.6562 55.7266 10.6484C54.2031 10.6562 53.2969 10.2109 53.2969 9.41406C53.2969 8.68359 54.0586 8.25 55.3594 8.17969V7.50781H52.5391V6.90625H58.9219ZM55.7266 8.74219C54.6562 8.74219 54.0469 8.98438 54.0469 9.41406C54.0469 9.83594 54.6562 10.0859 55.7266 10.0781C56.7812 10.0859 57.3984 9.83594 57.3984 9.41406C57.3984 8.98438 56.7812 8.74219 55.7266 8.74219ZM58.3516 3.98438V4.57812H56.2266C56.332 5.25391 57.3164 5.82812 58.5938 5.95312L58.3281 6.53906C57.1172 6.39844 56.1133 5.88672 55.7344 5.14062C55.3438 5.88672 54.3438 6.39844 53.1328 6.53906L52.875 5.95312C54.1328 5.82812 55.1211 5.25391 55.2266 4.57812H53.125V3.98438H58.3516Z" fill="#1FC16F"/>
<path d="M35.7402 20.55C35.8557 20.75 36.1443 20.75 36.2598 20.55L40.0703 13.95C40.1858 13.75 40.0415 13.5 39.8105 13.5L32.1895 13.5C31.9585 13.5 31.8142 13.75 31.9297 13.95L35.7402 20.55Z" fill="#EBEBEB"/>
</svg>
