<svg width="77" height="78" viewBox="0 0 77 78" fill="none" xmlns="http://www.w3.org/2000/svg">
<path fill-rule="evenodd" clip-rule="evenodd" d="M58.5014 4.29772C57.9331 4.41414 57.4342 4.75157 57.1146 5.23578C56.7951 5.71999 56.6809 6.31131 56.7973 6.87968L57.9679 12.5944C58.0843 13.1627 58.4217 13.6616 58.9059 13.9811C59.3901 14.3007 59.9815 14.4148 60.5498 14.2984C61.1182 14.182 61.617 13.8446 61.9366 13.3604C62.2562 12.8762 62.3703 12.2848 62.2539 11.7165L61.0834 6.00179C60.9669 5.43343 60.6295 4.93459 60.1453 4.61502C59.6611 4.29544 59.0698 4.18131 58.5014 4.29772ZM51.3581 5.76087C51.9264 5.64445 52.5177 5.75859 53.002 6.07816C53.4862 6.39774 53.8236 6.89657 53.94 7.46493L55.1105 13.1796C55.2269 13.748 55.1128 14.3393 54.7932 14.8235C54.4737 15.3077 53.9748 15.6452 53.4065 15.7616C52.8381 15.878 52.2468 15.7639 51.7626 15.4443C51.2783 15.1247 50.9409 14.6259 50.8245 14.0575L49.654 8.34282C49.5376 7.77446 49.6517 7.18313 49.9713 6.69892C50.2909 6.21471 50.7897 5.87728 51.3581 5.76087ZM57.5634 17.8873C56.8056 18.0426 56.1405 18.4925 55.7144 19.1381C55.2883 19.7837 55.1361 20.5721 55.2913 21.3299L57.2528 30.9063C57.5007 32.117 58.0022 33.2615 58.7244 34.2643C59.4466 35.2671 60.373 36.1056 61.4426 36.7246L64.0365 38.2252C64.7617 38.644 65.3425 39.2735 65.7015 40.0302C66.0605 40.7869 66.1808 41.6348 66.0464 42.4615C65.912 43.2881 65.5293 44.0544 64.9492 44.6583C64.369 45.2623 63.6188 45.6755 62.7982 45.843L49.6973 48.5264C48.9395 48.6816 48.2743 49.1316 47.8482 49.7772C47.4221 50.4228 47.27 51.2112 47.4252 51.969C47.5804 52.7268 48.0303 53.392 48.6759 53.8181C49.3215 54.2442 50.11 54.3963 50.8678 54.2411L63.9687 51.5577C65.9478 51.1526 67.757 50.1552 69.1561 48.6979C70.5552 47.2407 71.4781 45.3924 71.8024 43.3985C72.1266 41.4045 71.8369 39.359 70.9717 37.5335C70.1064 35.7081 68.7065 34.1888 66.9578 33.1774L64.3636 31.6753C64.0071 31.469 63.6984 31.1894 63.4578 30.8551C63.2172 30.5208 63.0501 30.1394 62.9675 29.7358L61.0057 20.158C60.8505 19.4002 60.4006 18.7351 59.755 18.309C59.1094 17.8829 58.3209 17.7307 57.5631 17.8859" fill="#C3C3C3"/>
<path d="M48.8442 18.929C48.5276 17.3832 48.4347 16.2322 48.4479 15.381C48.4803 13.4242 49.9253 12.2083 51.3381 11.8311C52.2425 11.5878 53.7278 11.23 56.0994 10.7442C58.471 10.2585 59.9773 10.0035 60.9059 9.87136C62.3522 9.66445 64.1586 10.2129 64.9576 11.9993C65.3059 12.7765 65.6716 13.8717 65.9879 15.416C66.1565 16.239 66.2616 16.9483 66.3214 17.5598C66.6004 20.4263 64.5054 22.2845 62.321 22.8123C61.444 23.0217 60.2774 23.2859 58.733 23.6023C57.1886 23.9186 56.0124 24.1357 55.1248 24.2863C52.9074 24.66 50.2506 23.7752 49.3816 21.0295C49.1947 20.4441 49.0124 19.7505 48.8439 18.9276" fill="#C3C3C3"/>
<path d="M23.5734 8.19548C27.1265 7.46771 30.098 7.00348 32.5194 6.70996C38.4781 5.98963 43.4048 9.98374 44.7813 15.5416C45.9539 20.2853 47.5908 27.3395 49.5801 37.0516L53.4071 55.7358C55.2605 55.6271 57.431 56.3764 58.2927 58.7007C58.5475 59.3854 58.7914 60.2197 58.998 61.2283C59.2046 62.237 59.307 63.1002 59.3432 63.8297C59.4837 66.6814 57.206 68.2941 55.2244 68.7L18.259 76.2715C16.2774 76.6774 13.549 76.09 12.5571 73.4127C12.259 72.589 12.0233 71.7441 11.8518 70.8851C11.6452 69.8764 11.5428 69.0132 11.5065 68.2838C11.3849 65.8078 13.0861 64.2655 14.833 63.6368L11.006 44.9526C9.01667 35.2405 7.74836 28.1108 6.96294 23.2878C6.04211 17.6366 9.00315 12.0269 14.7638 10.3468C17.6702 9.51134 20.6091 8.79366 23.5734 8.19548Z" fill="#EBEBEB"/>
<path fill-rule="evenodd" clip-rule="evenodd" d="M39.7153 28.5649C39.8029 27.2771 39.7199 25.2443 39.084 22.1398C38.4482 19.0353 37.7252 17.1336 37.1384 15.984C36.2913 14.3265 34.5734 13.7376 33.0927 13.9217C31.7716 14.0852 29.3214 14.4635 25.0382 15.3408C20.7551 16.2181 18.3549 16.8333 17.0745 17.2027C15.6406 17.6155 14.2926 18.8324 14.1654 20.6894C14.0778 21.9772 14.1607 24.01 14.7966 27.1145C15.4325 30.219 16.1555 32.1207 16.7423 33.2703C17.5894 34.9278 19.3073 35.5167 20.7879 35.3326C22.1091 35.1691 24.5593 34.7908 28.8424 33.9135C33.1256 33.0362 35.5258 32.421 36.8062 32.0516C38.24 31.6388 39.5881 30.4219 39.7153 28.5649Z" fill="#C3C3C3"/>
<path d="M33.9366 41.5627C33.6764 39.6674 31.2566 39.0093 30.1367 40.635C27.5813 44.3441 25.3617 48.3267 24.1431 50.6113C23.4067 51.9946 24.3502 53.6577 25.949 53.6651C26.9472 53.6691 28.2567 53.645 29.811 53.5514C29.9973 55.4125 30.2195 57.2698 30.4772 59.1223C30.7388 61.0173 33.1586 61.6753 34.2771 60.0499C36.8325 56.3409 39.0521 52.3583 40.2719 50.072C41.0071 48.6903 40.065 47.027 38.4647 47.0198C37.4666 47.0159 36.1585 47.0397 34.6028 47.1336C34.4168 45.2719 34.1951 43.414 33.9377 41.561" fill="#C3C3C3"/>
</svg>
