<svg width="17" height="17" viewBox="0 0 17 17" fill="none" xmlns="http://www.w3.org/2000/svg">
<path d="M7.99894 15.0352C7.03075 15.0352 6.12089 14.8516 5.26935 14.4845C4.41782 14.1174 3.67709 13.6197 3.04719 12.9913C2.41729 12.3628 1.91873 11.6233 1.55152 10.7727C1.18431 9.92205 1.00047 9.01365 1 8.04749C1 7.10416 1.1955 6.18714 1.58651 5.29645C1.97752 4.40575 2.51994 3.62244 3.21376 2.9465C3.90759 2.27056 4.73277 1.75813 5.68929 1.40921C6.64581 1.06029 7.69565 0.955478 8.83881 1.09477C9.01379 1.11806 9.14793 1.19096 9.24125 1.31348C9.33457 1.436 9.38706 1.60184 9.39873 1.811C9.42206 2.55635 9.69921 3.19409 10.2302 3.72422C10.7612 4.25435 11.3939 4.53083 12.1283 4.55366C12.3733 4.56531 12.5599 4.63518 12.6882 4.76329C12.8165 4.8914 12.8865 5.08938 12.8982 5.35724C12.9215 5.84638 13.0704 6.24817 13.3447 6.56261C13.6191 6.87706 14.001 7.1158 14.4905 7.27885C14.6538 7.33708 14.7793 7.42163 14.867 7.5325C14.9547 7.64337 14.9983 7.7801 14.9979 7.94268C15.0212 8.9093 14.8521 9.82352 14.4905 10.6853C14.1288 11.5471 13.6331 12.3013 13.0032 12.9479C12.3733 13.5945 11.6267 14.1039 10.7635 14.4761C9.90032 14.8484 8.97879 15.0347 7.99894 15.0352ZM6.9491 6.64996C7.24072 6.64996 7.48872 6.54817 7.69309 6.3446C7.89745 6.14102 7.99941 5.89343 7.99894 5.60181C7.99847 5.31019 7.89652 5.06283 7.69309 4.85972C7.48965 4.65661 7.24165 4.55459 6.9491 4.55366C6.65654 4.55273 6.40878 4.65475 6.20581 4.85972C6.00284 5.06469 5.90066 5.31205 5.89926 5.60181C5.89786 5.89156 6.00004 6.13916 6.20581 6.3446C6.41158 6.55003 6.65934 6.65182 6.9491 6.64996ZM5.54931 10.1438C5.84093 10.1438 6.08893 10.042 6.2933 9.83843C6.49767 9.63486 6.59962 9.38726 6.59915 9.09564C6.59869 8.80402 6.49673 8.55666 6.2933 8.35355C6.08986 8.15044 5.84187 8.04842 5.54931 8.04749C5.25676 8.04656 5.00899 8.14858 4.80602 8.35355C4.60305 8.55852 4.50087 8.80589 4.49947 9.09564C4.49807 9.3854 4.60025 9.63299 4.80602 9.83843C5.01179 10.0439 5.25955 10.1457 5.54931 10.1438ZM10.0986 10.8426C10.2969 10.8426 10.4633 10.7755 10.5976 10.6413C10.732 10.5071 10.799 10.3413 10.7985 10.1438C10.798 9.94627 10.7309 9.78043 10.5969 9.64627C10.463 9.51211 10.2969 9.44502 10.0986 9.44502C9.90032 9.44502 9.73421 9.51211 9.6003 9.64627C9.46638 9.78043 9.39919 9.94627 9.39873 10.1438C9.39826 10.3413 9.46545 10.5074 9.6003 10.642C9.73514 10.7766 9.90125 10.8435 10.0986 10.8426Z" fill="#32E389"/>
</svg>
