<svg width="96" height="18" viewBox="0 0 96 18" fill="none" xmlns="http://www.w3.org/2000/svg">
<path d="M7.00293 2.73438C7.74279 2.73439 8.45556 2.84379 9.125 3.04492C9.00752 3.24196 8.93952 3.47169 8.93945 3.71777C8.93945 4.28278 9.29529 4.76295 9.79492 4.9502C9.78115 5.02652 9.77248 5.10526 9.77246 5.18555C9.77247 5.91323 10.3631 6.50293 11.0908 6.50293C11.273 6.5028 11.4467 6.46539 11.6045 6.39844C11.842 6.7439 12.2405 6.96972 12.6914 6.96973C12.9679 6.96963 13.2237 6.88382 13.4355 6.73828C13.8016 7.54143 14.0049 8.42635 14.0049 9.35645C14.0049 13.0138 10.8702 15.9784 7.00293 15.9785C3.13559 15.9785 0 13.0138 0 9.35645C6.49018e-05 5.69912 3.13563 2.73438 7.00293 2.73438Z" fill="#96E8BE"/>
<rect width="7.10497" height="3.86937" transform="translate(3.47266 6.96875)" fill="#96E8BE"/>
<circle cx="8.55043" cy="8.90199" r="1.89808" fill="white"/>
<mask id="mask0_2338_48186" style="mask-type:alpha" maskUnits="userSpaceOnUse" x="6" y="7" width="5" height="4">
<circle cx="8.55043" cy="8.90199" r="1.89808" fill="#D9D9D9"/>
</mask>
<g mask="url(#mask0_2338_48186)">
<circle cx="9.36562" cy="8.68593" r="1.17812" fill="#202020"/>
<circle cx="9.36562" cy="8.68593" r="1.17812" fill="black" fill-opacity="0.2"/>
</g>
<circle cx="5.37465" cy="8.90199" r="1.89808" fill="white"/>
<mask id="mask1_2338_48186" style="mask-type:alpha" maskUnits="userSpaceOnUse" x="3" y="7" width="5" height="4">
<circle cx="5.37074" cy="8.90199" r="1.89808" fill="#D9D9D9"/>
</mask>
<g mask="url(#mask1_2338_48186)">
<circle cx="6.18984" cy="8.68593" r="1.17812" fill="#202020"/>
<circle cx="6.18984" cy="8.68593" r="1.17812" fill="black" fill-opacity="0.2"/>
</g>
<path d="M24.448 16.4295C20.7075 16.4295 18.2841 13.8305 18.2841 9.80899C18.2841 5.82265 20.7953 3.17094 24.5533 3.17094C27.5914 3.17094 29.8567 4.9446 30.2958 7.70168H27.925C27.486 6.20899 26.2041 5.33094 24.5006 5.33094C22.1299 5.33094 20.6372 7.05192 20.6372 9.79143C20.6372 12.5134 22.1475 14.2695 24.5006 14.2695C26.2392 14.2695 27.5738 13.3563 27.9953 11.9339H30.3309C29.8392 14.6383 27.486 16.4295 24.448 16.4295Z" fill="white"/>
<path d="M42.7447 9.57268C42.7447 13.4712 40.1808 16.2107 36.493 16.2107C32.8227 16.2107 30.294 13.4888 30.294 9.57268C30.294 5.67415 32.8403 2.93463 36.5106 2.93463C40.1808 2.93463 42.7447 5.65658 42.7447 9.57268ZM40.374 9.57268C40.374 6.83317 38.8637 5.09463 36.5106 5.09463C34.1574 5.09463 32.6471 6.83317 32.6471 9.57268C32.6471 12.3122 34.1574 14.0507 36.5106 14.0507C38.8637 14.0507 40.374 12.2771 40.374 9.57268Z" fill="white"/>
<path d="M55.4752 9.57268C55.4752 13.4712 52.9113 16.2107 49.2235 16.2107C45.5532 16.2107 43.0244 13.4888 43.0244 9.57268C43.0244 5.67415 45.5708 2.93463 49.241 2.93463C52.9113 2.93463 55.4752 5.65658 55.4752 9.57268ZM53.1044 9.57268C53.1044 6.83317 51.5942 5.09463 49.241 5.09463C46.8879 5.09463 45.3776 6.83317 45.3776 9.57268C45.3776 12.3122 46.8879 14.0507 49.241 14.0507C51.5942 14.0507 53.1044 12.2771 53.1044 9.57268Z" fill="white"/>
<path d="M58.7264 3.16293V9.90634L63.9244 3.16293H66.5761L62.3264 8.64195L66.6288 16H64.0298L60.8512 10.5385L58.7264 13.2605V16H56.4786V3.16293H58.7264Z" fill="white"/>
<path d="M75.4208 16H67.4481V3.16293H75.4208V5.23512H69.6959V8.53658H74.8237V10.521H69.6959V13.9278H75.4208V16Z" fill="white"/>
<path d="M84.7723 16H76.7996V3.16293H84.7723V5.23512H79.0474V8.53658H84.1752V10.521H79.0474V13.9278H84.7723V16Z" fill="white"/>
<path d="M91.3233 11.5746H88.496V16H86.2482V3.16293H91.3233C93.9048 3.16293 95.5731 4.84878 95.5731 7.36C95.5731 9.8361 93.8872 11.5746 91.3233 11.5746ZM90.8843 5.16488H88.496V9.57268H90.8492C92.3945 9.57268 93.2199 8.74732 93.2199 7.34244C93.2199 5.93756 92.377 5.16488 90.8843 5.16488Z" fill="white"/>
<circle cx="94.0574" cy="15.2879" r="1.45976" fill="#96E8BE"/>
</svg>
