<svg width="24" height="26" viewBox="0 0 24 26" fill="none" xmlns="http://www.w3.org/2000/svg">
<path d="M21 2.33333H19.8333V0H17.5V2.33333H5.83333V0H3.5V2.33333H2.33333C1.71449 2.33333 1.121 2.57917 0.683417 3.01675C0.245833 3.45434 0 4.04783 0 4.66667V23.3333C0 23.9522 0.245833 24.5457 0.683417 24.9832C1.121 25.4208 1.71449 25.6667 2.33333 25.6667H21C21.6188 25.6667 22.2123 25.4208 22.6499 24.9832C23.0875 24.5457 23.3333 23.9522 23.3333 23.3333V4.66667C23.3333 4.04783 23.0875 3.45434 22.6499 3.01675C22.2123 2.57917 21.6188 2.33333 21 2.33333ZM6.45167 23.3333H2.33333V19.215L13.3117 8.23667L17.43 12.355L6.45167 23.3333ZM20.6733 9.11167L18.5267 11.2583L14.4083 7.14L16.5667 4.99333C16.6667 4.89032 16.7864 4.80842 16.9187 4.7525C17.0509 4.69657 17.1931 4.66776 17.3367 4.66776C17.4803 4.66776 17.6224 4.69657 17.7547 4.7525C17.8869 4.80842 18.0066 4.89032 18.1067 4.99333L20.6733 7.56C20.7753 7.66185 20.8562 7.78279 20.9113 7.91591C20.9665 8.04904 20.9949 8.19173 20.9949 8.33583C20.9949 8.47994 20.9665 8.62263 20.9113 8.75575C20.8562 8.88888 20.7753 9.00982 20.6733 9.11167Z" fill="#EBEBEB"/>
</svg>
