<svg width="32" height="32" viewBox="0 0 32 32" fill="none" xmlns="http://www.w3.org/2000/svg">
<circle cx="16" cy="16" r="10" fill="#D9D9D9"/>
<path d="M17.0083 20.6237C16.2139 20.6286 15.437 20.5434 14.6776 20.3682C13.9181 20.193 13.2647 19.8313 12.7171 19.2829C12.2779 18.8445 11.9398 18.3434 11.7027 17.7796C11.4647 17.2157 11.3458 16.625 11.3458 16.0073C11.3458 15.7409 11.3641 15.4875 11.4008 15.2471C11.4366 15.0059 11.5006 14.7623 11.5927 14.5162C11.6432 14.3663 11.6383 14.22 11.578 14.0774C11.5177 13.9349 11.4224 13.8359 11.292 13.7804C11.1576 13.7259 11.0203 13.7299 10.8801 13.7927C10.74 13.8554 10.6446 13.9621 10.5941 14.1129C10.4923 14.4184 10.412 14.7281 10.3533 15.0418C10.2947 15.3547 10.2653 15.6741 10.2653 16C10.2653 16.7676 10.4112 17.4997 10.7029 18.1963C10.9954 18.893 11.411 19.5106 11.9496 20.0492C12.5786 20.6978 13.3315 21.1358 14.2082 21.3631C15.085 21.5913 15.9751 21.7074 16.8788 21.7114L15.7018 22.8897C15.5967 22.9948 15.54 23.1186 15.5319 23.2612C15.5237 23.4038 15.5804 23.5354 15.7018 23.656C15.8232 23.7766 15.9507 23.8369 16.0843 23.8369C16.218 23.8369 16.3459 23.7766 16.4681 23.656L18.3296 21.7946C18.5267 21.5966 18.6253 21.366 18.6253 21.1028C18.6253 20.8396 18.5267 20.6094 18.3296 20.4122L16.4681 18.5508C16.3622 18.4449 16.2383 18.3882 16.0966 18.3809C15.954 18.3727 15.8224 18.4294 15.7018 18.5508C15.5812 18.6722 15.5209 18.7997 15.5209 18.9333C15.5209 19.067 15.5812 19.1949 15.7018 19.3171L17.0083 20.6237ZM15.0088 11.3702C15.8032 11.3702 16.581 11.4574 17.342 11.6318C18.1039 11.8061 18.759 12.1675 19.3073 12.7159C19.7457 13.1551 20.0839 13.6566 20.3218 14.2204C20.5597 14.7843 20.6783 15.375 20.6774 15.9927C20.6774 16.2591 20.6595 16.5125 20.6237 16.7529C20.5878 16.9933 20.5234 17.2365 20.4306 17.4826C20.3809 17.6333 20.3861 17.7812 20.4464 17.9262C20.5067 18.0713 20.6017 18.1711 20.7312 18.2257C20.8665 18.2803 21.0042 18.2803 21.1443 18.2257C21.2845 18.1711 21.3794 18.0684 21.4291 17.9177C21.531 17.6121 21.6116 17.2976 21.6711 16.9741C21.7298 16.6506 21.7591 16.3259 21.7591 16C21.7591 15.2324 21.6153 14.5003 21.3277 13.8037C21.04 13.107 20.6245 12.4869 20.081 11.9434C19.4471 11.294 18.6917 10.8573 17.815 10.6332C16.9391 10.4083 16.0489 10.2959 15.1444 10.2959L16.33 9.11033C16.4294 9.00522 16.4832 8.88137 16.4913 8.73878C16.4995 8.59618 16.4433 8.46459 16.3227 8.344C16.2021 8.22341 16.0741 8.16352 15.9389 8.16433C15.8036 8.16515 15.6761 8.22504 15.5563 8.344L13.6949 10.2067C13.4969 10.4047 13.3979 10.6353 13.3979 10.8984C13.3979 11.1616 13.4969 11.3918 13.6949 11.589L15.5563 13.4504C15.6614 13.5564 15.7853 13.613 15.9279 13.6203C16.0705 13.6277 16.2021 13.5714 16.3227 13.4517C16.4433 13.3319 16.5036 13.204 16.5036 13.0679C16.5036 12.9318 16.4433 12.8043 16.3227 12.6853L15.0088 11.3702ZM16 27C14.4812 27 13.0528 26.7107 11.7149 26.1322C10.377 25.5529 9.213 24.7682 8.223 23.7782C7.23219 22.7874 6.44752 21.623 5.869 20.2851C5.28967 18.9472 5 17.5188 5 16C5 14.4812 5.28926 13.0528 5.86778 11.7149C6.4463 10.377 7.23137 9.213 8.223 8.223C9.21463 7.233 10.3786 6.44793 11.7149 5.86778C13.0536 5.28926 14.482 5 16 5C17.518 5 18.9464 5.28926 20.2851 5.86778C21.623 6.44711 22.787 7.23219 23.777 8.223C24.7678 9.213 25.5525 10.377 26.131 11.7149C26.7103 13.0536 27 14.482 27 16C27 17.518 26.7107 18.9464 26.1322 20.2851C25.5529 21.623 24.7682 22.787 23.7782 23.777C22.7874 24.7678 21.623 25.5525 20.2851 26.131C18.9472 26.7103 17.5188 27 16 27Z" fill="white"/>
</svg>
