<svg width="23" height="23" viewBox="0 0 23 23" fill="none" xmlns="http://www.w3.org/2000/svg">
<path d="M8.42205 2.8966L8.40665 2.898C6.07553 3.23417 3.94344 4.39861 2.40065 6.1782C1.52065 7.18826 0.858058 8.36869 0.454135 9.64597C0.0502122 10.9233 -0.0863855 12.27 0.0528506 13.6024C0.294773 15.9836 1.39977 18.194 3.15937 19.8165C4.91897 21.439 7.21152 22.3615 9.6045 22.4099C11.9975 22.4583 14.3255 21.6292 16.1492 20.0792C17.973 18.5292 19.1664 16.3653 19.5045 13.9958V13.9818C19.5346 13.7726 19.5579 13.5625 19.5745 13.3518C19.5816 13.2557 19.5688 13.1592 19.5369 13.0683C19.505 12.9774 19.4547 12.8941 19.3892 12.8235C19.3236 12.7529 19.2441 12.6967 19.1558 12.6582C19.0675 12.6197 18.9722 12.5999 18.8759 12.6H11.9025C11.6267 12.6 11.3536 12.5457 11.0988 12.4401C10.844 12.3346 10.6125 12.1799 10.4175 11.9849C10.2225 11.7899 10.0678 11.5584 9.9623 11.3036C9.85677 11.0489 9.80245 10.7758 9.80245 10.5V3.5266C9.80254 3.43014 9.78269 3.3347 9.74414 3.24628C9.7056 3.15785 9.6492 3.07835 9.57847 3.01275C9.50775 2.94715 9.42423 2.89688 9.33316 2.86509C9.24209 2.8333 9.14543 2.82067 9.04925 2.828C8.83832 2.8448 8.62925 2.86767 8.42205 2.8966ZM22.4011 9.9904C22.3871 10.6876 21.7851 11.2 21.0893 11.2H12.6025C12.2311 11.2 11.8751 11.0525 11.6125 10.79C11.35 10.5274 11.2025 10.1713 11.2025 9.8V1.3132C11.2025 0.616 11.7149 0.0153999 12.4121 0.00139991L12.6025 1.03223e-08C13.9055 -5.97921e-05 15.1954 0.259731 16.3968 0.764174C17.5982 1.26862 18.687 2.00758 19.5994 2.93784C20.5118 3.8681 21.2295 4.97097 21.7106 6.18193C22.1916 7.39289 22.4264 8.68763 22.4011 9.9904Z" fill="#EBEBEB"/>
</svg>
