<svg width="73" height="21" viewBox="0 0 73 21" fill="none" xmlns="http://www.w3.org/2000/svg">
<rect x="13.5" width="46" height="14" rx="3" fill="#202020"/>
<rect x="13.5" width="46" height="14" rx="3" fill="black" fill-opacity="0.2"/>
<path d="M23.8672 5.08594V4.34375H28.25V5.08594H26.4922V10H25.6328V5.08594H23.8672ZM33.7969 7.17188C33.7969 8.97656 32.7109 10.0781 31.25 10.0781C29.7734 10.0781 28.6953 8.97656 28.6953 7.17188C28.6953 5.35938 29.7734 4.26562 31.25 4.26562C32.7109 4.26562 33.7969 5.35938 33.7969 7.17188ZM32.9453 7.17188C32.9453 5.79688 32.2188 5.05469 31.25 5.05469C30.2734 5.05469 29.5469 5.79688 29.5469 7.17188C29.5469 8.54688 30.2734 9.28906 31.25 9.28906C32.2188 9.28906 32.9453 8.54688 32.9453 7.17188ZM36.6016 10H34.7656V4.34375H36.6562C38.3203 4.34375 39.3203 5.40625 39.3203 7.16406C39.3203 8.92969 38.3203 10 36.6016 10ZM35.625 9.25H36.5547C37.8359 9.25 38.4688 8.5 38.4688 7.16406C38.4688 5.83594 37.8359 5.09375 36.6016 5.09375H35.625V9.25ZM40.4844 10H39.5703L41.6016 4.34375H42.5938L44.6328 10H43.7188L43.2031 8.50781H41L40.4844 10ZM41.25 7.78906H42.9531L42.1172 5.375H42.0781L41.25 7.78906ZM44.3359 4.34375H45.3125L46.7812 6.90625H46.8438L48.3203 4.34375H49.2969L47.2422 7.78125V10H46.3828V7.78125L44.3359 4.34375Z" fill="#32E389"/>
<path d="M35.7402 20.55C35.8557 20.75 36.1443 20.75 36.2598 20.55L40.0703 13.95C40.1858 13.75 40.0415 13.5 39.8105 13.5L32.1895 13.5C31.9585 13.5 31.8142 13.75 31.9297 13.95L35.7402 20.55Z" fill="#202020"/>
<path d="M35.7402 20.55C35.8557 20.75 36.1443 20.75 36.2598 20.55L40.0703 13.95C40.1858 13.75 40.0415 13.5 39.8105 13.5L32.1895 13.5C31.9585 13.5 31.8142 13.75 31.9297 13.95L35.7402 20.55Z" fill="black" fill-opacity="0.2"/>
</svg>
