<svg width="76" height="76" viewBox="0 0 76 76" fill="none" xmlns="http://www.w3.org/2000/svg">
<g clip-path="url(#clip0_2258_45349)">
<path fill-rule="evenodd" clip-rule="evenodd" d="M39.3251 44.4833C40.4639 44.1832 41.6753 44.3478 42.6928 44.9408C43.7102 45.5339 44.4504 46.5069 44.7505 47.6457L48.695 62.6141C48.9951 63.7529 48.8306 64.9643 48.2375 65.9817C47.6444 66.9992 46.6715 67.7394 45.5327 68.0395C44.3939 68.3396 43.1825 68.175 42.165 67.582C41.1476 66.9889 40.4074 66.016 40.1073 64.8772L36.1628 49.9087C35.8627 48.7699 36.0273 47.5585 36.6203 46.5411C37.2134 45.5236 38.1863 44.7834 39.3251 44.4833Z" fill="#C3C3C3"/>
<path d="M19.8044 15.147C21.5142 12.6654 23.8273 10.6596 26.5261 9.31842C29.2248 7.97724 32.2205 7.34478 35.231 7.48056C38.2416 7.61635 41.1681 8.5159 43.7352 10.0946C46.3022 11.6733 48.4254 13.8791 49.9049 16.5046C53.8435 15.8608 57.8789 16.7568 61.1749 19.007C64.4709 21.2572 66.775 24.6891 67.6098 28.5917C68.4446 32.4943 67.7462 36.5685 65.6591 39.9702C63.5721 43.3719 60.2564 45.8403 56.3991 46.8642L26.3248 54.7894C22.4913 55.8006 18.4162 55.3085 14.9336 53.4137C11.4509 51.519 8.8241 48.365 7.59062 44.5971C6.35713 40.8291 6.61028 36.7323 8.29825 33.1449C9.98623 29.5575 12.9814 26.7508 16.6708 25.2993C16.6562 21.6761 17.7489 18.1308 19.8044 15.147Z" fill="#EBEBEB"/>
</g>
<defs>
<clipPath id="clip0_2258_45349">
<rect width="62.1665" height="62.1665" fill="white" transform="translate(0 15.8414) rotate(-14.7631)"/>
</clipPath>
</defs>
</svg>
