<svg width="373" height="104" viewBox="0 0 373 104" fill="none" xmlns="http://www.w3.org/2000/svg">
<path d="M9.61258 14.446L8.80629 15.2446L8 14.446L8.80629 13.6475L9.61258 14.446ZM15.3148 28C15.0123 28 14.7222 27.881 14.5084 27.6692C14.2945 27.4574 14.1743 27.1701 14.1743 26.8705C14.1743 26.5709 14.2945 26.2836 14.5084 26.0718C14.7222 25.86 15.0123 25.741 15.3148 25.741V28ZM14.5085 20.8921L8.80629 15.2446L10.4189 13.6475L16.121 19.295L14.5085 20.8921ZM8.80629 13.6475L14.5085 8L16.121 9.59711L10.4189 15.2446L8.80629 13.6475ZM9.61258 13.3165H21.5872V15.5755H9.61258V13.3165ZM21.5872 28H15.3148V25.741H21.5872V28ZM29 20.6583C29 22.6054 28.219 24.4728 26.8288 25.8497C25.4387 27.2265 23.5532 28 21.5872 28V25.741C22.2611 25.741 22.9284 25.6095 23.5511 25.3541C24.1737 25.0987 24.7395 24.7243 25.216 24.2523C25.6926 23.7803 26.0706 23.22 26.3285 22.6033C26.5864 21.9867 26.7191 21.3257 26.7191 20.6583H29ZM21.5872 13.3165C23.5532 13.3165 25.4387 14.09 26.8288 15.4669C28.219 16.8437 29 18.7111 29 20.6583H26.7191C26.7191 19.9908 26.5864 19.3299 26.3285 18.7132C26.0706 18.0965 25.6926 17.5362 25.216 17.0642C24.7395 16.5923 24.1737 16.2179 23.5511 15.9624C22.9284 15.707 22.2611 15.5755 21.5872 15.5755V13.3165Z" fill="#202020"/>
<path d="M9.61258 14.446L8.80629 15.2446L8 14.446L8.80629 13.6475L9.61258 14.446ZM15.3148 28C15.0123 28 14.7222 27.881 14.5084 27.6692C14.2945 27.4574 14.1743 27.1701 14.1743 26.8705C14.1743 26.5709 14.2945 26.2836 14.5084 26.0718C14.7222 25.86 15.0123 25.741 15.3148 25.741V28ZM14.5085 20.8921L8.80629 15.2446L10.4189 13.6475L16.121 19.295L14.5085 20.8921ZM8.80629 13.6475L14.5085 8L16.121 9.59711L10.4189 15.2446L8.80629 13.6475ZM9.61258 13.3165H21.5872V15.5755H9.61258V13.3165ZM21.5872 28H15.3148V25.741H21.5872V28ZM29 20.6583C29 22.6054 28.219 24.4728 26.8288 25.8497C25.4387 27.2265 23.5532 28 21.5872 28V25.741C22.2611 25.741 22.9284 25.6095 23.5511 25.3541C24.1737 25.0987 24.7395 24.7243 25.216 24.2523C25.6926 23.7803 26.0706 23.22 26.3285 22.6033C26.5864 21.9867 26.7191 21.3257 26.7191 20.6583H29ZM21.5872 13.3165C23.5532 13.3165 25.4387 14.09 26.8288 15.4669C28.219 16.8437 29 18.7111 29 20.6583H26.7191C26.7191 19.9908 26.5864 19.3299 26.3285 18.7132C26.0706 18.0965 25.6926 17.5362 25.216 17.0642C24.7395 16.5923 24.1737 16.2179 23.5511 15.9624C22.9284 15.707 22.2611 15.5755 21.5872 15.5755V13.3165Z" fill="black" fill-opacity="0.2"/>
<path d="M171.062 11.2656V25.3906H169.406V18.2344H167.953V24.7031H166.312V11.5156H167.953V16.7969H169.406V11.2656H171.062ZM163.203 14.875C163.203 17.3906 164.047 19.7031 166.141 20.7812L165.125 22.1094C163.781 21.3906 162.898 20.1484 162.406 18.6094C161.922 20.3672 161.039 21.7812 159.641 22.6094L158.578 21.2812C160.672 20.0938 161.516 17.625 161.516 14.875V14.2031H159V12.8125H165.516V14.2031H163.203V14.875ZM185.547 22.3125V23.75H172.641V22.3125H176.062V19.9844H174.172V15.375H182.297V13.6406H174.141V12.2344H184.016V16.7656H175.906V18.5781H184.344V19.9844H182.281V22.3125H185.547ZM177.75 22.3125H180.578V19.9844H177.75V22.3125ZM199.359 17.8125V19.2344H186.469V17.8125H199.359ZM197.875 15.3125V16.7031H188.047V11.7188H197.797V13.125H189.781V15.3125H197.875ZM192.891 20.2188C195.938 20.2031 197.766 21.1406 197.781 22.7812C197.766 24.4375 195.938 25.375 192.891 25.375C189.812 25.375 187.969 24.4375 187.969 22.7812C187.969 21.1406 189.812 20.2031 192.891 20.2188ZM192.891 21.5469C190.828 21.5469 189.719 21.9844 189.734 22.7812C189.719 23.6094 190.828 24.0312 192.891 24.0312C194.906 24.0312 196.031 23.6094 196.047 22.7812C196.031 21.9844 194.906 21.5469 192.891 21.5469ZM213.188 18.9062V20.3125H200.281V18.9062H205.875V17.7344H201.922V13.9844H209.859V12.9375H201.875V11.5781H211.594V15.25H203.641V16.375H211.875V17.7344H207.594V18.9062H213.188ZM211.672 21.2031V25.2969H209.922V22.5781H201.719V21.2031H211.672Z" fill="#202020"/>
<path d="M171.062 11.2656V25.3906H169.406V18.2344H167.953V24.7031H166.312V11.5156H167.953V16.7969H169.406V11.2656H171.062ZM163.203 14.875C163.203 17.3906 164.047 19.7031 166.141 20.7812L165.125 22.1094C163.781 21.3906 162.898 20.1484 162.406 18.6094C161.922 20.3672 161.039 21.7812 159.641 22.6094L158.578 21.2812C160.672 20.0938 161.516 17.625 161.516 14.875V14.2031H159V12.8125H165.516V14.2031H163.203V14.875ZM185.547 22.3125V23.75H172.641V22.3125H176.062V19.9844H174.172V15.375H182.297V13.6406H174.141V12.2344H184.016V16.7656H175.906V18.5781H184.344V19.9844H182.281V22.3125H185.547ZM177.75 22.3125H180.578V19.9844H177.75V22.3125ZM199.359 17.8125V19.2344H186.469V17.8125H199.359ZM197.875 15.3125V16.7031H188.047V11.7188H197.797V13.125H189.781V15.3125H197.875ZM192.891 20.2188C195.938 20.2031 197.766 21.1406 197.781 22.7812C197.766 24.4375 195.938 25.375 192.891 25.375C189.812 25.375 187.969 24.4375 187.969 22.7812C187.969 21.1406 189.812 20.2031 192.891 20.2188ZM192.891 21.5469C190.828 21.5469 189.719 21.9844 189.734 22.7812C189.719 23.6094 190.828 24.0312 192.891 24.0312C194.906 24.0312 196.031 23.6094 196.047 22.7812C196.031 21.9844 194.906 21.5469 192.891 21.5469ZM213.188 18.9062V20.3125H200.281V18.9062H205.875V17.7344H201.922V13.9844H209.859V12.9375H201.875V11.5781H211.594V15.25H203.641V16.375H211.875V17.7344H207.594V18.9062H213.188ZM211.672 21.2031V25.2969H209.922V22.5781H201.719V21.2031H211.672Z" fill="black" fill-opacity="0.2"/>
<g filter="url(#filter0_d_6935_55295)">
<g clip-path="url(#clip0_6935_55295)">
<rect x="6" y="46" width="361" height="48" rx="6" fill="white"/>
<path d="M29.0332 63.9121V76.1621H27.7891V69.873H26.3262V75.5605H25.0957V64.1445H26.3262V68.7793H27.7891V63.9121H29.0332ZM22.1699 67.1523C22.1699 69.3535 23.0039 71.3496 24.7812 72.2656L24.0156 73.2637C22.8125 72.6143 22.0059 71.4727 21.5684 70.0508C21.1514 71.6641 20.3379 72.9492 19.0938 73.6875L18.2871 72.7031C20.0781 71.6914 20.9121 69.5859 20.9121 67.1523V66.3594H18.6152V65.3066H24.3027V66.3594H22.1699V67.1523ZM41.7617 73.6055V74.6992H30.5508V73.6055H33.6133V71.4453H31.918V67.5488H39.1094V65.8398H31.8906V64.7734H40.3945V68.6016H33.2031V70.3789H40.6816V71.4453H38.8223V73.6055H41.7617ZM34.8711 73.6055H37.5508V71.4453H34.8711V73.6055ZM52.8633 63.9121V71.1445H51.5645V69.3262H48.8984V70.3242H43.2109V64.8281H48.8984V65.8398H51.5645V63.9121H52.8633ZM44.4961 65.8672V69.2852H47.627V65.8672H44.4961ZM48.7617 71.4863C51.332 71.4863 52.9043 72.334 52.9043 73.8242C52.9043 75.3008 51.332 76.1484 48.7617 76.1348C46.1914 76.1484 44.6055 75.3008 44.6191 73.8242C44.6055 72.334 46.1914 71.4863 48.7617 71.4863ZM48.7617 72.4844C46.9707 72.498 45.9043 72.9629 45.9043 73.8242C45.9043 74.6445 46.9707 75.1367 48.7617 75.1367C50.5527 75.1367 51.6191 74.6445 51.6191 73.8242C51.6191 72.9629 50.5527 72.498 48.7617 72.4844ZM48.8984 68.2734H51.5645V66.8789H48.8984V68.2734ZM60.3281 64.1172C63.0898 64.1172 64.7031 64.8555 64.7031 66.2227C64.7031 67.5898 63.0898 68.3418 60.3281 68.3418C57.5664 68.3418 55.9531 67.5898 55.9531 66.2227C55.9531 64.8555 57.5664 64.1172 60.3281 64.1172ZM60.3281 65.0742C58.373 65.0742 57.293 65.498 57.3066 66.2227C57.293 66.9746 58.373 67.3711 60.3281 67.3711C62.2832 67.3711 63.3633 66.9746 63.3633 66.2227C63.3633 65.498 62.2832 65.0742 60.3281 65.0742ZM65.9199 69.0938V70.1328H54.75V69.0938H65.9199ZM64.5117 71.0762V73.9473H57.375V75.041H64.8535V76.0391H56.1035V73.0039H63.2266V72.0469H56.0898V71.0762H64.5117ZM76.5977 64.6777C76.5977 67.7949 74.4648 70.0098 70.9102 71.0078L70.377 69.9961C73.2002 69.2031 74.957 67.6719 75.2168 65.7441H71.0195V64.6777H76.5977ZM80.4805 63.9258V70.8574H79.1816V68.0684H76.6523V66.9883H79.1816V63.9258H80.4805ZM80.4805 71.3633V75.998H72.4688V71.3633H80.4805ZM73.7402 72.4023V74.959H79.1953V72.4023H73.7402ZM86.1133 66.2227C86.1133 67.6035 86.9609 68.9844 88.5469 69.5996L87.8496 70.5977C86.7285 70.1465 85.9355 69.2988 85.498 68.2734C85.04 69.415 84.2061 70.3994 83.0234 70.9121L82.3125 69.9141C83.9668 69.1895 84.8555 67.6035 84.8555 66.2227V64.6504H86.1133V66.2227ZM92.8125 63.9258V71.3223H91.582V68.123H90.1465V71.2539H88.9434V64.1309H90.1465V67.043H91.582V63.9258H92.8125ZM92.8125 71.9648V76.1621H91.5273V73.0176H84.4863V71.9648H92.8125ZM104.01 63.9121V68.875H105.979V69.9551H104.01V76.1621H102.725V63.9121H104.01ZM101.658 65.8262V66.8926H94.3984V65.8262H97.4199V64.0762H98.7188V65.8262H101.658ZM98.0762 67.7949C99.8262 67.7949 101.111 68.9707 101.125 70.6387C101.111 72.3203 99.8262 73.4824 98.0762 73.4961C96.3125 73.4824 95.0273 72.3203 95.0273 70.6387C95.0273 68.9707 96.3125 67.7949 98.0762 67.7949ZM98.0762 68.8613C97.0371 68.8613 96.2578 69.5859 96.2715 70.6387C96.2578 71.7051 97.0371 72.416 98.0762 72.4023C99.1152 72.416 99.8809 71.7051 99.8809 70.6387C99.8809 69.5859 99.1152 68.8613 98.0762 68.8613ZM110.299 67.2617C110.299 69.2168 111.119 71.3086 112.76 72.3066L112.035 73.3047C110.887 72.6143 110.107 71.3906 109.697 69.9688C109.239 71.5273 108.398 72.8535 107.209 73.5781L106.402 72.6074C108.139 71.5684 109.041 69.4082 109.041 67.3164V65.0332H110.299V67.2617ZM117.107 63.9121V76.1621H115.863V63.9121H117.107ZM114.564 64.1445V75.5605H113.334V69.2988H111.434V68.2188H113.334V64.1445H114.564ZM129.877 73.5508V74.6309H118.666V73.5508H121.346V70.3516C120.341 69.7979 119.732 68.916 119.732 67.8223C119.732 65.8945 121.619 64.623 124.244 64.623C126.883 64.623 128.77 65.8945 128.77 67.8223C128.77 68.9023 128.182 69.7705 127.197 70.3242V73.5508H129.877ZM124.244 65.6621C122.316 65.6621 120.99 66.4961 120.99 67.8223C120.99 69.1348 122.316 69.9961 124.244 69.9961C126.158 69.9961 127.512 69.1348 127.512 67.8223C127.512 66.4961 126.158 65.6621 124.244 65.6621ZM122.631 73.5508H125.885V70.8164C125.386 70.9463 124.832 71.0078 124.244 71.0078C123.67 71.0078 123.123 70.9463 122.631 70.8301V73.5508Z" fill="#C3C3C3"/>
<path d="M342.143 75.1386C345.457 75.1386 348.142 72.4527 348.142 69.1396C348.142 65.8265 345.457 63.1406 342.143 63.1406C338.83 63.1406 336.145 65.8265 336.145 69.1396C336.145 72.4527 338.83 75.1386 342.143 75.1386Z" stroke="#202020" stroke-width="2"/>
<path d="M342.143 75.1386C345.457 75.1386 348.142 72.4527 348.142 69.1396C348.142 65.8265 345.457 63.1406 342.143 63.1406C338.83 63.1406 336.145 65.8265 336.145 69.1396C336.145 72.4527 338.83 75.1386 342.143 75.1386Z" stroke="black" stroke-opacity="0.2" stroke-width="2"/>
<path d="M349.856 76.8522L347.285 74.2812" stroke="#202020" stroke-width="2" stroke-linecap="round"/>
<path d="M349.856 76.8522L347.285 74.2812" stroke="black" stroke-opacity="0.2" stroke-width="2" stroke-linecap="round"/>
</g>
</g>
<defs>
<filter id="filter0_d_6935_55295" x="0" y="44" width="373" height="60" filterUnits="userSpaceOnUse" color-interpolation-filters="sRGB">
<feFlood flood-opacity="0" result="BackgroundImageFix"/>
<feColorMatrix in="SourceAlpha" type="matrix" values="0 0 0 0 0 0 0 0 0 0 0 0 0 0 0 0 0 0 127 0" result="hardAlpha"/>
<feMorphology radius="10" operator="erode" in="SourceAlpha" result="effect1_dropShadow_6935_55295"/>
<feOffset dy="4"/>
<feGaussianBlur stdDeviation="8"/>
<feComposite in2="hardAlpha" operator="out"/>
<feColorMatrix type="matrix" values="0 0 0 0 0 0 0 0 0 0 0 0 0 0 0 0 0 0 0.25 0"/>
<feBlend mode="normal" in2="BackgroundImageFix" result="effect1_dropShadow_6935_55295"/>
<feBlend mode="normal" in="SourceGraphic" in2="effect1_dropShadow_6935_55295" result="shape"/>
</filter>
<clipPath id="clip0_6935_55295">
<rect x="6" y="46" width="361" height="48" rx="6" fill="white"/>
</clipPath>
</defs>
</svg>
