<svg width="367" height="36" viewBox="0 0 367 36" fill="none" xmlns="http://www.w3.org/2000/svg">
<path d="M9.61258 14.446L8.80629 15.2446L8 14.446L8.80629 13.6475L9.61258 14.446ZM15.3148 28C15.0123 28 14.7222 27.881 14.5084 27.6692C14.2945 27.4574 14.1743 27.1701 14.1743 26.8705C14.1743 26.5709 14.2945 26.2836 14.5084 26.0718C14.7222 25.86 15.0123 25.741 15.3148 25.741V28ZM14.5085 20.8921L8.80629 15.2446L10.4189 13.6475L16.121 19.295L14.5085 20.8921ZM8.80629 13.6475L14.5085 8L16.121 9.59711L10.4189 15.2446L8.80629 13.6475ZM9.61258 13.3165H21.5872V15.5755H9.61258V13.3165ZM21.5872 28H15.3148V25.741H21.5872V28ZM29 20.6583C29 22.6054 28.219 24.4728 26.8288 25.8497C25.4387 27.2265 23.5532 28 21.5872 28V25.741C22.2611 25.741 22.9284 25.6095 23.5511 25.3541C24.1737 25.0987 24.7395 24.7243 25.216 24.2523C25.6926 23.7803 26.0706 23.22 26.3285 22.6033C26.5864 21.9867 26.7191 21.3257 26.7191 20.6583H29ZM21.5872 13.3165C23.5532 13.3165 25.4387 14.09 26.8288 15.4669C28.219 16.8437 29 18.7111 29 20.6583H26.7191C26.7191 19.9908 26.5864 19.3299 26.3285 18.7132C26.0706 18.0965 25.6926 17.5362 25.216 17.0642C24.7395 16.5923 24.1737 16.2179 23.5511 15.9624C22.9284 15.707 22.2611 15.5755 21.5872 15.5755V13.3165Z" fill="#202020"/>
<path d="M9.61258 14.446L8.80629 15.2446L8 14.446L8.80629 13.6475L9.61258 14.446ZM15.3148 28C15.0123 28 14.7222 27.881 14.5084 27.6692C14.2945 27.4574 14.1743 27.1701 14.1743 26.8705C14.1743 26.5709 14.2945 26.2836 14.5084 26.0718C14.7222 25.86 15.0123 25.741 15.3148 25.741V28ZM14.5085 20.8921L8.80629 15.2446L10.4189 13.6475L16.121 19.295L14.5085 20.8921ZM8.80629 13.6475L14.5085 8L16.121 9.59711L10.4189 15.2446L8.80629 13.6475ZM9.61258 13.3165H21.5872V15.5755H9.61258V13.3165ZM21.5872 28H15.3148V25.741H21.5872V28ZM29 20.6583C29 22.6054 28.219 24.4728 26.8288 25.8497C25.4387 27.2265 23.5532 28 21.5872 28V25.741C22.2611 25.741 22.9284 25.6095 23.5511 25.3541C24.1737 25.0987 24.7395 24.7243 25.216 24.2523C25.6926 23.7803 26.0706 23.22 26.3285 22.6033C26.5864 21.9867 26.7191 21.3257 26.7191 20.6583H29ZM21.5872 13.3165C23.5532 13.3165 25.4387 14.09 26.8288 15.4669C28.219 16.8437 29 18.7111 29 20.6583H26.7191C26.7191 19.9908 26.5864 19.3299 26.3285 18.7132C26.0706 18.0965 25.6926 17.5362 25.216 17.0642C24.7395 16.5923 24.1737 16.2179 23.5511 15.9624C22.9284 15.707 22.2611 15.5755 21.5872 15.5755V13.3165Z" fill="black" fill-opacity="0.2"/>
<path d="M171.062 11.2656V25.3906H169.406V18.2344H167.953V24.7031H166.312V11.5156H167.953V16.7969H169.406V11.2656H171.062ZM163.203 14.875C163.203 17.3906 164.047 19.7031 166.141 20.7812L165.125 22.1094C163.781 21.3906 162.898 20.1484 162.406 18.6094C161.922 20.3672 161.039 21.7812 159.641 22.6094L158.578 21.2812C160.672 20.0938 161.516 17.625 161.516 14.875V14.2031H159V12.8125H165.516V14.2031H163.203V14.875ZM185.547 22.3125V23.75H172.641V22.3125H176.062V19.9844H174.172V15.375H182.297V13.6406H174.141V12.2344H184.016V16.7656H175.906V18.5781H184.344V19.9844H182.281V22.3125H185.547ZM177.75 22.3125H180.578V19.9844H177.75V22.3125ZM199.359 17.8125V19.2344H186.469V17.8125H199.359ZM197.875 15.3125V16.7031H188.047V11.7188H197.797V13.125H189.781V15.3125H197.875ZM192.891 20.2188C195.938 20.2031 197.766 21.1406 197.781 22.7812C197.766 24.4375 195.938 25.375 192.891 25.375C189.812 25.375 187.969 24.4375 187.969 22.7812C187.969 21.1406 189.812 20.2031 192.891 20.2188ZM192.891 21.5469C190.828 21.5469 189.719 21.9844 189.734 22.7812C189.719 23.6094 190.828 24.0312 192.891 24.0312C194.906 24.0312 196.031 23.6094 196.047 22.7812C196.031 21.9844 194.906 21.5469 192.891 21.5469ZM213.188 18.9062V20.3125H200.281V18.9062H205.875V17.7344H201.922V13.9844H209.859V12.9375H201.875V11.5781H211.594V15.25H203.641V16.375H211.875V17.7344H207.594V18.9062H213.188ZM211.672 21.2031V25.2969H209.922V22.5781H201.719V21.2031H211.672Z" fill="#202020"/>
<path d="M171.062 11.2656V25.3906H169.406V18.2344H167.953V24.7031H166.312V11.5156H167.953V16.7969H169.406V11.2656H171.062ZM163.203 14.875C163.203 17.3906 164.047 19.7031 166.141 20.7812L165.125 22.1094C163.781 21.3906 162.898 20.1484 162.406 18.6094C161.922 20.3672 161.039 21.7812 159.641 22.6094L158.578 21.2812C160.672 20.0938 161.516 17.625 161.516 14.875V14.2031H159V12.8125H165.516V14.2031H163.203V14.875ZM185.547 22.3125V23.75H172.641V22.3125H176.062V19.9844H174.172V15.375H182.297V13.6406H174.141V12.2344H184.016V16.7656H175.906V18.5781H184.344V19.9844H182.281V22.3125H185.547ZM177.75 22.3125H180.578V19.9844H177.75V22.3125ZM199.359 17.8125V19.2344H186.469V17.8125H199.359ZM197.875 15.3125V16.7031H188.047V11.7188H197.797V13.125H189.781V15.3125H197.875ZM192.891 20.2188C195.938 20.2031 197.766 21.1406 197.781 22.7812C197.766 24.4375 195.938 25.375 192.891 25.375C189.812 25.375 187.969 24.4375 187.969 22.7812C187.969 21.1406 189.812 20.2031 192.891 20.2188ZM192.891 21.5469C190.828 21.5469 189.719 21.9844 189.734 22.7812C189.719 23.6094 190.828 24.0312 192.891 24.0312C194.906 24.0312 196.031 23.6094 196.047 22.7812C196.031 21.9844 194.906 21.5469 192.891 21.5469ZM213.188 18.9062V20.3125H200.281V18.9062H205.875V17.7344H201.922V13.9844H209.859V12.9375H201.875V11.5781H211.594V15.25H203.641V16.375H211.875V17.7344H207.594V18.9062H213.188ZM211.672 21.2031V25.2969H209.922V22.5781H201.719V21.2031H211.672Z" fill="black" fill-opacity="0.2"/>
</svg>
