<svg width="385" height="32" viewBox="0 0 385 32" fill="none" xmlns="http://www.w3.org/2000/svg">
<rect width="97" height="32" rx="6" fill="white"/>
<path d="M19.9974 22.6654C21.4119 22.6654 22.7684 22.1035 23.7686 21.1033C24.7688 20.1031 25.3307 18.7465 25.3307 17.332C25.3307 14.3867 22.9427 9.33203 19.9974 9.33203C17.0521 9.33203 14.6641 14.3867 14.6641 17.332C14.6641 18.7465 15.226 20.1031 16.2262 21.1033C17.2264 22.1035 18.5829 22.6654 19.9974 22.6654Z" stroke="#7D7D7D" stroke-linecap="round" stroke-linejoin="round"/>
<path d="M42.3496 16.9922V17.8711H40.3867V20.8691H39.2832V17.8711H37.3301V20.8691H36.2168V17.8711H34.2832V16.9922H42.3496ZM38.2969 12.3535C40.1719 12.3633 41.4805 13.125 41.4805 14.3262C41.4805 15.5078 40.1719 16.2598 38.2969 16.2598C36.4121 16.2598 35.123 15.5078 35.1328 14.3262C35.123 13.125 36.4121 12.3633 38.2969 12.3535ZM38.2969 13.2324C37.0469 13.2324 36.2363 13.6328 36.2461 14.3262C36.2363 15 37.0469 15.4004 38.2969 15.4004C39.5469 15.4004 40.3574 15 40.3574 14.3262C40.3574 13.6328 39.5469 13.2324 38.2969 13.2324ZM50.5332 12.041V20.8691H49.498V12.041H50.5332ZM48.7363 12.207V20.4395H47.7109V15.9961H46.4414V15.1172H47.7109V12.207H48.7363ZM45.6602 14.4531C45.6602 15.9473 46.1973 17.4414 47.457 18.1641L46.8125 18.9648C45.9971 18.4766 45.4551 17.6367 45.1523 16.6309C44.8398 17.7197 44.2783 18.6475 43.4434 19.1699L42.7793 18.3594C44.0586 17.5879 44.6152 15.9863 44.6152 14.4531V13.8672H43.082V12.9883H47.0859V13.8672H45.6602V14.4531ZM59.625 16.2207V17.0898H56.1289V17.9395H58.6484V20.7617H52.5254V17.9395H55.0547V17.0898H51.5781V16.2207H59.625ZM58.8828 12.3047V13.1738H57.6719V14.6875H58.834V15.5664H52.3496V14.6875H53.5117V13.1738H52.3008V12.3047H58.8828ZM53.5996 18.7793V19.8828H57.5938V18.7793H53.5996ZM54.5957 14.6875H56.5781V13.1738H54.5957V14.6875ZM63.668 17.666C63.248 17.666 62.9062 17.3242 62.9062 16.9043C62.9062 16.4941 63.248 16.1523 63.668 16.1523C64.0684 16.1523 64.4199 16.4941 64.4199 16.9043C64.4199 17.3242 64.0684 17.666 63.668 17.666ZM75.3086 12.041V20.8691H74.2734V12.041H75.3086ZM73.4824 12.2559V20.4492H72.4473V17.5H71.0703V16.6113H72.4473V15.3027H71.2266C70.8115 16.7676 69.8887 18.0273 68.2383 19.0039L67.6035 18.2324C69.4346 17.1533 70.2744 15.7715 70.4355 13.9941H68.0723V13.1152H71.5098C71.5098 13.5596 71.4805 13.9941 71.4219 14.4141H72.4473V12.2559H73.4824ZM83.2969 12.0508V14.6484H84.5371V15.5566H83.2969V18.5449H82.2129V12.0508H83.2969ZM83.6582 19.8145V20.6934H77.6816V18.0273H78.7852V19.8145H83.6582ZM80.6992 12.5977V15.2832H77.7598V16.3672C79.2588 16.3574 80.2842 16.2939 81.4902 16.084L81.6074 16.9727C80.2891 17.207 79.1465 17.2461 77.3984 17.2461H76.6758V14.4629H79.6348V13.4863H76.666V12.5977H80.6992Z" fill="#7D7D7D"/>
<rect x="103" width="96" height="32" rx="6" fill="white"/>
<g clip-path="url(#clip0_7447_57521)">
<path d="M117.609 16H127.062C128.13 16 128.522 16.2467 128.255 17.3213C127.785 19.2167 126.453 19.6873 125.223 20.924C124.924 21.224 125.389 21.6687 125.389 21.9993C125.389 22.622 124.798 22.6667 124.326 22.6667H120.346C119.874 22.6667 119.282 22.622 119.283 22C119.283 21.676 119.734 21.2107 119.449 20.924C118.219 19.6873 116.887 19.2167 116.417 17.3213C116.15 16.2473 116.541 16 117.609 16Z" stroke="#7D7D7D" stroke-linejoin="round"/>
<path d="M127.336 15.9987C127.336 14.8047 126.069 13.9907 125.003 14.46M117.336 15.9987C117.336 15.1367 117.982 14.426 118.813 14.3314C118.27 13.1047 119.42 11.728 120.695 12.01M120.695 12.01C121.013 10.2167 123.659 10.2167 123.977 12.01C125.281 11.7214 126.385 13.1207 125.864 14.3207M120.695 12.01C121.085 12.0971 121.431 12.3214 121.669 12.642M126.336 13.9987L129.669 9.9987M125.669 11.9987L127.003 9.33203" stroke="#7D7D7D" stroke-linecap="round" stroke-linejoin="round"/>
</g>
<path d="M145.32 16.1426V17.0117H137.312V16.1426H140.418V14.4434H141.492V16.1426H145.32ZM144.295 17.8613V20.8691H143.201V18.7305H138.143V17.8613H144.295ZM144.344 12.5V13.1348C144.344 13.7988 144.344 14.5996 144.129 15.6348L143.045 15.5371C143.235 14.6338 143.255 13.9648 143.26 13.3594H138.23V12.5H144.344ZM153.982 15.625V16.4844H150.486V17.1484H152.977V19.3164H147.957V19.9609H153.221V20.791H146.893V18.5352H151.912V17.9688H146.883V17.1484H149.402V16.4844H145.936V15.625H153.982ZM152.947 12.3145V15.0684H146.951V12.3145H152.947ZM148.016 13.1641V14.2188H151.863V13.1641H148.016ZM158.025 17.666C157.605 17.666 157.264 17.3242 157.264 16.9043C157.264 16.4941 157.605 16.1523 158.025 16.1523C158.426 16.1523 158.777 16.4941 158.777 16.9043C158.777 17.3242 158.426 17.666 158.025 17.666ZM169.246 12.041V13.8086H170.252V14.7168H169.246V16.582H168.162V12.041H169.246ZM169.246 16.9141V19.209H164.334V19.9316H169.549V20.791H163.25V18.4277H168.172V17.7637H163.24V16.9141H169.246ZM164.266 12.8613C164.256 13.5742 164.402 14.4775 164.959 15.1367C165.501 14.4873 165.633 13.6035 165.633 12.8613V12.4023H166.648V12.8613C166.648 13.877 166.98 14.9707 167.996 15.5176L167.42 16.2793C166.775 15.9424 166.38 15.3809 166.16 14.7168C165.945 15.3955 165.579 16.0107 164.949 16.3867C164.319 15.9961 163.948 15.3711 163.748 14.6875C163.514 15.3516 163.123 15.9277 162.488 16.2793L161.912 15.5176C162.908 14.9609 163.23 13.8086 163.24 12.8613V12.4023H164.266V12.8613ZM174.139 17.666C173.719 17.666 173.377 17.3242 173.377 16.9043C173.377 16.4941 173.719 16.1523 174.139 16.1523C174.539 16.1523 174.891 16.4941 174.891 16.9043C174.891 17.3242 174.539 17.666 174.139 17.666ZM182.693 12.7832V13.4863H184.471V12.0508H185.555V18.4766H184.471V16.25H182.693V17.0117H178.543V12.7832H182.693ZM179.627 13.6426V16.1621H181.619V13.6426H179.627ZM185.75 19.8145V20.6934H179.734V17.8809H180.838V19.8145H185.75ZM182.693 15.3809H184.471V14.375H182.693V15.3809Z" fill="#7D7D7D"/>
<rect x="205" width="81" height="32" rx="6" fill="#EBEBEB"/>
<path d="M218.336 18.6917C218.336 18.2911 218.425 17.8934 218.66 17.5691C219.351 16.6141 221.226 14.6641 225.003 14.6641C228.779 14.6641 230.654 16.6144 231.346 17.5691C231.581 17.8934 231.669 18.2911 231.669 18.6917C231.669 19.3916 231.391 20.0629 230.896 20.5578C230.401 21.0527 229.73 21.3307 229.03 21.3307H220.975C220.275 21.3307 219.604 21.0527 219.109 20.5578C218.614 20.0629 218.336 19.3916 218.336 18.6917Z" stroke="#7D7D7D" stroke-linecap="round" stroke-linejoin="round"/>
<path d="M221.005 10.9987V12.332M221.672 15.332V16.6654M229.005 10.9987V12.332M228.339 15.332V16.6654M225.005 10.332V12.332M225.005 14.6654V17.332M225.005 14.6654C227.608 14.6654 229.307 15.592 230.339 16.4797M225.005 14.6654C222.403 14.6654 220.703 15.5917 219.672 16.4797" stroke="#7D7D7D" stroke-linecap="round"/>
<path d="M240.592 12.8711V14.9512H242.047V12.8711H243.033V15.3027H244.059V12.207H245.094V20.459H244.059V16.2012H243.033V18.7305H239.566V12.8711H240.592ZM240.592 17.8418H242.047V15.8203H240.592V17.8418ZM246.91 12.041V20.8691H245.865V12.041H246.91ZM255.279 12.041V20.8789H254.186V12.041H255.279ZM250.523 12.6855C251.852 12.6855 252.818 13.8965 252.828 15.8008C252.818 17.7246 251.852 18.9258 250.523 18.9258C249.186 18.9258 248.219 17.7246 248.219 15.8008C248.219 13.8965 249.186 12.6855 250.523 12.6855ZM250.523 13.6621C249.771 13.6621 249.264 14.4531 249.264 15.8008C249.264 17.1582 249.771 17.9492 250.523 17.9492C251.266 17.9492 251.773 17.1582 251.773 15.8008C251.773 14.4531 251.266 13.6621 250.523 13.6621ZM261.09 12.9102C261.08 15.5762 260.299 17.8613 257.135 19.4922L256.539 18.6621C258.004 17.9053 258.917 17.0264 259.439 15.9766L256.734 16.2305L256.578 15.3027L259.781 15.1074C259.898 14.6924 259.972 14.2529 260.006 13.7891H257.037V12.9102H261.09ZM263.971 12.041V20.8691H262.887V16.377H261.07V15.4883H262.887V12.041H263.971ZM272.574 12.041V20.8789H271.5V12.041H272.574ZM269.859 12.8125V16.123H266.822V17.9004C268.214 17.8906 269.415 17.8223 270.787 17.5879L270.885 18.4766C269.381 18.7402 268.062 18.7891 266.48 18.7891H265.709V15.2637H268.756V13.6914H265.699V12.8125H269.859Z" fill="#7D7D7D"/>
<rect x="292" width="122" height="32" rx="6" fill="white"/>
<path d="M311.995 16.8681V16.8768M310.257 19.4739V19.4826M313.732 19.4739V19.4826M308.086 12.5252H315.903L315.659 10.5726C315.607 10.1523 315.402 9.76577 315.085 9.48553C314.767 9.2053 314.359 9.05069 313.935 9.05078H310.054C309.631 9.05048 309.221 9.20499 308.904 9.48525C308.586 9.7655 308.382 10.1522 308.329 10.5726L308.086 12.5252Z" stroke="#7D7D7D" stroke-linecap="round" stroke-linejoin="round"/>
<path d="M308.088 12.5234L306.688 20.9236C306.646 21.1725 306.659 21.4275 306.726 21.6707C306.793 21.914 306.913 22.1397 307.076 22.3323C307.239 22.5248 307.442 22.6795 307.671 22.7856C307.9 22.8917 308.149 22.9466 308.401 22.9466H315.592C315.844 22.9466 316.093 22.8917 316.322 22.7856C316.551 22.6795 316.754 22.5248 316.917 22.3323C317.081 22.1397 317.2 21.914 317.267 21.6707C317.334 21.4275 317.347 21.1725 317.305 20.9236L315.905 12.5234" stroke="#7D7D7D" stroke-linecap="round" stroke-linejoin="round"/>
<path d="M334.457 13.2227V14.1113H333.256V15.1172H334.457V16.0156H333.256V17.2266H332.172V12.041H333.256V13.2227H334.457ZM328.773 12.5488C330.131 12.5391 331.146 13.4082 331.156 14.6582C331.146 15.8984 330.131 16.7676 328.773 16.7773C327.406 16.7676 326.381 15.8984 326.391 14.6582C326.381 13.4082 327.406 12.5391 328.773 12.5488ZM328.773 13.457C328.012 13.457 327.445 13.9355 327.455 14.6582C327.445 15.3906 328.012 15.8496 328.773 15.8594C329.525 15.8496 330.092 15.3906 330.092 14.6582C330.092 13.9355 329.525 13.457 328.773 13.457ZM330.385 17.4316C332.191 17.4316 333.334 18.0762 333.344 19.1504C333.334 20.2246 332.191 20.8594 330.385 20.8594C328.559 20.8594 327.396 20.2246 327.396 19.1504C327.396 18.0762 328.559 17.4316 330.385 17.4316ZM330.385 18.3008C329.174 18.3008 328.48 18.5938 328.48 19.1504C328.48 19.707 329.174 19.9902 330.385 19.9902C331.596 19.9902 332.27 19.707 332.27 19.1504C332.27 18.5938 331.596 18.3008 330.385 18.3008ZM336.547 12.4414V16.0449C337.709 16.0352 338.695 15.9766 339.799 15.791L339.906 16.6504C338.656 16.8848 337.533 16.9434 336.137 16.9336H335.453V12.4414H336.547ZM342.328 12.041V17.2168H341.244V15.2832H338.959V14.4629H341.244V13.7402H338.959V12.9199H341.244V12.041H342.328ZM342.328 17.5781V20.7617H336.508V17.5781H342.328ZM337.572 18.4473V19.8828H341.254V18.4473H337.572ZM347.025 17.666C346.605 17.666 346.264 17.3242 346.264 16.9043C346.264 16.4941 346.605 16.1523 347.025 16.1523C347.426 16.1523 347.777 16.4941 347.777 16.9043C347.777 17.3242 347.426 17.666 347.025 17.666ZM359.115 18.8965V19.7754H351.049V18.8965H354.506V16.8555H355.58V18.8965H359.115ZM355.609 13.2227C355.609 14.5605 356.947 15.8789 358.803 16.1719L358.334 17.0703C356.84 16.7871 355.619 15.9326 355.033 14.7754C354.447 15.9277 353.236 16.7969 351.752 17.0703L351.283 16.1719C353.129 15.8789 354.447 14.5508 354.457 13.2227V12.5781H355.609V13.2227ZM364.252 13.252C364.252 14.6191 365.59 15.9863 367.436 16.3086L366.947 17.2168C365.468 16.9043 364.257 16.0107 363.686 14.8242C363.1 16.001 361.889 16.8994 360.414 17.2168L359.936 16.3086C361.762 15.9766 363.09 14.6094 363.1 13.252V12.5977H364.252V13.252ZM367.758 18.8477V19.7461H359.691V18.8477H367.758ZM371.781 17.666C371.361 17.666 371.02 17.3242 371.02 16.9043C371.02 16.4941 371.361 16.1523 371.781 16.1523C372.182 16.1523 372.533 16.4941 372.533 16.9043C372.533 17.3242 372.182 17.666 371.781 17.666ZM383.871 18.916V19.8047H375.805V18.916H379.291V16.8848H380.375V18.916H383.871ZM383.178 12.7539V13.6426H380.395C380.429 14.9121 381.737 16.0791 383.549 16.3477L383.119 17.207C381.625 16.9336 380.404 16.1475 379.838 15.0488C379.267 16.1621 378.056 16.9775 376.586 17.2559L376.156 16.3965C377.919 16.0986 379.218 14.9121 379.252 13.6426H376.479V12.7539H383.178ZM389.115 12.8711V18.7207H384.916V12.8711H389.115ZM385.99 13.7207V17.8516H388.061V13.7207H385.99ZM391.791 12.041V20.8789H390.697V12.041H391.791ZM401.156 18.9453V19.8438H393.09V18.9453H395.229V17.4902H394.047V14.6094H399.125V13.5254H394.027V12.6465H400.199V15.4785H395.131V16.6113H400.404V17.4902H399.115V18.9453H401.156ZM396.283 18.9453H398.051V17.4902H396.283V18.9453Z" fill="#7D7D7D"/>
<defs>
<clipPath id="clip0_7447_57521">
<rect width="16" height="16" fill="white" transform="translate(115 8)"/>
</clipPath>
</defs>
</svg>
