<svg width="282" height="58" viewBox="0 0 282 58" fill="none" xmlns="http://www.w3.org/2000/svg">
<g filter="url(#filter0_d_5288_44831)">
<rect x="6" y="2" width="270" height="36" rx="18" fill="white"/>
<path d="M28.3164 17.5215C28.3164 19.5723 29.6562 21.6914 31.543 22.498L30.832 23.5098C29.3896 22.874 28.2412 21.5273 27.6738 19.8867C27.1064 21.6367 25.9512 23.127 24.5293 23.8242L23.7773 22.7988C25.623 21.9375 26.9902 19.627 27.0039 17.5215V16.2227H24.2012V15.1426H31.1055V16.2227H28.3164V17.5215ZM33.9492 13.9121V26.1621H32.6504V13.9121H33.9492ZM45.6934 14.5273V15.457C45.6934 16.4209 45.6934 17.5146 45.3789 18.998H47.1152V20.0645H35.9043V18.998H44.0664C44.3945 17.5693 44.4082 16.5234 44.4082 15.5938H37.3125V14.5273H45.6934ZM45.707 21.623V26.0117H37.2715V21.623H45.707ZM38.543 22.6484V24.959H44.4219V22.6484H38.543ZM61.8672 13.9258V21.3086H60.6367V18.1094H59.0781V20.8711H57.875V14.1445H59.0781V17.043H60.6367V13.9258H61.8672ZM57.7656 21.4727C60.3086 21.4727 61.9219 22.3477 61.9355 23.8105C61.9219 25.2598 60.3086 26.1484 57.7656 26.1348C55.209 26.1484 53.6094 25.2598 53.623 23.8105C53.6094 22.3477 55.209 21.4727 57.7656 21.4727ZM57.7656 22.4844C55.9883 22.4844 54.8945 22.9766 54.9082 23.8105C54.8945 24.6309 55.9883 25.1094 57.7656 25.1094C59.543 25.1094 60.623 24.6309 60.6367 23.8105C60.623 22.9766 59.543 22.4844 57.7656 22.4844ZM53.2949 14.8828V19.2031C54.5254 19.1826 55.6943 19.1006 57.082 18.834L57.2051 19.9004C55.6055 20.2148 54.2793 20.2832 52.8027 20.2832H51.9961V14.8828H53.2949ZM67.8008 16.168C67.8008 17.7266 68.8809 19.1484 70.7402 19.7363L70.125 20.748C68.7305 20.3037 67.7119 19.3809 67.1719 18.2188C66.6387 19.5586 65.5654 20.6182 64.0957 21.1309L63.4258 20.0918C65.3398 19.4629 66.4883 17.877 66.502 16.1816V15.8398H63.8086V14.7871H70.4395V15.8398H67.8008V16.168ZM73.1465 13.9121V16.9473H74.9238V18.0137H73.1465V21.2676H71.8477V13.9121H73.1465ZM69.1953 21.5684C71.7246 21.5684 73.2559 22.4023 73.2559 23.8379C73.2559 25.2871 71.7246 26.1484 69.1953 26.1348C66.6387 26.1484 65.0801 25.2871 65.0801 23.8379C65.0801 22.4023 66.6387 21.5684 69.1953 21.5684ZM69.1953 22.5938C67.418 22.5938 66.3652 23.0449 66.3789 23.8379C66.3652 24.6582 67.418 25.1094 69.1953 25.1094C70.959 25.1094 71.9844 24.6582 71.9844 23.8379C71.9844 23.0449 70.959 22.5938 69.1953 22.5938ZM85.5332 15.0879V16.291C85.5332 17.8086 85.5332 19.5039 85.0684 22.0059L83.7559 21.8691C84.2344 19.5039 84.2344 17.7676 84.2344 16.291V16.1406H76.7969V15.0879H85.5332ZM86.791 23.4277V24.5078H75.6211V23.4277H79.873V19.1074H81.1582V23.4277H86.791ZM98.2617 13.9121V26.1621H97.0176V13.9121H98.2617ZM95.7734 14.1445V25.5605H94.5293V19.6543H93.1484C93.0391 22.0469 92.0137 23.5371 90.4961 23.5234C88.8965 23.5371 87.8574 21.8555 87.8574 19.2031C87.8574 16.5508 88.8965 14.8828 90.4961 14.8965C91.9863 14.8828 92.998 16.2979 93.1484 18.6016H94.5293V14.1445H95.7734ZM90.4961 16.1133C89.6074 16.1133 89.0605 17.248 89.0605 19.2031C89.0605 21.1582 89.6074 22.293 90.4961 22.293C91.3984 22.293 91.959 21.1582 91.959 19.2031C91.959 17.248 91.3984 16.1133 90.4961 16.1133ZM107.49 22.0059C107.49 23.0586 108.01 24.1729 109.117 24.8359C110.245 24.1182 110.799 22.9424 110.799 22.0059V21.418H112.07V22.0059C112.07 23.2773 112.904 24.5078 114.504 25.0273L113.861 25.9844C112.651 25.5674 111.831 24.7539 111.4 23.7422C111.011 24.7334 110.279 25.6289 109.158 26.0938C107.982 25.6494 107.237 24.7812 106.861 23.7832C106.417 24.7471 105.61 25.5605 104.455 25.9844L103.799 25.0273C105.371 24.4668 106.219 23.1953 106.232 22.0059V21.418H107.49V22.0059ZM113.396 13.9258V20.8984H112.098V13.9258H113.396ZM106.752 14.5957C108.625 14.5957 110.006 15.7852 110.006 17.4941C110.006 19.1895 108.625 20.3652 106.752 20.3652C104.879 20.3652 103.484 19.1895 103.484 17.4941C103.484 15.7852 104.879 14.5957 106.752 14.5957ZM106.752 15.7031C105.59 15.6895 104.756 16.4141 104.756 17.4941C104.756 18.5605 105.59 19.2852 106.752 19.2852C107.9 19.2852 108.734 18.5605 108.734 17.4941C108.734 16.4141 107.9 15.6895 106.752 15.7031ZM125.25 17.4941V18.5332H116.814V14.3496H118.1V17.4941H125.25ZM126.535 20.0781V21.1172H115.324V20.0781H126.535ZM125.332 24.8086V25.875H116.719V22.2793H118.018V24.8086H125.332ZM141.438 13.9121V26.1621H140.193V19.873H138.73V25.5605H137.5V14.1445H138.73V18.7793H140.193V13.9121H141.438ZM134.574 17.1523C134.574 19.3535 135.408 21.3496 137.186 22.2656L136.42 23.2637C135.217 22.6143 134.41 21.4727 133.973 20.0508C133.556 21.6641 132.742 22.9492 131.498 23.6875L130.691 22.7031C132.482 21.6914 133.316 19.5859 133.316 17.1523V16.3594H131.02V15.3066H136.707V16.3594H134.574V17.1523ZM154.166 23.6055V24.6992H142.955V23.6055H146.018V21.4453H144.322V17.5488H151.514V15.8398H144.295V14.7734H152.799V18.6016H145.607V20.3789H153.086V21.4453H151.227V23.6055H154.166ZM147.275 23.6055H149.955V21.4453H147.275V23.6055ZM166.252 21.1172V22.1426H161.248V26.1621H159.977V22.1426H155.041V21.1172H166.252ZM157.721 14.4043V16.0039H163.545V14.4043H164.844V19.7227H156.436V14.4043H157.721ZM157.721 18.6836H163.545V17.043H157.721V18.6836ZM177.367 13.9121V26.1895H176.082V19.5039H173.648V18.4375H176.082V13.9121H177.367ZM173.443 15.0059V16.0586H169.027V18.4375H172.924V19.4766H169.027V22.2109C171.078 22.2041 172.5 22.1562 174.127 21.8691L174.264 22.9219C172.486 23.209 170.941 23.2773 168.672 23.291H167.715V15.0059H173.443ZM193.855 19.668V20.7344H182.672V19.668H193.855ZM192.557 17.5488V18.6016H184.066V14.3496H192.475V15.416H185.352V17.5488H192.557ZM188.25 21.6914C190.889 21.6914 192.475 22.498 192.475 23.9199C192.475 25.3418 190.889 26.1484 188.25 26.1348C185.598 26.1484 183.998 25.3418 183.998 23.9199C183.998 22.498 185.598 21.6914 188.25 21.6914ZM188.25 22.6895C186.377 22.7031 185.311 23.1406 185.311 23.9199C185.311 24.6992 186.377 25.1367 188.25 25.1367C190.096 25.1367 191.176 24.6992 191.176 23.9199C191.176 23.1406 190.096 22.7031 188.25 22.6895ZM205.969 20.5977V21.6504H194.758V20.5977H199.721V19.4355H196.193V16.3184H203.262V15.2246H196.166V14.1992H204.561V17.2754H197.479V18.4238H204.807V19.4355H201.006V20.5977H205.969ZM204.629 22.5117V26.0664H203.316V23.5508H196.016V22.5117H204.629ZM212.928 15.9355V16.9883H206.844V15.9355H209.25V14.2676H210.535V15.9355H212.928ZM209.893 17.7266C211.451 17.7266 212.545 18.8887 212.559 20.543C212.545 22.2109 211.451 23.3867 209.893 23.3867C208.361 23.3867 207.227 22.2109 207.24 20.543C207.227 18.8887 208.361 17.7266 209.893 17.7266ZM209.893 18.8066C209.004 18.8066 208.389 19.5312 208.389 20.543C208.389 21.582 209.004 22.2793 209.893 22.2793C210.768 22.2793 211.41 21.582 211.41 20.543C211.41 19.5312 210.768 18.8066 209.893 18.8066ZM217.357 13.9121V26.1621H216.127V20.0781H214.719V25.5879H213.488V14.1855H214.719V19.0117H216.127V13.9121H217.357ZM230.182 23.5645V24.6445H218.971V23.5645H223.906V21.0488H220.256V14.7461H221.555V16.8516H227.57V14.7461H228.855V21.0488H225.191V23.5645H230.182ZM221.555 19.9961H227.57V17.9043H221.555V19.9961ZM234.803 17.2617C234.803 19.2168 235.623 21.3086 237.264 22.3066L236.539 23.3047C235.391 22.6143 234.611 21.3906 234.201 19.9688C233.743 21.5273 232.902 22.8535 231.713 23.5781L230.906 22.6074C232.643 21.5684 233.545 19.4082 233.545 17.3164V15.0332H234.803V17.2617ZM241.611 13.9121V26.1621H240.367V13.9121H241.611ZM239.068 14.1445V25.5605H237.838V19.2988H235.938V18.2188H237.838V14.1445H239.068ZM254.381 23.5508V24.6309H243.17V23.5508H245.85V20.3516C244.845 19.7979 244.236 18.916 244.236 17.8223C244.236 15.8945 246.123 14.623 248.748 14.623C251.387 14.623 253.273 15.8945 253.273 17.8223C253.273 18.9023 252.686 19.7705 251.701 20.3242V23.5508H254.381ZM248.748 15.6621C246.82 15.6621 245.494 16.4961 245.494 17.8223C245.494 19.1348 246.82 19.9961 248.748 19.9961C250.662 19.9961 252.016 19.1348 252.016 17.8223C252.016 16.4961 250.662 15.6621 248.748 15.6621ZM247.135 23.5508H250.389V20.8164C249.89 20.9463 249.336 21.0078 248.748 21.0078C248.174 21.0078 247.627 20.9463 247.135 20.8301V23.5508ZM257.525 15.1016L257.402 22.1426H256.049L255.926 15.1016H257.525ZM256.732 25.0957C256.199 25.0957 255.748 24.6582 255.762 24.125C255.748 23.5918 256.199 23.1543 256.732 23.1543C257.252 23.1543 257.703 23.5918 257.703 24.125C257.703 24.6582 257.252 25.0957 256.732 25.0957Z" fill="#1FC16F"/>
<path d="M241.74 47.55C241.856 47.75 242.144 47.75 242.26 47.55L247.802 37.95C247.918 37.75 247.774 37.5 247.543 37.5L236.457 37.5C236.226 37.5 236.082 37.75 236.198 37.95L241.74 47.55Z" fill="white"/>
</g>
<defs>
<filter id="filter0_d_5288_44831" x="0" y="0" width="282" height="57.6992" filterUnits="userSpaceOnUse" color-interpolation-filters="sRGB">
<feFlood flood-opacity="0" result="BackgroundImageFix"/>
<feColorMatrix in="SourceAlpha" type="matrix" values="0 0 0 0 0 0 0 0 0 0 0 0 0 0 0 0 0 0 127 0" result="hardAlpha"/>
<feMorphology radius="10" operator="erode" in="SourceAlpha" result="effect1_dropShadow_5288_44831"/>
<feOffset dy="4"/>
<feGaussianBlur stdDeviation="8"/>
<feComposite in2="hardAlpha" operator="out"/>
<feColorMatrix type="matrix" values="0 0 0 0 0 0 0 0 0 0 0 0 0 0 0 0 0 0 0.13 0"/>
<feBlend mode="normal" in2="BackgroundImageFix" result="effect1_dropShadow_5288_44831"/>
<feBlend mode="normal" in="SourceGraphic" in2="effect1_dropShadow_5288_44831" result="shape"/>
</filter>
</defs>
</svg>
