<svg width="354" height="131" viewBox="0 0 354 131" fill="none" xmlns="http://www.w3.org/2000/svg">
<rect x="10" y="9" width="59" height="22" rx="6" fill="#202020"/>
<rect x="10" y="9" width="59" height="22" rx="6" fill="black" fill-opacity="0.2"/>
<path fill-rule="evenodd" clip-rule="evenodd" d="M27.1578 13C27.3429 13 27.5205 13.0736 27.6514 13.2045C27.7823 13.3354 27.8559 13.513 27.8559 13.6981V14.3698L28.3125 14.1282C28.4762 14.0416 28.6675 14.0237 28.8445 14.0782C29.0214 14.1327 29.1695 14.2553 29.256 14.419C29.3426 14.5827 29.3606 14.774 29.3061 14.951C29.2515 15.1279 29.1289 15.276 28.9653 15.3625L27.8559 15.949V17.2769C28.3551 17.4053 28.7998 17.6678 29.1503 18.0246L30.3008 17.3606L30.254 16.1068C30.2471 15.9217 30.314 15.7414 30.4399 15.6057C30.5659 15.4699 30.7406 15.3897 30.9257 15.3828C31.1107 15.3758 31.291 15.4427 31.4268 15.5687C31.5625 15.6946 31.6427 15.8693 31.6496 16.0544L31.6685 16.571L32.2501 16.2352C32.3295 16.1887 32.4173 16.1583 32.5086 16.1458C32.5998 16.1333 32.6926 16.139 32.7816 16.1625C32.8706 16.1861 32.9541 16.227 33.0272 16.2829C33.1004 16.3388 33.1617 16.4087 33.2077 16.4884C33.2538 16.5682 33.2836 16.6562 33.2955 16.7475C33.3073 16.8388 33.301 16.9316 33.2769 17.0204C33.2528 17.1093 33.2113 17.1925 33.1549 17.2653C33.0985 17.338 33.0282 17.3989 32.9482 17.4444L32.3666 17.7795L32.8044 18.0546C32.882 18.1034 32.9493 18.167 33.0024 18.2417C33.0555 18.3165 33.0933 18.401 33.1137 18.4904C33.1342 18.5798 33.1368 18.6724 33.1214 18.7628C33.1061 18.8532 33.0731 18.9397 33.0243 19.0173C32.9755 19.095 32.9119 19.1623 32.8372 19.2154C32.7624 19.2684 32.6779 19.3063 32.5885 19.3267C32.4991 19.3471 32.4065 19.3497 32.3161 19.3344C32.2257 19.319 32.1392 19.286 32.0616 19.2373L30.999 18.5698L29.8491 19.2331C29.9852 19.7225 29.9852 20.2398 29.8491 20.7292L30.999 21.3931L32.0616 20.7257C32.2184 20.6272 32.4079 20.595 32.5885 20.6363C32.769 20.6775 32.9258 20.7888 33.0243 20.9456C33.1228 21.1025 33.155 21.292 33.1137 21.4726C33.0725 21.6531 32.9612 21.8099 32.8044 21.9084L32.3673 22.1828L32.9482 22.5186C33.0282 22.5641 33.0985 22.625 33.1549 22.6977C33.2113 22.7705 33.2528 22.8537 33.2769 22.9426C33.301 23.0314 33.3073 23.1242 33.2955 23.2155C33.2836 23.3068 33.2538 23.3948 33.2077 23.4746C33.1617 23.5543 33.1004 23.6241 33.0272 23.6801C32.9541 23.736 32.8706 23.7769 32.7816 23.8004C32.6926 23.824 32.5998 23.8297 32.5086 23.8172C32.4173 23.8047 32.3295 23.7743 32.2501 23.7278L31.6692 23.3926L31.6496 23.9086C31.6427 24.0936 31.5625 24.2684 31.4268 24.3943C31.291 24.5203 31.1107 24.5871 30.9257 24.5802C30.7406 24.5733 30.5659 24.4931 30.4399 24.3573C30.314 24.2215 30.2471 24.0413 30.254 23.8562L30.3008 22.6023L29.1503 21.9384C28.7998 22.2945 28.3544 22.5577 27.8559 22.6861V24.014L28.9653 24.6004C29.1289 24.687 29.2515 24.835 29.3061 25.012C29.3606 25.1889 29.3426 25.3803 29.256 25.544C29.1695 25.7077 29.0214 25.8303 28.8445 25.8848C28.6675 25.9393 28.4762 25.9213 28.3125 25.8348L27.8559 25.5932V26.2648C27.8559 26.45 27.7823 26.6276 27.6514 26.7585C27.5205 26.8894 27.3429 26.963 27.1578 26.963C26.9726 26.963 26.795 26.8894 26.6641 26.7585C26.5332 26.6276 26.4596 26.45 26.4596 26.2648V25.5932L26.003 25.8348C25.922 25.8776 25.8333 25.9041 25.742 25.9127C25.6507 25.9213 25.5586 25.9118 25.471 25.8848C25.3834 25.8578 25.302 25.8138 25.2313 25.7553C25.1607 25.6968 25.1023 25.625 25.0595 25.544C25.0166 25.4629 24.9901 25.3742 24.9815 25.283C24.973 25.1917 24.9824 25.0996 25.0094 25.012C25.0364 24.9244 25.0804 24.8429 25.1389 24.7723C25.1974 24.7017 25.2692 24.6433 25.3502 24.6004L26.4596 24.014V22.6861C25.9681 22.5589 25.5206 22.3002 25.1652 21.9377L24.0147 22.6023L24.0615 23.8562C24.0649 23.9479 24.0502 24.0393 24.0182 24.1252C23.9863 24.2112 23.9377 24.29 23.8753 24.3572C23.813 24.4244 23.7379 24.4786 23.6546 24.5168C23.5712 24.555 23.4811 24.5765 23.3895 24.5798C23.2979 24.5832 23.2065 24.5685 23.1205 24.5366C23.0345 24.5047 22.9557 24.4561 22.8885 24.3937C22.8213 24.3313 22.7671 24.2563 22.7289 24.1729C22.6907 24.0896 22.6693 23.9995 22.6659 23.9079L22.647 23.3919L22.0655 23.7271C21.986 23.7762 21.8974 23.8089 21.8051 23.8233C21.7127 23.8376 21.6185 23.8332 21.5278 23.8104C21.4372 23.7876 21.3521 23.7468 21.2775 23.6905C21.2029 23.6342 21.1404 23.5635 21.0936 23.4826C21.0469 23.4017 21.0169 23.3122 21.0053 23.2194C20.9938 23.1267 21.001 23.0326 21.0265 22.9427C21.0521 22.8528 21.0954 22.7689 21.1539 22.6961C21.2124 22.6232 21.285 22.5628 21.3673 22.5186L21.9489 22.1828L21.5111 21.9077C21.3584 21.8073 21.2512 21.6511 21.2124 21.4726C21.1735 21.2941 21.2062 21.1075 21.3035 20.9528C21.4007 20.7981 21.5547 20.6877 21.7324 20.6452C21.9101 20.6028 22.0973 20.6317 22.254 20.7257L23.3165 21.3931L24.4664 20.7292C24.3304 20.24 24.3304 19.723 24.4664 19.2338L23.3165 18.5705L22.254 19.2373C22.0973 19.3313 21.9101 19.3602 21.7324 19.3178C21.5547 19.2753 21.4007 19.1649 21.3035 19.0102C21.2062 18.8555 21.1735 18.6689 21.2124 18.4904C21.2512 18.3118 21.3584 18.1556 21.5111 18.0553L21.9489 17.7802L21.3673 17.4451C21.2069 17.3525 21.0898 17.2 21.0418 17.0211C20.9938 16.8422 21.0189 16.6515 21.1114 16.4911C21.204 16.3307 21.3565 16.2136 21.5355 16.1656C21.7144 16.1176 21.905 16.1426 22.0655 16.2352L22.647 16.571L22.6659 16.0544C22.6728 15.8693 22.753 15.6946 22.8888 15.5687C22.956 15.5063 23.0348 15.4578 23.1208 15.4259C23.2068 15.394 23.2982 15.3793 23.3898 15.3828C23.4815 15.3862 23.5715 15.4077 23.6549 15.4459C23.7382 15.4842 23.8132 15.5384 23.8756 15.6057C23.938 15.6729 23.9865 15.7518 24.0184 15.8377C24.0503 15.9237 24.0649 16.0151 24.0615 16.1068L24.0147 17.3606L25.1652 18.0253C25.5206 17.6628 25.9681 17.404 26.4596 17.2769V15.949L25.3502 15.3625C25.1866 15.276 25.064 15.1279 25.0094 14.951C24.9549 14.774 24.9729 14.5827 25.0595 14.419C25.146 14.2553 25.2941 14.1327 25.471 14.0782C25.648 14.0237 25.8393 14.0416 26.003 14.1282L26.4596 14.3698V13.6981C26.4596 13.513 26.5332 13.3354 26.6641 13.2045C26.795 13.0736 26.9726 13 27.1578 13ZM27.1578 21.3778C27.5281 21.3778 27.8832 21.2307 28.1451 20.9688C28.4069 20.707 28.5541 20.3518 28.5541 19.9815C28.5541 19.6112 28.4069 19.256 28.1451 18.9942C27.8832 18.7323 27.5281 18.5852 27.1578 18.5852C26.7874 18.5852 26.4323 18.7323 26.1704 18.9942C25.9086 19.256 25.7615 19.6112 25.7615 19.9815C25.7615 20.3518 25.9086 20.707 26.1704 20.9688C26.4323 21.2307 26.7874 21.3778 27.1578 21.3778Z" fill="#32E389"/>
<path d="M49.2695 20.8594H48.3906V18.0352H46.8906V20.4727H46.0352V14.7422H46.8906V17.2617H48.3906V14.543H49.2695V20.8594ZM45.8242 21.0117C46.5352 21.0117 47.1543 21.0918 47.6816 21.252C48.209 21.4082 48.6152 21.6348 48.9004 21.9316C49.1855 22.2246 49.3281 22.5742 49.3281 22.9805C49.3281 23.3828 49.1855 23.7305 48.9004 24.0234C48.6152 24.3164 48.209 24.5391 47.6816 24.6914C47.1543 24.8477 46.5352 24.9258 45.8242 24.9258C45.1094 24.9258 44.4883 24.8477 43.9609 24.6914C43.4336 24.5391 43.0293 24.3164 42.748 24.0234C42.4668 23.7305 42.3281 23.3828 42.332 22.9805C42.3281 22.5742 42.4668 22.2246 42.748 21.9316C43.0293 21.6348 43.4336 21.4082 43.9609 21.252C44.4883 21.0918 45.1094 21.0117 45.8242 21.0117ZM45.8242 21.75C45.293 21.75 44.832 21.7988 44.4414 21.8965C44.0547 21.9941 43.7578 22.1367 43.5508 22.3242C43.3438 22.5078 43.2422 22.7266 43.2461 22.9805C43.2422 23.2266 43.3438 23.4414 43.5508 23.625C43.7578 23.8047 44.0566 23.9434 44.4473 24.041C44.8379 24.1387 45.2969 24.1875 45.8242 24.1875C46.3477 24.1875 46.8027 24.1387 47.1895 24.041C47.5801 23.9434 47.8809 23.8047 48.0918 23.625C48.3027 23.4414 48.4102 23.2266 48.4141 22.9805C48.4102 22.7266 48.3027 22.5078 48.0918 22.3242C47.8809 22.1367 47.5801 21.9941 47.1895 21.8965C46.8027 21.7988 46.3477 21.75 45.8242 21.75ZM41.8633 19.1133C42.4766 19.1094 43.0547 19.0859 43.5977 19.043C44.1406 18.9961 44.7109 18.9141 45.3086 18.7969L45.3906 19.5586C44.7383 19.6836 44.1152 19.7695 43.5215 19.8164C42.9316 19.8633 42.293 19.8867 41.6055 19.8867H40.9492V15.375H41.8633V19.1133ZM60.2969 20.4258H50.793V19.6875H55.0938V18.4688H52V15.0234H59.1133V15.7617H52.9023V17.7188H59.1836V18.4688H55.9844V19.6875H60.2969V20.4258ZM55.5391 21.1875C56.2812 21.1875 56.9199 21.2617 57.4551 21.4102C57.9941 21.5547 58.4062 21.7676 58.6914 22.0488C58.9766 22.3301 59.1211 22.668 59.125 23.0625C59.1211 23.4609 58.9766 23.8008 58.6914 24.082C58.4062 24.3633 57.9961 24.5762 57.4609 24.7207C56.9258 24.8691 56.2852 24.9453 55.5391 24.9492C54.7891 24.9453 54.1445 24.8691 53.6055 24.7207C53.0664 24.5762 52.6543 24.3633 52.3691 24.082C52.084 23.8008 51.9414 23.4609 51.9414 23.0625C51.9414 22.668 52.084 22.3301 52.3691 22.0488C52.6543 21.7676 53.0664 21.5547 53.6055 21.4102C54.1445 21.2617 54.7891 21.1875 55.5391 21.1875ZM55.5391 21.9141C54.9844 21.9141 54.5059 21.9609 54.1035 22.0547C53.7051 22.1445 53.4004 22.2754 53.1895 22.4473C52.9785 22.6191 52.875 22.8242 52.8789 23.0625C52.875 23.3047 52.9785 23.5117 53.1895 23.6836C53.4004 23.8555 53.7051 23.9863 54.1035 24.0762C54.5059 24.166 54.9844 24.2109 55.5391 24.2109C56.0898 24.2109 56.5645 24.166 56.9629 24.0762C57.3613 23.9863 57.666 23.8555 57.877 23.6836C58.0918 23.5078 58.1992 23.3008 58.1992 23.0625C58.1992 22.8242 58.0918 22.6191 57.877 22.4473C57.666 22.2754 57.3594 22.1445 56.957 22.0547C56.5586 21.9609 56.0859 21.9141 55.5391 21.9141Z" fill="#32E389"/>
<path d="M296.021 14.666V23.0449H294.611V18.8428H292.58V17.7002H294.611V14.666H296.021ZM296.312 24.7588V25.9014H288.492V22.3086H289.901V24.7588H296.312ZM290.625 16.9512C290.625 18.335 291.552 19.7568 293.329 20.3408L292.618 21.4707C291.336 21.0327 290.428 20.1631 289.927 19.0713C289.419 20.2837 288.46 21.2422 287.108 21.7119L286.385 20.5693C288.213 19.9727 289.19 18.4619 289.19 16.9385V16.6338H286.804V15.4912H292.999V16.6338H290.625V16.9512ZM301.149 18.1572C301.149 19.9346 301.886 21.7246 303.485 22.5879L302.698 23.6289C301.632 23.064 300.908 22.0547 300.502 20.8486C300.096 22.1499 299.372 23.2607 298.293 23.8955L297.468 22.8291C299.093 21.8896 299.816 19.9727 299.816 18.1572V17.8018H297.861V16.6592H299.816V15.0596H301.149V16.6592H303.066V17.8018H301.149V18.1572ZM307.522 14.6533V26.1299H306.177V14.6533H307.522ZM305.187 14.8691V25.5713H303.854V20.2266H302.355V19.0586H303.854V14.8691H305.187ZM319.367 23.5908V24.7461H308.881V23.5908H313.4V21.3564H310.036V15.415H311.445V17.2939H316.765V15.415H318.174V21.3564H314.797V23.5908H319.367ZM311.445 20.2139H316.765V18.4238H311.445V20.2139ZM329.701 14.6533V26.1299H328.279V14.6533H329.701ZM326.273 15.8721C326.273 19.2871 324.953 22.1943 320.929 24.0986L320.192 22.9688C323.195 21.5405 324.591 19.5981 324.839 16.9893H320.776V15.8721H326.273Z" fill="#7D7D7D"/>
<path d="M338.332 20.0026H347.665M342.999 15.3359V24.6693" stroke="#7D7D7D" stroke-width="2" stroke-linecap="round" stroke-linejoin="round"/>
<path d="M136.857 53.4961V63.9961H135.791V58.6055H134.537V63.4805H133.482V53.6953H134.537V57.668H135.791V53.4961H136.857ZM130.975 56.2734C130.975 58.1602 131.689 59.8711 133.213 60.6562L132.557 61.5117C131.525 60.9551 130.834 59.9766 130.459 58.7578C130.102 60.1406 129.404 61.2422 128.338 61.875L127.646 61.0312C129.182 60.1641 129.896 58.3594 129.896 56.2734V55.5938H127.928V54.6914H132.803V55.5938H130.975V56.2734ZM147.768 61.8047V62.7422H138.158V61.8047H140.783V59.9531H139.33V56.6133H145.494V55.1484H139.307V54.2344H146.596V57.5156H140.432V59.0391H146.842V59.9531H145.248V61.8047H147.768ZM141.861 61.8047H144.158V59.9531H141.861V61.8047ZM158.127 58.3125V59.168H148.518V58.3125H158.127ZM156.943 59.9062V62.2148H150.779V63.082H157.271V63.8672H149.666V61.4766H155.842V60.7031H149.654V59.9062H156.943ZM156.92 53.7656V56.0391H150.85V56.8359H157.096V57.6211H149.748V55.3008H155.807V54.5508H149.725V53.7656H156.92ZM171.416 58.4297V59.3438H161.83V58.4297H171.416ZM170.303 56.6133V57.5156H163.025V53.8711H170.232V54.7852H164.127V56.6133H170.303ZM166.611 60.1641C168.873 60.1641 170.232 60.8555 170.232 62.0742C170.232 63.293 168.873 63.9844 166.611 63.9727C164.338 63.9844 162.967 63.293 162.967 62.0742C162.967 60.8555 164.338 60.1641 166.611 60.1641ZM166.611 61.0195C165.006 61.0312 164.092 61.4062 164.092 62.0742C164.092 62.7422 165.006 63.1172 166.611 63.1172C168.193 63.1172 169.119 62.7422 169.119 62.0742C169.119 61.4062 168.193 61.0312 166.611 61.0195ZM181.799 59.2266V60.1289H172.189V59.2266H176.443V58.2305H173.42V55.5586H179.479V54.6211H173.396V53.7422H180.592V56.3789H174.521V57.3633H180.803V58.2305H177.545V59.2266H181.799ZM180.65 60.8672V63.9141H179.525V61.7578H173.268V60.8672H180.65ZM187.764 55.2305V56.1328H182.549V55.2305H184.611V53.8008H185.713V55.2305H187.764ZM185.162 56.7656C186.498 56.7656 187.436 57.7617 187.447 59.1797C187.436 60.6094 186.498 61.6172 185.162 61.6172C183.85 61.6172 182.877 60.6094 182.889 59.1797C182.877 57.7617 183.85 56.7656 185.162 56.7656ZM185.162 57.6914C184.4 57.6914 183.873 58.3125 183.873 59.1797C183.873 60.0703 184.4 60.668 185.162 60.668C185.912 60.668 186.463 60.0703 186.463 59.1797C186.463 58.3125 185.912 57.6914 185.162 57.6914ZM191.561 53.4961V63.9961H190.506V58.7812H189.299V63.5039H188.244V53.7305H189.299V57.8672H190.506V53.4961H191.561ZM205.447 59.4141V60.3164H201.182V63.9844H200.092V60.3164H195.873V59.4141H205.447ZM204.545 54.1172V55.0078H201.299C201.316 56.3086 202.934 57.4688 204.92 57.7383L204.51 58.6172C202.787 58.3477 201.299 57.498 200.666 56.2969C200.016 57.498 198.533 58.3477 196.834 58.6172L196.412 57.7383C198.375 57.4688 199.992 56.3086 200.033 55.0078H196.764V54.1172H204.545ZM209.443 56.3672C209.443 58.043 210.146 59.8359 211.553 60.6914L210.932 61.5469C209.947 60.9551 209.279 59.9062 208.928 58.6875C208.535 60.0234 207.814 61.1602 206.795 61.7812L206.104 60.9492C207.592 60.0586 208.365 58.207 208.365 56.4141V54.457H209.443V56.3672ZM215.279 53.4961V63.9961H214.213V53.4961H215.279ZM213.1 53.6953V63.4805H212.045V58.1133H210.416V57.1875H212.045V53.6953H213.1ZM226.225 61.7578V62.6836H216.615V61.7578H218.912V59.0156C218.051 58.541 217.529 57.7852 217.529 56.8477C217.529 55.1953 219.146 54.1055 221.396 54.1055C223.658 54.1055 225.275 55.1953 225.275 56.8477C225.275 57.7734 224.771 58.5176 223.928 58.9922V61.7578H226.225ZM221.396 54.9961C219.744 54.9961 218.607 55.7109 218.607 56.8477C218.607 57.9727 219.744 58.7109 221.396 58.7109C223.037 58.7109 224.197 57.9727 224.197 56.8477C224.197 55.7109 223.037 54.9961 221.396 54.9961ZM220.014 61.7578H222.803V59.4141C222.375 59.5254 221.9 59.5781 221.396 59.5781C220.904 59.5781 220.436 59.5254 220.014 59.4258V61.7578Z" fill="#7D7D7D"/>
<g opacity="0.5">
<ellipse cx="177" cy="124.5" rx="37" ry="6.5" fill="#54B67C"/>
<path d="M176.452 72C179.244 72 181.933 72.411 184.459 73.1699C184.016 73.9135 183.761 74.7825 183.761 75.7109C183.761 77.8415 185.102 79.6577 186.986 80.3643C186.935 80.6503 186.907 80.9453 186.907 81.2461C186.907 83.9907 189.132 86.2156 191.877 86.2158C192.566 86.2158 193.223 86.0749 193.819 85.8213C194.715 87.1242 196.216 87.9785 197.917 87.9785C198.958 87.9785 199.924 87.6577 200.723 87.1104C202.101 90.1378 202.865 93.4742 202.865 96.9795C202.865 110.775 191.04 121.959 176.452 121.959C161.865 121.959 150.039 110.775 150.039 96.9795C150.039 83.1839 161.865 72 176.452 72Z" fill="url(#paint0_linear_6531_54717)"/>
<circle cx="182.253" cy="95.2768" r="7.15957" fill="white"/>
<mask id="mask0_6531_54717" style="mask-type:alpha" maskUnits="userSpaceOnUse" x="175" y="88" width="15" height="15">
<circle cx="182.253" cy="95.2768" r="7.15957" fill="#D9D9D9"/>
</mask>
<g mask="url(#mask0_6531_54717)">
<circle cx="185.338" cy="94.4634" r="4.44387" fill="#202020"/>
<circle cx="185.338" cy="94.4634" r="4.44387" fill="black" fill-opacity="0.2"/>
</g>
<circle cx="170.281" cy="95.2768" r="7.15957" fill="white"/>
<mask id="mask1_6531_54717" style="mask-type:alpha" maskUnits="userSpaceOnUse" x="163" y="88" width="15" height="15">
<circle cx="170.281" cy="95.2768" r="7.15957" fill="#D9D9D9"/>
</mask>
<g mask="url(#mask1_6531_54717)">
<circle cx="173.366" cy="94.4634" r="4.44387" fill="#202020"/>
<circle cx="173.366" cy="94.4634" r="4.44387" fill="black" fill-opacity="0.2"/>
</g>
<path d="M169.633 104.602C170.531 109.061 175.307 110.919 178.345 107.285" stroke="#202020" stroke-width="1.728" stroke-linecap="round"/>
<path d="M169.633 104.602C170.531 109.061 175.307 110.919 178.345 107.285" stroke="black" stroke-opacity="0.2" stroke-width="1.728" stroke-linecap="round"/>
<path d="M164.525 84.6995C165.574 82.0024 169.695 80.4106 172.368 82.6951" stroke="#202020" stroke-width="1.728" stroke-linecap="round"/>
<path d="M164.525 84.6995C165.574 82.0024 169.695 80.4106 172.368 82.6951" stroke="black" stroke-opacity="0.2" stroke-width="1.728" stroke-linecap="round"/>
<ellipse cx="153.221" cy="118.971" rx="6.48" ry="5.16587" transform="rotate(-112.004 153.221 118.971)" fill="#1FC16F"/>
<ellipse cx="6.48" cy="5.16587" rx="6.48" ry="5.16587" transform="matrix(0.374673 -0.927157 -0.927157 -0.374673 202.457 126.914)" fill="#1FC16F"/>
<ellipse cx="165.84" cy="121.97" rx="8.82" ry="7.056" fill="#202020"/>
<ellipse cx="165.84" cy="121.97" rx="8.82" ry="7.056" fill="black" fill-opacity="0.2"/>
<ellipse cx="187.441" cy="121.97" rx="8.82" ry="7.056" fill="#202020"/>
<ellipse cx="187.441" cy="121.97" rx="8.82" ry="7.056" fill="black" fill-opacity="0.2"/>
</g>
<defs>
<linearGradient id="paint0_linear_6531_54717" x1="176.452" y1="72" x2="176.452" y2="121.959" gradientUnits="userSpaceOnUse">
<stop stop-color="#32E389"/>
<stop offset="1" stop-color="#1FC16F"/>
</linearGradient>
</defs>
</svg>
