<svg width="374" height="104" viewBox="0 0 374 104" fill="none" xmlns="http://www.w3.org/2000/svg">
<g filter="url(#filter0_d_6529_54715)">
<g clip-path="url(#clip0_6529_54715)">
<rect x="6" y="46" width="361" height="48" rx="6" fill="#EBEDF1"/>
<path d="M22.7441 66.4414C22.7441 67.8359 23.8516 69.1484 25.7246 69.668L25.1367 70.666C23.708 70.2695 22.6621 69.4082 22.1152 68.3008C21.5752 69.5107 20.502 70.4541 19.0527 70.8984L18.4238 69.873C20.2969 69.3398 21.459 67.9727 21.459 66.4414V66.3047H18.793V65.2656H21.459V63.8574H22.7578V65.2656H25.4102V66.3047H22.7441V66.4414ZM28.0762 63.9121V66.8516H29.8535V67.9316H28.0762V70.9805H26.7773V63.9121H28.0762ZM28.2676 71.5957V72.6348H24.918C25.1504 73.7764 26.7227 74.8223 28.7734 75.123L28.2949 76.1211C26.4355 75.834 24.9043 74.9795 24.1934 73.8105C23.4893 74.9727 21.9717 75.8135 20.1191 76.1074L19.6406 75.1094C21.6982 74.8223 23.25 73.8105 23.4961 72.6348H20.1328V71.5957H28.2676ZM36.1289 64.6504C38.6992 64.6504 40.6543 66.0039 40.6543 68.0684C40.6543 70.1328 38.6992 71.5 36.1289 71.4863C33.5586 71.5 31.6172 70.1328 31.6172 68.0684C31.6172 66.0039 33.5586 64.6504 36.1289 64.6504ZM36.1289 65.7031C34.2559 65.6895 32.8477 66.6465 32.8613 68.0684C32.8477 69.5039 34.2559 70.4199 36.1289 70.4199C38.002 70.4199 39.3965 69.5039 39.3965 68.0684C39.3965 66.6465 38.002 65.6895 36.1289 65.7031ZM41.7617 73.4961V74.5762H30.5508V73.4961H41.7617ZM47.1484 67.0293C47.1348 69.2715 48.4883 71.5137 50.3887 72.3613L49.6094 73.3867C48.2012 72.7168 47.0869 71.3428 46.5195 69.668C45.9453 71.459 44.8174 72.9424 43.3477 73.6602L42.5547 72.5664C44.4824 71.7051 45.8359 69.3672 45.8359 67.0293V64.9375H47.1484V67.0293ZM52.7949 63.9121V76.1895H51.4961V63.9121H52.7949ZM64.6621 67.4941V68.5332H56.2266V64.3496H57.5117V67.4941H64.6621ZM65.9473 70.0781V71.1172H54.7363V70.0781H65.9473ZM64.7441 74.8086V75.875H56.1309V72.2793H57.4297V74.8086H64.7441ZM80.8496 63.9121V76.1621H79.6055V69.873H78.1426V75.5605H76.9121V64.1445H78.1426V68.7793H79.6055V63.9121H80.8496ZM73.9863 67.1523C73.9863 69.3535 74.8203 71.3496 76.5977 72.2656L75.832 73.2637C74.6289 72.6143 73.8223 71.4727 73.3848 70.0508C72.9678 71.6641 72.1543 72.9492 70.9102 73.6875L70.1035 72.7031C71.8945 71.6914 72.7285 69.5859 72.7285 67.1523V66.3594H70.4316V65.3066H76.1191V66.3594H73.9863V67.1523ZM93.5781 73.6055V74.6992H82.3672V73.6055H85.4297V71.4453H83.7344V67.5488H90.9258V65.8398H83.707V64.7734H92.2109V68.6016H85.0195V70.3789H92.498V71.4453H90.6387V73.6055H93.5781ZM86.6875 73.6055H89.3672V71.4453H86.6875V73.6055ZM104.01 63.9121V68.793H105.91V69.873H104.01V76.1484H102.711V63.9121H104.01ZM100.811 65.1973C100.797 68.7383 99.2383 71.8965 95.2051 73.8926L94.4805 72.8809C97.5498 71.3496 99.2178 69.1348 99.4844 66.2773H95.0957V65.1973H100.811ZM114.236 72.0059C114.236 73.0586 114.756 74.1729 115.863 74.8359C116.991 74.1182 117.545 72.9424 117.545 72.0059V71.418H118.816V72.0059C118.816 73.2773 119.65 74.5078 121.25 75.0273L120.607 75.9844C119.397 75.5674 118.577 74.7539 118.146 73.7422C117.757 74.7334 117.025 75.6289 115.904 76.0938C114.729 75.6494 113.983 74.7812 113.607 73.7832C113.163 74.7471 112.356 75.5605 111.201 75.9844L110.545 75.0273C112.117 74.4668 112.965 73.1953 112.979 72.0059V71.418H114.236V72.0059ZM120.143 63.9258V70.8984H118.844V63.9258H120.143ZM113.498 64.5957C115.371 64.5957 116.752 65.7852 116.752 67.4941C116.752 69.1895 115.371 70.3652 113.498 70.3652C111.625 70.3652 110.23 69.1895 110.23 67.4941C110.23 65.7852 111.625 64.5957 113.498 64.5957ZM113.498 65.7031C112.336 65.6895 111.502 66.4141 111.502 67.4941C111.502 68.5605 112.336 69.2852 113.498 69.2852C114.646 69.2852 115.48 68.5605 115.48 67.4941C115.48 66.4141 114.646 65.6895 113.498 65.7031ZM133.527 68.7246V69.791H131.627V76.1484H130.328V63.9121H131.627V68.7246H133.527ZM123.834 65.1016V71.9922C125.543 71.9922 127.327 71.8486 129.275 71.4453L129.426 72.5391C127.334 72.9629 125.393 73.0723 123.561 73.0723H122.549V65.1016H123.834ZM145.395 73.5508V74.6309H134.184V73.5508H136.863V70.3516C135.858 69.7979 135.25 68.916 135.25 67.8223C135.25 65.8945 137.137 64.623 139.762 64.623C142.4 64.623 144.287 65.8945 144.287 67.8223C144.287 68.9023 143.699 69.7705 142.715 70.3242V73.5508H145.395ZM139.762 65.6621C137.834 65.6621 136.508 66.4961 136.508 67.8223C136.508 69.1348 137.834 69.9961 139.762 69.9961C141.676 69.9961 143.029 69.1348 143.029 67.8223C143.029 66.4961 141.676 65.6621 139.762 65.6621ZM138.148 73.5508H141.402V70.8164C140.903 70.9463 140.35 71.0078 139.762 71.0078C139.188 71.0078 138.641 70.9463 138.148 70.8301V73.5508ZM148.293 72.0605C148.307 70.2695 148.84 69.7227 149.742 69.1621C150.316 68.8066 150.754 68.3145 150.754 67.5898C150.754 66.7285 150.098 66.1953 149.277 66.1953C148.539 66.1953 147.828 66.6465 147.76 67.6582H146.283C146.338 65.9219 147.65 64.9648 149.277 64.9648C151.055 64.9648 152.244 66.0312 152.244 67.5898C152.244 68.6836 151.725 69.4219 150.85 69.9551C150.029 70.4473 149.715 70.9531 149.688 72.0605V72.1426H148.293V72.0605ZM149.045 75.0957C148.512 75.0957 148.061 74.6582 148.074 74.125C148.061 73.5918 148.512 73.1543 149.045 73.1543C149.564 73.1543 150.016 73.5918 150.016 74.125C150.016 74.6582 149.564 75.0957 149.045 75.0957ZM157.426 71.2266C157.439 68.6562 158.164 66.5098 159.449 64.6777H160.789C159.846 66.0312 158.943 68.793 158.943 71.2266C158.943 73.6738 159.846 76.4219 160.789 77.7891H159.449C158.164 75.957 157.439 73.8105 157.426 71.2266ZM165.328 75.1504C163.141 75.1504 161.801 73.6465 161.801 71.3359C161.801 69.0527 163.168 67.4805 165.232 67.4805C166.928 67.4805 168.527 68.5332 168.527 71.2129V71.7324H163.25C163.291 73.1406 164.118 73.9473 165.342 73.9473C166.176 73.9473 166.709 73.5918 166.955 73.1406H168.432C168.104 74.3438 166.955 75.1504 165.328 75.1504ZM163.264 70.6387H167.092C167.092 69.5039 166.367 68.6836 165.246 68.6836C164.077 68.6836 163.318 69.5859 163.264 70.6387ZM170.961 67.5762L172.588 70.4609L174.229 67.5762H175.828L173.518 71.2812L175.842 75H174.256L172.588 72.2246L170.934 75H169.334L171.631 71.2812L169.348 67.5762H170.961ZM178.111 75.0957C177.578 75.0957 177.127 74.6582 177.141 74.125C177.127 73.5918 177.578 73.1543 178.111 73.1543C178.631 73.1543 179.082 73.5918 179.082 74.125C179.082 74.6582 178.631 75.0957 178.111 75.0957ZM193.574 65.0879V66.291C193.574 67.8086 193.574 69.5039 193.109 72.0059L191.797 71.8691C192.275 69.5039 192.275 67.7676 192.275 66.291V66.1406H184.838V65.0879H193.574ZM194.832 73.4277V74.5078H183.662V73.4277H187.914V69.1074H189.199V73.4277H194.832ZM205.51 64.6777V65.7578C205.51 66.9199 205.51 68.1777 205.168 69.9277H206.932V70.9941H201.969V76.1758H200.656V70.9941H195.762V69.9277H203.855C204.225 68.1846 204.225 66.8994 204.225 65.7578V65.7441H197.129V64.6777H205.51ZM214.055 65.1289V73.0859H208.326V65.1289H214.055ZM209.598 66.1543V72.0332H212.77V66.1543H209.598ZM217.404 63.9121V68.7109H219.373V69.8047H217.404V76.1621H216.105V63.9121H217.404ZM222.162 74.0566L221.068 77.8301H219.906L220.631 74.0566H222.162ZM238.172 73.5918V74.6582H226.961V73.5918H231.91V70.9258H233.195V73.5918H238.172ZM237.133 65.7715V66.8242H233.209C233.264 68.54 235.082 69.9619 237.598 70.3379L237.105 71.3496C235.062 71.0283 233.353 70.0576 232.553 68.6289C231.753 70.0576 230.051 71.0283 228 71.3496L227.508 70.3379C230.023 69.9619 231.828 68.54 231.896 66.8242H227.973V65.7715H231.91V64.1309H233.195V65.7715H237.133ZM248.945 65.0469V66.1953C248.932 67.6855 248.945 69.3809 248.426 71.9238L247.154 71.7871C247.38 70.7412 247.51 69.8184 247.578 68.9844L240.209 69.4219L240.018 68.3008L247.646 68C247.674 67.3438 247.674 66.749 247.674 66.1953V66.1133H240.387V65.0469H248.945ZM250.23 73.4961V74.5762H239.061V73.4961H243.312V70.3926H244.598V73.4961H250.23ZM262.357 70.8711V71.9512H257.354V76.1621H256.082V71.9512H251.146V70.8711H262.357ZM256.725 64.377C259.309 64.377 261.086 65.4297 261.086 67.0977C261.086 68.752 259.309 69.791 256.725 69.791C254.127 69.791 252.363 68.752 252.363 67.0977C252.363 65.4297 254.127 64.377 256.725 64.377ZM256.725 65.416C254.906 65.4297 253.689 66.0586 253.703 67.0977C253.689 68.123 254.906 68.752 256.725 68.752C258.543 68.752 259.76 68.123 259.76 67.0977C259.76 66.0586 258.543 65.4297 256.725 65.416ZM274.457 70.8301V71.8965H271.613V76.1621H270.301V71.8965H267.375V76.1621H266.035V71.8965H263.246V70.8301H274.457ZM268.824 64.377C271.408 64.377 273.186 65.4297 273.186 67.084C273.186 68.7109 271.408 69.75 268.824 69.7363C266.227 69.75 264.463 68.7109 264.463 67.084C264.463 65.4297 266.227 64.377 268.824 64.377ZM268.824 65.416C267.006 65.4297 265.789 66.0586 265.803 67.084C265.789 68.082 267.006 68.7109 268.824 68.7109C270.643 68.7109 271.859 68.082 271.859 67.084C271.859 66.0586 270.643 65.4297 268.824 65.416ZM276.754 75.0957C276.221 75.0957 275.77 74.6582 275.783 74.125C275.77 73.5918 276.221 73.1543 276.754 73.1543C277.273 73.1543 277.725 73.5918 277.725 74.125C277.725 74.6582 277.273 75.0957 276.754 75.0957ZM280.445 75.0957C279.912 75.0957 279.461 74.6582 279.475 74.125C279.461 73.5918 279.912 73.1543 280.445 73.1543C280.965 73.1543 281.416 73.5918 281.416 74.125C281.416 74.6582 280.965 75.0957 280.445 75.0957ZM284.137 75.0957C283.604 75.0957 283.152 74.6582 283.166 74.125C283.152 73.5918 283.604 73.1543 284.137 73.1543C284.656 73.1543 285.107 73.5918 285.107 74.125C285.107 74.6582 284.656 75.0957 284.137 75.0957ZM289.797 71.2266C289.783 73.8105 289.059 75.957 287.773 77.7891H286.434C287.377 76.4219 288.279 73.6738 288.279 71.2266C288.279 68.793 287.377 66.0312 286.434 64.6777H287.773C289.059 66.5098 289.783 68.6562 289.797 71.2266Z" fill="#7D7D7D"/>
<path d="M342.143 75.1386C345.457 75.1386 348.142 72.4527 348.142 69.1396C348.142 65.8265 345.457 63.1406 342.143 63.1406C338.83 63.1406 336.145 65.8265 336.145 69.1396C336.145 72.4527 338.83 75.1386 342.143 75.1386Z" stroke="#7D7D7D" stroke-width="2"/>
<path d="M349.856 76.8522L347.285 74.2812" stroke="#7D7D7D" stroke-width="2" stroke-linecap="round"/>
</g>
</g>
<mask id="mask0_6529_54715" style="mask-type:luminance" maskUnits="userSpaceOnUse" x="345" y="6" width="23" height="23">
<path d="M362.349 13.5796C362.986 14.4935 363.418 15.5348 363.614 16.6316H366.007V19.3596H363.614C363.418 20.4564 362.986 21.4977 362.349 22.4116L364.042 24.1047L362.113 26.0339L360.419 24.3408C359.506 24.9782 358.464 25.4098 357.367 25.6057V27.999H354.639V25.6057C353.543 25.4098 352.501 24.9782 351.587 24.3408L349.894 26.0339L347.965 24.1047L349.658 22.4116C349.021 21.4977 348.589 20.4564 348.393 19.3596H346V16.6316H348.393C348.589 15.5348 349.021 14.4935 349.658 13.5796L347.965 11.8865L349.894 9.95736L351.587 11.6504C352.501 11.013 353.543 10.5814 354.639 10.3855V7.99219H357.367V10.3855C358.464 10.5814 359.506 11.013 360.419 11.6504L362.113 9.95736L364.042 11.8865L362.349 13.5796Z" fill="white" stroke="white" stroke-width="2" stroke-linejoin="round"/>
<path d="M356.001 20.4939C356.664 20.4939 357.3 20.2304 357.769 19.7614C358.238 19.2924 358.502 18.6563 358.502 17.993C358.502 17.3298 358.238 16.6937 357.769 16.2247C357.3 15.7557 356.664 15.4922 356.001 15.4922C355.338 15.4922 354.701 15.7557 354.232 16.2247C353.763 16.6937 353.5 17.3298 353.5 17.993C353.5 18.6563 353.763 19.2924 354.232 19.7614C354.701 20.2304 355.338 20.4939 356.001 20.4939Z" fill="black" stroke="black" stroke-width="2" stroke-linejoin="round"/>
</mask>
<g mask="url(#mask0_6529_54715)">
<path d="M344 5.99609H368.008V30.0043H344V5.99609Z" fill="#202020"/>
<path d="M344 5.99609H368.008V30.0043H344V5.99609Z" fill="black" fill-opacity="0.2"/>
</g>
<path d="M27.9863 8.73438C28.7245 8.73438 29.4363 8.84271 30.1045 9.04297C29.9864 9.24035 29.9181 9.47104 29.918 9.71777C29.918 10.2843 30.2765 10.766 30.7783 10.9521C30.7648 11.0277 30.7569 11.1061 30.7568 11.1855C30.7571 11.913 31.3467 12.5029 32.0742 12.5029C32.2569 12.5029 32.4307 12.4647 32.5889 12.3975C32.8264 12.7427 33.224 12.9697 33.6748 12.9697C33.9512 12.9697 34.2071 12.8838 34.4189 12.7383C34.785 13.5415 34.9893 14.4263 34.9893 15.3564C34.9893 19.0138 31.8537 21.9785 27.9863 21.9785C24.1192 21.9783 20.9844 19.0137 20.9844 15.3564C20.9844 11.6992 24.1192 8.73458 27.9863 8.73438Z" fill="url(#paint0_linear_6529_54715)"/>
<circle cx="29.5387" cy="14.902" r="1.89808" fill="white"/>
<mask id="mask1_6529_54715" style="mask-type:alpha" maskUnits="userSpaceOnUse" x="27" y="13" width="5" height="4">
<circle cx="29.5348" cy="14.902" r="1.89808" fill="#D9D9D9"/>
</mask>
<g mask="url(#mask1_6529_54715)">
<circle cx="30.3617" cy="14.6859" r="1.17812" fill="#202020"/>
<circle cx="30.3617" cy="14.6859" r="1.17812" fill="black" fill-opacity="0.2"/>
</g>
<circle cx="26.3551" cy="14.902" r="1.89808" fill="white"/>
<mask id="mask2_6529_54715" style="mask-type:alpha" maskUnits="userSpaceOnUse" x="24" y="13" width="5" height="4">
<circle cx="26.3512" cy="14.902" r="1.89808" fill="#D9D9D9"/>
</mask>
<g mask="url(#mask2_6529_54715)">
<circle cx="27.1742" cy="14.6859" r="1.17812" fill="#202020"/>
<circle cx="27.1742" cy="14.6859" r="1.17812" fill="black" fill-opacity="0.2"/>
</g>
<path d="M45.4323 22.4295C41.6918 22.4295 39.2684 19.8305 39.2684 15.809C39.2684 11.8227 41.7797 9.17094 45.5377 9.17094C48.5758 9.17094 50.8411 10.9446 51.2801 13.7017H48.9094C48.4704 12.209 47.1884 11.3309 45.485 11.3309C43.1143 11.3309 41.6216 13.0519 41.6216 15.7914C41.6216 18.5134 43.1318 20.2695 45.485 20.2695C47.2236 20.2695 48.5582 19.3563 48.9797 17.9339H51.3153C50.8236 20.6383 48.4704 22.4295 45.4323 22.4295Z" fill="#202020"/>
<path d="M45.4323 22.4295C41.6918 22.4295 39.2684 19.8305 39.2684 15.809C39.2684 11.8227 41.7797 9.17094 45.5377 9.17094C48.5758 9.17094 50.8411 10.9446 51.2801 13.7017H48.9094C48.4704 12.209 47.1884 11.3309 45.485 11.3309C43.1143 11.3309 41.6216 13.0519 41.6216 15.7914C41.6216 18.5134 43.1318 20.2695 45.485 20.2695C47.2236 20.2695 48.5582 19.3563 48.9797 17.9339H51.3153C50.8236 20.6383 48.4704 22.4295 45.4323 22.4295Z" fill="black" fill-opacity="0.2"/>
<path d="M63.7291 15.5727C63.7291 19.4712 61.1652 22.2107 57.4774 22.2107C53.8071 22.2107 51.2783 19.4888 51.2783 15.5727C51.2783 11.6741 53.8247 8.93463 57.4949 8.93463C61.1652 8.93463 63.7291 11.6566 63.7291 15.5727ZM61.3583 15.5727C61.3583 12.8332 59.8481 11.0946 57.4949 11.0946C55.1418 11.0946 53.6315 12.8332 53.6315 15.5727C53.6315 18.3122 55.1418 20.0507 57.4949 20.0507C59.8481 20.0507 61.3583 18.2771 61.3583 15.5727Z" fill="#202020"/>
<path d="M63.7291 15.5727C63.7291 19.4712 61.1652 22.2107 57.4774 22.2107C53.8071 22.2107 51.2783 19.4888 51.2783 15.5727C51.2783 11.6741 53.8247 8.93463 57.4949 8.93463C61.1652 8.93463 63.7291 11.6566 63.7291 15.5727ZM61.3583 15.5727C61.3583 12.8332 59.8481 11.0946 57.4949 11.0946C55.1418 11.0946 53.6315 12.8332 53.6315 15.5727C53.6315 18.3122 55.1418 20.0507 57.4949 20.0507C59.8481 20.0507 61.3583 18.2771 61.3583 15.5727Z" fill="black" fill-opacity="0.2"/>
<path d="M76.4595 15.5727C76.4595 19.4712 73.8956 22.2107 70.2078 22.2107C66.5376 22.2107 64.0088 19.4888 64.0088 15.5727C64.0088 11.6741 66.5552 8.93463 70.2254 8.93463C73.8956 8.93463 76.4595 11.6566 76.4595 15.5727ZM74.0888 15.5727C74.0888 12.8332 72.5786 11.0946 70.2254 11.0946C67.8722 11.0946 66.362 12.8332 66.362 15.5727C66.362 18.3122 67.8722 20.0507 70.2254 20.0507C72.5786 20.0507 74.0888 18.2771 74.0888 15.5727Z" fill="#202020"/>
<path d="M76.4595 15.5727C76.4595 19.4712 73.8956 22.2107 70.2078 22.2107C66.5376 22.2107 64.0088 19.4888 64.0088 15.5727C64.0088 11.6741 66.5552 8.93463 70.2254 8.93463C73.8956 8.93463 76.4595 11.6566 76.4595 15.5727ZM74.0888 15.5727C74.0888 12.8332 72.5786 11.0946 70.2254 11.0946C67.8722 11.0946 66.362 12.8332 66.362 15.5727C66.362 18.3122 67.8722 20.0507 70.2254 20.0507C72.5786 20.0507 74.0888 18.2771 74.0888 15.5727Z" fill="black" fill-opacity="0.2"/>
<path d="M79.7068 9.16293V15.9063L84.9049 9.16293H87.5566L83.3068 14.642L87.6093 22H85.0102L81.8317 16.5385L79.7068 19.2605V22H77.459V9.16293H79.7068Z" fill="#202020"/>
<path d="M79.7068 9.16293V15.9063L84.9049 9.16293H87.5566L83.3068 14.642L87.6093 22H85.0102L81.8317 16.5385L79.7068 19.2605V22H77.459V9.16293H79.7068Z" fill="black" fill-opacity="0.2"/>
<path d="M96.409 22H88.4363V9.16293H96.409V11.2351H90.6842V14.5366H95.812V16.521H90.6842V19.9278H96.409V22Z" fill="#202020"/>
<path d="M96.409 22H88.4363V9.16293H96.409V11.2351H90.6842V14.5366H95.812V16.521H90.6842V19.9278H96.409V22Z" fill="black" fill-opacity="0.2"/>
<path d="M105.765 22H97.7918V9.16293H105.765V11.2351H100.04V14.5366H105.167V16.521H100.04V19.9278H105.765V22Z" fill="#202020"/>
<path d="M105.765 22H97.7918V9.16293H105.765V11.2351H100.04V14.5366H105.167V16.521H100.04V19.9278H105.765V22Z" fill="black" fill-opacity="0.2"/>
<path d="M112.304 17.5746H109.476V22H107.229V9.16293H112.304C114.885 9.16293 116.554 10.8488 116.554 13.36C116.554 15.8361 114.868 17.5746 112.304 17.5746ZM111.865 11.1649H109.476V15.5727H111.83C113.375 15.5727 114.2 14.7473 114.2 13.3424C114.2 11.9376 113.357 11.1649 111.865 11.1649Z" fill="#202020"/>
<path d="M112.304 17.5746H109.476V22H107.229V9.16293H112.304C114.885 9.16293 116.554 10.8488 116.554 13.36C116.554 15.8361 114.868 17.5746 112.304 17.5746ZM111.865 11.1649H109.476V15.5727H111.83C113.375 15.5727 114.2 14.7473 114.2 13.3424C114.2 11.9376 113.357 11.1649 111.865 11.1649Z" fill="black" fill-opacity="0.2"/>
<circle cx="115.046" cy="21.2918" r="1.45976" fill="url(#paint1_linear_6529_54715)"/>
<defs>
<filter id="filter0_d_6529_54715" x="0" y="44" width="373" height="60" filterUnits="userSpaceOnUse" color-interpolation-filters="sRGB">
<feFlood flood-opacity="0" result="BackgroundImageFix"/>
<feColorMatrix in="SourceAlpha" type="matrix" values="0 0 0 0 0 0 0 0 0 0 0 0 0 0 0 0 0 0 127 0" result="hardAlpha"/>
<feMorphology radius="10" operator="erode" in="SourceAlpha" result="effect1_dropShadow_6529_54715"/>
<feOffset dy="4"/>
<feGaussianBlur stdDeviation="8"/>
<feComposite in2="hardAlpha" operator="out"/>
<feColorMatrix type="matrix" values="0 0 0 0 0 0 0 0 0 0 0 0 0 0 0 0 0 0 0.25 0"/>
<feBlend mode="normal" in2="BackgroundImageFix" result="effect1_dropShadow_6529_54715"/>
<feBlend mode="normal" in="SourceGraphic" in2="effect1_dropShadow_6529_54715" result="shape"/>
</filter>
<linearGradient id="paint0_linear_6529_54715" x1="27.9868" y1="8.73438" x2="27.9868" y2="21.9785" gradientUnits="userSpaceOnUse">
<stop stop-color="#32E389"/>
<stop offset="1" stop-color="#1FC16F"/>
</linearGradient>
<linearGradient id="paint1_linear_6529_54715" x1="115.046" y1="19.832" x2="115.046" y2="22.7515" gradientUnits="userSpaceOnUse">
<stop stop-color="#32E389"/>
<stop offset="1" stop-color="#1FC16F"/>
</linearGradient>
<clipPath id="clip0_6529_54715">
<rect x="6" y="46" width="361" height="48" rx="6" fill="white"/>
</clipPath>
</defs>
</svg>
