<svg width="264" height="57" viewBox="0 0 264 57" fill="none" xmlns="http://www.w3.org/2000/svg">
<g filter="url(#filter0_d_7042_56484)">
<rect x="6" y="10.6992" width="252" height="36" rx="18" fill="white"/>
<path d="M33.3369 22.6113V27.7383H35.1826V28.832H33.3369V34.8613H32.0381V22.6113H33.3369ZM23.5889 31.5254C24.5527 31.5254 25.6738 31.5254 26.8428 31.4844V30.2402C25.4619 30.0488 24.5596 29.2148 24.5732 28.0254C24.5596 26.6445 25.749 25.7285 27.499 25.7285C29.2354 25.7285 30.4385 26.6445 30.4521 28.0254C30.4385 29.2148 29.5225 30.0557 28.1416 30.2539V31.4297C29.2285 31.3887 30.3223 31.2998 31.3408 31.1562L31.4229 32.1133C28.7705 32.5918 25.8994 32.6055 23.7939 32.6055L23.5889 31.5254ZM31.1631 24.0605V25.0996H23.8213V24.0605H26.8428V22.6387H28.1416V24.0605H31.1631ZM27.499 26.7402C26.4736 26.7402 25.79 27.2461 25.79 28.0254C25.79 28.8047 26.4736 29.2832 27.499 29.2832C28.5244 29.2832 29.208 28.8047 29.208 28.0254C29.208 27.2461 28.5244 26.7402 27.499 26.7402ZM42.0869 23.6504V24.6895H44.7529V22.625H46.0518V31.5527H44.7529V28.3809H42.0869V29.4473H36.3994V23.6504H42.0869ZM37.6846 24.7031V28.4219H40.8154V24.7031H37.6846ZM46.3252 33.5488V34.6016H38.0537V30.7324H39.3662V33.5488H46.3252ZM42.0869 27.3145H44.7529V25.7559H42.0869V27.3145ZM51.9307 23.4863C53.8721 23.4727 55.2529 24.6758 55.2666 26.3984C55.2529 28.1211 53.8721 29.3242 51.9307 29.3242C50.0029 29.3242 48.5811 28.1211 48.5947 26.3984C48.5811 24.6758 50.0029 23.4727 51.9307 23.4863ZM51.9307 24.6074C50.7412 24.6074 49.8662 25.3184 49.8799 26.3984C49.8662 27.4785 50.7412 28.1895 51.9307 28.1895C53.1201 28.1895 53.9951 27.4785 53.9951 26.3984C53.9951 25.3184 53.1201 24.6074 51.9307 24.6074ZM58.0693 22.6113V34.8887H56.7705V22.6113H58.0693ZM48.0068 31.1699C50.2354 31.1699 53.3252 31.1426 56.0049 30.7598L56.1006 31.7031C53.3252 32.2363 50.3584 32.25 48.1709 32.25L48.0068 31.1699ZM63.5244 27.5742L64.6182 23.8008H65.7803L65.0557 27.5742H63.5244ZM68.3916 23.7871V26.7266H70.7432V23.7871H71.9326V27.2051H73.5596V22.8574H74.8037V34.2734H73.5596V28.2852H71.9326V31.8398H67.1611V23.7871H68.3916ZM68.3916 30.7598H70.7432V27.7793H68.3916V30.7598ZM77.292 22.6113V34.8613H76.0479V22.6113H77.292ZM88.9951 22.6113V34.8887H87.6963V22.6113H88.9951ZM82.4463 23.5273C84.2646 23.5273 85.6045 25.1953 85.6045 27.8203C85.6045 30.459 84.2646 32.127 82.4463 32.127C80.6006 32.127 79.2744 30.459 79.2744 27.8203C79.2744 25.1953 80.6006 23.5273 82.4463 23.5273ZM82.4463 24.6895C81.3115 24.6895 80.5322 25.8926 80.5322 27.8203C80.5322 29.7617 81.3115 30.9648 82.4463 30.9648C83.5674 30.9648 84.3467 29.7617 84.3467 27.8203C84.3467 25.8926 83.5674 24.6895 82.4463 24.6895ZM100.739 23.1309V23.9375C100.739 24.751 100.739 25.7764 100.479 27.1094H102.161V28.1484H90.9502V27.1094H99.1807C99.4268 25.8652 99.4541 24.9287 99.4541 24.1699H92.3584V23.1309H100.739ZM100.753 29.2422V32.4551H93.5752V33.6992H101.067V34.7383H92.2764V31.457H99.4678V30.2812H92.2627V29.2422H100.753ZM105.374 23.8145L104.28 27.5879H103.118L103.843 23.8145H105.374ZM111.923 22.8164C114.685 22.8164 116.298 23.5547 116.298 24.9219C116.298 26.2891 114.685 27.041 111.923 27.041C109.161 27.041 107.548 26.2891 107.548 24.9219C107.548 23.5547 109.161 22.8164 111.923 22.8164ZM111.923 23.7734C109.968 23.7734 108.888 24.1973 108.901 24.9219C108.888 25.6738 109.968 26.0703 111.923 26.0703C113.878 26.0703 114.958 25.6738 114.958 24.9219C114.958 24.1973 113.878 23.7734 111.923 23.7734ZM117.515 27.793V28.832H106.345V27.793H117.515ZM116.106 29.7754V32.6465H108.97V33.7402H116.448V34.7383H107.698V31.7031H114.821V30.7461H107.685V29.7754H116.106ZM126.183 24.8535C126.183 26.5078 127.29 28.1211 129.136 28.7637L128.425 29.7754C127.085 29.2627 126.087 28.251 125.567 26.9727C125.034 28.3945 123.988 29.5156 122.546 30.0625L121.849 29.0371C123.749 28.3535 124.884 26.6582 124.897 24.8125V23.3633H126.183V24.8535ZM132.075 22.625V31.7578H130.776V26.4805H128.192V25.4141H130.776V22.625H132.075ZM132.349 33.5488V34.6016H124.077V30.7324H125.39V33.5488H132.349ZM139.253 23.4863V24.5391H135.712V25.9062H139.116V26.9043H135.712V28.3945C137.353 28.3809 138.433 28.3193 139.69 28.0801L139.813 29.1465C138.378 29.4199 137.216 29.4746 135.261 29.4609H134.468V23.4863H139.253ZM144.407 22.625V30.0625H143.177V26.7949H141.673V29.9668H140.456V22.8438H141.673V25.7422H143.177V22.625H144.407ZM144.407 30.6504V34.8613H143.122V31.7031H136.081V30.6504H144.407ZM152.118 24.6348V25.6875H146.034V24.6348H148.44V22.9668H149.726V24.6348H152.118ZM149.083 26.4258C150.642 26.4258 151.735 27.5879 151.749 29.2422C151.735 30.9102 150.642 32.0859 149.083 32.0859C147.552 32.0859 146.417 30.9102 146.431 29.2422C146.417 27.5879 147.552 26.4258 149.083 26.4258ZM149.083 27.5059C148.194 27.5059 147.579 28.2305 147.579 29.2422C147.579 30.2812 148.194 30.9785 149.083 30.9785C149.958 30.9785 150.601 30.2812 150.601 29.2422C150.601 28.2305 149.958 27.5059 149.083 27.5059ZM156.548 22.6113V34.8613H155.317V28.7773H153.909V34.2871H152.679V22.8848H153.909V27.7109H155.317V22.6113H156.548ZM172.749 29.9941V31.0605H167.8V34.875H166.515V31.0605H161.579V29.9941H172.749ZM171.683 24.0879V25.1406H167.813C167.889 26.4941 169.734 27.8135 172.065 28.1074L171.601 29.1465C169.632 28.873 167.957 27.9502 167.171 26.6992C166.371 27.9639 164.683 28.873 162.714 29.1465L162.235 28.1074C164.566 27.8135 166.426 26.5215 166.515 25.1406H162.632V24.0879H166.515V22.6113H167.8V24.0879H171.683ZM183.222 22.6113V27.4922H185.122V28.5723H183.222V34.8477H181.923V22.6113H183.222ZM180.022 23.8965C180.009 27.4375 178.45 30.5957 174.417 32.5918L173.692 31.5801C176.762 30.0488 178.43 27.834 178.696 24.9766H174.308V23.8965H180.022ZM191.835 24.6348V25.6875H185.751V24.6348H188.157V22.9668H189.442V24.6348H191.835ZM188.8 26.4258C190.358 26.4258 191.452 27.5879 191.466 29.2422C191.452 30.9102 190.358 32.0859 188.8 32.0859C187.269 32.0859 186.134 30.9102 186.147 29.2422C186.134 27.5879 187.269 26.4258 188.8 26.4258ZM188.8 27.5059C187.911 27.5059 187.296 28.2305 187.296 29.2422C187.296 30.2812 187.911 30.9785 188.8 30.9785C189.675 30.9785 190.317 30.2812 190.317 29.2422C190.317 28.2305 189.675 27.5059 188.8 27.5059ZM196.265 22.6113V34.8613H195.034V28.7773H193.626V34.2871H192.396V22.8848H193.626V27.7109H195.034V22.6113H196.265ZM200.626 22.8027V23.8691H206.3V22.8027H207.599V26.8633H204.071V27.9297H209.048V28.9688H197.878V27.9297H202.8V26.8633H199.341V22.8027H200.626ZM200.626 25.8789H206.3V24.8262H200.626V25.8789ZM207.64 29.8574V32.7148H200.503V33.7402H207.981V34.7383H199.231V31.7852H206.354V30.8281H199.218V29.8574H207.64ZM219.712 22.6113V27.5879H221.489V28.6543H219.712V34.8613H218.413V22.6113H219.712ZM213.669 23.9238C213.669 26.9863 213.108 29.7754 210.894 32.1406L209.868 31.416C211.659 29.5566 212.309 27.4443 212.438 24.9902H210.306V23.9238H213.669ZM217.046 23.9238C217.046 27.0273 216.663 30.2812 214.407 32.9473L213.368 32.2363C215.187 30.1104 215.733 27.6084 215.829 24.9902H214.065V23.9238H217.046ZM233.288 32.25V33.3301H222.077V32.25H224.757V29.0508C223.752 28.4971 223.144 27.6152 223.144 26.5215C223.144 24.5938 225.03 23.3223 227.655 23.3223C230.294 23.3223 232.181 24.5938 232.181 26.5215C232.181 27.6016 231.593 28.4697 230.608 29.0234V32.25H233.288ZM227.655 24.3613C225.728 24.3613 224.401 25.1953 224.401 26.5215C224.401 27.834 225.728 28.6953 227.655 28.6953C229.569 28.6953 230.923 27.834 230.923 26.5215C230.923 25.1953 229.569 24.3613 227.655 24.3613ZM226.042 32.25H229.296V29.5156C228.797 29.6455 228.243 29.707 227.655 29.707C227.081 29.707 226.534 29.6455 226.042 29.5293V32.25ZM236.187 30.7598C236.2 28.9688 236.733 28.4219 237.636 27.8613C238.21 27.5059 238.647 27.0137 238.647 26.2891C238.647 25.4277 237.991 24.8945 237.171 24.8945C236.433 24.8945 235.722 25.3457 235.653 26.3574H234.177C234.231 24.6211 235.544 23.6641 237.171 23.6641C238.948 23.6641 240.138 24.7305 240.138 26.2891C240.138 27.3828 239.618 28.1211 238.743 28.6543C237.923 29.1465 237.608 29.6523 237.581 30.7598V30.8418H236.187V30.7598ZM236.938 33.7949C236.405 33.7949 235.954 33.3574 235.968 32.8242C235.954 32.291 236.405 31.8535 236.938 31.8535C237.458 31.8535 237.909 32.291 237.909 32.8242C237.909 33.3574 237.458 33.7949 236.938 33.7949Z" fill="#1FC16F"/>
<path d="M64.7402 2.14922C64.8557 1.94922 65.1443 1.94922 65.2598 2.14922L70.8024 11.7492C70.9178 11.9492 70.7735 12.1992 70.5426 12.1992L59.4574 12.1992C59.2265 12.1992 59.0822 11.9492 59.1976 11.7492L64.7402 2.14922Z" fill="white"/>
</g>
<defs>
<filter id="filter0_d_7042_56484" x="0" y="0" width="264" height="56.6992" filterUnits="userSpaceOnUse" color-interpolation-filters="sRGB">
<feFlood flood-opacity="0" result="BackgroundImageFix"/>
<feColorMatrix in="SourceAlpha" type="matrix" values="0 0 0 0 0 0 0 0 0 0 0 0 0 0 0 0 0 0 127 0" result="hardAlpha"/>
<feMorphology radius="10" operator="erode" in="SourceAlpha" result="effect1_dropShadow_7042_56484"/>
<feOffset dy="4"/>
<feGaussianBlur stdDeviation="8"/>
<feComposite in2="hardAlpha" operator="out"/>
<feColorMatrix type="matrix" values="0 0 0 0 0 0 0 0 0 0 0 0 0 0 0 0 0 0 0.13 0"/>
<feBlend mode="normal" in2="BackgroundImageFix" result="effect1_dropShadow_7042_56484"/>
<feBlend mode="normal" in="SourceGraphic" in2="effect1_dropShadow_7042_56484" result="shape"/>
</filter>
</defs>
</svg>
