<svg width="393" height="90" viewBox="0 0 393 90" fill="none" xmlns="http://www.w3.org/2000/svg">
<rect width="393" height="34" transform="translate(0 56)" fill="white"/>
<g clip-path="url(#clip0_6531_54719)">
<rect width="393" height="56" fill="white"/>
<g filter="url(#filter0_i_6531_54719)">
<mask id="path-1-inside-1_6531_54719" fill="white">
<path d="M0 0H98.25V56H0V0Z"/>
</mask>
<path d="M0 0H98.25V56H0V0Z" fill="white"/>
<path d="M0 0V2H98.25V0V-2H0V0Z" fill="url(#paint0_linear_6531_54719)" mask="url(#path-1-inside-1_6531_54719)"/>
<path fill-rule="evenodd" clip-rule="evenodd" d="M43.55 11.0001C42.1594 11.0001 41 12.0251 41 13.3254V19.4523L41.0493 19.4507H58V13.3269C57.9978 13.0193 57.9301 12.7151 57.8007 12.4316C57.6713 12.1482 57.4829 11.8911 57.2461 11.6751C57.0093 11.459 56.7288 11.2882 56.4206 11.1723C56.1125 11.0565 55.7826 10.998 55.45 11.0001H43.55ZM41 28.711V21.416H58V28.711C58 29.8744 57.0701 30.8193 55.875 31.0033V31.8208C55.875 32.1336 55.7407 32.4335 55.5016 32.6546C55.2625 32.8758 54.9382 33 54.6 33C54.2618 33 53.9375 32.8758 53.6984 32.6546C53.4593 32.4335 53.325 32.1336 53.325 31.8208V31.0347H45.675V31.8208C45.675 32.1336 45.5407 32.4335 45.3016 32.6546C45.0625 32.8758 44.7382 33 44.4 33C44.0618 33 43.7375 32.8758 43.4984 32.6546C43.2593 32.4335 43.125 32.1336 43.125 31.8208V31.0033C42.5347 30.9158 41.997 30.6374 41.6079 30.2176C41.2188 29.7978 41.0033 29.2639 41 28.711ZM46.1697 15.102C46.1697 14.8413 46.0578 14.5914 45.8585 14.4071C45.6592 14.2228 45.389 14.1193 45.1072 14.1193C44.8254 14.1193 44.5552 14.2228 44.3559 14.4071C44.1566 14.5914 44.0447 14.8413 44.0447 15.102V15.8881C44.0447 16.1487 44.1566 16.3986 44.3559 16.5829C44.5552 16.7672 44.8254 16.8707 45.1072 16.8707C45.389 16.8707 45.6592 16.7672 45.8585 16.5829C46.0578 16.3986 46.1697 16.1487 46.1697 15.8881V15.102Z" fill="url(#paint1_linear_6531_54719)"/>
<path d="M44.2779 43.3535H43.2428V41.1367H42.276V43.041H41.2604V38.2168H42.276V40.2383H43.2428V38.0508H44.2779V43.3535ZM41.2994 43.4414C41.9081 43.4414 42.4404 43.5098 42.8961 43.6465C43.3518 43.7832 43.7034 43.9818 43.9508 44.2422C44.1982 44.4993 44.3235 44.8053 44.3268 45.1602C44.3235 45.5085 44.1965 45.8096 43.9459 46.0635C43.6985 46.3206 43.3469 46.5176 42.8912 46.6543C42.4387 46.791 41.9081 46.8594 41.2994 46.8594C40.6842 46.8594 40.1487 46.791 39.693 46.6543C39.2372 46.5176 38.8857 46.3206 38.6383 46.0635C38.3941 45.8096 38.2721 45.5085 38.2721 45.1602C38.2721 44.8053 38.3941 44.4993 38.6383 44.2422C38.8857 43.9818 39.2372 43.7832 39.693 43.6465C40.1487 43.5098 40.6842 43.4414 41.2994 43.4414ZM41.2994 44.291C40.6874 44.291 40.2105 44.3675 39.8687 44.5205C39.527 44.6702 39.3561 44.8835 39.3561 45.1602C39.3561 45.4271 39.527 45.6354 39.8687 45.7852C40.2105 45.9349 40.6874 46.0098 41.2994 46.0098C41.9049 46.0098 42.3785 45.9349 42.7203 45.7852C43.0621 45.6354 43.233 45.4271 43.233 45.1602C43.233 44.8835 43.0621 44.6702 42.7203 44.5205C42.3818 44.3675 41.9081 44.291 41.2994 44.291ZM38.1939 41.7861C38.6432 41.7796 39.0712 41.7568 39.4781 41.7178C39.885 41.6755 40.3066 41.612 40.7428 41.5273L40.8404 42.416C40.3424 42.5104 39.8606 42.5788 39.3951 42.6211C38.9296 42.6602 38.4413 42.6797 37.9303 42.6797H37.7057H37.11V38.7441H38.1939V41.7861ZM48.6357 39.6328C48.6357 40.0007 48.7139 40.3506 48.8701 40.6826C49.0296 41.0146 49.2656 41.3092 49.5781 41.5664C49.8906 41.8203 50.2699 42.0156 50.7158 42.1523L50.1982 43.002C49.7132 42.8522 49.2933 42.6276 48.9385 42.3281C48.5869 42.0286 48.3118 41.6755 48.1133 41.2686C47.9147 41.7406 47.6299 42.1507 47.2588 42.499C46.8877 42.8473 46.4417 43.1094 45.9209 43.2852L45.374 42.4258C45.8363 42.2728 46.2301 42.0547 46.5557 41.7715C46.8812 41.485 47.127 41.1579 47.293 40.79C47.459 40.4222 47.542 40.0397 47.542 39.6426V39.5352H45.6768V38.6562H50.4717V39.5352H48.6357V39.6328ZM52.4346 40.1602H53.665V41.0488H52.4346V43.3047H51.3506V38.041H52.4346V40.1602ZM49.5635 43.5C50.1689 43.5 50.693 43.5667 51.1357 43.7002C51.5817 43.8304 51.9235 44.0208 52.1611 44.2715C52.3988 44.5221 52.5192 44.8216 52.5225 45.1699C52.5192 45.5215 52.3971 45.8242 52.1562 46.0781C51.9186 46.332 51.5785 46.5257 51.1357 46.6592C50.693 46.7926 50.1689 46.8594 49.5635 46.8594C48.9515 46.8594 48.4209 46.7926 47.9717 46.6592C47.5225 46.5257 47.1774 46.332 46.9365 46.0781C46.6956 45.8242 46.5752 45.5215 46.5752 45.1699C46.5752 44.8216 46.6956 44.5221 46.9365 44.2715C47.1774 44.0208 47.5225 43.8304 47.9717 43.7002C48.4209 43.5667 48.9515 43.5 49.5635 43.5ZM49.5635 44.3496C48.9548 44.3496 48.4844 44.4196 48.1523 44.5596C47.8236 44.6995 47.6592 44.903 47.6592 45.1699C47.6592 45.4434 47.8236 45.6517 48.1523 45.7949C48.4844 45.9382 48.9548 46.0098 49.5635 46.0098C50.1722 46.0098 50.6377 45.9382 50.96 45.7949C51.2855 45.6517 51.4482 45.4434 51.4482 45.1699C51.4482 44.903 51.2855 44.6995 50.96 44.5596C50.6377 44.4196 50.1722 44.3496 49.5635 44.3496ZM61.4213 39.7012V39.8086C61.418 40.2969 61.4083 40.7217 61.392 41.083C61.379 41.4411 61.348 41.8577 61.2992 42.333C61.2504 42.805 61.1739 43.3177 61.0697 43.8711L59.976 43.7539C60.0801 43.2396 60.1566 42.7546 60.2055 42.2988C60.2543 41.8398 60.2852 41.4329 60.2982 41.0781C60.3145 40.7233 60.3243 40.3066 60.3275 39.8281V39.7207H55.0541V38.8516H61.4213V39.7012ZM62.2611 45.7266H54.2143V44.8379H57.183V41.7715H58.2572V44.8379H62.2611V45.7266Z" fill="#1FC16F"/>
</g>
<g filter="url(#filter1_i_6531_54719)">
<rect width="98.25" height="56" transform="translate(98.25)" fill="white"/>
<path d="M147.75 11C145.794 11 144.069 12.2556 143.517 14.08C142.931 13.8224 142.312 13.6829 141.671 13.6829C140.499 13.6829 139.374 14.1352 138.545 14.9402C137.716 15.7453 137.25 16.8371 137.25 17.9756C137.253 18.9263 137.579 19.8493 138.179 20.6007C138.779 21.352 139.618 21.8893 140.566 22.1288V29.7805H154.934V22.1288C156.879 21.6351 158.25 19.9288 158.25 17.9756C158.25 16.8371 157.784 15.7453 156.955 14.9402C156.126 14.1352 155.001 13.6829 153.829 13.6829C153.188 13.6829 152.569 13.8224 151.983 14.08C151.431 12.2556 149.706 11 147.75 11ZM147.197 20.6585H148.303V28.1707H147.197V20.6585ZM143.882 22.8049H144.987V28.1707H143.882V22.8049ZM150.513 22.8049H151.618V28.1707H150.513V22.8049ZM140.566 30.8537V31.9268C140.566 32.2115 140.682 32.4844 140.89 32.6857C141.097 32.8869 141.378 33 141.671 33H153.829C154.122 33 154.403 32.8869 154.61 32.6857C154.818 32.4844 154.934 32.2115 154.934 31.9268V30.8537H140.566Z" fill="#C3C3C3"/>
<path d="M138.378 42.2012H136.288V43.8613C136.812 43.8548 137.29 43.8353 137.723 43.8027C138.156 43.7702 138.602 43.7116 139.061 43.627L139.149 44.5156C138.605 44.6133 138.081 44.6784 137.577 44.7109C137.075 44.7435 136.503 44.7598 135.858 44.7598H135.243V41.3418H137.333V39.8281H135.233V38.959H138.378V42.2012ZM142.577 46.8691H141.542V38.041H142.577V46.8691ZM140.76 46.4199H139.735V41.9961H138.768V41.1074H139.735V38.2266H140.76V46.4199ZM147.062 40.1602C147.058 40.7038 147.148 41.2327 147.33 41.7471C147.512 42.2614 147.776 42.7188 148.121 43.1191C148.466 43.5195 148.871 43.819 149.337 44.0176L148.692 44.8867C148.194 44.6556 147.76 44.3187 147.389 43.876C147.021 43.4333 146.733 42.9173 146.524 42.3281C146.316 42.9661 146.021 43.526 145.641 44.0078C145.263 44.4863 144.812 44.8477 144.288 45.0918L143.624 44.1836C144.103 43.9785 144.518 43.6693 144.869 43.2559C145.224 42.8392 145.494 42.3623 145.68 41.8252C145.865 41.2848 145.958 40.7298 145.958 40.1602V38.7539H147.062V40.1602ZM151.065 46.8789H149.972V38.041H151.065V46.8789ZM159.837 46.8691H158.744V38.041H159.837V46.8691ZM157.689 39.7891H156.839V43.749C157.308 43.71 157.721 43.6693 158.079 43.627L158.138 44.4375C157.288 44.5742 156.401 44.6654 155.477 44.7109C154.552 44.7565 153.578 44.7793 152.552 44.7793L152.445 43.8906L153.538 43.8809V39.7891H152.679V38.9004H157.689V39.7891ZM154.583 43.8564C154.981 43.8467 155.378 43.832 155.775 43.8125V39.7891H154.583V43.8564Z" fill="#C3C3C3"/>
</g>
<rect width="98.25" height="56" transform="translate(196.5)" fill="white"/>
<path d="M246.498 12C245.526 12 244.593 12.3951 243.906 13.0983C243.218 13.8015 242.832 14.7553 242.832 15.7499C242.832 16.7444 243.218 17.6982 243.906 18.4014C244.593 19.1047 245.526 19.4997 246.498 19.4997C247.47 19.4997 248.403 19.1047 249.09 18.4014C249.778 17.6982 250.164 16.7444 250.164 15.7499C250.164 14.7553 249.778 13.8015 249.09 13.0983C248.403 12.3951 247.47 12 246.498 12ZM240.453 21.9946C240.411 22.198 240.391 22.408 240.391 22.6246V26.9995C240.39 27.9069 240.583 28.8036 240.955 29.627C241.328 30.4504 241.873 31.1807 242.55 31.7668L242.341 31.8293C241.721 31.9994 241.074 32.0429 240.437 31.9574C239.801 31.8718 239.187 31.6588 238.631 31.3305C238.075 31.0023 237.588 30.5652 237.197 30.0443C236.806 29.5233 236.519 28.9287 236.353 28.2944L235.562 25.2758C235.5 25.0379 235.484 24.7899 235.516 24.5457C235.547 24.3016 235.625 24.0662 235.746 23.853C235.866 23.6398 236.026 23.4529 236.217 23.3031C236.408 23.1532 236.626 23.0433 236.859 22.9796L240.453 21.9946ZM250.451 31.7668C251.129 31.1807 251.673 30.4504 252.046 29.627C252.419 28.8036 252.611 27.9069 252.611 26.9995V22.6246C252.61 22.408 252.589 22.198 252.549 21.9946L256.142 22.9796C256.612 23.1085 257.012 23.4228 257.255 23.8534C257.498 24.2839 257.563 24.7956 257.438 25.2758L256.647 28.2944C256.476 28.9467 256.178 29.5568 255.77 30.0878C255.362 30.6189 254.853 31.06 254.274 31.3845C253.695 31.709 253.058 31.9102 252.401 31.9759C251.744 32.0416 251.081 31.9705 250.451 31.7668ZM254.441 14.4999C253.631 14.4999 252.854 14.8291 252.281 15.4152C251.708 16.0012 251.386 16.796 251.386 17.6248C251.386 18.4536 251.708 19.2484 252.281 19.8344C252.854 20.4205 253.631 20.7497 254.441 20.7497C255.251 20.7497 256.028 20.4205 256.601 19.8344C257.174 19.2484 257.496 18.4536 257.496 17.6248C257.496 16.796 257.174 16.0012 256.601 15.4152C256.028 14.8291 255.251 14.4999 254.441 14.4999ZM238.555 14.4999C237.745 14.4999 236.968 14.8291 236.395 15.4152C235.822 16.0012 235.5 16.796 235.5 17.6248C235.5 18.4536 235.822 19.2484 236.395 19.8344C236.968 20.4205 237.745 20.7497 238.555 20.7497C239.365 20.7497 240.142 20.4205 240.715 19.8344C241.288 19.2484 241.61 18.4536 241.61 17.6248C241.61 16.796 241.288 16.0012 240.715 15.4152C240.142 14.8291 239.365 14.4999 238.555 14.4999ZM243.443 20.7497C242.957 20.7497 242.491 20.9472 242.147 21.2988C241.803 21.6505 241.61 22.1274 241.61 22.6246V26.9995C241.61 28.3255 242.125 29.5972 243.042 30.5349C243.958 31.4725 245.202 31.9993 246.498 31.9993C247.795 31.9993 249.038 31.4725 249.954 30.5349C250.871 29.5972 251.386 28.3255 251.386 26.9995V22.6246C251.386 22.1274 251.193 21.6505 250.849 21.2988C250.506 20.9472 250.039 20.7497 249.553 20.7497H243.443Z" fill="#C3C3C3"/>
<path d="M240.329 39.3594C240.329 39.9876 240.311 40.5492 240.275 41.0439C240.242 41.5355 240.161 42.097 240.031 42.7285H241.276V43.6074H237.799V46.8496H236.706V43.6074H233.229V42.7285H238.962C239.072 42.2337 239.154 41.7585 239.206 41.3027L234.059 41.5566L233.922 40.6289L239.269 40.4727C239.276 40.3294 239.281 40.1878 239.284 40.0479C239.287 39.9079 239.29 39.7695 239.294 39.6328V39.4277H234.196V38.5586H240.329V39.3594ZM246.728 38.4219C246.728 39.623 246.387 40.6077 245.707 41.376C245.03 42.1442 243.974 42.7122 242.538 43.0801L242.167 42.2109C243.42 41.9017 244.325 41.4362 244.882 40.8145L242.294 41.0098L242.128 40.1406L245.38 40.0186C245.468 39.7874 245.526 39.5482 245.556 39.3008H242.577V38.4219H246.728ZM249.325 42.9141H248.231V38.041H249.325V42.9141ZM244.56 44.1543H248.241V43.2656H249.325V46.7617H243.485V43.2656H244.56V44.1543ZM248.241 45.8828V44.9844H244.56V45.8828H248.241ZM255.275 39.252C255.275 39.7044 255.412 40.1455 255.685 40.5752C255.962 41.0049 256.343 41.376 256.828 41.6885C257.313 41.9977 257.856 42.2044 258.458 42.3086L257.97 43.2168C257.231 43.0605 256.574 42.7725 255.997 42.3525C255.425 41.9294 254.995 41.4199 254.708 40.8242C254.415 41.4167 253.981 41.9245 253.405 42.3477C252.829 42.7676 252.173 43.0573 251.437 43.2168L250.958 42.3086C251.554 42.2012 252.091 41.9928 252.57 41.6836C253.051 41.3711 253.429 41 253.703 40.5703C253.979 40.1406 254.119 39.7012 254.122 39.252V38.5977H255.275V39.252ZM258.781 45.7461H250.714V44.8477H258.781V45.7461Z" fill="#C3C3C3"/>
<rect width="98.25" height="56" transform="translate(294.75)" fill="white"/>
<path d="M345.248 33C343.796 33 342.431 32.7247 341.154 32.1741C339.877 31.6234 338.766 30.8768 337.821 29.9342C336.876 28.9915 336.128 27.8822 335.577 26.6063C335.026 25.3303 334.751 23.9677 334.75 22.5185C334.75 21.1035 335.043 19.728 335.63 18.3919C336.216 17.0559 337.03 15.8809 338.071 14.867C339.111 13.8531 340.349 13.0845 341.784 12.5611C343.219 12.0377 344.793 11.8805 346.508 12.0894C346.771 12.1244 346.972 12.2337 347.112 12.4175C347.252 12.6013 347.331 12.85 347.348 13.1638C347.383 14.2818 347.799 15.2384 348.595 16.0336C349.392 16.8288 350.341 17.2435 351.442 17.2778C351.81 17.2952 352.09 17.4 352.282 17.5922C352.475 17.7844 352.58 18.0813 352.597 18.4831C352.632 19.2168 352.856 19.8195 353.267 20.2912C353.679 20.7629 354.251 21.121 354.986 21.3655C355.231 21.4529 355.419 21.5797 355.55 21.746C355.682 21.9123 355.748 22.1174 355.747 22.3613C355.782 23.8112 355.528 25.1825 354.986 26.4753C354.443 27.768 353.7 28.8993 352.755 29.8692C351.81 30.8391 350.69 31.6032 349.395 32.1615C348.1 32.7198 346.718 32.9993 345.248 33ZM343.674 20.4222C344.111 20.4222 344.483 20.2695 344.79 19.9642C345.096 19.6588 345.249 19.2874 345.248 18.85C345.248 18.4126 345.095 18.0415 344.79 17.7368C344.484 17.4322 344.112 17.2792 343.674 17.2778C343.235 17.2764 342.863 17.4294 342.559 17.7368C342.254 18.0443 342.101 18.4153 342.099 18.85C342.097 19.2846 342.25 19.656 342.559 19.9642C342.867 20.2723 343.239 20.425 343.674 20.4222ZM341.574 25.663C342.011 25.663 342.383 25.5103 342.69 25.2049C342.997 24.8995 343.149 24.5282 343.149 24.0907C343.148 23.6533 342.995 23.2823 342.69 22.9776C342.385 22.6729 342.013 22.5199 341.574 22.5185C341.135 22.5171 340.763 22.6701 340.459 22.9776C340.155 23.285 340.001 23.6561 339.999 24.0907C339.997 24.5254 340.15 24.8968 340.459 25.2049C340.768 25.5131 341.139 25.6657 341.574 25.663ZM348.398 26.7111C348.695 26.7111 348.945 26.6105 349.146 26.4092C349.348 26.208 349.448 25.9592 349.448 25.663C349.447 25.3667 349.346 25.1179 349.145 24.9167C348.945 24.7154 348.695 24.6148 348.398 24.6148C348.1 24.6148 347.851 24.7154 347.65 24.9167C347.45 25.1179 347.349 25.3667 347.348 25.663C347.347 25.9592 347.448 26.2083 347.65 26.4103C347.853 26.6122 348.102 26.7125 348.398 26.7111Z" fill="#C3C3C3"/>
<path d="M329.94 38.9297L332.039 44.0664H332.127L334.227 38.9297H335.789V46H334.569V41.1367H334.5L332.538 45.9805H331.629L329.666 41.1172H329.608V46H328.377V38.9297H329.94ZM338.145 38.9297L339.884 42.0547H339.952L341.69 38.9297H343.126L340.557 43.3535V46H339.288V43.3535L336.71 38.9297H338.145ZM350.784 39.3594C350.784 39.9876 350.766 40.5492 350.731 41.0439C350.698 41.5355 350.617 42.097 350.487 42.7285H351.732V43.6074H348.255V46.8496H347.161V43.6074H343.685V42.7285H349.417C349.528 42.2337 349.609 41.7585 349.661 41.3027L344.515 41.5566L344.378 40.6289L349.725 40.4727C349.731 40.3294 349.736 40.1878 349.739 40.0479C349.743 39.9079 349.746 39.7695 349.749 39.6328V39.4277H344.652V38.5586H350.784V39.3594ZM357.183 38.4219C357.183 39.623 356.843 40.6077 356.163 41.376C355.486 42.1442 354.429 42.7122 352.994 43.0801L352.623 42.2109C353.876 41.9017 354.781 41.4362 355.337 40.8145L352.75 41.0098L352.584 40.1406L355.836 40.0186C355.923 39.7874 355.982 39.5482 356.011 39.3008H353.033V38.4219H357.183ZM359.781 42.9141H358.687V38.041H359.781V42.9141ZM355.015 44.1543H358.697V43.2656H359.781V46.7617H353.941V43.2656H355.015V44.1543ZM358.697 45.8828V44.9844H355.015V45.8828H358.697Z" fill="#C3C3C3"/>
</g>
<defs>
<filter id="filter0_i_6531_54719" x="0" y="0" width="98.25" height="56" filterUnits="userSpaceOnUse" color-interpolation-filters="sRGB">
<feFlood flood-opacity="0" result="BackgroundImageFix"/>
<feBlend mode="normal" in="SourceGraphic" in2="BackgroundImageFix" result="shape"/>
<feColorMatrix in="SourceAlpha" type="matrix" values="0 0 0 0 0 0 0 0 0 0 0 0 0 0 0 0 0 0 127 0" result="hardAlpha"/>
<feOffset/>
<feGaussianBlur stdDeviation="1"/>
<feComposite in2="hardAlpha" operator="arithmetic" k2="-1" k3="1"/>
<feColorMatrix type="matrix" values="0 0 0 0 0.0666667 0 0 0 0 0.0666667 0 0 0 0 0.0666667 0 0 0 0.1 0"/>
<feBlend mode="normal" in2="shape" result="effect1_innerShadow_6531_54719"/>
</filter>
<filter id="filter1_i_6531_54719" x="98.25" y="0" width="98.25" height="56" filterUnits="userSpaceOnUse" color-interpolation-filters="sRGB">
<feFlood flood-opacity="0" result="BackgroundImageFix"/>
<feBlend mode="normal" in="SourceGraphic" in2="BackgroundImageFix" result="shape"/>
<feColorMatrix in="SourceAlpha" type="matrix" values="0 0 0 0 0 0 0 0 0 0 0 0 0 0 0 0 0 0 127 0" result="hardAlpha"/>
<feOffset/>
<feGaussianBlur stdDeviation="1"/>
<feComposite in2="hardAlpha" operator="arithmetic" k2="-1" k3="1"/>
<feColorMatrix type="matrix" values="0 0 0 0 0.0666667 0 0 0 0 0.0666667 0 0 0 0 0.0666667 0 0 0 0.1 0"/>
<feBlend mode="normal" in2="shape" result="effect1_innerShadow_6531_54719"/>
</filter>
<linearGradient id="paint0_linear_6531_54719" x1="49.125" y1="0" x2="49.125" y2="56" gradientUnits="userSpaceOnUse">
<stop stop-color="#32E389"/>
<stop offset="1" stop-color="#1FC16F"/>
</linearGradient>
<linearGradient id="paint1_linear_6531_54719" x1="49.5" y1="11" x2="49.5" y2="33" gradientUnits="userSpaceOnUse">
<stop stop-color="#32E389"/>
<stop offset="1" stop-color="#1FC16F"/>
</linearGradient>
<clipPath id="clip0_6531_54719">
<rect width="393" height="56" fill="white"/>
</clipPath>
</defs>
</svg>
