<svg width="190" height="82" viewBox="0 0 190 82" fill="none" xmlns="http://www.w3.org/2000/svg">
<g filter="url(#filter0_d_5276_50202)">
<rect x="6" y="2" width="178" height="60" rx="30" fill="white"/>
<path d="M50.0879 17.2246V21.5859H46.9844V24.1016C48.3174 24.0947 49.5889 24.0469 51.0996 23.7734L51.209 24.8398C49.5137 25.1406 48.1191 25.1816 46.5742 25.1953H45.7266V20.5469H48.8438V18.2773H45.7129V17.2246H50.0879ZM55.8574 15.9121V28.1621H54.6133V15.9121H55.8574ZM53.3418 16.1855V27.5332H52.1113V21.2988H50.6621V20.2461H52.1113V16.1855H53.3418ZM61.9414 19.0293C61.9277 21.2715 63.2812 23.5137 65.1816 24.3613L64.4023 25.3867C62.9941 24.7168 61.8799 23.3428 61.3125 21.668C60.7383 23.459 59.6104 24.9424 58.1406 25.6602L57.3477 24.5664C59.2754 23.7051 60.6289 21.3672 60.6289 19.0293V16.9375H61.9414V19.0293ZM67.5879 15.9121V28.1895H66.2891V15.9121H67.5879ZM79.7285 15.9121V28.1621H78.416V15.9121H79.7285ZM76.8164 17.1699V18.2363H75.5449V23.9238C76.1807 23.8828 76.8096 23.8281 77.418 23.7598L77.4863 24.7168C74.834 25.1406 71.9219 25.1816 69.666 25.1953L69.5156 24.1152L71.1289 24.1016V18.2363H69.8438V17.1699H76.8164ZM72.3867 24.0742C73.002 24.0605 73.6377 24.04 74.2734 24.0059V18.2363H72.3867V24.0742ZM92.8398 21.5312V22.5293H81.6289V21.5312H92.8398ZM91.459 23.3906V26.084H84.2676V27.0957H91.8418V28.0117H82.9688V25.2227H90.1738V24.3203H82.9551V23.3906H91.459ZM91.4316 16.2266V18.8789H84.3496V19.8086H91.6367V20.7246H83.0645V18.0176H90.1328V17.1426H83.0371V16.2266H91.4316ZM100.824 19.6582C100.824 21.5586 101.713 23.541 103.422 24.4297L102.684 25.4004C101.501 24.7715 100.674 23.6025 100.236 22.2148C99.792 23.6914 98.9717 24.9697 97.7891 25.6602L97.0234 24.7031C98.7051 23.7188 99.5938 21.627 99.6074 19.6582V19.207H97.3379V18.127H99.6074V16.3496H100.824V18.127H103.053V19.207H100.824V19.6582ZM107.742 15.9121V28.1621H106.498V21.873H105.035V27.5605H103.805V16.1445H105.035V20.7793H106.498V15.9121H107.742ZM114.551 16.7871V17.8398H111.01V19.207H114.414V20.2051H111.01V21.6953C112.65 21.6816 113.73 21.6201 114.988 21.3809L115.111 22.4473C113.676 22.7207 112.514 22.7754 110.559 22.7617H109.766V16.7871H114.551ZM119.705 15.9258V23.3633H118.475V20.0957H116.971V23.2676H115.754V16.1445H116.971V19.043H118.475V15.9258H119.705ZM119.705 23.9512V28.1621H118.42V25.0039H111.379V23.9512H119.705ZM130.902 15.9121V20.875H132.871V21.9551H130.902V28.1621H129.617V15.9121H130.902ZM128.551 17.8262V18.8926H121.291V17.8262H124.312V16.0762H125.611V17.8262H128.551ZM124.969 19.7949C126.719 19.7949 128.004 20.9707 128.018 22.6387C128.004 24.3203 126.719 25.4824 124.969 25.4961C123.205 25.4824 121.92 24.3203 121.92 22.6387C121.92 20.9707 123.205 19.7949 124.969 19.7949ZM124.969 20.8613C123.93 20.8613 123.15 21.5859 123.164 22.6387C123.15 23.7051 123.93 24.416 124.969 24.4023C126.008 24.416 126.773 23.7051 126.773 22.6387C126.773 21.5859 126.008 20.8613 124.969 20.8613ZM139.707 16.9512V17.9902H142.373V15.9258H143.672V24.8535H142.373V21.6816H139.707V22.748H134.02V16.9512H139.707ZM135.305 18.0039V21.7227H138.436V18.0039H135.305ZM143.945 26.8496V27.9023H135.674V24.0332H136.986V26.8496H143.945ZM139.707 20.6152H142.373V19.0566H139.707V20.6152ZM34.1533 35.9121V48.1621H32.9092V41.873H31.4463V47.5605H30.2158V36.1445H31.4463V40.7793H32.9092V35.9121H34.1533ZM27.29 39.1523C27.29 41.3535 28.124 43.3496 29.9014 44.2656L29.1357 45.2637C27.9326 44.6143 27.126 43.4727 26.6885 42.0508C26.2715 43.6641 25.458 44.9492 24.2139 45.6875L23.4072 44.7031C25.1982 43.6914 26.0322 41.5859 26.0322 39.1523V38.3594H23.7354V37.3066H29.4229V38.3594H27.29V39.1523ZM46.8818 45.6055V46.6992H35.6709V45.6055H38.7334V43.4453H37.0381V39.5488H44.2295V37.8398H37.0107V36.7734H45.5146V40.6016H38.3232V42.3789H45.8018V43.4453H43.9424V45.6055H46.8818ZM39.9912 45.6055H42.6709V43.4453H39.9912V45.6055ZM57.3135 35.9121V40.793H59.2139V41.873H57.3135V48.1484H56.0146V35.9121H57.3135ZM54.1143 37.1973C54.1006 40.7383 52.542 43.8965 48.5088 45.8926L47.7842 44.8809C50.8535 43.3496 52.5215 41.1348 52.7881 38.2773H48.3994V37.1973H54.1143ZM67.5537 39.5215C67.5537 41.4629 68.8252 43.623 70.6846 44.498L69.9463 45.5098C68.5723 44.8467 67.4854 43.4658 66.9385 41.8594C66.3711 43.6162 65.2227 45.127 63.8213 45.8242L63.0557 44.7988C64.915 43.9102 66.2686 41.5996 66.2686 39.5215V38.2227H63.5068V37.1426H70.2197V38.2227H67.5537V39.5215ZM72.8311 35.9121V40.7656H74.7998V41.8594H72.8311V48.1621H71.5322V35.9121H72.8311ZM86.5713 41.873V42.9121H75.3877V41.873H80.3506V40.5742H76.7822V36.4727H85.1904V37.498H78.0674V39.5352H85.2725V40.5742H81.6084V41.873H86.5713ZM80.9658 43.7051C83.6045 43.7051 85.1904 44.5117 85.1904 45.9336C85.1904 47.3555 83.6045 48.1484 80.9658 48.1621C78.3135 48.1484 76.7139 47.3555 76.7139 45.9336C76.7139 44.5117 78.3135 43.7051 80.9658 43.7051ZM80.9658 44.7168C79.0928 44.7168 78.0264 45.1543 78.0264 45.9336C78.0264 46.7129 79.0928 47.1504 80.9658 47.1367C82.8115 47.1504 83.8916 46.7129 83.8916 45.9336C83.8916 45.1543 82.8115 44.7168 80.9658 44.7168ZM93.0654 36.6504C95.6357 36.6504 97.5908 38.0039 97.5908 40.0684C97.5908 42.1328 95.6357 43.5 93.0654 43.4863C90.4951 43.5 88.5537 42.1328 88.5537 40.0684C88.5537 38.0039 90.4951 36.6504 93.0654 36.6504ZM93.0654 37.7031C91.1924 37.6895 89.7842 38.6465 89.7979 40.0684C89.7842 41.5039 91.1924 42.4199 93.0654 42.4199C94.9385 42.4199 96.333 41.5039 96.333 40.0684C96.333 38.6465 94.9385 37.6895 93.0654 37.7031ZM98.6982 45.4961V46.5762H87.4873V45.4961H98.6982ZM110.798 45.6055V46.6992H99.5869V45.6055H104.522V43.459H100.954V39.5625H108.146V37.8398H100.927V36.7734H109.431V40.6016H102.239V42.3926H109.718V43.459H105.808V45.6055H110.798ZM126.315 45.5371V46.6035H115.104V45.5371H120.013V42.625H121.298V45.5371H126.315ZM121.325 37.6211C121.325 39.5625 123.458 41.3809 125.823 41.7773L125.263 42.8438C123.28 42.4473 121.455 41.2236 120.642 39.5352C119.835 41.2168 118.03 42.4609 116.062 42.8438L115.487 41.7773C117.839 41.3809 119.958 39.5625 119.958 37.6211V36.6914H121.325V37.6211ZM137.349 35.9121V48.1895H136.05V35.9121H137.349ZM129.187 36.9375V40.082H132.481V36.9375H133.767V45.25H127.888V36.9375H129.187ZM129.187 44.1836H132.481V41.1074H129.187V44.1836ZM139.153 44.5117C139.905 44.5049 140.849 44.498 141.833 44.4707V42.1465H139.769V37.1152H145.005V38.168H141.04V41.0938H145.114V42.1465H143.077V44.416C143.925 44.3818 144.766 44.3271 145.497 44.2383L145.565 45.1816C143.556 45.5234 140.972 45.5781 139.331 45.5918L139.153 44.5117ZM149.831 35.9121V48.1621H148.587V41.9961H147.247V47.5332H146.044V36.1582H147.247V40.9434H148.587V35.9121H149.831ZM162.614 45.5508V46.6309H151.403V45.5508H154.083V42.3516C153.078 41.7979 152.47 40.916 152.47 39.8223C152.47 37.8945 154.356 36.623 156.981 36.623C159.62 36.623 161.507 37.8945 161.507 39.8223C161.507 40.9023 160.919 41.7705 159.935 42.3242V45.5508H162.614ZM156.981 37.6621C155.054 37.6621 153.728 38.4961 153.728 39.8223C153.728 41.1348 155.054 41.9961 156.981 41.9961C158.896 41.9961 160.249 41.1348 160.249 39.8223C160.249 38.4961 158.896 37.6621 156.981 37.6621ZM155.368 45.5508H158.622V42.8164C158.123 42.9463 157.569 43.0078 156.981 43.0078C156.407 43.0078 155.86 42.9463 155.368 42.8301V45.5508ZM165.759 37.1016L165.636 44.1426H164.282L164.159 37.1016H165.759ZM164.966 47.0957C164.433 47.0957 163.981 46.6582 163.995 46.125C163.981 45.5918 164.433 45.1543 164.966 45.1543C165.485 45.1543 165.937 45.5918 165.937 46.125C165.937 46.6582 165.485 47.0957 164.966 47.0957Z" fill="#1FC16F"/>
<path d="M94.7402 71.55C94.8557 71.75 95.1443 71.75 95.2598 71.55L100.802 61.95C100.918 61.75 100.774 61.5 100.543 61.5L89.4574 61.5C89.2265 61.5 89.0822 61.75 89.1976 61.95L94.7402 71.55Z" fill="white"/>
</g>
<defs>
<filter id="filter0_d_5276_50202" x="0" y="0" width="190" height="81.6992" filterUnits="userSpaceOnUse" color-interpolation-filters="sRGB">
<feFlood flood-opacity="0" result="BackgroundImageFix"/>
<feColorMatrix in="SourceAlpha" type="matrix" values="0 0 0 0 0 0 0 0 0 0 0 0 0 0 0 0 0 0 127 0" result="hardAlpha"/>
<feMorphology radius="10" operator="erode" in="SourceAlpha" result="effect1_dropShadow_5276_50202"/>
<feOffset dy="4"/>
<feGaussianBlur stdDeviation="8"/>
<feComposite in2="hardAlpha" operator="out"/>
<feColorMatrix type="matrix" values="0 0 0 0 0 0 0 0 0 0 0 0 0 0 0 0 0 0 0.13 0"/>
<feBlend mode="normal" in2="BackgroundImageFix" result="effect1_dropShadow_5276_50202"/>
<feBlend mode="normal" in="SourceGraphic" in2="effect1_dropShadow_5276_50202" result="shape"/>
</filter>
</defs>
</svg>
