<svg width="96" height="18" viewBox="0 0 96 18" fill="none" xmlns="http://www.w3.org/2000/svg">
<path d="M7.00195 2.73633C7.74017 2.73633 8.45197 2.84466 9.12012 3.04492C9.00201 3.2423 8.93368 3.47299 8.93359 3.71973C8.93359 4.2863 9.29212 4.76798 9.79395 4.9541C9.78045 5.02966 9.77249 5.10806 9.77246 5.1875C9.77271 5.91493 10.3624 6.50482 11.0898 6.50488C11.2726 6.50487 11.4463 6.46667 11.6045 6.39941C11.842 6.7447 12.2397 6.97164 12.6904 6.97168C12.9668 6.97166 13.2227 6.88575 13.4346 6.74023C13.8006 7.54345 14.0049 8.42822 14.0049 9.3584C14.0049 13.0158 10.8693 15.9805 7.00195 15.9805C3.13479 15.9803 0 13.0157 0 9.3584C2.84675e-05 5.70116 3.13481 2.73653 7.00195 2.73633Z" fill="url(#paint0_linear_2329_41520)"/>
<circle cx="8.55043" cy="8.90785" r="1.89808" fill="white"/>
<mask id="mask0_2329_41520" style="mask-type:alpha" maskUnits="userSpaceOnUse" x="6" y="7" width="5" height="4">
<circle cx="8.54652" cy="8.90785" r="1.89808" fill="#D9D9D9"/>
</mask>
<g mask="url(#mask0_2329_41520)">
<circle cx="9.37343" cy="8.69179" r="1.17812" fill="#202020"/>
<circle cx="9.37343" cy="8.69179" r="1.17812" fill="black" fill-opacity="0.2"/>
</g>
<circle cx="5.37074" cy="8.90785" r="1.89808" fill="white"/>
<mask id="mask1_2329_41520" style="mask-type:alpha" maskUnits="userSpaceOnUse" x="3" y="7" width="5" height="4">
<circle cx="5.36683" cy="8.90785" r="1.89808" fill="#D9D9D9"/>
</mask>
<g mask="url(#mask1_2329_41520)">
<circle cx="6.18984" cy="8.69179" r="1.17812" fill="#202020"/>
<circle cx="6.18984" cy="8.69179" r="1.17812" fill="black" fill-opacity="0.2"/>
</g>
<path d="M24.448 16.4314C20.7075 16.4314 18.2841 13.8324 18.2841 9.81095C18.2841 5.82461 20.7953 3.1729 24.5533 3.1729C27.5914 3.1729 29.8567 4.94656 30.2958 7.70363H27.925C27.486 6.21095 26.2041 5.3329 24.5006 5.3329C22.1299 5.3329 20.6372 7.05387 20.6372 9.79339C20.6372 12.5153 22.1475 14.2714 24.5006 14.2714C26.2392 14.2714 27.5738 13.3583 27.9953 11.9358H30.3309C29.8392 14.6402 27.486 16.4314 24.448 16.4314Z" fill="#202020"/>
<path d="M24.448 16.4314C20.7075 16.4314 18.2841 13.8324 18.2841 9.81095C18.2841 5.82461 20.7953 3.1729 24.5533 3.1729C27.5914 3.1729 29.8567 4.94656 30.2958 7.70363H27.925C27.486 6.21095 26.2041 5.3329 24.5006 5.3329C22.1299 5.3329 20.6372 7.05387 20.6372 9.79339C20.6372 12.5153 22.1475 14.2714 24.5006 14.2714C26.2392 14.2714 27.5738 13.3583 27.9953 11.9358H30.3309C29.8392 14.6402 27.486 16.4314 24.448 16.4314Z" fill="black" fill-opacity="0.2"/>
<path d="M42.7447 9.57268C42.7447 13.4712 40.1808 16.2107 36.493 16.2107C32.8227 16.2107 30.294 13.4888 30.294 9.57268C30.294 5.67415 32.8403 2.93463 36.5106 2.93463C40.1808 2.93463 42.7447 5.65658 42.7447 9.57268ZM40.374 9.57268C40.374 6.83317 38.8637 5.09463 36.5106 5.09463C34.1574 5.09463 32.6471 6.83317 32.6471 9.57268C32.6471 12.3122 34.1574 14.0507 36.5106 14.0507C38.8637 14.0507 40.374 12.2771 40.374 9.57268Z" fill="#202020"/>
<path d="M42.7447 9.57268C42.7447 13.4712 40.1808 16.2107 36.493 16.2107C32.8227 16.2107 30.294 13.4888 30.294 9.57268C30.294 5.67415 32.8403 2.93463 36.5106 2.93463C40.1808 2.93463 42.7447 5.65658 42.7447 9.57268ZM40.374 9.57268C40.374 6.83317 38.8637 5.09463 36.5106 5.09463C34.1574 5.09463 32.6471 6.83317 32.6471 9.57268C32.6471 12.3122 34.1574 14.0507 36.5106 14.0507C38.8637 14.0507 40.374 12.2771 40.374 9.57268Z" fill="black" fill-opacity="0.2"/>
<path d="M55.4752 9.57268C55.4752 13.4712 52.9113 16.2107 49.2235 16.2107C45.5532 16.2107 43.0244 13.4888 43.0244 9.57268C43.0244 5.67415 45.5708 2.93463 49.241 2.93463C52.9113 2.93463 55.4752 5.65658 55.4752 9.57268ZM53.1044 9.57268C53.1044 6.83317 51.5942 5.09463 49.241 5.09463C46.8879 5.09463 45.3776 6.83317 45.3776 9.57268C45.3776 12.3122 46.8879 14.0507 49.241 14.0507C51.5942 14.0507 53.1044 12.2771 53.1044 9.57268Z" fill="#202020"/>
<path d="M55.4752 9.57268C55.4752 13.4712 52.9113 16.2107 49.2235 16.2107C45.5532 16.2107 43.0244 13.4888 43.0244 9.57268C43.0244 5.67415 45.5708 2.93463 49.241 2.93463C52.9113 2.93463 55.4752 5.65658 55.4752 9.57268ZM53.1044 9.57268C53.1044 6.83317 51.5942 5.09463 49.241 5.09463C46.8879 5.09463 45.3776 6.83317 45.3776 9.57268C45.3776 12.3122 46.8879 14.0507 49.241 14.0507C51.5942 14.0507 53.1044 12.2771 53.1044 9.57268Z" fill="black" fill-opacity="0.2"/>
<path d="M58.7225 3.16293V9.90634L63.9205 3.16293H66.5722L62.3225 8.64195L66.6249 16H64.0259L60.8473 10.5385L58.7225 13.2605V16H56.4746V3.16293H58.7225Z" fill="#202020"/>
<path d="M58.7225 3.16293V9.90634L63.9205 3.16293H66.5722L62.3225 8.64195L66.6249 16H64.0259L60.8473 10.5385L58.7225 13.2605V16H56.4746V3.16293H58.7225Z" fill="black" fill-opacity="0.2"/>
<path d="M75.4247 16H67.452V3.16293H75.4247V5.23512H69.6998V8.53658H74.8276V10.521H69.6998V13.9278H75.4247V16Z" fill="#202020"/>
<path d="M75.4247 16H67.452V3.16293H75.4247V5.23512H69.6998V8.53658H74.8276V10.521H69.6998V13.9278H75.4247V16Z" fill="black" fill-opacity="0.2"/>
<path d="M84.7801 16H76.8074V3.16293H84.7801V5.23512H79.0552V8.53658H84.1831V10.521H79.0552V13.9278H84.7801V16Z" fill="#202020"/>
<path d="M84.7801 16H76.8074V3.16293H84.7801V5.23512H79.0552V8.53658H84.1831V10.521H79.0552V13.9278H84.7801V16Z" fill="black" fill-opacity="0.2"/>
<path d="M91.3194 11.5746H88.4921V16H86.2443V3.16293H91.3194C93.9009 3.16293 95.5692 4.84878 95.5692 7.36C95.5692 9.8361 93.8833 11.5746 91.3194 11.5746ZM90.8804 5.16488H88.4921V9.57268H90.8453C92.3906 9.57268 93.216 8.74732 93.216 7.34244C93.216 5.93756 92.3731 5.16488 90.8804 5.16488Z" fill="#202020"/>
<path d="M91.3194 11.5746H88.4921V16H86.2443V3.16293H91.3194C93.9009 3.16293 95.5692 4.84878 95.5692 7.36C95.5692 9.8361 93.8833 11.5746 91.3194 11.5746ZM90.8804 5.16488H88.4921V9.57268H90.8453C92.3906 9.57268 93.216 8.74732 93.216 7.34244C93.216 5.93756 92.3731 5.16488 90.8804 5.16488Z" fill="black" fill-opacity="0.2"/>
<circle cx="94.0613" cy="15.2898" r="1.45976" fill="url(#paint1_linear_2329_41520)"/>
<defs>
<linearGradient id="paint0_linear_2329_41520" x1="7.00244" y1="2.73633" x2="7.00244" y2="15.9805" gradientUnits="userSpaceOnUse">
<stop stop-color="#32E389"/>
<stop offset="1" stop-color="#1FC16F"/>
</linearGradient>
<linearGradient id="paint1_linear_2329_41520" x1="94.0613" y1="13.8301" x2="94.0613" y2="16.7496" gradientUnits="userSpaceOnUse">
<stop stop-color="#32E389"/>
<stop offset="1" stop-color="#1FC16F"/>
</linearGradient>
</defs>
</svg>
