<svg width="16" height="16" viewBox="0 0 16 16" fill="none" xmlns="http://www.w3.org/2000/svg">
<path d="M5.91058 5.9563C5.10725 6.7603 4.03325 6.8423 3.17858 7.46697C2.02925 8.30697 1.22925 9.6003 2.02125 11.4956C3.35458 14.6856 8.48258 15.401 11.9192 11.9643C15.5919 8.29163 14.6726 3.36697 11.4492 2.06763C9.54725 1.3003 8.24525 2.1083 7.42192 3.2243C6.79725 4.0703 6.72392 5.14363 5.91058 5.9563Z" stroke="#7D7D7D"/>
<path d="M7.57748 7.59262C7.83447 7.33585 8.02796 7.02261 8.14253 6.67786C8.2571 6.33311 8.28959 5.96637 8.2374 5.60684C8.18522 5.24732 8.04981 4.90495 7.84195 4.607C7.63409 4.30904 7.35954 4.06374 7.04015 3.89062C6.71681 4.58862 6.52348 5.34662 5.91348 5.95729C5.31815 6.55196 4.57548 6.75196 3.88281 7.06862C4.05768 7.38543 4.30378 7.65726 4.60168 7.86268C4.89959 8.06809 5.24116 8.20147 5.59943 8.25228C5.95771 8.30309 6.32289 8.26995 6.66616 8.15547C7.00944 8.041 7.32142 7.84831 7.57748 7.59262Z" stroke="#7D7D7D"/>
<path d="M3.88125 7.06722C4.57325 6.75122 5.31658 6.55122 5.91058 5.95656M3.88125 7.06722C3.63791 7.17856 3.40125 7.30456 3.17925 7.46789M3.88125 7.06722C4.05631 7.38447 4.30285 7.65726 4.60133 7.86268C4.89982 8.06811 5.24204 8.2012 5.60089 8.2514C5.95974 8.30161 6.32535 8.26755 6.66875 8.15193C7.01215 8.0363 7.3239 7.8423 7.57931 7.58527C7.83471 7.32825 8.02675 7.01528 8.1402 6.67115C8.25365 6.32703 8.2854 5.96121 8.23293 5.60269C8.18046 5.24417 8.04521 4.90279 7.8379 4.60561C7.6306 4.30843 7.35693 4.06294 7.03858 3.88989M5.91058 5.95656C6.52191 5.34589 6.71525 4.58789 7.03858 3.88989M5.91058 5.95656C5.10725 6.76056 4.03391 6.84322 3.17925 7.46789M5.91058 5.95656C6.72391 5.14322 6.79658 4.07056 7.42125 3.22456M7.03858 3.88989C7.14332 3.65554 7.27153 3.43306 7.42125 3.22456M3.17925 7.46789C2.02991 8.30856 1.22925 9.60056 2.02125 11.4959C3.35458 14.6859 8.48258 15.4012 11.9192 11.9646C15.5919 8.29189 14.6719 3.36722 11.4492 2.06722C9.54658 1.30056 8.24458 2.10856 7.42125 3.22456" stroke="#7D7D7D"/>
</svg>
