<svg width="18" height="18" viewBox="0 0 18 18" fill="none" xmlns="http://www.w3.org/2000/svg">
<path d="M1.5 12.0311C1.5 11.5804 1.59975 11.133 1.86413 10.7681C2.64187 9.69375 4.75162 7.5 9 7.5C13.2484 7.5 15.3581 9.69412 16.1359 10.7681C16.4002 11.133 16.5 11.5804 16.5 12.0311C16.5 12.8185 16.1872 13.5737 15.6304 14.1304C15.0737 14.6872 14.3185 15 13.5311 15H4.46887C3.68148 15 2.92634 14.6872 2.36956 14.1304C1.81279 13.5737 1.5 12.8185 1.5 12.0311Z" stroke="#7D7D7D" stroke-linecap="round" stroke-linejoin="round"/>
<path d="M4.5 3.375V4.875M5.25 8.25V9.75M13.5 3.375V4.875M12.75 8.25V9.75M9 2.625V4.875M9 7.5V10.5M9 7.5C11.928 7.5 13.8398 8.5425 15 9.54113M9 7.5C6.072 7.5 4.16025 8.54213 3 9.54113" stroke="#7D7D7D" stroke-linecap="round"/>
</svg>
