<svg width="18" height="18" viewBox="0 0 18 18" fill="none" xmlns="http://www.w3.org/2000/svg">
<path d="M14.0919 6.1386L14.1707 6.21735C14.5925 6.63929 14.8295 7.21148 14.8295 7.8081C14.8295 8.40472 14.5925 8.97692 14.1707 9.39885L9.39732 14.1711C9.18838 14.3801 8.9403 14.5459 8.66726 14.6591C8.39422 14.7722 8.10156 14.8304 7.80601 14.8304C7.51046 14.8304 7.2178 14.7722 6.94476 14.6591C6.67172 14.5459 6.42364 14.3801 6.2147 14.1711L6.13595 14.0924L5.79507 16.0206C5.75944 16.2234 5.66885 16.4124 5.53318 16.5673C5.39751 16.7221 5.22196 16.8367 5.02565 16.8987C4.82934 16.9606 4.61979 16.9675 4.41982 16.9186C4.21985 16.8697 4.03714 16.7669 3.89157 16.6214L1.37832 14.1081C1.23276 13.9625 1.12993 13.7798 1.08103 13.5799C1.03213 13.3799 1.03903 13.1703 1.10099 12.974C1.16295 12.7777 1.27758 12.6022 1.43241 12.4665C1.58724 12.3308 1.77632 12.2402 1.97907 12.2046L3.90845 11.8649L3.82857 11.785C3.61955 11.576 3.45373 11.328 3.3406 11.0549C3.22747 10.7819 3.16924 10.4892 3.16924 10.1937C3.16924 9.89812 3.22747 9.60546 3.3406 9.33242C3.45373 9.05938 3.61955 8.8113 3.82857 8.60235L8.60082 3.8301C8.80977 3.62107 9.05785 3.45526 9.33089 3.34213C9.60393 3.229 9.89659 3.17077 10.1921 3.17077C10.4877 3.17077 10.7803 3.229 11.0534 3.34213C11.3264 3.45526 11.5745 3.62107 11.7834 3.8301L11.8622 3.90885L12.2031 1.98398C12.2389 1.78119 12.3297 1.59212 12.4656 1.43738C12.6015 1.28264 12.7772 1.16816 12.9737 1.10643C13.1701 1.04469 13.3798 1.03807 13.5797 1.08727C13.7797 1.13648 13.9623 1.23963 14.1077 1.38548L16.6142 3.89985C16.7591 4.04556 16.8614 4.2282 16.9099 4.42793C16.9584 4.62765 16.9512 4.83685 16.8892 5.03279C16.8271 5.22873 16.7126 5.40394 16.558 5.53939C16.4034 5.67483 16.2147 5.76535 16.0123 5.8011L14.0919 6.1386ZM4.44507 9.63173H12.3054V9.6711L13.3742 8.60235C13.582 8.39523 13.7003 8.11495 13.7038 7.8216H6.20007L4.62395 9.39885C4.55401 9.46826 4.49349 9.54656 4.44395 9.63173H4.44507ZM4.44507 10.7567C4.49345 10.84 4.55307 10.9176 4.62395 10.9896L7.01007 13.3757C7.22104 13.5866 7.50714 13.7051 7.80545 13.7051C8.10376 13.7051 8.38985 13.5866 8.60082 13.3757L11.2209 10.7567H4.44507ZM13.0592 6.6966L10.9881 4.62548C10.7771 4.41457 10.491 4.29609 10.1927 4.29609C9.89439 4.29609 9.60829 4.41457 9.39732 4.62548L7.32507 6.6966H13.0592ZM2.1737 13.3127L4.68695 15.826L5.11445 13.4072C5.12696 13.3359 5.1221 13.2627 5.10028 13.1937C5.07846 13.1247 5.04031 13.062 4.98908 13.0109C4.93786 12.9597 4.87505 12.9217 4.80601 12.9001C4.73696 12.8784 4.6637 12.8737 4.59245 12.8864L2.1737 13.3127ZM13.3112 2.17973L12.8837 4.59623C12.8712 4.6674 12.8761 4.74052 12.8979 4.80942C12.9196 4.87831 12.9577 4.94096 13.0088 4.99205C13.0598 5.04314 13.1225 5.08117 13.1914 5.10294C13.2603 5.12471 13.3334 5.12957 13.4046 5.1171L15.8177 4.6941L13.3101 2.17973H13.3112Z" fill="#7D7D7D"/>
</svg>
