<svg width="18" height="18" viewBox="0 0 18 18" fill="none" xmlns="http://www.w3.org/2000/svg">
<path fill-rule="evenodd" clip-rule="evenodd" d="M10.4937 2.5488C10.5441 2.44481 10.6249 2.35671 10.7264 2.29491C10.8278 2.2331 10.9458 2.20017 11.0664 2.2H13.6276C13.7105 2.2 13.7926 2.18448 13.8693 2.15433C13.9459 2.12417 14.0156 2.07998 14.0742 2.02426C14.1329 1.96855 14.1794 1.90241 14.2111 1.82961C14.2429 1.75681 14.2592 1.67879 14.2592 1.6C14.2592 1.52121 14.2429 1.44319 14.2111 1.37039C14.1794 1.29759 14.1329 1.23145 14.0742 1.17574C14.0156 1.12002 13.9459 1.07583 13.8693 1.04567C13.7926 1.01552 13.7105 1 13.6276 1H11.0672C10.7052 0.999978 10.3508 1.09844 10.0459 1.28374C9.74096 1.46903 9.49828 1.73341 9.34657 2.0456L8.5911 3.6H3.63129C3.54319 3.60005 3.45607 3.6176 3.37553 3.65154C3.295 3.68547 3.22282 3.73504 3.16365 3.79704C3.10448 3.85905 3.05962 3.93213 3.03195 4.01158C3.00429 4.09104 2.99442 4.17511 3.003 4.2584L4.15431 15.376C4.20031 15.8207 4.41884 16.2333 4.76738 16.5335C5.11593 16.8337 5.56956 17 6.04003 17H11.9608C12.4314 17.0002 12.8853 16.834 13.234 16.5338C13.5827 16.2336 13.8014 15.8209 13.8474 15.376L14.997 4.2584C15.0056 4.17511 14.9957 4.09104 14.968 4.01158C14.9404 3.93213 14.8955 3.85905 14.8363 3.79704C14.7772 3.73504 14.705 3.68547 14.6245 3.65154C14.5439 3.6176 14.4568 3.60005 14.3687 3.6H9.9816L10.4937 2.5488ZM8.98105 4.8H13.673L12.5899 15.2584C12.5747 15.4068 12.5018 15.5445 12.3855 15.6446C12.2692 15.7447 12.1178 15.8001 11.9608 15.8H6.04003C5.88307 15.8001 5.73168 15.7447 5.61537 15.6446C5.49907 15.5445 5.42617 15.4068 5.4109 15.2584L4.32781 4.8H8.98105Z" fill="#7D7D7D"/>
</svg>
