<svg width="16" height="16" viewBox="0 0 16 16" fill="none" xmlns="http://www.w3.org/2000/svg">
<path d="M1.88208 6.50844V6.49907C1.88237 5.61029 2.15095 4.7415 2.65396 4.00223C3.15697 3.26297 3.87188 2.68633 4.70856 2.34504C5.54523 2.00375 6.4662 1.91308 7.35534 2.08447C8.24448 2.25586 9.06198 2.68163 9.70475 3.30809C10.2105 3.063 10.7755 2.95986 11.3373 3.01007C11.8991 3.06028 12.4358 3.26189 12.8881 3.59261C13.3404 3.92333 13.6906 4.37027 13.9 4.88403C14.1095 5.39779 14.17 5.95836 14.0749 6.50376C14.2144 6.5165 14.3496 6.55727 14.4723 6.62355C14.595 6.68982 14.7024 6.78016 14.7879 6.88895C14.8734 6.99774 14.9351 7.12263 14.9693 7.25585C15.0034 7.38907 15.0092 7.52775 14.9862 7.66326C14.5253 10.3823 13.3861 12.1038 11.5688 12.8279V13.4998C11.5688 13.8977 11.4077 14.2793 11.1208 14.5606C10.834 14.8419 10.445 15 10.0393 15H5.9607C5.55506 15 5.16603 14.8419 4.87919 14.5606C4.59236 14.2793 4.43122 13.8977 4.43122 13.4998V12.8279C2.61496 12.1038 1.47581 10.3823 1.01378 7.66326C0.991429 7.53127 0.996309 7.39622 1.02813 7.26612C1.05995 7.13601 1.11806 7.01349 1.19903 6.90581C1.27999 6.79813 1.38216 6.70748 1.49949 6.63922C1.61682 6.57097 1.74691 6.5265 1.88208 6.50844ZM2.90173 6.49907H3.92139C3.92139 5.83595 4.18996 5.2 4.66801 4.73111C5.14607 4.26221 5.79445 3.99879 6.47053 3.99879C7.1466 3.99879 7.79499 4.26221 8.27304 4.73111C8.7511 5.2 9.01967 5.83595 9.01967 6.49907H10.0393C10.0393 5.57071 9.66333 4.68037 8.99405 4.02392C8.32477 3.36747 7.41703 2.99868 6.47053 2.99868C5.52403 2.99868 4.61629 3.36747 3.94701 4.02392C3.27773 4.68037 2.90173 5.57071 2.90173 6.49907ZM4.94104 6.49907H8.00001C8.00001 6.1012 7.83887 5.71963 7.55204 5.43829C7.2652 5.15696 6.87617 4.9989 6.47053 4.9989C6.06488 4.9989 5.67585 5.15696 5.38902 5.43829C5.10219 5.71963 4.94104 6.1012 4.94104 6.49907ZM11.9416 6.49907H13.0346C13.1114 6.20348 13.1185 5.89458 13.0552 5.59591C12.992 5.29724 12.86 5.01666 12.6695 4.77554C12.479 4.53443 12.2349 4.33913 11.9558 4.20453C11.6767 4.06992 11.37 3.99956 11.059 3.99879C10.8227 3.99838 10.5881 4.03858 10.3659 4.11756C10.5475 4.40424 10.696 4.70978 10.8088 5.02859C11.0031 4.98109 11.2074 4.99066 11.3962 5.0561C11.5849 5.12155 11.7499 5.23998 11.8707 5.39667C11.9914 5.55337 12.0624 5.74141 12.0751 5.93741C12.0877 6.13341 12.0413 6.32873 11.9416 6.49907ZM10.5492 12.9998H5.45087V13.4998C5.45087 13.6325 5.50459 13.7597 5.6002 13.8534C5.69581 13.9472 5.82549 13.9999 5.9607 13.9999H10.0393C10.1745 13.9999 10.3042 13.9472 10.3998 13.8534C10.4954 13.7597 10.5492 13.6325 10.5492 13.4998V12.9998ZM5.0924 11.9997H10.9076C12.5247 11.4902 13.5492 10.0463 13.9825 7.49918H2.0175C2.45085 10.0463 3.47529 11.4902 5.0924 11.9997Z" fill="#7D7D7D"/>
</svg>
