<svg width="18" height="18" viewBox="0 0 18 18" fill="none" xmlns="http://www.w3.org/2000/svg">
<path d="M10.333 2.65137C10.8745 2.45174 11.5334 2.40799 12.3389 2.66211L12.6934 2.79004C14.3059 3.44007 15.3758 5.00948 15.5566 6.93848C15.7369 8.86179 15.0256 11.1365 13.0557 13.1064C11.2246 14.9375 8.95833 15.648 6.99316 15.4932C5.02042 15.3376 3.39665 14.3219 2.73535 12.7402C2.33161 11.774 2.3493 11.0078 2.5752 10.3936C2.80565 9.76715 3.27456 9.23969 3.87109 8.80371C4.29145 8.49654 4.76197 8.32439 5.32715 8.08789C5.8034 7.8886 6.32732 7.64915 6.80273 7.24023L7.00293 7.05469C7.53404 6.52401 7.81414 5.91492 8.04102 5.37012C8.2766 4.80436 8.44633 4.33881 8.75195 3.9248V3.92383C9.17729 3.34736 9.70276 2.88371 10.333 2.65137Z" stroke="#7D7D7D"/>
<path d="M8.13281 5.14941C8.23498 5.24686 8.32981 5.35219 8.41113 5.46875C8.60043 5.7401 8.72396 6.05246 8.77148 6.37988C8.81892 6.70708 8.78879 7.04073 8.68457 7.35449C8.58024 7.66843 8.40394 7.95366 8.16992 8.1875C7.93668 8.42038 7.65251 8.59592 7.33984 8.7002C7.02723 8.8044 6.69442 8.83533 6.36816 8.78906C6.04195 8.74274 5.73122 8.62063 5.45996 8.43359C5.34538 8.35459 5.24095 8.26317 5.14453 8.16406C5.14593 8.16349 5.14802 8.16366 5.14941 8.16309C5.34724 8.08167 5.55679 7.99477 5.76465 7.89648C6.18334 7.69849 6.61478 7.44531 7.00488 7.05566H7.00586C7.40515 6.65593 7.66027 6.21414 7.85938 5.78809C7.95814 5.57674 8.04525 5.36379 8.12695 5.16406C8.12895 5.15919 8.13082 5.15427 8.13281 5.14941Z" stroke="#7D7D7D"/>
<path d="M4.3664 7.95063C5.1449 7.59513 5.98115 7.37013 6.6494 6.70113M4.3664 7.95063C4.09265 8.07588 3.8264 8.21763 3.57665 8.40138M4.3664 7.95063C4.56335 8.30753 4.8407 8.61441 5.1765 8.84552C5.51229 9.07662 5.8973 9.22634 6.301 9.28283C6.7047 9.33931 7.11601 9.30099 7.50234 9.17092C7.88866 9.04084 8.23939 8.82258 8.52672 8.53343C8.81405 8.24428 9.03009 7.89219 9.15772 7.50505C9.28536 7.11791 9.32107 6.70636 9.26204 6.30302C9.20301 5.89969 9.05086 5.51564 8.81764 5.18131C8.58442 4.84698 8.27654 4.57081 7.9184 4.37613M6.6494 6.70113C7.33715 6.01413 7.55465 5.16138 7.9184 4.37613M6.6494 6.70113C5.74565 7.60563 4.5374 7.69788 3.5759 8.40063C2.2829 9.34638 1.3829 10.8006 2.2739 12.9329C3.7739 16.5216 9.5429 17.3264 13.4092 13.4601C17.5409 9.32838 16.5059 3.78813 12.8804 2.32563C10.7399 1.46313 9.2759 2.37213 8.34965 3.62763C7.6469 4.57938 7.5644 5.78613 6.6494 6.70113ZM7.9184 4.37613C8.03623 4.11248 8.18047 3.86219 8.3489 3.62763" stroke="#7D7D7D"/>
</svg>
