<svg width="18" height="18" viewBox="0 0 18 18" fill="none" xmlns="http://www.w3.org/2000/svg">
<path d="M11.2858 15C14.7144 15 17.0002 11.8573 17.0002 9.5C17.0002 7.1427 14.7144 4 11.2858 4C8.23959 4 5.70087 5.91877 4.3458 7.54787C4.27438 7.27153 4.1722 7.00341 4.04103 6.74817C3.62616 5.92683 2.6749 5.3596 1.99146 5.04133C1.58764 4.85287 1.14116 5.09743 1.08478 5.5257C0.974297 6.36023 0.900771 7.67033 1.33659 8.53347C1.5545 8.96503 1.79717 9.28293 2.05089 9.5C1.79717 9.71707 1.5545 10.035 1.33659 10.4665C0.900771 11.3297 0.974296 12.6398 1.08439 13.4743C1.14116 13.9026 1.58802 14.1471 1.99146 13.959C2.6749 13.6404 3.62616 13.0735 4.04103 12.2522C4.18274 11.971 4.28294 11.7037 4.3458 11.4521C5.70087 13.0812 8.23959 15 11.2858 15Z" stroke="#7D7D7D" stroke-linecap="round" stroke-linejoin="round"/>
<path d="M11.0315 5.98047C9.74196 7.7258 9.74196 11.2755 11.0315 13.0205M7.85659 8.0338C7.60249 8.7609 7.60249 10.24 7.85659 10.9671M13.19 8.0338V8.40047" stroke="#7D7D7D" stroke-linecap="round"/>
</svg>
