<svg width="18" height="18" viewBox="0 0 18 18" fill="none" xmlns="http://www.w3.org/2000/svg">
<path d="M6.15674 8.7349C6.31067 8.70394 6.44607 8.6127 6.53316 8.48126C6.62025 8.34981 6.65189 8.18893 6.62113 8.03401C6.59037 7.87909 6.49971 7.74281 6.36912 7.65516C6.23852 7.5675 6.07868 7.53566 5.92475 7.56662C5.21219 7.70958 4.67402 8.21152 4.38758 8.88421C4.1035 9.54976 4.06168 10.3821 4.28342 11.2732C4.30073 11.3506 4.33325 11.4238 4.37907 11.4884C4.42489 11.5531 4.48308 11.6078 4.55021 11.6495C4.61735 11.6911 4.69209 11.7189 4.77003 11.731C4.84797 11.7432 4.92754 11.7396 5.00407 11.7204C5.08059 11.7011 5.15253 11.6667 5.21565 11.6191C5.27878 11.5715 5.33181 11.5117 5.37164 11.4432C5.41147 11.3747 5.43728 11.2988 5.44757 11.2201C5.45786 11.1414 5.45242 11.0614 5.43156 10.9849C5.25796 10.2876 5.31477 9.73004 5.47496 9.35359C5.63278 8.98349 5.88371 8.79049 6.15674 8.7349ZM3.84783 2.52737C3.81411 3.09124 3.89613 3.65605 4.08877 4.18663C4.28142 4.7172 4.58056 5.20215 4.96757 5.61128C4.21584 5.82821 3.54282 6.26005 3.03016 6.85441C2.5175 7.44877 2.18724 8.18009 2.07946 8.95966C1.81973 10.8302 2.20104 12.734 3.16053 14.3571L3.43671 14.8257L3.47064 14.8757L4.58801 16.3895C4.82468 16.7103 5.12798 16.9754 5.47679 17.1662C5.82561 17.357 6.21157 17.469 6.60778 17.4944C7.00399 17.5198 7.40095 17.458 7.771 17.3133C8.14106 17.1685 8.47532 16.9443 8.75052 16.6563C8.7827 16.6227 8.8213 16.5959 8.86401 16.5776C8.90672 16.5593 8.95266 16.5498 8.99909 16.5498C9.04551 16.5498 9.09145 16.5593 9.13416 16.5776C9.17688 16.5959 9.21548 16.6227 9.24765 16.6563C9.52285 16.9443 9.85711 17.1685 10.2272 17.3133C10.5972 17.458 10.9942 17.5198 11.3904 17.4944C11.7866 17.469 12.1726 17.357 12.5214 17.1662C12.8702 16.9754 13.1735 16.7103 13.4102 16.3895L14.5275 14.8749L14.5607 14.8249L14.8376 14.3563C15.7978 12.7337 16.1799 10.8302 15.9211 8.95966C15.8447 8.40849 15.6567 7.87897 15.3687 7.40388C15.0808 6.9288 14.699 6.51825 14.247 6.19767C13.7951 5.87709 13.2825 5.65329 12.7412 5.54013C12.1998 5.42697 11.6411 5.42686 11.0997 5.5398L9.59959 5.85272H9.59722C9.6209 5.23324 9.71717 4.5661 9.90576 3.99586C10.1346 3.30649 10.4518 2.89191 10.8053 2.74419C10.9503 2.68331 11.0652 2.56699 11.1249 2.4208C11.1847 2.27461 11.1842 2.11054 11.1237 1.96467C11.0633 1.81881 10.9477 1.7031 10.8024 1.643C10.6572 1.5829 10.4942 1.58333 10.3492 1.64421C9.5191 1.99287 9.04722 2.81964 8.78287 3.61861L8.74657 3.73139C8.55246 3.35333 8.30146 3.00774 8.00245 2.70686C7.59324 2.29446 7.10163 1.97428 6.56019 1.76753C6.01876 1.56078 5.43985 1.47218 4.86183 1.5076C4.59804 1.52289 4.349 1.63508 4.16195 1.8229C3.9749 2.01073 3.86284 2.26112 3.84704 2.52657M5.02517 2.69097C5.42115 2.67947 5.81528 2.74963 6.18331 2.89714C6.55134 3.04465 6.8855 3.26639 7.16522 3.54872C7.44573 3.83025 7.66604 4.16656 7.8126 4.53698C7.95916 4.90739 8.02887 5.30407 8.01744 5.70261C7.87433 5.70578 7.73118 5.69915 7.58896 5.68276L7.10209 5.5811C6.63966 5.44138 6.21887 5.18842 5.8774 4.84487C5.59689 4.56334 5.37658 4.22702 5.23002 3.85661C5.08345 3.48619 5.01374 3.08951 5.02517 2.69097ZM6.65861 6.7057L6.81801 6.73906C7.00739 6.79306 7.19941 6.8333 7.39405 6.85977L8.15948 7.01862C8.71386 7.13421 9.28589 7.13421 9.84027 7.01862L11.3411 6.7057C11.724 6.62584 12.119 6.62593 12.5018 6.70596C12.8846 6.78599 13.247 6.94426 13.5666 7.17096C13.8861 7.39767 14.1561 7.68799 14.3596 8.02394C14.5632 8.35989 14.6961 8.73433 14.7501 9.12406C14.9716 10.7265 14.644 12.3572 13.8213 13.7471L13.5601 14.1895L12.4609 15.6795C12.3267 15.8613 12.1548 16.0116 11.9571 16.1197C11.7593 16.2279 11.5405 16.2914 11.3159 16.3057C11.0913 16.3201 10.8663 16.285 10.6566 16.2029C10.4468 16.1208 10.2574 15.9937 10.1015 15.8304C9.9589 15.681 9.78785 15.5622 9.59855 15.4811C9.40926 15.3999 9.20563 15.3581 8.99988 15.3581C8.79412 15.3581 8.59049 15.3999 8.4012 15.4811C8.2119 15.5622 8.04085 15.681 7.89829 15.8304C7.74235 15.9937 7.55291 16.1208 7.34316 16.2029C7.13341 16.285 6.9084 16.3201 6.68381 16.3057C6.45921 16.2914 6.24042 16.2279 6.04269 16.1197C5.84495 16.0116 5.67302 15.8613 5.53888 15.6795L4.43966 14.1895L4.17847 13.7471C3.35597 12.3571 3.02866 10.7265 3.25048 9.12406C3.30446 8.73441 3.43732 8.36005 3.64084 8.02417C3.84436 7.68828 4.11421 7.398 4.43368 7.1713C4.75315 6.94461 5.11546 6.78632 5.49816 6.70623C5.88087 6.62614 6.27583 6.62596 6.65861 6.7057Z" fill="#7D7D7D"/>
</svg>
