<svg width="18" height="18" viewBox="0 0 18 18" fill="none" xmlns="http://www.w3.org/2000/svg">
<path d="M13.1255 12.4C13.8452 12.4 14.5506 12.1996 15.1628 11.8212C15.775 11.4429 16.2697 10.9016 16.5915 10.2579C16.9134 9.61418 17.0496 8.89358 16.985 8.17683C16.9204 7.46007 16.6574 6.77547 16.2256 6.19974C14.5787 4.0064 12.3505 3.09961 9.25033 3.09961C6.1502 3.09961 1.5 5.32008 1.5 8.13732C1.5 8.6512 1.70414 9.14403 2.0675 9.5074C2.43087 9.87077 2.9237 10.0749 3.43758 10.0749H6.1502C7.17634 10.0493 9.25033 10.4624 10.9833 11.7544C11.6184 12.1755 12.3635 12.4001 13.1255 12.4Z" stroke="#7D7D7D"/>
<path d="M1.5 8.13672V8.52424C1.5 10.716 1.5 11.8127 2.18125 12.4932C2.86173 13.1744 3.9584 13.1744 6.1502 13.1744C7.17634 13.1496 9.25033 13.5619 10.9833 14.8539C11.5672 15.2413 12.2452 15.463 12.9451 15.4957C13.645 15.5283 14.3407 15.3705 14.9581 15.0392C15.5754 14.7078 16.0914 14.2153 16.4511 13.614C16.8108 13.0126 17.0007 12.325 17.0007 11.6244V8.52424" stroke="#7D7D7D"/>
<path d="M14.2899 8.52388C14.2899 8.8322 14.1675 9.1279 13.9494 9.34592C13.7314 9.56394 13.4357 9.68643 13.1274 9.68643C12.8191 9.68643 12.5234 9.56394 12.3053 9.34592C12.0873 9.1279 11.9648 8.8322 11.9648 8.52388C11.9648 8.21555 12.0873 7.91985 12.3053 7.70183C12.5234 7.48381 12.8191 7.36133 13.1274 7.36133C13.4357 7.36133 13.7314 7.48381 13.9494 7.70183C14.1675 7.91985 14.2899 8.21555 14.2899 8.52388Z" stroke="#7D7D7D"/>
</svg>
