<svg width="18" height="18" viewBox="0 0 18 18" fill="none" xmlns="http://www.w3.org/2000/svg">
<path d="M2.93268 9H13.5669C14.7684 9 15.2094 9.2775 14.9094 10.4865C14.3799 12.6188 12.8822 13.1482 11.4977 14.5395C11.1617 14.877 11.6852 15.3773 11.6852 15.7493C11.6852 16.4498 11.0199 16.5 10.4889 16.5H6.01143C5.48043 16.5 4.81443 16.4498 4.81518 15.75C4.81518 15.3855 5.32293 14.862 5.00268 14.5395C3.61818 13.1482 2.12043 12.6188 1.59093 10.4865C1.29093 9.27825 1.73118 9 2.93268 9Z" stroke="#7D7D7D" stroke-linejoin="round"/>
<path d="M13.875 9C13.875 7.65675 12.45 6.741 11.25 7.269M2.625 9C2.625 8.03025 3.35175 7.23075 4.28625 7.12425C3.67575 5.74425 4.9695 4.1955 6.40425 4.51275M6.40425 4.51275C6.76125 2.49525 9.73875 2.49525 10.0965 4.51275C11.5635 4.188 12.8047 5.76225 12.219 7.11225M6.40425 4.51275C6.84291 4.61075 7.23178 4.86307 7.5 5.22375M12.75 6.75L16.5 2.25M12 4.5L13.5 1.5" stroke="#7D7D7D" stroke-linecap="round" stroke-linejoin="round"/>
</svg>
