<svg width="18" height="18" viewBox="0 0 18 18" fill="none" xmlns="http://www.w3.org/2000/svg">
<path d="M8.99882 9.97812V9.98789M7.04449 12.9096V12.9194M10.9532 12.9096V12.9194M4.60156 5.09227H13.3961L13.1215 2.89559C13.0624 2.42285 12.8327 1.98796 12.4755 1.67269C12.1183 1.35742 11.6582 1.18349 11.1818 1.18359H6.81583C6.33923 1.18325 5.87894 1.35708 5.52154 1.67237C5.16414 1.98766 4.93427 2.42268 4.87517 2.89559L4.60156 5.09227Z" stroke="#7D7D7D" stroke-linecap="round" stroke-linejoin="round"/>
<path d="M4.60377 5.0918L3.02858 14.542C2.98188 14.822 2.99674 15.1088 3.07213 15.3825C3.14751 15.6562 3.28162 15.9101 3.46511 16.1267C3.64859 16.3433 3.87707 16.5174 4.13463 16.6367C4.39219 16.7561 4.67266 16.8179 4.95653 16.8178H13.0455C13.3294 16.8179 13.6099 16.7561 13.8674 16.6367C14.125 16.5174 14.3535 16.3433 14.537 16.1267C14.7205 15.9101 14.8546 15.6562 14.9299 15.3825C15.0053 15.1088 15.0202 14.822 14.9735 14.542L13.3983 5.0918" stroke="#7D7D7D" stroke-linecap="round" stroke-linejoin="round"/>
</svg>
