<svg width="18" height="18" viewBox="0 0 18 18" fill="none" xmlns="http://www.w3.org/2000/svg">
<path d="M5.25 3.375C5.25 4.125 6 4.125 6 4.875C6 5.625 5.25 5.625 5.25 6.375C5.25 7.125 6 7.125 6 7.875C6 8.625 5.25 8.625 5.25 9.375C5.25 10.125 6 10.125 6 10.875M12 3.375C12 4.125 12.75 4.125 12.75 4.875C12.75 5.625 12 5.625 12 6.375C12 7.125 12.75 7.125 12.75 7.875C12.75 8.625 12 8.625 12 9.375C12 10.125 12.75 10.125 12.75 10.875M5.625 12.75V16.5M12.375 12.75V16.5" stroke="#7D7D7D" stroke-linecap="round" stroke-linejoin="round"/>
<path d="M3.375 3.75C3.375 3.15326 3.61205 2.58097 4.03401 2.15901C4.45597 1.73705 5.02826 1.5 5.625 1.5C6.22174 1.5 6.79403 1.73705 7.21599 2.15901C7.63795 2.58097 7.875 3.15326 7.875 3.75V10.5C7.875 11.0967 7.63795 11.669 7.21599 12.091C6.79403 12.5129 6.22174 12.75 5.625 12.75C5.02826 12.75 4.45597 12.5129 4.03401 12.091C3.61205 11.669 3.375 11.0967 3.375 10.5V3.75ZM10.125 3.75C10.125 3.15326 10.3621 2.58097 10.784 2.15901C11.206 1.73705 11.7783 1.5 12.375 1.5C12.9717 1.5 13.544 1.73705 13.966 2.15901C14.3879 2.58097 14.625 3.15326 14.625 3.75V10.5C14.625 11.0967 14.3879 11.669 13.966 12.091C13.544 12.5129 12.9717 12.75 12.375 12.75C11.7783 12.75 11.206 12.5129 10.784 12.091C10.3621 11.669 10.125 11.0967 10.125 10.5V3.75Z" stroke="#7D7D7D"/>
</svg>
