<svg width="18" height="18" viewBox="0 0 18 18" fill="none" xmlns="http://www.w3.org/2000/svg">
<path d="M9.01866 16.7646C2.2695 16.7646 0.137732 14.6661 1.36698 10.8711H16.6703C17.8996 14.6661 15.7678 16.7646 9.01866 16.7646Z" stroke="#7D7D7D" stroke-linejoin="round"/>
<path d="M5.58594 5.64258C6.94835 7.39953 7.43043 9.17005 7.624 10.8395" stroke="#7D7D7D" stroke-linecap="round" stroke-linejoin="round"/>
<path d="M2.05688 10.8643C1.31711 9.2923 1.55137 7.47863 2.57842 6.58227C2.4174 6.3579 2.27709 6.11938 2.15921 5.86963C1.29862 4.0424 1.79549 1.99817 3.26887 1.30279C4.74594 0.607404 6.63975 1.52472 7.50035 3.35195C7.62036 3.60922 7.71488 3.86814 7.78393 4.12871C9.00701 3.92774 10.3633 4.65394 11.156 5.9695L11.3866 6.41706" stroke="#7D7D7D" stroke-linecap="round" stroke-linejoin="round"/>
<path d="M9.81695 10.7103H16.2924C16.3935 10.3454 16.4445 9.93932 16.4453 9.49217C16.4453 7.32218 15.2247 6.10156 13.0547 6.10156C10.8847 6.10156 9.66406 7.32218 9.66406 9.49217C9.66406 9.93932 9.71502 10.3454 9.81695 10.7103Z" stroke="#7D7D7D" stroke-linecap="round" stroke-linejoin="round"/>
</svg>
