<svg width="38" height="38" viewBox="0 0 38 38" fill="none" xmlns="http://www.w3.org/2000/svg">
<path d="M30.3914 19.1957C30.3914 25.3789 25.3789 30.3914 19.1957 30.3914C13.0126 30.3914 8 25.3789 8 19.1957C8 13.0126 13.0126 8 19.1957 8C25.3789 8 30.3914 13.0126 30.3914 19.1957Z" fill="#E1E8ED"/>
<path d="M26.6581 19.1982C26.6581 23.3207 23.3168 26.662 19.1943 26.662C15.0718 26.662 11.7305 23.3207 11.7305 19.1982C11.7305 15.0757 15.0718 11.7344 19.1943 11.7344C23.3168 11.7344 26.6581 15.0757 26.6581 19.1982Z" fill="#CCD6DD"/>
<path d="M26.0391 19.1934C26.0391 22.9719 22.9758 26.0352 19.1973 26.0352C15.4187 26.0352 12.3555 22.9719 12.3555 19.1934C12.3555 15.4148 15.4187 12.3516 19.1973 12.3516C22.9758 12.3516 26.0391 15.4142 26.0391 19.1934Z" fill="#E1E8ED"/>
<path d="M8.62198 9.24397C8.9655 9.24397 9.24397 8.9655 9.24397 8.62198C9.24397 8.27847 8.9655 8 8.62198 8C8.27847 8 8 8.27847 8 8.62198C8 8.9655 8.27847 9.24397 8.62198 9.24397Z" fill="#99AAB5"/>
<path d="M8 8.62109H9.24397V12.975H8V8.62109Z" fill="#99AAB5"/>
<path d="M11.1064 9.24397C11.4499 9.24397 11.7283 8.9655 11.7283 8.62198C11.7283 8.27847 11.4499 8 11.1064 8C10.7628 8 10.4844 8.27847 10.4844 8.62198C10.4844 8.9655 10.7628 9.24397 11.1064 9.24397Z" fill="#99AAB5"/>
<path d="M10.4844 8.62109H11.7283V12.975H10.4844V8.62109Z" fill="#99AAB5"/>
<path d="M13.5946 9.24397C13.9382 9.24397 14.2166 8.9655 14.2166 8.62198C14.2166 8.27847 13.9382 8 13.5946 8C13.2511 8 12.9727 8.27847 12.9727 8.62198C12.9727 8.9655 13.2511 9.24397 13.5946 9.24397Z" fill="#99AAB5"/>
<path d="M12.9771 8.62109H14.2211V12.975H12.9771V8.62109ZM9.86719 16.7069H12.3551V29.1466H9.86719V16.7069Z" fill="#99AAB5"/>
<path d="M11.1112 30.3903C11.7982 30.3903 12.3551 29.8333 12.3551 29.1463C12.3551 28.4593 11.7982 27.9023 11.1112 27.9023C10.4241 27.9023 9.86719 28.4593 9.86719 29.1463C9.86719 29.8333 10.4241 30.3903 11.1112 30.3903Z" fill="#99AAB5"/>
<path d="M12.9759 12.9766C12.9759 13.1415 12.9103 13.2997 12.7937 13.4164C12.6771 13.533 12.5188 13.5985 12.3539 13.5985C12.1889 13.5985 12.0307 13.533 11.9141 13.4164C11.7974 13.2997 11.7319 13.1415 11.7319 12.9766H10.4879C10.4879 13.1415 10.4224 13.2997 10.3058 13.4164C10.1891 13.533 10.0309 13.5985 9.86595 13.5985C9.70099 13.5985 9.54279 13.533 9.42614 13.4164C9.3095 13.2997 9.24397 13.1415 9.24397 12.9766H8C8 15.3812 8.62198 17.3305 11.1099 17.3305C13.5979 17.3305 14.2198 15.3812 14.2198 12.9766H12.9759Z" fill="#99AAB5"/>
<path d="M8.62198 13.5955C8.9655 13.5955 9.24397 13.3171 9.24397 12.9735C9.24397 12.63 8.9655 12.3516 8.62198 12.3516C8.27847 12.3516 8 12.63 8 12.9735C8 13.3171 8.27847 13.5955 8.62198 13.5955Z" fill="#99AAB5"/>
<path d="M11.1064 13.5955C11.4499 13.5955 11.7283 13.3171 11.7283 12.9735C11.7283 12.63 11.4499 12.3516 11.1064 12.3516C10.7628 12.3516 10.4844 12.63 10.4844 12.9735C10.4844 13.3171 10.7628 13.5955 11.1064 13.5955Z" fill="#99AAB5"/>
<path d="M13.5946 13.5955C13.9382 13.5955 14.2166 13.3171 14.2166 12.9735C14.2166 12.63 13.9382 12.3516 13.5946 12.3516C13.2511 12.3516 12.9727 12.63 12.9727 12.9735C12.9727 13.3171 13.2511 13.5955 13.5946 13.5955Z" fill="#99AAB5"/>
<path d="M26.6602 16.707H29.1481V29.1467H26.6602V16.707Z" fill="#99AAB5"/>
<path d="M27.9041 30.3903C28.5911 30.3903 29.1481 29.8333 29.1481 29.1463C29.1481 28.4593 28.5911 27.9023 27.9041 27.9023C27.2171 27.9023 26.6602 28.4593 26.6602 29.1463C26.6602 29.8333 27.2171 30.3903 27.9041 30.3903Z" fill="#99AAB5"/>
<path d="M27.9029 8C28.5249 8 29.1469 8.62198 29.1469 9.86595V19.8177C29.1469 19.8177 24.793 21.0617 24.793 14.8418C24.793 11.1099 26.6589 8 27.9029 8Z" fill="#99AAB5"/>
</svg>
