<svg width="4" height="18" viewBox="0 0 4 18" fill="none" xmlns="http://www.w3.org/2000/svg">
<path d="M0 1.75C0 1.505 -1.80909e-07 1.38425 0.0139998 1.28275C0.0585449 0.961989 0.20655 0.664528 0.435539 0.435539C0.664528 0.20655 0.961989 0.0585449 1.28275 0.0139998C1.3825 -1.80909e-07 1.505 0 1.75 0C1.995 0 2.11575 -1.80909e-07 2.21725 0.0139998C2.53801 0.0585449 2.83547 0.20655 3.06446 0.435539C3.29345 0.664528 3.44145 0.961989 3.486 1.28275C3.5 1.3825 3.5 1.505 3.5 1.75C3.5 1.995 3.5 2.11575 3.486 2.21725C3.44145 2.53801 3.29345 2.83547 3.06446 3.06446C2.83547 3.29345 2.53801 3.44146 2.21725 3.486C2.1175 3.5 1.995 3.5 1.75 3.5C1.505 3.5 1.38425 3.5 1.28275 3.486C0.961989 3.44146 0.664528 3.29345 0.435539 3.06446C0.20655 2.83547 0.0585449 2.53801 0.0139998 2.21725C-1.80909e-07 2.1175 0 1.995 0 1.75ZM0 8.75C0 8.505 -1.80909e-07 8.38425 0.0139998 8.28275C0.0585449 7.96199 0.20655 7.66453 0.435539 7.43554C0.664528 7.20655 0.961989 7.05855 1.28275 7.014C1.3825 7 1.505 7 1.75 7C1.995 7 2.11575 7 2.21725 7.014C2.53801 7.05855 2.83547 7.20655 3.06446 7.43554C3.29345 7.66453 3.44145 7.96199 3.486 8.28275C3.5 8.3825 3.5 8.505 3.5 8.75C3.5 8.995 3.5 9.11575 3.486 9.21725C3.44145 9.53801 3.29345 9.83547 3.06446 10.0645C2.83547 10.2934 2.53801 10.4415 2.21725 10.486C2.1175 10.5 1.995 10.5 1.75 10.5C1.505 10.5 1.38425 10.5 1.28275 10.486C0.961989 10.4415 0.664528 10.2934 0.435539 10.0645C0.20655 9.83547 0.0585449 9.53801 0.0139998 9.21725C-1.80909e-07 9.1175 0 8.995 0 8.75ZM0 15.75C0 15.5068 -1.80909e-07 15.3842 0.0139998 15.2827C0.0588057 14.9626 0.206711 14.6657 0.435325 14.4371C0.663938 14.2085 0.960811 14.0606 1.281 14.0157C1.38425 14.0017 1.505 14.0018 1.74825 14.0018C1.9915 14.0018 2.11575 14.0017 2.2155 14.0157C2.53569 14.0606 2.83256 14.2085 3.06117 14.4371C3.28979 14.6657 3.43769 14.9626 3.4825 15.2827C3.4965 15.3842 3.4965 15.5068 3.4965 15.75C3.4965 15.9932 3.4965 16.1158 3.4825 16.2173C3.43769 16.5374 3.28979 16.8343 3.06117 17.0629C2.83256 17.2915 2.53569 17.4394 2.2155 17.4843C2.114 17.4983 1.9915 17.4982 1.74825 17.4982C1.505 17.4982 1.3825 17.4983 1.281 17.4843C0.960811 17.4394 0.663938 17.2915 0.435325 17.0629C0.206711 16.8343 0.0588057 16.5374 0.0139998 16.2173C-1.80909e-07 16.1158 0 15.9932 0 15.75Z" fill="#202020"/>
<path d="M0 1.75C0 1.505 -1.80909e-07 1.38425 0.0139998 1.28275C0.0585449 0.961989 0.20655 0.664528 0.435539 0.435539C0.664528 0.20655 0.961989 0.0585449 1.28275 0.0139998C1.3825 -1.80909e-07 1.505 0 1.75 0C1.995 0 2.11575 -1.80909e-07 2.21725 0.0139998C2.53801 0.0585449 2.83547 0.20655 3.06446 0.435539C3.29345 0.664528 3.44145 0.961989 3.486 1.28275C3.5 1.3825 3.5 1.505 3.5 1.75C3.5 1.995 3.5 2.11575 3.486 2.21725C3.44145 2.53801 3.29345 2.83547 3.06446 3.06446C2.83547 3.29345 2.53801 3.44146 2.21725 3.486C2.1175 3.5 1.995 3.5 1.75 3.5C1.505 3.5 1.38425 3.5 1.28275 3.486C0.961989 3.44146 0.664528 3.29345 0.435539 3.06446C0.20655 2.83547 0.0585449 2.53801 0.0139998 2.21725C-1.80909e-07 2.1175 0 1.995 0 1.75ZM0 8.75C0 8.505 -1.80909e-07 8.38425 0.0139998 8.28275C0.0585449 7.96199 0.20655 7.66453 0.435539 7.43554C0.664528 7.20655 0.961989 7.05855 1.28275 7.014C1.3825 7 1.505 7 1.75 7C1.995 7 2.11575 7 2.21725 7.014C2.53801 7.05855 2.83547 7.20655 3.06446 7.43554C3.29345 7.66453 3.44145 7.96199 3.486 8.28275C3.5 8.3825 3.5 8.505 3.5 8.75C3.5 8.995 3.5 9.11575 3.486 9.21725C3.44145 9.53801 3.29345 9.83547 3.06446 10.0645C2.83547 10.2934 2.53801 10.4415 2.21725 10.486C2.1175 10.5 1.995 10.5 1.75 10.5C1.505 10.5 1.38425 10.5 1.28275 10.486C0.961989 10.4415 0.664528 10.2934 0.435539 10.0645C0.20655 9.83547 0.0585449 9.53801 0.0139998 9.21725C-1.80909e-07 9.1175 0 8.995 0 8.75ZM0 15.75C0 15.5068 -1.80909e-07 15.3842 0.0139998 15.2827C0.0588057 14.9626 0.206711 14.6657 0.435325 14.4371C0.663938 14.2085 0.960811 14.0606 1.281 14.0157C1.38425 14.0017 1.505 14.0018 1.74825 14.0018C1.9915 14.0018 2.11575 14.0017 2.2155 14.0157C2.53569 14.0606 2.83256 14.2085 3.06117 14.4371C3.28979 14.6657 3.43769 14.9626 3.4825 15.2827C3.4965 15.3842 3.4965 15.5068 3.4965 15.75C3.4965 15.9932 3.4965 16.1158 3.4825 16.2173C3.43769 16.5374 3.28979 16.8343 3.06117 17.0629C2.83256 17.2915 2.53569 17.4394 2.2155 17.4843C2.114 17.4983 1.9915 17.4982 1.74825 17.4982C1.505 17.4982 1.3825 17.4983 1.281 17.4843C0.960811 17.4394 0.663938 17.2915 0.435325 17.0629C0.206711 16.8343 0.0588057 16.5374 0.0139998 16.2173C-1.80909e-07 16.1158 0 15.9932 0 15.75Z" fill="black" fill-opacity="0.2"/>
</svg>
