<svg width="36" height="36" viewBox="0 0 36 36" fill="none" xmlns="http://www.w3.org/2000/svg">
<rect width="36" height="36" rx="18" fill="white"/>
<path fill-rule="evenodd" clip-rule="evenodd" d="M20.1445 12C20.1445 11.2044 20.4606 10.4413 21.0232 9.87868C21.5858 9.31607 22.3489 9 23.1445 9C23.9402 9 24.7032 9.31607 25.2659 9.87868C25.8285 10.4413 26.1445 11.2044 26.1445 12C26.1445 12.7956 25.8285 13.5587 25.2659 14.1213C24.7032 14.6839 23.9402 15 23.1445 15C22.3489 15 21.5858 14.6839 21.0232 14.1213C20.4606 13.5587 20.1445 12.7956 20.1445 12ZM20.1445 16.5C19.15 16.5 18.1961 16.8951 17.4929 17.5983C16.7896 18.3016 16.3945 19.2554 16.3945 20.25C16.3945 20.8467 16.6316 21.419 17.0535 21.841C17.4755 22.2629 18.0478 22.5 18.6445 22.5H27.6445C28.2413 22.5 28.8136 22.2629 29.2355 21.841C29.6575 21.419 29.8945 20.8467 29.8945 20.25C29.8945 19.2554 29.4994 18.3016 28.7962 17.5983C28.0929 16.8951 27.1391 16.5 26.1445 16.5H20.1445Z" fill="url(#paint0_linear_3642_27201)"/>
<path d="M17.5723 18.6768C18.8415 18.6768 20.0595 19.1806 20.957 20.0781C21.8545 20.9756 22.3584 22.1936 22.3584 23.4629C22.3583 24.2774 22.0349 25.0588 21.459 25.6348C20.883 26.2107 20.1016 26.5341 19.2871 26.5342H9.00098C8.18647 26.5341 7.40507 26.2107 6.8291 25.6348C6.25316 25.0588 5.92976 24.2774 5.92969 23.4629C5.92969 22.1936 6.43356 20.9756 7.33105 20.0781C8.22854 19.1807 9.4466 18.6768 10.7158 18.6768H17.5723ZM14.1436 10.1055C15.1854 10.1055 16.1851 10.5192 16.9219 11.2559C17.6586 11.9926 18.0723 12.9923 18.0723 14.0342C18.0722 15.076 17.6585 16.0748 16.9219 16.8115C16.1851 17.5483 15.1855 17.9629 14.1436 17.9629C13.1018 17.9628 12.1029 17.5482 11.3662 16.8115C10.6296 16.0748 10.2159 15.076 10.2158 14.0342C10.2158 12.9923 10.6295 11.9926 11.3662 11.2559C12.1028 10.5193 13.1019 10.1056 14.1436 10.1055Z" fill="url(#paint1_linear_3642_27201)" stroke="white"/>
<defs>
<linearGradient id="paint0_linear_3642_27201" x1="23.1445" y1="9" x2="23.1445" y2="22.5" gradientUnits="userSpaceOnUse">
<stop stop-color="#32E389"/>
<stop offset="1" stop-color="#1FC16F"/>
</linearGradient>
<linearGradient id="paint1_linear_3642_27201" x1="14.144" y1="10.6055" x2="14.144" y2="26.034" gradientUnits="userSpaceOnUse">
<stop stop-color="#32E389"/>
<stop offset="1" stop-color="#1FC16F"/>
</linearGradient>
</defs>
</svg>
