<svg width="361" height="160" viewBox="0 0 361 160" fill="none" xmlns="http://www.w3.org/2000/svg">
<g clip-path="url(#clip0_5204_40020)">
<rect width="361" height="160" rx="6" fill="#EBEBEB"/>
<g opacity="0.5">
<ellipse cx="149.683" cy="163.906" rx="22.2264" ry="17.7811" fill="url(#paint0_linear_5204_40020)"/>
<ellipse cx="212.097" cy="163.906" rx="22.2264" ry="17.7811" fill="url(#paint1_linear_5204_40020)"/>
<path d="M180.96 37.9922C187.996 37.9922 194.776 39.0253 201.142 40.9385C200.023 42.8134 199.378 45.0046 199.378 47.3467C199.378 52.7162 202.758 57.2955 207.506 59.0762C207.377 59.7977 207.31 60.5411 207.31 61.2998C207.31 68.2166 212.917 73.824 219.834 73.8242C221.57 73.8242 223.223 73.4696 224.727 72.8311C226.985 76.1123 230.766 78.2645 235.05 78.2646C237.676 78.2646 240.112 77.4545 242.125 76.0732C245.597 83.7012 247.521 92.1077 247.521 100.939C247.521 135.704 217.721 163.888 180.96 163.888C144.199 163.888 114.398 135.704 114.398 100.939C114.399 66.1745 144.199 37.9922 180.96 37.9922Z" fill="url(#paint2_linear_5204_40020)"/>
<circle cx="195.589" cy="96.6437" r="18.0421" fill="white"/>
<mask id="mask0_5204_40020" style="mask-type:alpha" maskUnits="userSpaceOnUse" x="177" y="78" width="37" height="37">
<circle cx="195.589" cy="96.6437" r="18.0421" fill="#D9D9D9"/>
</mask>
<g mask="url(#mask0_5204_40020)">
<circle cx="203.367" cy="94.6048" r="11.1986" fill="#202020"/>
<circle cx="203.367" cy="94.6048" r="11.1986" fill="black" fill-opacity="0.2"/>
</g>
<circle cx="165.413" cy="96.6437" r="18.0421" fill="white"/>
<mask id="mask1_5204_40020" style="mask-type:alpha" maskUnits="userSpaceOnUse" x="147" y="78" width="37" height="37">
<circle cx="165.413" cy="96.6437" r="18.0421" fill="#D9D9D9"/>
</mask>
<g mask="url(#mask1_5204_40020)">
<circle cx="173.195" cy="94.6048" r="11.1986" fill="#202020"/>
<circle cx="173.195" cy="94.6048" r="11.1986" fill="black" fill-opacity="0.2"/>
</g>
<path d="M163.773 120.141C166.036 131.377 178.073 136.059 185.728 126.904" stroke="#202020" stroke-width="4.35456" stroke-linecap="round"/>
<path d="M163.773 120.141C166.036 131.377 178.073 136.059 185.728 126.904" stroke="black" stroke-opacity="0.2" stroke-width="4.35456" stroke-linecap="round"/>
<path d="M150.909 69.9883C153.552 63.1916 163.937 59.1803 170.673 64.9374" stroke="#202020" stroke-width="4.35456" stroke-linecap="round"/>
<path d="M150.909 69.9883C153.552 63.1916 163.937 59.1803 170.673 64.9374" stroke="black" stroke-opacity="0.2" stroke-width="4.35456" stroke-linecap="round"/>
<g clip-path="url(#clip1_5204_40020)">
<path d="M136.232 21.357C136.046 18.6856 137.752 16.12 140.423 15.0617C143.093 14.0033 146.094 14.7033 147.788 16.7767C148.455 16.1249 149.228 15.6086 150.103 15.2618C151.704 14.6275 153.472 14.6072 155.019 15.2055C156.565 15.8038 157.764 16.9717 158.351 18.4522C159.357 20.992 158.366 23.9524 155.965 25.6468L159.507 34.5849C159.729 35.1438 159.455 35.7765 158.896 35.9981L141.307 42.9692C140.748 43.1907 140.116 42.9172 139.894 42.3582L136.352 33.4201C134.935 33.6213 133.512 33.3766 132.306 32.7241C131.1 32.0716 130.178 31.048 129.685 29.8132C129.098 28.3327 129.171 26.6609 129.888 25.1655C130.605 23.6701 131.907 22.4736 133.507 21.8392C134.383 21.4924 135.299 21.339 136.232 21.357Z" fill="#C3C3C3"/>
</g>
<path d="M150.886 124.574H210.838C215.234 124.574 213.835 126.581 214.835 126.581C216.833 126.581 215.834 124.775 216.833 124.574L226.825 122.567C228.873 122.125 229.822 126.597 227.624 127.189L217.652 129.166C216.763 129.367 216.563 129.999 216.553 130.511C215.834 167.772 145.89 167.772 145.111 130.511C145.101 129.989 144.911 129.357 144.012 129.166L134.04 127.179C132.401 126.808 133.001 122.145 134.809 122.557L144.891 124.574C145.89 124.775 144.891 126.581 146.89 126.581C147.889 126.581 146.49 124.574 150.886 124.574Z" fill="#202020"/>
<path d="M150.886 124.574H210.838C215.234 124.574 213.835 126.581 214.835 126.581C216.833 126.581 215.834 124.775 216.833 124.574L226.825 122.567C228.873 122.125 229.822 126.597 227.624 127.189L217.652 129.166C216.763 129.367 216.563 129.999 216.553 130.511C215.834 167.772 145.89 167.772 145.111 130.511C145.101 129.989 144.911 129.357 144.012 129.166L134.04 127.179C132.401 126.808 133.001 122.145 134.809 122.557L144.891 124.574C145.89 124.775 144.891 126.581 146.89 126.581C147.889 126.581 146.49 124.574 150.886 124.574Z" fill="black" fill-opacity="0.2"/>
<ellipse cx="136.213" cy="143.338" rx="16.3296" ry="13.018" transform="rotate(-112.004 136.213 143.338)" fill="#EA7C7C"/>
<ellipse cx="16.3296" cy="13.018" rx="16.3296" ry="13.018" transform="matrix(0.374673 -0.927157 -0.927157 -0.374673 231.07 163.355)" fill="#EA7C7C"/>
</g>
<path d="M53.1602 41.7129H41.8672V40.4688H44.4785V37.3447C43.9772 37.0531 43.5876 36.6908 43.3096 36.2578C43.0361 35.8249 42.9017 35.3372 42.9062 34.7949C42.9017 34.1523 43.0954 33.5827 43.4873 33.0859C43.8792 32.5892 44.4238 32.2064 45.1211 31.9375C45.8184 31.6641 46.6068 31.5273 47.4863 31.5273C48.3704 31.5273 49.1611 31.6641 49.8584 31.9375C50.5602 32.2064 51.1071 32.5892 51.499 33.0859C51.8955 33.5781 52.0938 34.1478 52.0938 34.7949C52.0938 35.3236 51.9593 35.8044 51.6904 36.2373C51.4261 36.6657 51.0501 37.0234 50.5625 37.3105V40.4688H53.1602V41.7129ZM47.4863 32.7305C46.8711 32.7305 46.3288 32.8148 45.8594 32.9834C45.3945 33.1475 45.0322 33.3844 44.7725 33.6943C44.5173 34.0042 44.3919 34.3711 44.3965 34.7949C44.3919 35.2142 44.5173 35.5788 44.7725 35.8887C45.0322 36.1986 45.3968 36.4378 45.8662 36.6064C46.3356 36.7751 46.8757 36.8594 47.4863 36.8594C48.097 36.8594 48.637 36.7751 49.1064 36.6064C49.5804 36.4378 49.9473 36.1986 50.207 35.8887C50.4714 35.5788 50.6035 35.2142 50.6035 34.7949C50.6035 34.3757 50.4714 34.0111 50.207 33.7012C49.9473 33.3867 49.5827 33.1475 49.1133 32.9834C48.6439 32.8148 48.1016 32.7305 47.4863 32.7305ZM49.0176 40.4688V37.8916C48.5345 37.9964 48.0241 38.0488 47.4863 38.0488C46.9714 38.0488 46.4701 37.9987 45.9824 37.8984V40.4688H49.0176ZM64.2617 43.2305H62.7578V30.8574H64.2617V43.2305ZM60.4609 36.5723H56.209V39.0605C57.2526 39.0514 58.2096 39.015 59.0801 38.9512C59.9551 38.8874 60.8483 38.778 61.7598 38.623L61.8965 39.8672C60.9167 40.0404 59.9528 40.1566 59.0049 40.2158C58.057 40.2751 56.9655 40.3047 55.7305 40.3047H54.6504V35.3691H58.916V33.168H54.6367V31.9375H60.4609V36.5723ZM75.8145 34.7539H77.5371V36.0117H75.8145V40.0996H74.2969V30.8711H75.8145V34.7539ZM73.4082 33.4551H66.0801V32.2383H68.9922V30.8574H70.5098V32.2383H73.4082V33.4551ZM69.7441 33.9609C70.332 33.9609 70.8538 34.0589 71.3096 34.2549C71.7653 34.4508 72.1208 34.7288 72.376 35.0889C72.6312 35.4443 72.7611 35.8568 72.7656 36.3262C72.7611 36.791 72.6312 37.2012 72.376 37.5566C72.1208 37.9076 71.7653 38.181 71.3096 38.377C70.8538 38.5684 70.332 38.6641 69.7441 38.6641C69.1517 38.6641 68.6253 38.5684 68.165 38.377C67.7048 38.181 67.347 37.9076 67.0918 37.5566C66.8366 37.2012 66.709 36.791 66.709 36.3262C66.709 35.8568 66.8366 35.4443 67.0918 35.0889C67.347 34.7288 67.7048 34.4508 68.165 34.2549C68.6253 34.0589 69.1517 33.9609 69.7441 33.9609ZM69.7441 35.1367C69.2656 35.1367 68.8851 35.2415 68.6025 35.4512C68.3245 35.6608 68.1855 35.9525 68.1855 36.3262C68.1855 36.6908 68.3268 36.9779 68.6094 37.1875C68.8919 37.3971 69.2702 37.4974 69.7441 37.4883C70.2181 37.4974 70.5986 37.3971 70.8857 37.1875C71.1729 36.9779 71.3164 36.6908 71.3164 36.3262C71.3164 35.9525 71.1729 35.6608 70.8857 35.4512C70.6032 35.2415 70.2227 35.1367 69.7441 35.1367ZM76.3066 42.9707H67.8984V39.375H69.416V41.7402H76.3066V42.9707ZM87.1074 31.1035C88.0143 31.1035 88.8005 31.1992 89.4658 31.3906C90.1357 31.582 90.6507 31.86 91.0107 32.2246C91.3753 32.5846 91.5599 33.013 91.5645 33.5098C91.5599 33.9974 91.3753 34.4189 91.0107 34.7744C90.6507 35.1299 90.1357 35.401 89.4658 35.5879C88.8005 35.7747 88.0143 35.8659 87.1074 35.8613C86.2096 35.8659 85.4235 35.7747 84.749 35.5879C84.0791 35.401 83.5618 35.1299 83.1973 34.7744C82.8327 34.4189 82.6504 33.9974 82.6504 33.5098C82.6504 33.013 82.8327 32.5846 83.1973 32.2246C83.5618 31.86 84.0791 31.582 84.749 31.3906C85.4235 31.1992 86.2096 31.1035 87.1074 31.1035ZM87.1074 32.293C86.196 32.293 85.4873 32.3978 84.9814 32.6074C84.4801 32.8171 84.2318 33.1178 84.2363 33.5098C84.2318 33.8835 84.4801 34.1706 84.9814 34.3711C85.4873 34.5716 86.196 34.6764 87.1074 34.6855C88.0189 34.6764 88.7275 34.5716 89.2334 34.3711C89.7393 34.1706 89.9922 33.8835 89.9922 33.5098C89.9922 33.1178 89.7393 32.8171 89.2334 32.6074C88.7275 32.3978 88.0189 32.293 87.1074 32.293ZM91.3867 43.0664H82.8145V38.9102H91.3867V43.0664ZM84.3184 41.8359H89.9102V40.1133H84.3184V41.8359ZM92.7539 37.9258H81.4883V36.6953H92.7539V37.9258ZM98.1953 32.6211C98.1953 33.1725 98.307 33.6989 98.5303 34.2002C98.7581 34.6969 99.0954 35.1367 99.542 35.5195C99.9932 35.9023 100.538 36.194 101.176 36.3945L100.424 37.5977C99.722 37.3607 99.1159 37.0189 98.6055 36.5723C98.0996 36.1211 97.7054 35.5879 97.4229 34.9727C97.1357 35.638 96.7324 36.2145 96.2129 36.7021C95.6979 37.1898 95.0827 37.5566 94.3672 37.8027L93.6016 36.6133C94.2487 36.39 94.7979 36.0732 95.249 35.6631C95.7048 35.2529 96.0465 34.7858 96.2744 34.2617C96.5068 33.7376 96.623 33.1908 96.623 32.6211V31.4453H98.1953V32.6211ZM103.883 43.2168H102.352V40.0312H95.4473V38.8145H103.883V43.2168ZM103.883 38.2539H102.352V30.8574H103.883V38.2539ZM113.426 33.8242C113.421 34.5625 113.537 35.2871 113.774 35.998C114.016 36.7044 114.365 37.3379 114.82 37.8984C115.276 38.459 115.814 38.8874 116.434 39.1836L115.504 40.4004C114.848 40.0677 114.278 39.5938 113.795 38.9785C113.316 38.3633 112.943 37.6523 112.674 36.8457C112.396 37.707 112.004 38.4681 111.498 39.1289C110.997 39.7852 110.4 40.2865 109.707 40.6328L108.777 39.416C109.42 39.1107 109.976 38.6663 110.445 38.083C110.919 37.4951 111.279 36.832 111.525 36.0938C111.776 35.3509 111.904 34.5944 111.908 33.8242V31.8555H113.426V33.8242ZM118.689 35.6973H120.59V36.9961H118.689V43.2168H117.172V30.8574H118.689V35.6973ZM125.799 33.373C125.799 33.8926 125.915 34.3939 126.147 34.877C126.38 35.3555 126.724 35.7839 127.18 36.1621C127.635 36.5358 128.182 36.8229 128.82 37.0234L128.041 38.2129C127.353 37.9896 126.756 37.6592 126.25 37.2217C125.744 36.7796 125.348 36.2601 125.061 35.6631C124.773 36.3148 124.368 36.8822 123.844 37.3652C123.324 37.8483 122.704 38.2129 121.984 38.459L121.205 37.2559C121.848 37.0417 122.397 36.7363 122.853 36.3398C123.313 35.9388 123.661 35.4831 123.898 34.9727C124.14 34.4577 124.263 33.9245 124.268 33.373V33.0176H121.602V31.8008H128.396V33.0176H125.799V33.373ZM131.404 39.8398H129.873V30.8711H131.404V39.8398ZM131.746 42.9707H123.229V39.0195H124.76V41.7402H131.746V42.9707ZM138.828 31.0488C139.767 31.0488 140.567 31.1309 141.228 31.2949C141.893 31.459 142.401 31.7005 142.752 32.0195C143.103 32.334 143.281 32.7168 143.285 33.168C143.281 33.8516 142.891 34.3757 142.116 34.7402C141.341 35.1048 140.245 35.2917 138.828 35.3008C137.406 35.2917 136.308 35.1048 135.533 34.7402C134.758 34.3757 134.371 33.8516 134.371 33.168C134.371 32.7168 134.547 32.334 134.897 32.0195C135.248 31.7005 135.757 31.459 136.422 31.2949C137.087 31.1309 137.889 31.0488 138.828 31.0488ZM138.828 32.1699C137.889 32.1699 137.176 32.2565 136.688 32.4297C136.201 32.5983 135.962 32.8444 135.971 33.168C135.966 33.5052 136.203 33.7559 136.682 33.9199C137.16 34.084 137.876 34.166 138.828 34.166C139.794 34.166 140.517 34.084 140.995 33.9199C141.474 33.7559 141.713 33.5052 141.713 33.168C141.713 32.8444 141.469 32.5983 140.981 32.4297C140.494 32.2565 139.776 32.1699 138.828 32.1699ZM144.475 37.1738H133.209V35.957H144.475V37.1738ZM143.066 41.0293H136.039V41.9453H143.408V43.1074H134.549V39.9492H141.576V39.1289H134.535V38.0078H143.066V41.0293ZM159.91 37.8301H148.631V36.5859H159.91V37.8301ZM158.611 35.6152H150.012V31.2539H158.543V32.4844H151.529V34.3984H158.611V35.6152ZM154.25 38.6914C155.134 38.6868 155.895 38.7734 156.533 38.9512C157.176 39.1243 157.668 39.3796 158.01 39.7168C158.352 40.054 158.525 40.4596 158.529 40.9336C158.525 41.4121 158.352 41.82 158.01 42.1572C157.668 42.499 157.178 42.7588 156.54 42.9365C155.902 43.1143 155.139 43.2031 154.25 43.2031C153.352 43.2031 152.58 43.1143 151.933 42.9365C151.29 42.7588 150.798 42.499 150.456 42.1572C150.114 41.82 149.943 41.4121 149.943 40.9336C149.943 40.4596 150.114 40.054 150.456 39.7168C150.798 39.3796 151.292 39.1243 151.939 38.9512C152.587 38.7734 153.357 38.6868 154.25 38.6914ZM154.25 39.8535C153.348 39.8535 152.66 39.9469 152.186 40.1338C151.712 40.3161 151.479 40.5827 151.488 40.9336C151.484 41.2936 151.716 41.5671 152.186 41.7539C152.655 41.9362 153.343 42.0273 154.25 42.0273C155.139 42.0273 155.82 41.9362 156.294 41.7539C156.768 41.5671 157.007 41.2936 157.012 40.9336C157.007 40.5872 156.766 40.3206 156.287 40.1338C155.813 39.9469 155.134 39.8535 154.25 39.8535ZM172.01 38.7734H160.717V37.543H165.611V36.5176H162.152V33.2363H169.098V32.3203H162.111V31.1309H170.615V34.3438H163.656V35.3281H170.861V36.5176H167.115V37.543H172.01V38.7734ZM170.684 43.1348H169.152V40.7559H161.975V39.5527H170.684V43.1348ZM182.51 35.7793H184.41V37.0371H182.51V43.2168H181.006V30.8574H182.51V35.7793ZM180.049 33.9746H172.762V32.7578H175.688V31.0352H177.205V32.7578H180.049V33.9746ZM176.453 34.7812C177.041 34.7812 177.57 34.9066 178.039 35.1572C178.513 35.4033 178.884 35.7474 179.153 36.1895C179.422 36.6315 179.557 37.1328 179.557 37.6934C179.557 38.2539 179.422 38.7552 179.153 39.1973C178.884 39.6348 178.513 39.9766 178.039 40.2227C177.57 40.4688 177.041 40.5918 176.453 40.5918C175.856 40.5918 175.321 40.4688 174.847 40.2227C174.373 39.9766 174.001 39.6348 173.732 39.1973C173.464 38.7552 173.331 38.2539 173.336 37.6934C173.331 37.1328 173.464 36.6315 173.732 36.1895C174.001 35.7474 174.373 35.4033 174.847 35.1572C175.321 34.9066 175.856 34.7812 176.453 34.7812ZM176.453 36.0254C176.13 36.0254 175.84 36.0938 175.585 36.2305C175.334 36.3672 175.138 36.5632 174.997 36.8184C174.856 37.069 174.785 37.3607 174.785 37.6934C174.785 38.026 174.856 38.3177 174.997 38.5684C175.138 38.8145 175.334 39.0059 175.585 39.1426C175.84 39.2747 176.13 39.3385 176.453 39.334C176.768 39.3385 177.048 39.2747 177.294 39.1426C177.545 39.0059 177.741 38.8145 177.882 38.5684C178.028 38.3177 178.103 38.026 178.107 37.6934C178.103 37.3607 178.028 37.069 177.882 36.8184C177.741 36.5677 177.545 36.374 177.294 36.2373C177.048 36.096 176.768 36.0254 176.453 36.0254ZM195.02 33.1816V33.332C195.015 34.0156 195.001 34.6104 194.979 35.1162C194.96 35.6175 194.917 36.2008 194.849 36.8662C194.78 37.527 194.673 38.2448 194.527 39.0195L192.996 38.8555C193.142 38.1354 193.249 37.4564 193.317 36.8184C193.386 36.1758 193.429 35.6061 193.447 35.1094C193.47 34.6126 193.484 34.0293 193.488 33.3594V33.209H186.105V31.9922H195.02V33.1816ZM196.195 41.6172H184.93V40.373H189.086V36.0801H190.59V40.373H196.195V41.6172ZM211.617 39.5254H206.723V43.2305H205.219V39.5254H200.352V38.2812H211.617V39.5254ZM210.564 33.5234H206.75C206.8 33.9382 207.005 34.3415 207.365 34.7334C207.725 35.1253 208.217 35.4648 208.842 35.752C209.466 36.0391 210.177 36.2305 210.975 36.3262L210.414 37.5293C209.411 37.4017 208.523 37.1305 207.748 36.7158C206.978 36.2965 206.388 35.7839 205.978 35.1777C205.567 35.7884 204.975 36.3011 204.2 36.7158C203.425 37.1305 202.53 37.4017 201.514 37.5293L200.967 36.3262C201.764 36.2305 202.475 36.0413 203.1 35.7588C203.724 35.4717 204.218 35.1322 204.583 34.7402C204.948 34.3483 205.155 33.9427 205.205 33.5234H201.391V32.3203H205.219V30.8711H206.723V32.3203H210.564V33.5234ZM222.131 35.6836H223.963V36.9551H222.131V43.1895H220.613V30.8574H222.131V35.6836ZM218.863 32.1426C218.863 36.1986 216.99 39.1471 213.244 40.9883L212.383 39.8125C213.887 39.0651 215.047 38.1605 215.862 37.0986C216.683 36.0368 217.17 34.804 217.325 33.4004H213.053V32.1426H218.863ZM237.812 32.7031C237.812 33.5827 237.787 34.3688 237.737 35.0615C237.692 35.7497 237.578 36.5358 237.396 37.4199H239.139V38.6504H234.271V43.1895H232.74V38.6504H227.873V37.4199H235.898C236.053 36.7272 236.167 36.0618 236.24 35.4238L229.035 35.7793L228.844 34.4805L236.329 34.2617C236.338 34.0612 236.345 33.863 236.35 33.667C236.354 33.471 236.359 33.2773 236.363 33.0859V32.7988H229.227V31.582H237.812V32.7031ZM246.672 32.0742C246.667 33.4232 246.499 34.6468 246.166 35.7451C245.833 36.8434 245.245 37.8665 244.402 38.8145C243.564 39.7578 242.411 40.5872 240.943 41.3027L240.137 40.127C241.185 39.6165 242.051 39.0514 242.734 38.4316C243.423 37.8073 243.958 37.1191 244.341 36.3672L240.41 36.7227L240.219 35.4238L244.826 35.1367C244.986 34.5944 245.095 33.9837 245.154 33.3047H240.848V32.0742H246.672ZM250.295 43.2168H248.764V30.8574H250.295V43.2168ZM263.352 37.6113H252.059V36.4629H263.352V37.6113ZM261.984 41.166H254.902V42.0273H262.354V43.0801H253.385V40.1816H260.48V39.416H253.371V38.3496H261.984V41.166ZM261.957 33.9199H254.998V34.7266H262.176V35.7656H253.494V32.9355H260.439V32.1836H253.453V31.1309H261.957V33.9199ZM277.242 33.7285H278.965V34.9863H277.242V38.0625H275.725V30.8574H277.242V33.7285ZM269.422 33.2637H272.307V31.582H273.811V37.4062H267.918V31.582H269.422V33.2637ZM272.307 36.2031V34.4395H269.422V36.2031H272.307ZM277.324 39.8809H270.789V41.8359H277.557V43.0391H269.271V38.6641H277.324V39.8809ZM285.213 31.5547C286.079 31.5547 286.863 31.7005 287.564 31.9922C288.266 32.2793 288.818 32.6872 289.219 33.2158C289.62 33.7445 289.82 34.3529 289.82 35.041C289.82 35.7383 289.62 36.3535 289.219 36.8867C288.818 37.4154 288.266 37.8255 287.564 38.1172C286.867 38.4089 286.083 38.5547 285.213 38.5547C284.347 38.5547 283.565 38.4089 282.868 38.1172C282.171 37.8255 281.622 37.4154 281.221 36.8867C280.824 36.3535 280.628 35.7383 280.633 35.041C280.628 34.3529 280.824 33.7445 281.221 33.2158C281.622 32.6872 282.171 32.2793 282.868 31.9922C283.565 31.7005 284.347 31.5547 285.213 31.5547ZM285.213 32.7852C284.62 32.7806 284.087 32.8717 283.613 33.0586C283.139 33.2454 282.768 33.512 282.499 33.8584C282.23 34.2002 282.096 34.5944 282.096 35.041C282.096 35.4967 282.23 35.8978 282.499 36.2441C282.768 36.5859 283.137 36.8503 283.606 37.0371C284.08 37.2194 284.616 37.3105 285.213 37.3105C285.814 37.3105 286.35 37.2194 286.819 37.0371C287.293 36.8503 287.662 36.5859 287.927 36.2441C288.196 35.8978 288.33 35.4967 288.33 35.041C288.33 34.5944 288.196 34.2002 287.927 33.8584C287.662 33.512 287.293 33.2454 286.819 33.0586C286.345 32.8717 285.81 32.7806 285.213 32.7852ZM290.887 41.6582H279.594V40.4141H290.887V41.6582ZM295.549 34.0977C295.549 34.7904 295.631 35.4626 295.795 36.1143C295.964 36.766 296.226 37.363 296.581 37.9053C296.937 38.4476 297.381 38.8874 297.914 39.2246L297.08 40.3867C296.542 40.0632 296.087 39.6302 295.713 39.0879C295.339 38.541 295.045 37.9144 294.831 37.208C294.599 37.9782 294.282 38.6618 293.881 39.2588C293.48 39.8558 292.997 40.3275 292.432 40.6738L291.488 39.5391C292.067 39.1882 292.55 38.7279 292.938 38.1582C293.325 37.5885 293.612 36.9619 293.799 36.2783C293.99 35.5947 294.086 34.8906 294.086 34.166V31.9512H295.549V34.0977ZM302.357 43.2168H300.895V30.8574H302.357V43.2168ZM299.787 42.6152H298.352V36.3672H296.588V35.1094H298.352V31.0762H299.787V42.6152ZM315.086 41.7129H303.793V40.4688H306.404V37.3447C305.903 37.0531 305.513 36.6908 305.235 36.2578C304.962 35.8249 304.827 35.3372 304.832 34.7949C304.827 34.1523 305.021 33.5827 305.413 33.0859C305.805 32.5892 306.35 32.2064 307.047 31.9375C307.744 31.6641 308.533 31.5273 309.412 31.5273C310.296 31.5273 311.087 31.6641 311.784 31.9375C312.486 32.2064 313.033 32.5892 313.425 33.0859C313.821 33.5781 314.02 34.1478 314.02 34.7949C314.02 35.3236 313.885 35.8044 313.616 36.2373C313.352 36.6657 312.976 37.0234 312.488 37.3105V40.4688H315.086V41.7129ZM309.412 32.7305C308.797 32.7305 308.255 32.8148 307.785 32.9834C307.32 33.1475 306.958 33.3844 306.698 33.6943C306.443 34.0042 306.318 34.3711 306.322 34.7949C306.318 35.2142 306.443 35.5788 306.698 35.8887C306.958 36.1986 307.323 36.4378 307.792 36.6064C308.261 36.7751 308.801 36.8594 309.412 36.8594C310.023 36.8594 310.563 36.7751 311.032 36.6064C311.506 36.4378 311.873 36.1986 312.133 35.8887C312.397 35.5788 312.529 35.2142 312.529 34.7949C312.529 34.3757 312.397 34.0111 312.133 33.7012C311.873 33.3867 311.508 33.1475 311.039 32.9834C310.57 32.8148 310.027 32.7305 309.412 32.7305ZM310.943 40.4688V37.8916C310.46 37.9964 309.95 38.0488 309.412 38.0488C308.897 38.0488 308.396 37.9987 307.908 37.8984V40.4688H310.943ZM318.285 39.0879H316.74L316.576 32.1016H318.436L318.285 39.0879ZM317.52 42.1094C317.328 42.1094 317.15 42.0615 316.986 41.9658C316.822 41.8701 316.692 41.7402 316.597 41.5762C316.501 41.4121 316.453 41.2344 316.453 41.043C316.453 40.8561 316.501 40.6829 316.597 40.5234C316.692 40.3594 316.822 40.2295 316.986 40.1338C317.15 40.0381 317.328 39.9902 317.52 39.9902C317.702 39.9902 317.873 40.0381 318.032 40.1338C318.196 40.2295 318.326 40.3594 318.422 40.5234C318.522 40.6829 318.572 40.8561 318.572 41.043C318.572 41.2344 318.522 41.4121 318.422 41.5762C318.326 41.7402 318.196 41.8701 318.032 41.9658C317.873 42.0615 317.702 42.1094 317.52 42.1094Z" fill="#7D7D7D"/>
</g>
<defs>
<linearGradient id="paint0_linear_5204_40020" x1="149.683" y1="146.125" x2="149.683" y2="181.687" gradientUnits="userSpaceOnUse">
<stop offset="0.5" stop-color="#202020"/>
<stop offset="1" stop-color="#474747"/>
</linearGradient>
<linearGradient id="paint1_linear_5204_40020" x1="212.097" y1="146.125" x2="212.097" y2="181.687" gradientUnits="userSpaceOnUse">
<stop offset="0.5" stop-color="#202020"/>
<stop offset="1" stop-color="#474747"/>
</linearGradient>
<linearGradient id="paint2_linear_5204_40020" x1="180.96" y1="37.9922" x2="180.96" y2="163.888" gradientUnits="userSpaceOnUse">
<stop stop-color="#32E389"/>
<stop offset="1" stop-color="#1FC16F"/>
</linearGradient>
<clipPath id="clip0_5204_40020">
<rect width="361" height="160" rx="6" fill="white"/>
</clipPath>
<clipPath id="clip1_5204_40020">
<rect width="36.0275" height="36.0275" fill="white" transform="translate(121.836 17.1523) rotate(-21.6198)"/>
</clipPath>
</defs>
</svg>
