<svg xmlns="http://www.w3.org/2000/svg" width="100" height="88" fill="none" viewBox="0 0 100 88"><path fill="#83bf4f" d="M49.326 16.085c1.238 2.812-.562 12.262-.562 12.262s-8.438-4.95-9.675-7.762c-1.238-2.813 0-6.075 2.812-7.313 2.813-1.237 6.188 0 7.425 2.813"/><path fill="#947151" d="M51.464 28.906H48.54c0-4.838 2.7-13.05 13.5-13.05v2.925c-9.787 0-10.575 9.225-10.575 10.125"/><path fill="#ef4d3c" d="M50.002 28.29c-7.768-7.87-30.857-8.189-30.857 14.36 0 14.252 16.811 34.78 24.153 34.78 3.299 0 4.47-2.128 6.49-2.128 1.916 0 2.555 2.128 6.81 2.128 7.343 0 24.26-20.422 24.26-34.78 0-22.549-23.089-22.23-30.856-14.36"/></svg>