<svg xmlns="http://www.w3.org/2000/svg" width="100" height="88" fill="none" viewBox="0 0 100 88"><path fill="#ca694d" d="M41.642 24.496a9 9 0 0 0-12.3 3.27c-2.004 3.456-1.054 3.718-4.192 9.128-3.154 5.438-3.82 4.684-5.842 8.172a9 9 0 0 0 3.27 12.3c13.146 7.628 32.838-24.88 19.064-32.87"/><path fill="#ae3d2f" d="M44.759 27.504c3.454 11.938-12.222 33.822-23.258 27.42a8.9 8.9 0 0 1-3.114-3.088 8.96 8.96 0 0 0 4.192 5.53c11.846 6.872 29.038-18.856 22.18-29.862"/><path fill="#f6cfb2" d="M25.653 42.498c-1.38-.8-.556-1.528 1.228-4.6 1.782-3.074 2.004-4.15 3.384-3.35 2.276 1.32-2.336 9.272-4.612 7.95"/><path fill="#ca694d" d="M73.095 59.914A9 9 0 0 0 62.25 53.25c-3.886.928-3.42 1.798-9.506 3.25-6.114 1.46-6.026.458-9.948 1.394a9 9 0 0 0-6.664 10.844c3.53 14.786 40.66 6.664 36.962-8.824"/><path fill="#ae3d2f" d="M36.75 70.423c5.468 11.498 34.954 5.444 36.518-7.31-4.93 9.764-27.98 14.288-36.518 7.31"/><path fill="#f6cfb2" d="M49.033 60.723c-.37-1.552.724-1.454 4.18-2.28s4.388-1.406 4.76.146c.61 2.56-8.33 4.694-8.94 2.134"/><path fill="#ca694d" d="M72.9 46.963A9 9 0 0 0 76.958 34.9c-1.778-3.578-2.52-2.93-5.302-8.532-2.796-5.63-1.8-5.77-3.592-9.38A9 9 0 0 0 56 12.927c-13.616 6.762 2.638 41.118 16.9 34.036"/><path fill="#ae3d2f" d="M73.761 44.305c-11.358 5.64-24.146-15.148-21.714-27.274-5.324 11.3 8.578 36.026 20.852 29.932a8.98 8.98 0 0 0 4.882-6.714 8.9 8.9 0 0 1-4.02 4.056"/><path fill="#f6cfb2" d="M66.705 23.696c1.43-.71 1.58.38 3.16 3.562s2.356 3.96.928 4.67c-2.358 1.17-6.446-7.062-4.088-8.232"/></svg>