<svg xmlns="http://www.w3.org/2000/svg" width="31" height="31" fill="none" viewBox="0 0 31 31"><path fill="#ebebeb" stroke="#c3c3c3" stroke-linecap="round" stroke-linejoin="round" stroke-width="1.5" d="M7.75 10.574c0-.989 0-1.483.282-1.86.247-.332.642-.602 1.129-.772.552-.192 1.276-.192 2.722-.192h7.234c1.446 0 2.17 0 2.723.192.486.17.88.44 1.128.772.282.377.282.871.282 1.86v11.74c0 .429 0 .643-.13.76a.6.6 0 0 1-.211.124.9.9 0 0 1-.267.052c-.216.008-.477-.11-.999-.348L15.5 20.104 9.357 22.9c-.522.238-.783.357-1 .349a.9.9 0 0 1-.266-.052.6.6 0 0 1-.21-.123c-.131-.117-.131-.332-.131-.76z"/></svg>