<svg xmlns="http://www.w3.org/2000/svg" width="48" height="48" fill="none" viewBox="0 0 48 48"><g clip-path="url(#a)"><path fill="#96e8be" d="M24 48c13.255 0 24-10.745 24-24S37.255 0 24 0 0 10.745 0 24s10.745 24 24 24" opacity=".5"/><path fill="#1fc16f" d="M16.077 17.958c-.447-5.025-4.29-9.708-6.158-11.42l-1.028-.893A23.7 23.7 0 0 1 24.268 0a23.7 23.7 0 0 1 14.148 4.669c.56 1.714-.506 5.295-1.626 7.007-.406.62-1.325 1.392-2.334 2.122-2.272 1.647-5.142 2.46-6.6 5.494a3.45 3.45 0 0 0-.199 2.45c.143.53.24 1.107.24 1.668.004 1.821-1.823 3.135-3.629 3.116-4.697-.05-7.772-3.868-8.19-8.568m11.628 21.29c2.363-4.49 10.238-4.49 10.238-4.49 8.208-.086 9.317-5.112 10.059-7.65a24.2 24.2 0 0 1-6.697 13.931A23.86 23.86 0 0 1 27.59 48c-.773-1.64-1.686-5.33.115-8.751"/></g><defs><clipPath id="a"><path fill="#fff" d="M0 0h48v48H0z"/></clipPath></defs></svg>