<svg xmlns="http://www.w3.org/2000/svg" width="37" height="37" fill="none" viewBox="0 0 37 37"><path fill="#44911b" d="M18.551 27.153a.55.55 0 0 1-.552-.552v-2.34l-2.982-.892-2.099-1.792 5.08 1.522v-.338c0-1.228.345-2.443 1.032-3.474q.307-.466.51-.982l-2.72-.813-3.167-2.112 6.178 1.852q.07-.427.07-.866V13.79h1.105v2.577q0 .214-.015.425l4.763-1.424-3.684 2.265-1.278.38a6.3 6.3 0 0 1-.83 1.853 5.27 5.27 0 0 0-.86 2.897v1.217l5.069-1.52-3.112 2.097-1.956.585v1.46a.55.55 0 0 1-.552.552"/><path fill="#86d72f" d="M20.275 6.088c-2.248 2.615-2.314 6.925-.144 9.633.1.12.266.134.365.013 2.249-2.614 2.315-6.923.145-9.632-.1-.134-.266-.135-.366-.014M11.99 17.691l-4.296-1.288a4.585 4.585 0 0 0 3.056 5.694l4.296 1.289a4.56 4.56 0 0 0-3.056-5.695m16.42-.11-4.295 1.288c-2.417.737-3.792 3.277-3.056 5.695l4.296-1.289a4.585 4.585 0 0 0 3.056-5.694m-14.616-5.768-4.296-1.29a4.59 4.59 0 0 0 3.069 5.695l4.295 1.29a4.58 4.58 0 0 0-3.068-5.695m15.623-1.154-4.295 1.288a4.55 4.55 0 0 0-3.056 5.695l4.295-1.289a4.585 4.585 0 0 0 3.056-5.694"/><path fill="#916e60" d="M18.556 26.75c-1.508 0-2.954.545-4.02 1.515s-1.665 2.285-1.665 3.656h11.376c0-2.856-2.545-5.171-5.691-5.171"/></svg>