<svg xmlns="http://www.w3.org/2000/svg" width="100" height="88" fill="none" viewBox="0 0 100 88"><path fill="#f3ad61" d="M66.329 14.583c-9.45-4.455-20.745-1.575-26.91 6.84l-11.79 16.065c-8.888 12.105-4.5 29.317 9.09 35.707 11.992 5.648 26.257.428 31.815-11.587l8.347-18.09c5.017-10.89.315-23.805-10.552-28.935"/><path fill="#df9c54" d="M62.077 22.728a3.15 3.15 0 1 1-6.299 0 3.15 3.15 0 0 1 6.3 0M55.62 42.483a4.118 4.118 0 1 0 0-8.235 4.118 4.118 0 0 0 0 8.235m-19.125 12.06a3.78 3.78 0 1 0 0-7.56 3.78 3.78 0 0 0 0 7.56m5.557 7.178a2.61 2.61 0 1 1-5.22 0 2.61 2.61 0 0 1 5.22 0M69.12 43.586a2.61 2.61 0 1 0 0-5.22 2.61 2.61 0 0 0 0 5.22"/></svg>