<svg xmlns="http://www.w3.org/2000/svg" width="37" height="37" fill="none" viewBox="0 0 37 37"><path fill="#916e60" fill-rule="evenodd" d="M22.455 21.31a8.7 8.7 0 0 1 2.53-.142q.235.023.466.048.135.021.268.048.01.004.011.015.215 1.279.069 2.568a7.4 7.4 0 0 1-.348 1.546q-.252.702-.666 1.319a9 9 0 0 1-.39.492q-.2.204-.409.397-.354.29-.745.527a7 7 0 0 1-.735.358q-.189.075-.38.14a8.6 8.6 0 0 1-2.318.364q-.487.012-.973-.02-.375-.027-.75-.063a16.844 16.844 0 0 1-.063-.923q-.038-.91.075-1.815c.058-.421.148-.84.269-1.248q.255-.806.725-1.505.117-.15.228-.304.3-.358.657-.661l.015-.006q.135-.114.28-.218a5.7 5.7 0 0 1 1.134-.608 7.4 7.4 0 0 1 1.05-.309m1.526 1.577q-.296.011-.594.038-.187.024-.375.06-1.718.353-2.603 1.854a5.36 5.36 0 0 0-.666 2.4q.006.006.01-.002.505-1.024 1.213-1.911.148-.171.29-.345.277-.297.565-.585a7 7 0 0 0 .243-.219q.634-.561 1.374-.978.316-.183.66-.309a1 1 0 0 0-.117-.003M24.513 8.447a8.7 8.7 0 0 1 2.53-.143l.466.05q.135.02.269.047.009.005.01.016.214 1.278.07 2.567a7.4 7.4 0 0 1-.349 1.546 6 6 0 0 1-.666 1.318 9 9 0 0 1-.39.492q-.2.204-.408.398-.354.29-.746.527a7 7 0 0 1-.735.358q-.188.075-.38.14a8.6 8.6 0 0 1-2.317.365q-.487.01-.973-.021-.376-.028-.75-.063a16.824 16.824 0 0 1-.064-.923q-.038-.91.076-1.815.087-.634.268-1.247.256-.807.726-1.506.117-.15.228-.304.3-.36.657-.662l.014-.004q.136-.115.28-.22a5.7 5.7 0 0 1 1.136-.608 7.4 7.4 0 0 1 1.048-.308m1.527 1.577q-.297.011-.594.038-.188.023-.375.06-1.719.352-2.604 1.854a5.36 5.36 0 0 0-.666 2.4q.007.006.01-.002a10.6 10.6 0 0 1 1.214-1.912q.147-.17.29-.344.277-.298.564-.585a7 7 0 0 0 .244-.219q.633-.561 1.374-.979.315-.183.659-.308a1 1 0 0 0-.116-.003M12.03 13.583a8.7 8.7 0 0 0-2.53-.142l-.467.048q-.135.021-.268.048a.02.02 0 0 0-.01.015 9.2 9.2 0 0 0-.068 2.568 7.4 7.4 0 0 0 .346 1.547q.252.703.667 1.318.187.253.391.491.2.205.408.399.354.29.745.526.358.2.736.358.187.075.38.14a8.6 8.6 0 0 0 2.316.364q.488.012.974-.02.375-.027.75-.064.023-.21.036-.42.017-.25.027-.501.037-.912-.075-1.816a8.4 8.4 0 0 0-.27-1.247 5.8 5.8 0 0 0-.724-1.506q-.117-.15-.229-.303-.3-.36-.656-.663l-.015-.005a5 5 0 0 0-.279-.217 5.7 5.7 0 0 0-1.136-.609 7.4 7.4 0 0 0-1.049-.31m-1.526 1.577q.296.011.593.038.19.023.376.061 1.718.351 2.602 1.853.617 1.122.667 2.4-.006.006-.01-.003a10.6 10.6 0 0 0-1.214-1.91 14 14 0 0 1-.29-.345 23 23 0 0 0-.564-.585 8 8 0 0 1-.244-.218q-.634-.562-1.373-.979a4 4 0 0 0-.66-.31q.06-.003.117-.002" clip-rule="evenodd"/></svg>