<svg xmlns="http://www.w3.org/2000/svg" width="100" height="88" fill="none" viewBox="0 0 100 88"><path fill="#f22e2e" d="M71.988 33.75c-9.44-9.44-35.143-24.662-41.46-2.723-6.318 21.94-19.065 31.065-8.142 41.987 10.922 10.923 80.074-8.793 49.602-39.264"/><path fill="#fd7c7c" d="m42.02 28.99-.033.074c-.023.044-.053.119-.098.196-.045.08-.097.18-.163.283a5.5 5.5 0 0 1-.512.691q-.162.187-.337.36-.369.362-.79.66-.408.292-.862.503a3.909 3.909 0 0 1-1.177.35q-.162.02-.284.023a1.277 1.277 0 0 1-1.168-1.951s.053-.086.16-.206q.08-.091.2-.203a3.9 3.9 0 0 1 1.023-.678c.287-.136.607-.252.94-.339q.498-.132 1.012-.183a6.6 6.6 0 0 1 .95-.016q.218.015.402.04c.12.015.232.04.321.057.089.015.165.04.214.05l.077.023a.203.203 0 0 1 .126.259zm21.438 14.063q-.002 0-.052.053c-.03.035-.082.086-.131.15-.051.065-.118.144-.18.233a4.6 4.6 0 0 0-.388.656 4.81 4.81 0 0 0-.406 1.247c-.053.29-.073.578-.063.847a2.957 2.957 0 0 0 .215 1.024q.056.13.107.224c.068.124.125.194.125.194q.115.14.262.245c.607.432 1.45.29 1.88-.316 0 0 .053-.074.112-.202q.046-.096.093-.23a2.9 2.9 0 0 0 .146-1.036 4 4 0 0 0-.118-.841 4.8 4.8 0 0 0-.489-1.218 4.5 4.5 0 0 0-.43-.628c-.068-.086-.14-.16-.195-.22-.053-.062-.11-.11-.14-.142l-.056-.05a.22.22 0 0 0-.292.01m-10.36 1.084q-.002-.002-.071-.023c-.044-.011-.113-.036-.193-.052-.08-.017-.18-.043-.288-.059q-.377-.06-.759-.059a4.778 4.778 0 0 0-1.297.185 4 4 0 0 0-.787.317 2.902 2.902 0 0 0-.823.644q-.093.106-.153.194a1.4 1.4 0 0 0-.119.197 1.35 1.35 0 0 0 1.009 1.892s.09.015.23.012q.124-.003.246-.019a2.9 2.9 0 0 0 .994-.325c.239-.125.478-.287.702-.477a4.8 4.8 0 0 0 .876-.974 4.6 4.6 0 0 0 .374-.663c.046-.098.08-.196.111-.272.032-.074.05-.146.065-.189l.02-.072a.22.22 0 0 0-.137-.257m-22.361 5.92q-.001-.002-.07-.023c-.045-.01-.114-.036-.194-.051-.08-.018-.18-.043-.288-.06q-.376-.06-.758-.059-.216.002-.43.02a5 5 0 0 0-.868.165c-.282.08-.55.189-.787.317a2.92 2.92 0 0 0-.823.644q-.092.107-.153.195c-.081.114-.119.197-.119.197a1.35 1.35 0 0 0 1.009 1.892s.09.014.23.011a2.3 2.3 0 0 0 .549-.076 3 3 0 0 0 .691-.267 4 4 0 0 0 .702-.477 4.8 4.8 0 0 0 .876-.974q.215-.316.374-.663c.046-.099.081-.196.111-.272.032-.075.05-.147.065-.19s.02-.071.02-.071a.22.22 0 0 0-.137-.258M38.54 39.98q-.002-.001-.072-.005c-.045 0-.117-.008-.195-.004-.08.003-.18.002-.286.013a4.3 4.3 0 0 0-1.12.244 4.16 4.16 0 0 0-.767.36 3.6 3.6 0 0 0-.648.488 2.8 2.8 0 0 0-.448.547q-.143.227-.23.48c-.022.063-.033.12-.044.156l-.012.059q-.015.13-.007.26c.05.767.713 1.348 1.48 1.298 0 0 .023-.001.06-.008.036-.009.094-.016.158-.035q.258-.073.493-.202c.186-.102.384-.242.571-.418a3.6 3.6 0 0 0 .523-.618 4 4 0 0 0 .403-.745q.081-.19.143-.388.113-.352.164-.717c.016-.105.021-.205.028-.285.009-.078.005-.15.008-.195 0-.046-.002-.073-.002-.073a.23.23 0 0 0-.2-.212m15.197-5.995a.207.207 0 0 0-.06-.285q0-.002-.069-.04c-.044-.023-.11-.065-.19-.1-.082-.037-.181-.087-.292-.13a5 5 0 0 0-.801-.251 6 6 0 0 0-.472-.09 6 6 0 0 0-.997-.06 5 5 0 0 0-.961.108 3.69 3.69 0 0 0-1.114.418q-.138.08-.233.15c-.128.091-.197.162-.197.162a1.29 1.29 0 0 0 .438 2.099s.092.036.246.07q.115.024.273.044a3.7 3.7 0 0 0 1.189-.064q.475-.098.924-.286.463-.19.89-.454a6 6 0 0 0 .742-.551q.15-.13.287-.27c.084-.085.155-.17.215-.237.06-.065.104-.13.135-.168zm1.505 18.995-.054.056c-.03.036-.085.09-.136.157s-.122.15-.186.244a5 5 0 0 0-.409.69 5.446 5.446 0 0 0-.445 1.325 4.5 4.5 0 0 0-.09.906 3.322 3.322 0 0 0 .182 1.107q.052.142.101.243c.064.135.119.212.119.212q.129.18.31.31c.593.42 1.414.28 1.834-.313 0 0 .054-.077.118-.212q.049-.102.099-.244a3.3 3.3 0 0 0 .18-1.107c0-.29-.03-.598-.093-.907a5.4 5.4 0 0 0-.45-1.323 5 5 0 0 0-.41-.69c-.064-.093-.134-.175-.187-.242-.051-.068-.106-.12-.137-.157q-.051-.054-.053-.055a.214.214 0 0 0-.293 0m-3.417 10.603q-.002-.001-.07.034c-.04.024-.11.056-.18.102-.073.046-.166.1-.258.167a5 5 0 0 0-.93.846q-.307.36-.55.767-.235.392-.388.824a3.306 3.306 0 0 0-.199 1.104q.001.15.013.263c.015.148.04.24.04.24q.064.212.19.395a1.315 1.315 0 0 0 1.832.32s.078-.055.182-.161a2.6 2.6 0 0 0 .367-.464c.129-.2.25-.443.349-.715a4.5 4.5 0 0 0 .217-.885 5.4 5.4 0 0 0 .02-1.398 5 5 0 0 0-.156-.786c-.03-.11-.068-.211-.096-.293-.025-.08-.06-.148-.076-.193l-.032-.07a.214.214 0 0 0-.275-.097m15.568-10.594a.2.2 0 0 0-.278-.032s-.024.019-.064.055c-.037.036-.099.089-.164.158q-.265.272-.49.58a7.046 7.046 0 0 0-.528.846q-.252.482-.428.998a6 6 0 0 0-.256 1.026 5 5 0 0 0-.058.921q.01.206.032.377.025.17.054.295c.038.165.078.263.078.263a1.257 1.257 0 0 0 2.117.34s.068-.08.155-.225q.067-.109.144-.264a4.3 4.3 0 0 0 .382-1.24c.055-.333.082-.691.078-1.055a7 7 0 0 0-.093-1.082 7 7 0 0 0-.237-.97 5.5 5.5 0 0 0-.284-.703c-.04-.086-.083-.155-.107-.202-.026-.047-.043-.072-.043-.072zm-21.509 4.85q-.002 0-.075.018c-.045.013-.12.028-.2.057-.08.028-.184.059-.29.103q-.373.15-.718.356a5.439 5.439 0 0 0-1.095.868 4.5 4.5 0 0 0-.568.712 3.297 3.297 0 0 0-.45 1.028q-.035.146-.049.259c-.02.147-.016.242-.016.242a1.315 1.315 0 0 0 1.8 1.165s.088-.035.215-.114q.095-.06.216-.15a3.3 3.3 0 0 0 .753-.83q.25-.385.416-.811a5.4 5.4 0 0 0 .344-1.355q.047-.4.032-.8c-.004-.115-.018-.222-.026-.307-.006-.085-.023-.159-.029-.206-.008-.048-.015-.076-.015-.076a.21.21 0 0 0-.245-.159m-15.553 2.996a.163.163 0 0 0-.155-.17l-.062-.002c-.038.001-.098-.003-.166.002-.068.004-.154.006-.245.017a4 4 0 0 0-.976.234 4 4 0 0 0-.682.324 3.2 3.2 0 0 0-1.016.9q-.075.108-.14.223a2 2 0 0 0-.092.19 1.04 1.04 0 0 0 1.075 1.464s.074-.01.189-.042a2 2 0 0 0 .436-.183c.336-.18.712-.499 1.014-.903a4.2 4.2 0 0 0 .553-.97 4 4 0 0 0 .195-.611c.022-.089.034-.174.046-.242.013-.066.016-.127.021-.164l.005-.062zm39.941-17.63s-.008.028-.018.076c-.008.046-.029.12-.04.204-.011.085-.03.19-.039.304a5 5 0 0 0-.007.802q.015.222.05.454c.05.306.126.618.229.916.101.298.23.58.377.829a3.31 3.31 0 0 0 .713.866q.116.097.209.16c.122.085.208.124.208.124a1.315 1.315 0 0 0 1.854-1.078s.009-.094-.005-.242a3 3 0 0 0-.036-.261 3.3 3.3 0 0 0-.4-1.048 4.5 4.5 0 0 0-.534-.738 5.5 5.5 0 0 0-1.052-.92 5 5 0 0 0-.7-.39c-.104-.049-.205-.085-.285-.116-.078-.033-.152-.051-.197-.067l-.074-.021a.213.213 0 0 0-.253.147m-29.093 9.67q-.002-.001-.077 0c-.047.003-.123 0-.207.01-.086.009-.193.016-.306.034a5 5 0 0 0-1.209.34q-.436.184-.836.44a4.5 4.5 0 0 0-.715.564 3.304 3.304 0 0 0-.672.898q-.067.135-.107.24a1.5 1.5 0 0 0-.07.233 1.315 1.315 0 0 0 1.488 1.544c-.001 0 .093-.014.234-.062a3 3 0 0 0 .244-.097q.15-.07.291-.153c.205-.122.423-.285.632-.485s.411-.435.59-.694a5.4 5.4 0 0 0 .643-1.24 5 5 0 0 0 .213-.774c.023-.112.034-.219.046-.304.013-.083.013-.16.018-.206q.004-.076.003-.078a.213.213 0 0 0-.203-.21m-3.93 14.572a.16.16 0 0 0-.112-.2l-.06-.018c-.037-.007-.095-.026-.162-.036-.067-.011-.151-.03-.242-.04a4 4 0 0 0-1.004.005q-.376.045-.738.158c-.483.145-.911.39-1.195.644q-.105.095-.187.184-.08.09-.134.163c-.07.097-.104.163-.104.163a1.039 1.039 0 0 0 1.009 1.51q.105-.004.209-.021.13-.021.257-.056a3.2 3.2 0 0 0 1.194-.646 4.1 4.1 0 0 0 .76-.817 4 4 0 0 0 .33-.55c.042-.081.073-.161.1-.224.029-.062.045-.12.06-.156l.018-.059z"/><path fill="#30ad44" d="M67.607 24.322c.435-6.983-4.944-11.15-6.886-12.418a.508.508 0 0 0-.785.38c-.09 1.007-.152 2.94.255 5.643.113.754-.266.96-.839.456-2.384-2.096-8.2-6.468-12.793-3.95a.51.51 0 0 0-.173.75c.724.986 2.972 3.508 9.017 7.212 1.113.681.963 1.105-.33.937-3.464-.45-9.514-.765-13.544 1.666a.51.51 0 0 0 .083.913c3.256 1.213 14.284 5.172 18.636 4.871 2.152-.15-.417 7.057-1.415 9.662-.15.39.21.786.612.672 2.547-.722 9.21-3.034 9.25-7.49.004-.452.537-.687.862-.372L80.784 44.13c.002-.008 2.13-9.172-6.879-13.653-2.182-1.085 5.075-1.062 7.463-1.027a.508.508 0 0 0 .464-.732c-2.003-4.048-11.29-3.95-13.7-3.855a.507.507 0 0 1-.525-.54"/></svg>