<svg xmlns="http://www.w3.org/2000/svg" width="100" height="88" fill="none" viewBox="0 0 100 88"><path fill="#ef4d3c" d="M83.752 43.55c.9 17.326-14.738 31.95-33.638 31.95s-35.662-15.524-33.75-32.737c2.7-24.187 20.588-25.762 33.75-25.762 7.988 0 31.613-6.975 33.637 26.55"/><path fill="#8cc63e" d="M26.375 38.375c6.975-10.8 18.9-7.65 22.05-11.7 0 7.763 5.625 3.938 8.438 7.425 3.6 4.5 4.95 12.488 9.225 14.063-4.163-8.888 2.587-8.55-6.863-20.475 5.062 3.15 7.65 0 14.512 2.812-5.962-9.45-15.3-6.75-15.3-6.75s5.85-5.4 10.8-2.587c-5.174-7.65-20.137 2.025-20.137 2.025s-6.187-10.575-19.463.562c7.763-3.15 16.313 0 16.313 0s-14.063-3.487-19.575 14.625"/><path fill="#64892f" d="M26.375 38.376s8.212-15.188 22.388-13.838c-12.488-5.737-22.388 6.413-22.388 13.838"/><path fill="#64892f" d="M29.637 23.749s10.35-7.763 19.462 0c-2.7-9.45-16.537-5.063-19.462 0m21.712 1.012c13.725 6.3 9.113 13.5 14.738 23.625-3.825-8.437 5.625-23.625-14.738-23.625"/><path fill="#64892f" d="M45.95 23.75s3.15-4.726 4.274-10.576c.113-.787 3.488-.675 3.375.113-1.125 7.537 1.913 11.7 1.913 11.7s-2.363.787-5.288.787c-2.925.113-4.275-2.025-4.275-2.025"/><path fill="#8cc63e" d="M51.914 13.85c.932 0 1.688-.302 1.688-.675s-.756-.675-1.688-.675-1.687.302-1.687.675.755.675 1.687.675"/></svg>