<svg xmlns="http://www.w3.org/2000/svg" width="36" height="37" fill="none" viewBox="0 0 36 37"><path fill="#916e60" d="M20 27h-5v7h5z"/><path fill="#66c74d" d="M27.809 18.68a6.6 6.6 0 0 0 .626-2.814c0-3.236-2.285-5.894-5.218-6.261V9.56C23.217 6.491 20.88 4 18 4s-5.217 2.491-5.217 5.56v.045a5.7 5.7 0 0 0-2.63 1.045 6.2 6.2 0 0 0-1.88 2.22 6.6 6.6 0 0 0-.707 2.894 6.64 6.64 0 0 0 .625 2.916A5.85 5.85 0 0 0 6 23.262C6 26.42 8.42 29 11.384 29h13.232C27.579 29 30 26.42 30 23.262c0-1.88-.876-3.537-2.191-4.582"/><g clip-path="url(#a)"><path fill="#83bf4f" d="M14.177 10.927c.134.305-.061 1.328-.061 1.328s-.914-.536-1.048-.84a.6.6 0 0 1 .304-.793c.305-.134.67 0 .805.305"/><path fill="#947151" d="M14.41 12.316h-.316c0-.524.292-1.414 1.462-1.414v.317c-1.06 0-1.145 1-1.145 1.097"/><path fill="#ef4d3c" d="M14.25 12.25c-.842-.853-3.344-.888-3.344 1.555 0 1.544 1.821 3.768 2.617 3.768.357 0 .484-.23.703-.23.207 0 .277.23.738.23.795 0 2.628-2.213 2.628-3.768 0-2.443-2.501-2.408-3.343-1.556"/></g><g clip-path="url(#b)"><path fill="#83bf4f" d="M22.88 14.525c.134.304-.061 1.328-.061 1.328s-.914-.536-1.048-.84a.6.6 0 0 1 .304-.793c.305-.134.67 0 .805.305"/><path fill="#947151" d="M23.11 15.918h-.317c0-.524.293-1.414 1.463-1.414v.317c-1.06 0-1.146 1-1.146 1.097"/><path fill="#ef4d3c" d="M22.948 15.847c-.841-.853-3.343-.887-3.343 1.556 0 1.544 1.822 3.767 2.617 3.767.357 0 .484-.23.703-.23.208 0 .277.23.738.23.795 0 2.628-2.212 2.628-3.768 0-2.442-2.501-2.408-3.343-1.555"/></g><g clip-path="url(#c)"><path fill="#83bf4f" d="M15.778 20.325c.134.305-.06 1.329-.06 1.329s-.915-.537-1.049-.841a.6.6 0 0 1 .305-.792c.304-.134.67 0 .804.304"/><path fill="#947151" d="M16.012 21.718h-.317c0-.524.293-1.413 1.463-1.413v.317c-1.06 0-1.146.999-1.146 1.096"/><path fill="#ef4d3c" d="M15.85 21.648c-.84-.853-3.342-.887-3.342 1.555 0 1.544 1.821 3.768 2.617 3.768.357 0 .484-.23.703-.23.207 0 .276.23.737.23.796 0 2.628-2.212 2.628-3.768 0-2.442-2.5-2.408-3.342-1.555"/></g><defs><clipPath id="a"><path fill="#fff" d="M10.352 10.05h7.8v7.8h-7.8z"/></clipPath><clipPath id="b"><path fill="#fff" d="M19.05 13.652h7.8v7.8h-7.8z"/></clipPath><clipPath id="c"><path fill="#fff" d="M11.953 19.45h7.8v7.8h-7.8z"/></clipPath></defs></svg>