<svg width="16" height="20" viewBox="0 0 16 20" fill="none" xmlns="http://www.w3.org/2000/svg">
<path d="M13.35 6.75L12.566 15.148C12.4475 16.421 12.3887 17.057 12.118 17.538C11.8806 17.9614 11.5315 18.3 11.1147 18.511C10.6415 18.75 10.046 18.75 8.85133 18.75H6.64867C5.45493 18.75 4.85853 18.75 4.38533 18.51C3.96818 18.2991 3.61871 17.9606 3.38107 17.537C3.11227 17.057 3.05253 16.421 2.93307 15.148L2.15 6.75M9.15 13.25V8.25M6.35 13.25V8.25M0.75 4.25H5.05733M5.05733 4.25L5.4176 1.578C5.52213 1.092 5.8992 0.75 6.33227 0.75H9.16773C9.6008 0.75 9.97693 1.092 10.0824 1.578L10.4427 4.25M5.05733 4.25H10.4427M10.4427 4.25H14.75" stroke="#C3C3C3" stroke-width="1.5" stroke-linecap="round" stroke-linejoin="round"/>
</svg>
