<svg width="14" height="14" viewBox="0 0 14 14" fill="none" xmlns="http://www.w3.org/2000/svg">
<path fill-rule="evenodd" clip-rule="evenodd" d="M8.55556 0V1.55556H1.55556V12.4444H12.4444V5.44444H14V13.2222C14 13.4285 13.9181 13.6263 13.7722 13.7722C13.6263 13.9181 13.4285 14 13.2222 14H0.777778C0.571498 14 0.373667 13.9181 0.227806 13.7722C0.0819442 13.6263 0 13.4285 0 13.2222V0.777778C0 0.571498 0.0819442 0.373667 0.227806 0.227806C0.373667 0.0819442 0.571498 0 0.777778 0H8.55556ZM13.1756 0.275333L13.7254 0.825222C13.7983 0.89815 13.8393 0.997047 13.8393 1.10017C13.8393 1.20329 13.7983 1.30218 13.7254 1.37511L6.46644 8.63333L4.91711 9.39556C4.87336 9.41723 4.82391 9.42464 4.77573 9.41673C4.72754 9.40882 4.68306 9.38599 4.64853 9.35147C4.61401 9.31694 4.59118 9.27246 4.58327 9.22427C4.57536 9.17609 4.58277 9.12664 4.60444 9.08289L5.36667 7.53356L12.6257 0.274556C12.6986 0.20165 12.7975 0.160694 12.9006 0.160694C13.0037 0.160694 13.1026 0.202428 13.1756 0.275333Z" fill="#C3C3C3"/>
</svg>
