<svg width="40" height="40" viewBox="0 0 40 40" fill="none" xmlns="http://www.w3.org/2000/svg">
<g clip-path="url(#clip0_2258_29242)">
<path d="M40 20C40 8.9543 31.0457 0 20 0C8.9543 0 0 8.9543 0 20C0 31.0457 8.9543 40 20 40C31.0457 40 40 31.0457 40 20Z" fill="#F2F2F2"/>
<mask id="mask0_2258_29242" style="mask-type:luminance" maskUnits="userSpaceOnUse" x="10" y="10" width="20" height="20">
<path d="M30 10H10V30H30V10Z" fill="white"/>
</mask>
<g mask="url(#mask0_2258_29242)">
<path d="M29.6 20.2274C29.6 19.5183 29.5364 18.8365 29.4182 18.1819H20V22.0501H25.3818C25.15 23.3001 24.4455 24.3592 23.3864 25.0683V27.5774H26.6182C28.5091 25.8365 29.6 23.2728 29.6 20.2274Z" fill="#4285F4"/>
<path d="M19.9989 29.9999C22.6989 29.9999 24.9625 29.1044 26.617 27.5772L23.3852 25.0681C22.4898 25.6681 21.3443 26.0226 19.9989 26.0226C17.3943 26.0226 15.1898 24.2635 14.4034 21.8999H11.0625V24.4908C12.708 27.759 16.0898 29.9999 19.9989 29.9999Z" fill="#34A853"/>
<path d="M14.4045 21.8999C14.2045 21.2999 14.0909 20.659 14.0909 19.9999C14.0909 19.3408 14.2045 18.6999 14.4045 18.0999V15.509H11.0636C10.3864 16.859 10 18.3863 10 19.9999C10 21.6135 10.3864 23.1408 11.0636 24.4908L14.4045 21.8999Z" fill="#FBBC04"/>
<path d="M19.9989 13.9773C21.467 13.9773 22.7852 14.4818 23.8216 15.4727L26.6898 12.6045C24.958 10.9909 22.6943 10 19.9989 10C16.0898 10 12.708 12.2409 11.0625 15.5091L14.4034 18.1C15.1898 15.7364 17.3943 13.9773 19.9989 13.9773Z" fill="#E94235"/>
</g>
</g>
<defs>
<clipPath id="clip0_2258_29242">
<rect width="40" height="40" fill="white"/>
</clipPath>
</defs>
</svg>
