<svg width="24" height="24" viewBox="0 0 24 24" fill="none" xmlns="http://www.w3.org/2000/svg">
<path d="M16.5625 1C17.209 1 17.829 1.26076 18.2861 1.72491C18.7432 2.18906 19 2.81859 19 3.475V20.525C19 21.1814 18.7432 21.8109 18.2861 22.2751C17.829 22.7392 17.209 23 16.5625 23H8.4375C7.79103 23 7.17105 22.7392 6.71393 22.2751C6.25681 21.8109 6 21.1814 6 20.525V3.475C6 2.81859 6.25681 2.18906 6.71393 1.72491C7.17105 1.26076 7.79103 1 8.4375 1H16.5625ZM16.5625 2.65H8.4375C8.22201 2.65 8.01535 2.73692 7.86298 2.89164C7.7106 3.04635 7.625 3.2562 7.625 3.475V20.525C7.625 20.9804 7.989 21.35 8.4375 21.35H16.5625C16.778 21.35 16.9847 21.2631 17.137 21.1084C17.2894 20.9536 17.375 20.7438 17.375 20.525V3.475C17.375 3.2562 17.2894 3.04635 17.137 2.89164C16.9847 2.73692 16.778 2.65 16.5625 2.65ZM13.8531 18.05C14.0686 18.0497 14.2753 18.1363 14.4279 18.2909C14.5805 18.4454 14.6664 18.6551 14.6667 18.8739C14.667 19.0927 14.5816 19.3027 14.4295 19.4576C14.2773 19.6125 14.0707 19.6997 13.8553 19.7L11.1469 19.7044C10.9314 19.7047 10.7247 19.6181 10.5721 19.4635C10.4195 19.309 10.3336 19.0993 10.3333 18.8805C10.333 18.6617 10.4184 18.4517 10.5705 18.2968C10.7227 18.1419 10.9293 18.0547 11.1447 18.0544L13.8531 18.05Z" fill="#7D7D7D"/>
</svg>
