<<<<<<< HEAD
<svg width="40" height="40" viewBox="0 0 40 40" fill="none" xmlns="http://www.w3.org/2000/svg">
<path d="M1.61258 16.446L0.806289 17.2446L0 16.446L0.806289 15.6475L1.61258 16.446ZM7.31476 30C7.0123 30 6.72222 29.881 6.50835 29.6692C6.29448 29.4574 6.17432 29.1701 6.17432 28.8705C6.17432 28.5709 6.29448 28.2836 6.50835 28.0718C6.72222 27.86 7.0123 27.741 7.31476 27.741V30ZM6.50847 22.8921L0.806289 17.2446L2.41887 15.6475L8.12105 21.295L6.50847 22.8921ZM0.806289 15.6475L6.50847 10L8.12105 11.5971L2.41887 17.2446L0.806289 15.6475ZM1.61258 15.3165H13.5872V17.5755H1.61258V15.3165ZM13.5872 30H7.31476V27.741H13.5872V30ZM21 22.6583C21 24.6054 20.219 26.4728 18.8288 27.8497C17.4387 29.2265 15.5532 30 13.5872 30V27.741C14.2611 27.741 14.9284 27.6095 15.5511 27.3541C16.1737 27.0987 16.7395 26.7243 17.216 26.2523C17.6926 25.7803 18.0706 25.22 18.3285 24.6033C18.5864 23.9867 18.7191 23.3257 18.7191 22.6583H21ZM13.5872 15.3165C15.5532 15.3165 17.4387 16.09 18.8288 17.4669C20.219 18.8437 21 20.7111 21 22.6583H18.7191C18.7191 21.9908 18.5864 21.3299 18.3285 20.7132C18.0706 20.0965 17.6926 19.5362 17.216 19.0642C16.7395 18.5923 16.1737 18.2179 15.5511 17.9624C14.9284 17.707 14.2611 17.5755 13.5872 17.5755V15.3165Z" fill="#202020"/>
<path d="M1.61258 16.446L0.806289 17.2446L0 16.446L0.806289 15.6475L1.61258 16.446ZM7.31476 30C7.0123 30 6.72222 29.881 6.50835 29.6692C6.29448 29.4574 6.17432 29.1701 6.17432 28.8705C6.17432 28.5709 6.29448 28.2836 6.50835 28.0718C6.72222 27.86 7.0123 27.741 7.31476 27.741V30ZM6.50847 22.8921L0.806289 17.2446L2.41887 15.6475L8.12105 21.295L6.50847 22.8921ZM0.806289 15.6475L6.50847 10L8.12105 11.5971L2.41887 17.2446L0.806289 15.6475ZM1.61258 15.3165H13.5872V17.5755H1.61258V15.3165ZM13.5872 30H7.31476V27.741H13.5872V30ZM21 22.6583C21 24.6054 20.219 26.4728 18.8288 27.8497C17.4387 29.2265 15.5532 30 13.5872 30V27.741C14.2611 27.741 14.9284 27.6095 15.5511 27.3541C16.1737 27.0987 16.7395 26.7243 17.216 26.2523C17.6926 25.7803 18.0706 25.22 18.3285 24.6033C18.5864 23.9867 18.7191 23.3257 18.7191 22.6583H21ZM13.5872 15.3165C15.5532 15.3165 17.4387 16.09 18.8288 17.4669C20.219 18.8437 21 20.7111 21 22.6583H18.7191C18.7191 21.9908 18.5864 21.3299 18.3285 20.7132C18.0706 20.0965 17.6926 19.5362 17.216 19.0642C16.7395 18.5923 16.1737 18.2179 15.5511 17.9624C14.9284 17.707 14.2611 17.5755 13.5872 17.5755V15.3165Z" fill="black" fill-opacity="0.2"/>
<path d="M1.61258 16.446L0.806289 17.2446L0 16.446L0.806289 15.6475L1.61258 16.446ZM7.31476 30C7.0123 30 6.72222 29.881 6.50835 29.6692C6.29448 29.4574 6.17432 29.1701 6.17432 28.8705C6.17432 28.5709 6.29448 28.2836 6.50835 28.0718C6.72222 27.86 7.0123 27.741 7.31476 27.741V30ZM6.50847 22.8921L0.806289 17.2446L2.41887 15.6475L8.12105 21.295L6.50847 22.8921ZM0.806289 15.6475L6.50847 10L8.12105 11.5971L2.41887 17.2446L0.806289 15.6475ZM1.61258 15.3165H13.5872V17.5755H1.61258V15.3165ZM13.5872 30H7.31476V27.741H13.5872V30ZM21 22.6583C21 24.6054 20.219 26.4728 18.8288 27.8497C17.4387 29.2265 15.5532 30 13.5872 30V27.741C14.2611 27.741 14.9284 27.6095 15.5511 27.3541C16.1737 27.0987 16.7395 26.7243 17.216 26.2523C17.6926 25.7803 18.0706 25.22 18.3285 24.6033C18.5864 23.9867 18.7191 23.3257 18.7191 22.6583H21ZM13.5872 15.3165C15.5532 15.3165 17.4387 16.09 18.8288 17.4669C20.219 18.8437 21 20.7111 21 22.6583H18.7191C18.7191 21.9908 18.5864 21.3299 18.3285 20.7132C18.0706 20.0965 17.6926 19.5362 17.216 19.0642C16.7395 18.5923 16.1737 18.2179 15.5511 17.9624C14.9284 17.707 14.2611 17.5755 13.5872 17.5755V15.3165Z" fill="black" fill-opacity="0.2"/>
<path d="M1.61258 16.446L0.806289 17.2446L0 16.446L0.806289 15.6475L1.61258 16.446ZM7.31476 30C7.0123 30 6.72222 29.881 6.50835 29.6692C6.29448 29.4574 6.17432 29.1701 6.17432 28.8705C6.17432 28.5709 6.29448 28.2836 6.50835 28.0718C6.72222 27.86 7.0123 27.741 7.31476 27.741V30ZM6.50847 22.8921L0.806289 17.2446L2.41887 15.6475L8.12105 21.295L6.50847 22.8921ZM0.806289 15.6475L6.50847 10L8.12105 11.5971L2.41887 17.2446L0.806289 15.6475ZM1.61258 15.3165H13.5872V17.5755H1.61258V15.3165ZM13.5872 30H7.31476V27.741H13.5872V30ZM21 22.6583C21 24.6054 20.219 26.4728 18.8288 27.8497C17.4387 29.2265 15.5532 30 13.5872 30V27.741C14.2611 27.741 14.9284 27.6095 15.5511 27.3541C16.1737 27.0987 16.7395 26.7243 17.216 26.2523C17.6926 25.7803 18.0706 25.22 18.3285 24.6033C18.5864 23.9867 18.7191 23.3257 18.7191 22.6583H21ZM13.5872 15.3165C15.5532 15.3165 17.4387 16.09 18.8288 17.4669C20.219 18.8437 21 20.7111 21 22.6583H18.7191C18.7191 21.9908 18.5864 21.3299 18.3285 20.7132C18.0706 20.0965 17.6926 19.5362 17.216 19.0642C16.7395 18.5923 16.1737 18.2179 15.5511 17.9624C14.9284 17.707 14.2611 17.5755 13.5872 17.5755V15.3165Z" fill="black" fill-opacity="0.2"/>
=======
<svg viewBox="0 0 21 20" fill="none" xmlns="http://www.w3.org/2000/svg">
  <path d="M1.61258 6.44604L0.806289 7.24459L0 6.44604L0.806289 5.64748L1.61258 6.44604ZM7.31476 20C7.0123 20 6.72222 19.881 6.50835 19.6692C6.29448 19.4574 6.17432 19.1701 6.17432 18.8705C6.17432 18.5709 6.29448 18.2836 6.50835 18.0718C6.72222 17.86 7.0123 17.741 7.31476 17.741V20ZM6.50847 12.8921L0.806289 7.24459L2.41887 5.64748L8.12105 11.295L6.50847 12.8921ZM0.806289 5.64748L6.50847 0L8.12105 1.59711L2.41887 7.24459L0.806289 5.64748ZM1.61258 5.31654H13.5872V7.57553H1.61258V5.31654ZM13.5872 20H7.31476V17.741H13.5872V20ZM21 12.6583C21 14.6054 20.219 16.4728 18.8288 17.8497C17.4387 19.2265 15.5532 20 13.5872 20V17.741C14.2611 17.741 14.9284 17.6095 15.5511 17.3541C16.1737 17.0987 16.7395 16.7243 17.216 16.2523C17.6926 15.7803 18.0706 15.22 18.3285 14.6033C18.5864 13.9867 18.7191 13.3257 18.7191 12.6583H21ZM13.5872 5.31654C15.5532 5.31654 17.4387 6.09004 18.8288 7.46688C20.219 8.84373 21 10.7111 21 12.6583H18.7191C18.7191 11.9908 18.5864 11.3299 18.3285 10.7132C18.0706 10.0965 17.6926 9.53621 17.216 9.06423C16.7395 8.59226 16.1737 8.21787 15.5511 7.96243C14.9284 7.707 14.2611 7.57553 13.5872 7.57553V5.31654Z" fill="#202020"/>
>>>>>>> develop
</svg>
