<svg width="24" height="24" viewBox="0 0 24 24" fill="none" xmlns="http://www.w3.org/2000/svg">
<path d="M6.59091 20C6.15341 20 5.77902 19.8261 5.46773 19.4782C5.15644 19.1304 5.00053 18.7117 5 18.2222V5.77778C5 5.28889 5.15591 4.87052 5.46773 4.52267C5.77955 4.17481 6.15394 4.00059 6.59091 4H11.3636C11.589 4 11.7781 4.08533 11.9308 4.256C12.0835 4.42667 12.1596 4.63763 12.1591 4.88889C12.1586 5.14015 12.0822 5.35141 11.93 5.52267C11.7778 5.69392 11.589 5.77896 11.3636 5.77778H6.59091V18.2222H11.3636C11.589 18.2222 11.7781 18.3075 11.9308 18.4782C12.0835 18.6489 12.1596 18.8598 12.1591 19.1111C12.1586 19.3624 12.0822 19.5736 11.93 19.7449C11.7778 19.9161 11.589 20.0012 11.3636 20H6.59091ZM16.2756 12.8889H10.5682C10.3428 12.8889 10.154 12.8035 10.0018 12.6329C9.84962 12.4622 9.77326 12.2513 9.77273 12C9.7722 11.7487 9.84856 11.5378 10.0018 11.3671C10.1551 11.1964 10.3439 11.1111 10.5682 11.1111H16.2756L14.7841 9.44444C14.6383 9.28148 14.5653 9.08148 14.5653 8.84444C14.5653 8.6074 14.6383 8.4 14.7841 8.22222C14.9299 8.04444 15.1155 7.9517 15.3409 7.944C15.5663 7.93629 15.7585 8.02163 15.9176 8.2L18.7614 11.3778C18.9205 11.5556 19 11.763 19 12C19 12.237 18.9205 12.4444 18.7614 12.6222L15.9176 15.8C15.7585 15.9778 15.5697 16.0631 15.3512 16.056C15.1328 16.0489 14.9437 15.9561 14.7841 15.7778C14.6383 15.6 14.5688 15.389 14.5757 15.1449C14.5826 14.9007 14.6587 14.6969 14.804 14.5333L16.2756 12.8889Z" fill="#202020"/>
</svg>
