<svg width="26" height="26" viewBox="0 0 26 26" fill="none" xmlns="http://www.w3.org/2000/svg">
<g clip-path="url(#clip0_2258_41314)">
<path d="M10.2374 12.3318L4.87561 5.48438L2.1875 12.3318H10.2374Z" fill="#F4900C"/>
<path d="M12.9548 3.99609L8.21484 12.9437H17.694L12.9548 3.99609Z" fill="#F4900C"/>
<path d="M15.7617 12.3318L21.1235 5.48438L23.8116 12.3318H15.7617Z" fill="#F4900C"/>
<path d="M20.7067 10.9699L17.2531 2.54369L13.0064 10.9706L13.0013 10.9727L12.9963 10.9699L8.74962 2.54297L5.29595 10.9699C3.0325 7.82313 0.925781 5.80741 0.925781 5.80741C0.925781 5.80741 2.168 14.9854 2.168 23.8326H23.8347C23.8347 14.9854 25.0769 5.80741 25.0769 5.80741C25.0769 5.80741 22.9702 7.82313 20.7067 10.9699Z" fill="#FFCC4D"/>
<path d="M14.0078 13.3438V19H12.8281V14.4609H12.7969L11.5 15.2734V14.2344L12.8984 13.3438H14.0078Z" fill="white"/>
<path d="M23.8342 24.5559H2.16753C1.97599 24.5559 1.79229 24.4798 1.65685 24.3443C1.5214 24.2089 1.44531 24.0252 1.44531 23.8336C1.44531 23.6421 1.5214 23.4584 1.65685 23.323C1.79229 23.1875 1.97599 23.1114 2.16753 23.1114H23.8342C24.0257 23.1114 24.2094 23.1875 24.3449 23.323C24.4803 23.4584 24.5564 23.6421 24.5564 23.8336C24.5564 24.0252 24.4803 24.2089 24.3449 24.3443C24.2094 24.4798 24.0257 24.5559 23.8342 24.5559ZM23.8342 22.0382H2.16753C1.97599 22.0382 1.79229 21.9621 1.65685 21.8267C1.5214 21.6912 1.44531 21.5075 1.44531 21.316C1.44531 21.1244 1.5214 20.9407 1.65685 20.8053C1.79229 20.6698 1.97599 20.5938 2.16753 20.5938H23.8342C24.0257 20.5938 24.2094 20.6698 24.3449 20.8053C24.4803 20.9407 24.5564 21.1244 24.5564 21.316C24.5564 21.5075 24.4803 21.6912 24.3449 21.8267C24.2094 21.9621 24.0257 22.0382 23.8342 22.0382Z" fill="#FFAC33"/>
<path d="M1.04351 6.8253C1.60472 6.8253 2.05968 6.37035 2.05968 5.80914C2.05968 5.24792 1.60472 4.79297 1.04351 4.79297C0.482297 4.79297 0.0273438 5.24792 0.0273438 5.80914C0.0273438 6.37035 0.482297 6.8253 1.04351 6.8253Z" fill="#FFCC4D"/>
<path d="M4.87651 6.34678C5.35197 6.34678 5.7374 5.96134 5.7374 5.48589C5.7374 5.01043 5.35197 4.625 4.87651 4.625C4.40106 4.625 4.01562 5.01043 4.01562 5.48589C4.01562 5.96134 4.40106 6.34678 4.87651 6.34678Z" fill="#F4900C"/>
<path d="M8.74938 3.8347C9.46097 3.8347 10.0378 3.25785 10.0378 2.54626C10.0378 1.83467 9.46097 1.25781 8.74938 1.25781C8.03779 1.25781 7.46094 1.83467 7.46094 2.54626C7.46094 3.25785 8.03779 3.8347 8.74938 3.8347Z" fill="#FFCC4D"/>
<path d="M24.9537 6.8253C25.5149 6.8253 25.9698 6.37035 25.9698 5.80914C25.9698 5.24792 25.5149 4.79297 24.9537 4.79297C24.3925 4.79297 23.9375 5.24792 23.9375 5.80914C23.9375 6.37035 24.3925 6.8253 24.9537 6.8253Z" fill="#FFCC4D"/>
<path d="M21.1265 6.34678C21.602 6.34678 21.9874 5.96134 21.9874 5.48589C21.9874 5.01043 21.602 4.625 21.1265 4.625C20.6511 4.625 20.2656 5.01043 20.2656 5.48589C20.2656 5.96134 20.6511 6.34678 21.1265 6.34678Z" fill="#F4900C"/>
<path d="M17.2533 3.8347C17.9649 3.8347 18.5417 3.25785 18.5417 2.54626C18.5417 1.83467 17.9649 1.25781 17.2533 1.25781C16.5417 1.25781 15.9648 1.83467 15.9648 2.54626C15.9648 3.25785 16.5417 3.8347 17.2533 3.8347Z" fill="#FFCC4D"/>
<path d="M12.9564 5.28392C13.668 5.28392 14.2449 4.70706 14.2449 3.99548C14.2449 3.28389 13.668 2.70703 12.9564 2.70703C12.2448 2.70703 11.668 3.28389 11.668 3.99548C11.668 4.70706 12.2448 5.28392 12.9564 5.28392Z" fill="#F4900C"/>
</g>
<defs>
<clipPath id="clip0_2258_41314">
<rect width="26" height="26" fill="white"/>
</clipPath>
</defs>
</svg>
