<svg width="26" height="26" viewBox="0 0 26 26" fill="none" xmlns="http://www.w3.org/2000/svg">
<path fill-rule="evenodd" clip-rule="evenodd" d="M7.66869 8.04288L10.6237 12.1597L4.5 12.8924L6.46998 8.17785C5.99607 7.98503 5.66154 7.50297 5.66154 6.94377C5.66154 6.21104 6.23767 5.61328 6.94389 5.61328C7.21719 5.61478 7.48291 5.70664 7.70245 5.87552C7.922 6.0444 8.08394 6.2815 8.16475 6.55239C8.24556 6.82327 8.24104 7.11383 8.15183 7.38187C8.06263 7.6499 7.89338 7.88145 7.66869 8.04288ZM19.5257 8.17785L21.4957 12.8924L15.3721 12.1597L18.327 8.04288C17.9925 7.80184 17.7695 7.39691 17.7695 6.94377C17.7695 6.21104 18.3456 5.61328 19.0518 5.61328C19.758 5.61328 20.3342 6.21104 20.3342 6.94377C20.3342 7.50297 19.9996 7.98503 19.5257 8.17785Z" fill="#B6B6B6"/>
<path d="M26 7.8702C26 7.13746 25.4239 6.5397 24.7177 6.5397C24.0114 6.5397 23.4353 7.13746 23.4353 7.8702C23.4353 8.14015 23.5189 8.40046 23.649 8.60293C23.4446 8.60293 23.2402 8.65114 23.045 8.78611L19.3931 11.235C18.9099 11.5532 18.2781 11.4375 17.9342 10.9554L13.8735 5.23814C13.8445 5.1922 13.8101 5.15011 13.7713 5.1128C14.0821 4.93525 14.3272 4.65548 14.468 4.31755C14.6087 3.97961 14.6372 3.60269 14.5489 3.24614C14.4605 2.88958 14.2604 2.57363 13.98 2.34804C13.6996 2.12244 13.3548 2 13 2C12.6452 2 12.3004 2.12244 12.02 2.34804C11.7396 2.57363 11.5395 2.88958 11.4511 3.24614C11.3628 3.60269 11.3913 3.97961 11.532 4.31755C11.6728 4.65548 11.9179 4.93525 12.2287 5.1128C12.1916 5.15136 12.1544 5.18993 12.1265 5.23814L8.06576 10.9554C7.73124 11.4375 7.09006 11.5532 6.60686 11.235L2.95497 8.78611C2.75983 8.65114 2.5554 8.60293 2.35097 8.60293C2.49035 8.39082 2.56469 8.14015 2.56469 7.8702C2.56469 7.13746 1.98856 6.5397 1.28234 6.5397C0.576126 6.5397 0 7.13746 0 7.8702C0 8.60293 0.576126 9.20069 1.28234 9.20069C1.32881 9.20069 1.37527 9.20069 1.41244 9.19105C1.29164 9.4128 1.24518 9.67311 1.30093 9.9527L3.71694 22.4574C3.8935 23.354 4.65547 24 5.53824 24H20.4618C21.3445 24 22.1065 23.354 22.2831 22.4574L24.6991 9.9527C24.7548 9.67311 24.6991 9.40315 24.5876 9.19105C24.634 9.19105 24.6805 9.20069 24.7177 9.20069C25.4239 9.20069 26 8.60293 26 7.8702Z" fill="#DBDBDB"/>
<path d="M11.0039 19.8438L10.9961 18.9922L13.0273 17.125C13.5586 16.6172 13.8398 16.3047 13.8398 15.8594C13.8398 15.3594 13.457 15.0469 12.9414 15.0469C12.4102 15.0469 12.0664 15.3828 12.0664 15.9219H10.9492C10.9414 14.8125 11.7617 14.1094 12.957 14.1094C14.168 14.1094 14.9727 14.7969 14.9727 15.7812C14.9727 16.4219 14.6602 16.9531 13.4961 18.0078L12.6367 18.8438V18.875H15.0508V19.8438H11.0039Z" fill="white"/>
</svg>
