<svg width="2179" height="410" viewBox="0 0 2179 410" fill="none" xmlns="http://www.w3.org/2000/svg">
<path d="M159.5 62.292C176.354 62.292 192.598 64.7666 207.848 69.3486C205.166 73.8416 203.625 79.0937 203.625 84.7061C203.625 97.5685 211.717 108.538 223.088 112.809C222.778 114.538 222.617 116.319 222.617 118.138C222.617 134.712 236.054 148.149 252.629 148.149C256.792 148.149 260.756 147.299 264.359 145.768C269.771 153.63 278.831 158.786 289.098 158.786C295.394 158.786 301.236 156.845 306.062 153.531C314.387 171.814 319 191.964 319 213.133C319 296.44 247.589 363.974 159.5 363.974C71.4106 363.974 4.36114e-05 296.44 0 213.133C0 129.826 71.4106 62.2921 159.5 62.292Z" fill="url(#paint0_linear_2215_29721)"/>
<circle cx="194.554" cy="202.853" r="43.2341" fill="white"/>
<mask id="mask0_2215_29721" style="mask-type:alpha" maskUnits="userSpaceOnUse" x="151" y="159" width="87" height="88">
<circle cx="194.554" cy="202.853" r="43.2341" fill="#D9D9D9"/>
</mask>
<g mask="url(#mask0_2215_29721)">
<circle cx="213.187" cy="197.945" r="26.835" fill="#202020"/>
<circle cx="213.187" cy="197.945" r="26.835" fill="black" fill-opacity="0.2"/>
</g>
<circle cx="122.25" cy="202.853" r="43.2341" fill="white"/>
<mask id="mask1_2215_29721" style="mask-type:alpha" maskUnits="userSpaceOnUse" x="79" y="159" width="87" height="88">
<circle cx="122.25" cy="202.853" r="43.2341" fill="#D9D9D9"/>
</mask>
<g mask="url(#mask1_2215_29721)">
<circle cx="140.882" cy="197.945" r="26.835" fill="#202020"/>
<circle cx="140.882" cy="197.945" r="26.835" fill="black" fill-opacity="0.2"/>
</g>
<path d="M549.242 363.8C464.042 363.8 408.842 304.6 408.842 213C408.842 122.2 466.042 61.8 551.642 61.8C620.842 61.8 672.442 102.2 682.442 165H628.442C618.442 131 589.242 111 550.442 111C496.442 111 462.442 150.2 462.442 212.6C462.442 274.6 496.842 314.6 550.442 314.6C590.042 314.6 620.442 293.8 630.042 261.4H683.242C672.042 323 618.442 363.8 549.242 363.8Z" fill="#202020"/>
<path d="M549.242 363.8C464.042 363.8 408.842 304.6 408.842 213C408.842 122.2 466.042 61.8 551.642 61.8C620.842 61.8 672.442 102.2 682.442 165H628.442C618.442 131 589.242 111 550.442 111C496.442 111 462.442 150.2 462.442 212.6C462.442 274.6 496.842 314.6 550.442 314.6C590.042 314.6 620.442 293.8 630.042 261.4H683.242C672.042 323 618.442 363.8 549.242 363.8Z" fill="black" fill-opacity="0.2"/>
<path d="M971.473 212.6C971.473 301.4 913.073 363.8 829.073 363.8C745.473 363.8 687.873 301.8 687.873 212.6C687.873 123.8 745.873 61.4 829.473 61.4C913.073 61.4 971.473 123.4 971.473 212.6ZM917.473 212.6C917.473 150.2 883.073 110.6 829.473 110.6C775.873 110.6 741.473 150.2 741.473 212.6C741.473 275 775.873 314.6 829.473 314.6C883.073 314.6 917.473 274.2 917.473 212.6Z" fill="#202020"/>
<path d="M971.473 212.6C971.473 301.4 913.073 363.8 829.073 363.8C745.473 363.8 687.873 301.8 687.873 212.6C687.873 123.8 745.873 61.4 829.473 61.4C913.073 61.4 971.473 123.4 971.473 212.6ZM917.473 212.6C917.473 150.2 883.073 110.6 829.473 110.6C775.873 110.6 741.473 150.2 741.473 212.6C741.473 275 775.873 314.6 829.473 314.6C883.073 314.6 917.473 274.2 917.473 212.6Z" fill="black" fill-opacity="0.2"/>
<path d="M1261.47 212.6C1261.47 301.4 1203.07 363.8 1119.07 363.8C1035.47 363.8 977.873 301.8 977.873 212.6C977.873 123.8 1035.87 61.4 1119.47 61.4C1203.07 61.4 1261.47 123.4 1261.47 212.6ZM1207.47 212.6C1207.47 150.2 1173.07 110.6 1119.47 110.6C1065.87 110.6 1031.47 150.2 1031.47 212.6C1031.47 275 1065.87 314.6 1119.47 314.6C1173.07 314.6 1207.47 274.2 1207.47 212.6Z" fill="#202020"/>
<path d="M1261.47 212.6C1261.47 301.4 1203.07 363.8 1119.07 363.8C1035.47 363.8 977.873 301.8 977.873 212.6C977.873 123.8 1035.87 61.4 1119.47 61.4C1203.07 61.4 1261.47 123.4 1261.47 212.6ZM1207.47 212.6C1207.47 150.2 1173.07 110.6 1119.47 110.6C1065.87 110.6 1031.47 150.2 1031.47 212.6C1031.47 275 1065.87 314.6 1119.47 314.6C1173.07 314.6 1207.47 274.2 1207.47 212.6Z" fill="black" fill-opacity="0.2"/>
<path d="M1335.83 66.6V220.2L1454.23 66.6H1514.63L1417.83 191.4L1515.83 359H1456.63L1384.23 234.6L1335.83 296.6V359H1284.63V66.6H1335.83Z" fill="#202020"/>
<path d="M1335.83 66.6V220.2L1454.23 66.6H1514.63L1417.83 191.4L1515.83 359H1456.63L1384.23 234.6L1335.83 296.6V359H1284.63V66.6H1335.83Z" fill="black" fill-opacity="0.2"/>
<path d="M1711.45 359H1529.85V66.6H1711.45V113.8H1581.05V189H1697.85V234.2H1581.05V311.8H1711.45V359Z" fill="#202020"/>
<path d="M1711.45 359H1529.85V66.6H1711.45V113.8H1581.05V189H1697.85V234.2H1581.05V311.8H1711.45V359Z" fill="black" fill-opacity="0.2"/>
<path d="M1924.45 359H1742.85V66.6H1924.45V113.8H1794.05V189H1910.85V234.2H1794.05V311.8H1924.45V359Z" fill="#202020"/>
<path d="M1924.45 359H1742.85V66.6H1924.45V113.8H1794.05V189H1910.85V234.2H1794.05V311.8H1924.45V359Z" fill="black" fill-opacity="0.2"/>
<path d="M2071.27 258.2H2006.87V359H1955.67V66.6H2071.27C2130.07 66.6 2168.07 105 2168.07 162.2C2168.07 218.6 2129.67 258.2 2071.27 258.2ZM2061.27 112.2H2006.87V212.6H2060.47C2095.67 212.6 2114.47 193.8 2114.47 161.8C2114.47 129.8 2095.27 112.2 2061.27 112.2Z" fill="#202020"/>
<path d="M2071.27 258.2H2006.87V359H1955.67V66.6H2071.27C2130.07 66.6 2168.07 105 2168.07 162.2C2168.07 218.6 2129.67 258.2 2071.27 258.2ZM2061.27 112.2H2006.87V212.6H2060.47C2095.67 212.6 2114.47 193.8 2114.47 161.8C2114.47 129.8 2095.27 112.2 2061.27 112.2Z" fill="black" fill-opacity="0.2"/>
<circle cx="2142.25" cy="348.25" r="33.25" fill="url(#paint1_linear_2215_29721)"/>
<defs>
<linearGradient id="paint0_linear_2215_29721" x1="159.5" y1="62.292" x2="159.5" y2="363.974" gradientUnits="userSpaceOnUse">
<stop stop-color="#32E389"/>
<stop offset="1" stop-color="#1FC16F"/>
</linearGradient>
<linearGradient id="paint1_linear_2215_29721" x1="2142.25" y1="315" x2="2142.25" y2="381.5" gradientUnits="userSpaceOnUse">
<stop stop-color="#32E389"/>
<stop offset="1" stop-color="#1FC16F"/>
</linearGradient>
</defs>
</svg>
