<svg width="16" height="18" viewBox="0 0 16 18" fill="none" xmlns="http://www.w3.org/2000/svg">
<path d="M13.3777 4.4C12.5356 3.30151 11.3928 2.47331 10.0893 2.01672C8.7858 1.56014 7.37801 1.49497 6.03818 1.8292C4.69835 2.16342 3.48459 2.88254 2.5454 3.89857C1.6062 4.9146 0.982288 6.18349 0.75 7.55M13.7262 0.75V4.75H9.74275M2.12231 13.1C2.9642 14.1989 4.1069 15.0275 5.41053 15.4844C6.71417 15.9412 8.12217 16.0065 9.46218 15.6723C10.8022 15.338 12.0161 14.6187 12.9552 13.6023C13.8944 12.586 14.5181 11.3168 14.75 9.95M1.77475 16.75V12.75H5.75825" stroke="#C3C3C3" stroke-width="1.5" stroke-linecap="round" stroke-linejoin="round"/>
</svg>
