<svg width="28" height="28" viewBox="0 0 28 28" fill="none" xmlns="http://www.w3.org/2000/svg">
<path d="M7 9.55045C7 8.65779 7 8.21146 7.25433 7.87034C7.47803 7.57042 7.83497 7.32657 8.274 7.17375C8.77333 7 9.42667 7 10.7333 7H17.2667C18.5733 7 19.2267 7 19.726 7.17375C20.165 7.32657 20.522 7.57042 20.7457 7.87034C21 8.21146 21 8.65779 21 9.55045V20.1547C21 20.5421 21 20.7358 20.8822 20.8418C20.8313 20.8879 20.7663 20.9259 20.6917 20.9531C20.6172 20.9804 20.5349 20.9962 20.4505 20.9996C20.2557 21.0076 20.02 20.9 19.5487 20.6856L14 18.1582L8.45133 20.6848C7.98 20.9 7.74433 21.0076 7.54833 20.9996C7.46414 20.9961 7.38206 20.9802 7.30773 20.953C7.23341 20.9257 7.16862 20.8878 7.11783 20.8418C7 20.7358 7 20.5421 7 20.1547V9.55045Z" fill="#EBEBEB" stroke="#C3C3C3" stroke-width="1.5" stroke-linecap="round" stroke-linejoin="round"/>
</svg>
