<svg width="16" height="16" viewBox="0 0 16 16" fill="none" xmlns="http://www.w3.org/2000/svg">
<mask id="mask0_2258_40705" style="mask-type:luminance" maskUnits="userSpaceOnUse" x="0" y="0" width="16" height="16">
<path d="M12.4393 4.90958C12.8853 5.54903 13.1873 6.27764 13.3244 7.04513H14.999V8.9539H13.3244C13.1873 9.72138 12.8853 10.45 12.4393 11.0894L13.624 12.2741L12.2741 13.624L11.0894 12.4393C10.45 12.8853 9.72138 13.1873 8.9539 13.3244V14.999H7.04513V13.3244C6.27764 13.1873 5.54903 12.8853 4.90958 12.4393L3.72491 13.624L2.37505 12.2741L3.55972 11.0894C3.11371 10.45 2.81173 9.72138 2.67463 8.9539H1V7.04513H2.67463C2.81173 6.27764 3.11371 5.54903 3.55972 4.90958L2.37505 3.72491L3.72491 2.37505L4.90958 3.55972C5.54903 3.11371 6.27764 2.81173 7.04513 2.67463V1H8.9539V2.67463C9.72138 2.81173 10.45 3.11371 11.0894 3.55972L12.2741 2.37505L13.624 3.72491L12.4393 4.90958Z" fill="white" stroke="white" stroke-width="2" stroke-linejoin="round"/>
<path d="M7.99597 9.74585C8.46007 9.74585 8.90516 9.56149 9.23332 9.23332C9.56149 8.90516 9.74585 8.46007 9.74585 7.99597C9.74585 7.53188 9.56149 7.08679 9.23332 6.75862C8.90516 6.43046 8.46007 6.24609 7.99597 6.24609C7.53188 6.24609 7.08679 6.43046 6.75862 6.75862C6.43046 7.08679 6.24609 7.53188 6.24609 7.99597C6.24609 8.46007 6.43046 8.90516 6.75862 9.23332C7.08679 9.56149 7.53188 9.74585 7.99597 9.74585Z" fill="black" stroke="black" stroke-width="2" stroke-linejoin="round"/>
</mask>
<g mask="url(#mask0_2258_40705)">
<path d="M-0.398438 -0.398438H16.4004V16.4004H-0.398438V-0.398438Z" fill="#EBEBEB"/>
</g>
</svg>
