<svg width="361" height="153" viewBox="0 0 361 153" fill="none" xmlns="http://www.w3.org/2000/svg">
<g clip-path="url(#clip0_5116_40407)">
<rect y="-3" width="361" height="160" rx="6" fill="#EBEBEB"/>
<ellipse cx="165.027" cy="118.655" rx="11.1169" ry="8.8935" fill="url(#paint0_linear_5116_40407)"/>
<ellipse cx="196.246" cy="118.655" rx="11.1169" ry="8.8935" fill="url(#paint1_linear_5116_40407)"/>
<path d="M180.674 55.6758C184.191 55.6758 187.581 56.1924 190.764 57.1484C190.204 58.0864 189.882 59.1829 189.882 60.3545C189.882 63.0386 191.571 65.3271 193.943 66.2188C193.879 66.5791 193.844 66.9502 193.844 67.3291C193.844 70.7887 196.649 73.5937 200.108 73.5938C200.976 73.5937 201.803 73.4168 202.555 73.0977C203.684 74.7406 205.575 75.8183 207.72 75.8184C209.035 75.8183 210.256 75.4118 211.264 74.7188C213.002 78.5352 213.966 82.7411 213.966 87.1602C213.966 104.548 199.06 118.645 180.674 118.645C162.288 118.644 147.383 104.548 147.383 87.1602C147.383 69.772 162.288 55.676 180.674 55.6758Z" fill="url(#paint2_linear_5116_40407)"/>
<circle cx="187.989" cy="85.0123" r="9.02404" fill="white"/>
<mask id="mask0_5116_40407" style="mask-type:alpha" maskUnits="userSpaceOnUse" x="178" y="75" width="20" height="20">
<circle cx="187.989" cy="85.0123" r="9.02404" fill="#D9D9D9"/>
</mask>
<g mask="url(#mask0_5116_40407)">
<circle cx="191.882" cy="83.9878" r="5.60113" fill="#202020"/>
<circle cx="191.882" cy="83.9878" r="5.60113" fill="black" fill-opacity="0.2"/>
</g>
<circle cx="172.895" cy="85.0123" r="9.02404" fill="white"/>
<mask id="mask1_5116_40407" style="mask-type:alpha" maskUnits="userSpaceOnUse" x="163" y="75" width="19" height="20">
<circle cx="172.895" cy="85.0123" r="9.02404" fill="#D9D9D9"/>
</mask>
<g mask="url(#mask1_5116_40407)">
<circle cx="176.785" cy="83.9878" r="5.60113" fill="#202020"/>
<circle cx="176.785" cy="83.9878" r="5.60113" fill="black" fill-opacity="0.2"/>
</g>
<path d="M172.07 96.7695C173.202 102.39 179.222 104.732 183.051 100.152" stroke="#202020" stroke-width="2.178" stroke-linecap="round"/>
<path d="M172.07 96.7695C173.202 102.39 179.222 104.732 183.051 100.152" stroke="black" stroke-opacity="0.2" stroke-width="2.178" stroke-linecap="round"/>
<path d="M165.636 71.6846C166.958 68.2852 172.153 66.2788 175.522 69.1584" stroke="#202020" stroke-width="2.178" stroke-linecap="round"/>
<path d="M165.636 71.6846C166.958 68.2852 172.153 66.2788 175.522 69.1584" stroke="black" stroke-opacity="0.2" stroke-width="2.178" stroke-linecap="round"/>
<ellipse cx="145.043" cy="106.804" rx="8.1675" ry="6.51115" transform="rotate(-112.004 145.043 106.804)" fill="#1FC16F"/>
<ellipse cx="8.1675" cy="6.51115" rx="8.1675" ry="6.51115" transform="matrix(0.374673 -0.927157 -0.927157 -0.374673 219.57 116.816)" fill="#1FC16F"/>
<g clip-path="url(#clip1_5116_40407)">
<path d="M132.599 13.8584C132.396 10.9432 134.258 8.14349 137.172 6.98853C140.086 5.83356 143.361 6.59743 145.21 8.86011C145.938 8.14878 146.782 7.58539 147.737 7.20692C149.483 6.51468 151.413 6.49259 153.1 7.14551C154.788 7.79842 156.096 9.07286 156.736 10.6885C157.835 13.4602 156.753 16.6907 154.133 18.5397L157.999 28.2936C158.241 28.9036 157.942 29.594 157.332 29.8358L138.137 37.4432C137.528 37.6849 136.837 37.3864 136.595 36.7764L132.73 27.0225C131.183 27.2421 129.631 26.9751 128.315 26.263C126.999 25.5509 125.993 24.4339 125.454 23.0864C124.814 21.4708 124.894 19.6464 125.676 18.0145C126.459 16.3826 127.879 15.0769 129.626 14.3847C130.581 14.0062 131.581 13.8388 132.599 13.8584Z" fill="#C3C3C3"/>
</g>
<ellipse cx="143.61" cy="169.513" rx="24.255" ry="19.404" fill="url(#paint3_linear_5116_40407)"/>
<ellipse cx="211.724" cy="169.513" rx="24.255" ry="19.404" fill="url(#paint4_linear_5116_40407)"/>
<path d="M177.742 32.1055C185.417 32.1055 192.814 33.2321 199.758 35.3184C198.538 37.3638 197.837 39.7548 197.837 42.3096C197.837 48.1682 201.523 53.1646 206.703 55.1084C206.562 55.8962 206.488 56.7077 206.488 57.5361C206.488 65.0842 212.608 71.2031 220.156 71.2031C222.051 71.203 223.856 70.8164 225.497 70.1191C227.961 73.6998 232.088 76.0478 236.764 76.0479C239.63 76.0478 242.289 75.1641 244.486 73.6562C248.277 81.9821 250.379 91.1577 250.379 100.798C250.379 138.736 217.858 169.491 177.742 169.491C137.626 169.491 105.105 138.736 105.105 100.798C105.106 62.86 137.626 32.1055 177.742 32.1055Z" fill="url(#paint5_linear_5116_40407)"/>
<circle cx="193.556" cy="94.7435" r="19.6888" fill="white"/>
<mask id="mask2_5116_40407" style="mask-type:alpha" maskUnits="userSpaceOnUse" x="173" y="75" width="41" height="40">
<circle cx="193.556" cy="94.7435" r="19.6888" fill="#D9D9D9"/>
</mask>
<g mask="url(#mask2_5116_40407)">
<ellipse cx="199.271" cy="101.021" rx="12.2206" ry="12.2206" fill="#202020"/>
<ellipse cx="199.271" cy="101.021" rx="12.2206" ry="12.2206" fill="black" fill-opacity="0.2"/>
</g>
<circle cx="160.626" cy="94.7435" r="19.6888" fill="white"/>
<mask id="mask3_5116_40407" style="mask-type:alpha" maskUnits="userSpaceOnUse" x="140" y="75" width="41" height="40">
<circle cx="160.626" cy="94.7435" r="19.6888" fill="#D9D9D9"/>
</mask>
<g mask="url(#mask3_5116_40407)">
<ellipse cx="166.342" cy="101.021" rx="12.2206" ry="12.2206" fill="#202020"/>
<ellipse cx="166.342" cy="101.021" rx="12.2206" ry="12.2206" fill="black" fill-opacity="0.2"/>
</g>
<path d="M158.957 120.316C161.426 132.579 174.561 137.688 182.915 127.697" stroke="#202020" stroke-width="4.752" stroke-linecap="round"/>
<path d="M158.957 120.316C161.426 132.579 174.561 137.688 182.915 127.697" stroke="black" stroke-opacity="0.2" stroke-width="4.752" stroke-linecap="round"/>
<path d="M141.781 63.7644C144.664 56.3474 155.998 51.9699 163.348 58.2525" stroke="#202020" stroke-width="4.752" stroke-linecap="round"/>
<path d="M141.781 63.7644C144.664 56.3474 155.998 51.9699 163.348 58.2525" stroke="black" stroke-opacity="0.2" stroke-width="4.752" stroke-linecap="round"/>
<g clip-path="url(#clip2_5116_40407)">
<path d="M265.246 110.145C267.688 109.452 270.228 110.871 270.92 113.31L272.383 118.468C273.649 122.924 273.502 127.664 271.962 132.034C270.422 136.403 267.564 140.188 263.784 142.866L264.471 145.289C264.741 146.241 264.622 147.262 264.14 148.127C263.657 148.991 262.851 149.629 261.899 149.899L249.927 153.295C248.975 153.566 247.954 153.446 247.09 152.964C246.225 152.482 245.587 151.676 245.317 150.723L244.63 148.3C240.006 148.007 235.587 146.287 231.982 143.377C228.376 140.467 225.762 136.511 224.498 132.054L223.035 126.896C222.342 124.454 223.761 121.915 226.201 121.223L265.246 110.145Z" fill="white"/>
</g>
<ellipse cx="17.82" cy="14.2062" rx="17.82" ry="14.2062" transform="matrix(0.716692 -0.69739 -0.69739 -0.716692 255.793 171.871)" fill="#1FC16F"/>
<path d="M113.006 120.355C112.073 118.875 111.726 117.161 111.936 115.517C112.713 109.412 120.795 104.254 128.101 105.184C132.135 105.698 134.991 109.387 134.478 113.421C133.547 120.728 126.528 127.259 120.424 126.482C118.78 126.273 117.207 125.508 116.008 124.234L95.7237 139.943C94.6512 140.773 93.1062 140.577 92.2759 139.504C91.4457 138.431 91.6424 136.886 92.7149 136.056L113.006 120.355Z" fill="#ECC581"/>
<ellipse cx="94.4786" cy="137.708" rx="17.82" ry="14.2062" transform="rotate(-111.112 94.4786 137.708)" fill="#1FC16F"/>
</g>
<defs>
<linearGradient id="paint0_linear_5116_40407" x1="165.027" y1="109.762" x2="165.027" y2="127.549" gradientUnits="userSpaceOnUse">
<stop offset="0.5" stop-color="#202020"/>
<stop offset="1" stop-color="#474747"/>
</linearGradient>
<linearGradient id="paint1_linear_5116_40407" x1="196.246" y1="109.762" x2="196.246" y2="127.549" gradientUnits="userSpaceOnUse">
<stop offset="0.5" stop-color="#202020"/>
<stop offset="1" stop-color="#474747"/>
</linearGradient>
<linearGradient id="paint2_linear_5116_40407" x1="180.674" y1="55.6758" x2="180.674" y2="118.645" gradientUnits="userSpaceOnUse">
<stop stop-color="#32E389"/>
<stop offset="1" stop-color="#1FC16F"/>
</linearGradient>
<linearGradient id="paint3_linear_5116_40407" x1="143.61" y1="150.109" x2="143.61" y2="188.917" gradientUnits="userSpaceOnUse">
<stop offset="0.5" stop-color="#202020"/>
<stop offset="1" stop-color="#474747"/>
</linearGradient>
<linearGradient id="paint4_linear_5116_40407" x1="211.724" y1="150.109" x2="211.724" y2="188.917" gradientUnits="userSpaceOnUse">
<stop offset="0.5" stop-color="#202020"/>
<stop offset="1" stop-color="#474747"/>
</linearGradient>
<linearGradient id="paint5_linear_5116_40407" x1="177.742" y1="32.1055" x2="177.742" y2="169.491" gradientUnits="userSpaceOnUse">
<stop stop-color="#32E389"/>
<stop offset="1" stop-color="#1FC16F"/>
</linearGradient>
<clipPath id="clip0_5116_40407">
<rect y="-3" width="361" height="160" rx="6" fill="white"/>
</clipPath>
<clipPath id="clip1_5116_40407">
<rect width="39.3158" height="39.3158" fill="white" transform="translate(116.883 9.26953) rotate(-21.6198)"/>
</clipPath>
<clipPath id="clip2_5116_40407">
<rect width="59.7297" height="59.7297" fill="white" transform="translate(213.602 111.867) rotate(-15.8397)"/>
</clipPath>
</defs>
</svg>
