<svg width="18" height="21" viewBox="0 0 18 21" fill="none" xmlns="http://www.w3.org/2000/svg">
<path d="M7.875 18.9V14.7H5.625C4.06875 14.7 2.74237 14.1879 1.64587 13.1638C0.549375 12.1397 0.00075 10.9018 0 9.44999C0 8.39999 0.309375 7.4333 0.928125 6.5499C1.54687 5.6665 2.38125 5.0232 3.43125 4.62C3.6 3.3075 4.21425 2.20955 5.274 1.32615C6.33375 0.442751 7.57575 0.00070083 9 8.30039e-07C10.4242 -0.000699169 11.6666 0.441351 12.7271 1.32615C13.7876 2.21095 14.4015 3.3089 14.5688 4.62C15.6188 5.0225 16.4531 5.6658 17.0719 6.5499C17.6906 7.434 18 8.40069 18 9.44999C18 10.9025 17.4514 12.1408 16.3541 13.1649C15.2569 14.189 13.9305 14.7007 12.375 14.7H10.125V18.9H15.75C16.0688 18.9 16.3361 19.0008 16.5521 19.2024C16.7681 19.404 16.8757 19.6532 16.875 19.95C16.8743 20.2468 16.7663 20.4963 16.551 20.6986C16.3358 20.9009 16.0688 21.0014 15.75 21H2.25C1.93125 21 1.66425 20.8992 1.449 20.6976C1.23375 20.496 1.12575 20.2468 1.125 19.95C1.12425 19.6532 1.23225 19.404 1.449 19.2024C1.66575 19.0008 1.93275 18.9 2.25 18.9H7.875Z" fill="#32E389"/>
</svg>
