<svg width="48" height="48" viewBox="0 0 48 48" fill="none" xmlns="http://www.w3.org/2000/svg">
<g clip-path="url(#clip0_2336_46989)">
<path d="M23.9964 48C20.6769 48 17.5573 47.3707 14.6378 46.1121C11.7182 44.8536 9.17861 43.147 7.01894 40.9924C4.85926 38.8378 3.14992 36.3022 1.89091 33.3858C0.631904 30.4693 0.00159976 27.3548 0 24.0423C0 20.808 0.670299 17.664 2.0109 14.6101C3.35149 11.5563 5.21121 8.87068 7.59005 6.55317C9.96889 4.23566 12.7981 2.47876 16.0776 1.28247C19.3571 0.0861831 22.9565 -0.273183 26.8759 0.204374C27.4758 0.284233 27.9358 0.534192 28.2557 0.95425C28.5757 1.37431 28.7556 1.94291 28.7956 2.66004C28.8756 5.21553 29.8259 7.40207 31.6464 9.21966C33.4669 11.0373 35.6362 11.9852 38.1542 12.0634C38.9941 12.1034 39.634 12.3429 40.0739 12.7822C40.5139 13.2214 40.7538 13.9002 40.7938 14.8186C40.8738 16.4956 41.3841 17.8732 42.3248 18.9513C43.2654 20.0294 44.5748 20.8479 46.253 21.4069C46.8129 21.6066 47.2432 21.8965 47.544 22.2766C47.8447 22.6567 47.9943 23.1255 47.9927 23.6829C48.0727 26.9971 47.4928 30.1315 46.253 33.0863C45.0132 36.0411 43.3134 38.6269 41.1538 40.8438C38.9941 43.0607 36.4345 44.8072 33.4749 46.0834C30.5154 47.3595 27.3559 47.9984 23.9964 48ZM20.3969 19.2508C21.3968 19.2508 22.247 18.9018 22.9477 18.2038C23.6484 17.5058 23.998 16.6569 23.9964 15.6571C23.9948 14.6573 23.6452 13.8092 22.9477 13.1128C22.2502 12.4164 21.4 12.0666 20.3969 12.0634C19.3939 12.0602 18.5444 12.41 17.8485 13.1128C17.1526 13.8155 16.8023 14.6636 16.7975 15.6571C16.7927 16.6505 17.143 17.4994 17.8485 18.2038C18.554 18.9082 19.4035 19.2571 20.3969 19.2508ZM15.5976 31.2296C16.5975 31.2296 17.4478 30.8806 18.1485 30.1826C18.8491 29.4847 19.1987 28.6358 19.1971 27.6359C19.1955 26.6361 18.8459 25.788 18.1485 25.0916C17.451 24.3953 16.6007 24.0455 15.5976 24.0423C14.5946 24.0391 13.7451 24.3889 13.0492 25.0916C12.3533 25.7944 12.003 26.6425 11.9982 27.6359C11.9934 28.6294 12.3437 29.4783 13.0492 30.1826C13.7547 30.887 14.6042 31.236 15.5976 31.2296ZM31.1953 33.6254C31.8752 33.6254 32.4455 33.3954 32.9062 32.9354C33.3669 32.4754 33.5965 31.9068 33.5949 31.2296C33.5933 30.5524 33.3629 29.9838 32.9038 29.5238C32.4447 29.0638 31.8752 28.8338 31.1953 28.8338C30.5154 28.8338 29.9459 29.0638 29.4867 29.5238C29.0276 29.9838 28.7972 30.5524 28.7956 31.2296C28.794 31.9068 29.0244 32.4762 29.4867 32.9378C29.9491 33.3994 30.5186 33.6286 31.1953 33.6254Z" fill="#1FC16F"/>
</g>
<defs>
<clipPath id="clip0_2336_46989">
<rect width="48" height="48" fill="white"/>
</clipPath>
</defs>
</svg>
