<svg width="198" height="158" viewBox="0 0 198 158" fill="none" xmlns="http://www.w3.org/2000/svg">
<ellipse cx="57.6906" cy="124.92" rx="22.05" ry="17.64" fill="url(#paint0_linear_2282_48850)"/>
<ellipse cx="119.609" cy="124.92" rx="22.05" ry="17.64" fill="url(#paint1_linear_2282_48850)"/>
<path d="M88.7129 0C95.6909 1.41762e-05 102.416 1.02474 108.729 2.92188C107.619 4.7819 106.98 6.95586 106.98 9.2793C106.981 14.6045 110.331 19.1454 115.039 20.9131C114.911 21.6292 114.844 22.3671 114.844 23.1201C114.844 29.982 120.407 35.5449 127.269 35.5449C128.992 35.5449 130.634 35.1921 132.126 34.5576C134.366 37.8126 138.116 39.9482 142.366 39.9482C144.973 39.9482 147.391 39.1432 149.389 37.7715C152.835 45.341 154.746 53.6836 154.746 62.4482C154.746 96.9372 125.182 124.896 88.7129 124.896C52.2439 124.896 22.6798 96.9373 22.6797 62.4482C22.6797 27.9591 52.2438 0 88.7129 0Z" fill="url(#paint2_linear_2282_48850)"/>
<circle cx="103.223" cy="58.1929" r="17.8989" fill="white"/>
<mask id="mask0_2282_48850" style="mask-type:alpha" maskUnits="userSpaceOnUse" x="85" y="40" width="37" height="37">
<circle cx="103.223" cy="58.1929" r="17.8989" fill="#D9D9D9"/>
</mask>
<g mask="url(#mask0_2282_48850)">
<circle cx="110.938" cy="56.1605" r="11.1097" fill="#202020"/>
<circle cx="110.938" cy="56.1605" r="11.1097" fill="black" fill-opacity="0.2"/>
</g>
<circle cx="73.2896" cy="58.1919" r="17.8989" fill="white"/>
<mask id="mask1_2282_48850" style="mask-type:alpha" maskUnits="userSpaceOnUse" x="55" y="40" width="37" height="37">
<circle cx="73.2896" cy="58.1919" r="17.8989" fill="#D9D9D9"/>
</mask>
<g mask="url(#mask1_2282_48850)">
<circle cx="81.0042" cy="56.1595" r="11.1097" fill="#202020"/>
<circle cx="81.0042" cy="56.1595" r="11.1097" fill="black" fill-opacity="0.2"/>
</g>
<rect x="107.277" y="67.8604" width="90" height="90" rx="45" fill="#FAFAFA"/>
<path fill-rule="evenodd" clip-rule="evenodd" d="M189.777 112.86C189.777 133.572 172.989 150.36 152.277 150.36C131.566 150.36 114.777 133.572 114.777 112.86C114.777 92.1491 131.566 75.3604 152.277 75.3604C172.989 75.3604 189.777 92.1491 189.777 112.86ZM170.33 103.789C170.616 103.388 170.82 102.935 170.931 102.455C171.042 101.975 171.058 101.478 170.976 100.993C170.895 100.507 170.719 100.042 170.458 99.624C170.198 99.2062 169.857 98.844 169.456 98.5578C169.055 98.2717 168.602 98.0674 168.122 97.9564C167.642 97.8455 167.145 97.8302 166.66 97.9113C166.174 97.9924 165.709 98.1685 165.291 98.4293C164.873 98.6902 164.511 99.0307 164.225 99.4316L148.047 122.082L139.929 113.959C139.221 113.276 138.274 112.898 137.291 112.907C136.308 112.915 135.367 113.309 134.672 114.005C133.976 114.7 133.582 115.641 133.574 116.624C133.565 117.607 133.943 118.554 134.626 119.262L145.876 130.512C146.261 130.896 146.725 131.192 147.236 131.379C147.747 131.566 148.293 131.64 148.835 131.595C149.378 131.55 149.904 131.388 150.377 131.119C150.85 130.85 151.26 130.482 151.576 130.039L170.33 103.789Z" fill="#FFADAD"/>
<path d="M71.6641 81.5049C73.9087 92.6525 85.8499 97.2974 93.4441 88.2141" stroke="#202020" stroke-width="4.32" stroke-linecap="round"/>
<path d="M71.6641 81.5049C73.9087 92.6525 85.8499 97.2974 93.4441 88.2141" stroke="black" stroke-opacity="0.2" stroke-width="4.32" stroke-linecap="round"/>
<path d="M58.9071 31.7458C61.5283 25.003 71.8316 21.0235 78.5139 26.7349" stroke="#202020" stroke-width="4.32" stroke-linecap="round"/>
<path d="M58.9071 31.7458C61.5283 25.003 71.8316 21.0235 78.5139 26.7349" stroke="black" stroke-opacity="0.2" stroke-width="4.32" stroke-linecap="round"/>
<ellipse cx="18.041" cy="101.399" rx="16.2" ry="12.9147" transform="rotate(-112.004 18.041 101.399)" fill="#1FC16F"/>
<ellipse cx="16.2" cy="12.9147" rx="16.2" ry="12.9147" transform="matrix(0.930367 0.36663 0.36663 -0.930367 153.035 78.6748)" fill="#1FC16F"/>
<defs>
<linearGradient id="paint0_linear_2282_48850" x1="57.6906" y1="107.28" x2="57.6906" y2="142.56" gradientUnits="userSpaceOnUse">
<stop offset="0.5" stop-color="#202020"/>
<stop offset="1" stop-color="#474747"/>
</linearGradient>
<linearGradient id="paint1_linear_2282_48850" x1="119.609" y1="107.28" x2="119.609" y2="142.56" gradientUnits="userSpaceOnUse">
<stop offset="0.5" stop-color="#202020"/>
<stop offset="1" stop-color="#474747"/>
</linearGradient>
<linearGradient id="paint2_linear_2282_48850" x1="88.7129" y1="0" x2="88.7129" y2="124.896" gradientUnits="userSpaceOnUse">
<stop stop-color="#32E389"/>
<stop offset="1" stop-color="#1FC16F"/>
</linearGradient>
</defs>
</svg>
