<svg width="92" height="92" viewBox="0 0 92 92" fill="none" xmlns="http://www.w3.org/2000/svg">
<g opacity="0.5">
<ellipse cx="26.095" cy="80.5346" rx="13.72" ry="10.976" fill="url(#paint0_linear_2329_42586)"/>
<ellipse cx="64.6223" cy="80.5346" rx="13.72" ry="10.976" fill="url(#paint1_linear_2329_42586)"/>
<path d="M45.3955 2.80273C49.7372 2.80273 53.9213 3.44176 57.8496 4.62207C57.1596 5.77903 56.7628 7.1313 56.7627 8.57617C56.7627 11.8906 58.8497 14.7163 61.7803 15.8154C61.7006 16.2604 61.6573 16.7186 61.6572 17.1865C61.6572 21.4562 65.1191 24.9178 69.3887 24.918C70.4609 24.9179 71.4819 24.6983 72.4102 24.3037C73.8039 26.3304 76.1386 27.6601 78.7842 27.6602C80.4043 27.6601 81.9071 27.1604 83.1494 26.3086C85.2932 31.0177 86.4834 36.2068 86.4834 41.6592C86.4834 63.1191 68.0874 80.5156 45.3955 80.5156C22.7038 80.5154 4.30859 63.119 4.30859 41.6592C4.30874 20.1995 22.7039 2.80292 45.3955 2.80273Z" fill="url(#paint2_linear_2329_42586)"/>
<circle cx="35.8051" cy="39.0141" r="11.1371" fill="white"/>
<mask id="mask0_2329_42586" style="mask-type:alpha" maskUnits="userSpaceOnUse" x="24" y="27" width="23" height="24">
<circle cx="35.8051" cy="39.0141" r="11.1371" fill="#D9D9D9"/>
</mask>
<g mask="url(#mask0_2329_42586)">
<circle cx="31.6471" cy="36.2935" r="6.91269" fill="#202020"/>
<circle cx="31.6471" cy="36.2935" r="6.91269" fill="black" fill-opacity="0.2"/>
</g>
<circle cx="54.4301" cy="39.0141" r="11.1371" fill="white"/>
<mask id="mask1_2329_42586" style="mask-type:alpha" maskUnits="userSpaceOnUse" x="43" y="27" width="23" height="24">
<circle cx="54.4301" cy="39.0141" r="11.1371" fill="#D9D9D9"/>
</mask>
<g mask="url(#mask1_2329_42586)">
<circle cx="50.2682" cy="36.2935" r="6.91269" fill="#202020"/>
<circle cx="50.2682" cy="36.2935" r="6.91269" fill="black" fill-opacity="0.2"/>
</g>
<path d="M35.168 54.2688C38.416 50.8528 46.088 53.2608 46.088 59.4768" stroke="#202020" stroke-width="2.688" stroke-linecap="round"/>
<path d="M35.168 54.2688C38.416 50.8528 46.088 53.2608 46.088 59.4768" stroke="black" stroke-opacity="0.2" stroke-width="2.688" stroke-linecap="round"/>
<ellipse cx="13.5253" cy="64.5536" rx="10.08" ry="8.0358" transform="rotate(-112.004 13.5253 64.5536)" fill="#1FC16F"/>
<ellipse cx="10.08" cy="8.0358" rx="10.08" ry="8.0358" transform="matrix(0.374673 -0.927157 -0.927157 -0.374673 83.6172 38.4961)" fill="#1FC16F"/>
<path d="M26.9196 20.9488C29.5663 17.3078 36.3967 16.548 39.5112 21.0444" stroke="#202020" stroke-width="2.688" stroke-linecap="round"/>
<path d="M26.9196 20.9488C29.5663 17.3078 36.3967 16.548 39.5112 21.0444" stroke="black" stroke-opacity="0.2" stroke-width="2.688" stroke-linecap="round"/>
<path d="M61.682 18.7504C59.0352 22.3914 52.2049 23.1513 49.0904 18.6549" stroke="#202020" stroke-width="2.688" stroke-linecap="round"/>
<path d="M61.682 18.7504C59.0352 22.3914 52.2049 23.1513 49.0904 18.6549" stroke="black" stroke-opacity="0.2" stroke-width="2.688" stroke-linecap="round"/>
<g clip-path="url(#clip0_2329_42586)">
<path d="M4.73259 0C2.86183 0 1.65014 0.766477 0.698831 2.13342C0.52626 2.38139 0.579463 2.72137 0.82019 2.90391L1.83124 3.67052C2.07435 3.85486 2.42027 3.81176 2.6106 3.5733C3.19769 2.83781 3.63318 2.41434 4.55022 2.41434C5.27125 2.41434 6.1631 2.87838 6.1631 3.57757C6.1631 4.10613 5.72676 4.37759 5.01482 4.77673C4.1846 5.2422 3.08594 5.82148 3.08594 7.27059V7.5C3.08594 7.81066 3.33778 8.0625 3.64844 8.0625H5.34698C5.65764 8.0625 5.90948 7.81066 5.90948 7.5V7.3647C5.90948 6.36016 8.84545 6.31833 8.84545 3.6C8.84547 1.55288 6.72199 0 4.73259 0ZM4.49772 8.75295C3.6025 8.75295 2.87418 9.48127 2.87418 10.3765C2.87418 11.2717 3.6025 12 4.49772 12C5.39294 12 6.12126 11.2717 6.12126 10.3765C6.12126 9.48124 5.39294 8.75295 4.49772 8.75295Z" fill="#7D7D7D"/>
</g>
</g>
<defs>
<linearGradient id="paint0_linear_2329_42586" x1="26.095" y1="69.5586" x2="26.095" y2="91.5106" gradientUnits="userSpaceOnUse">
<stop offset="0.5" stop-color="#202020"/>
<stop offset="1" stop-color="#474747"/>
</linearGradient>
<linearGradient id="paint1_linear_2329_42586" x1="64.6223" y1="69.5586" x2="64.6223" y2="91.5106" gradientUnits="userSpaceOnUse">
<stop offset="0.5" stop-color="#202020"/>
<stop offset="1" stop-color="#474747"/>
</linearGradient>
<linearGradient id="paint2_linear_2329_42586" x1="45.396" y1="2.80273" x2="45.396" y2="80.5156" gradientUnits="userSpaceOnUse">
<stop stop-color="#32E389"/>
<stop offset="1" stop-color="#1FC16F"/>
</linearGradient>
<clipPath id="clip0_2329_42586">
<rect width="9" height="12" fill="white"/>
</clipPath>
</defs>
</svg>
