<svg width="85" height="90" viewBox="0 0 85 90" fill="none" xmlns="http://www.w3.org/2000/svg">
<ellipse cx="44.0936" cy="77.9252" rx="9.50427" ry="7.60341" transform="rotate(43.6501 44.0936 77.9252)" fill="url(#paint0_linear_2336_47396)"/>
<ellipse cx="62.2459" cy="76.8432" rx="9.50427" ry="7.60341" transform="rotate(43.65 62.2459 76.8432)" fill="url(#paint1_linear_2336_47396)"/>
<path d="M42.4277 20.7891C45.4366 20.7891 48.3363 21.2314 51.0586 22.0498C50.5805 22.8513 50.3057 23.788 50.3057 24.7891C50.3057 27.0859 51.752 29.0438 53.7832 29.8047C53.7281 30.1128 53.6982 30.4299 53.6982 30.7539C53.6982 33.7117 56.0959 36.1094 59.0537 36.1094C59.7953 36.1094 60.5014 35.958 61.1436 35.6855C62.1092 37.0882 63.7259 38.0078 65.5576 38.0078C66.6795 38.0078 67.7196 37.661 68.5801 37.0713C70.0654 40.3337 70.8896 43.9287 70.8896 47.7061C70.8896 62.5719 58.1469 74.6228 42.4277 74.623C26.7084 74.623 13.9648 62.572 13.9648 47.7061C13.965 32.8402 26.7085 20.7891 42.4277 20.7891Z" fill="url(#paint2_linear_2336_47396)"/>
<path d="M34.8907 56.1878C37.5287 57.1531 41.2501 58.2006 43.8907 58.787C44.7415 58.9759 42.104 64.5516 37.5287 63.3257C32.1344 61.8803 33.7659 55.7762 34.8907 56.1878Z" fill="#202020"/>
<path d="M34.8907 56.1878C37.5287 57.1531 41.2501 58.2006 43.8907 58.787C44.7415 58.9759 42.104 64.5516 37.5287 63.3257C32.1344 61.8803 33.7659 55.7762 34.8907 56.1878Z" fill="black" fill-opacity="0.2"/>
<path d="M34.8907 56.1878C37.5287 57.1531 41.2501 58.2006 43.8907 58.787C44.7415 58.9759 42.104 64.5516 37.5287 63.3257C32.1344 61.8803 33.7659 55.7762 34.8907 56.1878Z" stroke="#202020" stroke-width="1.86206"/>
<path d="M34.8907 56.1878C37.5287 57.1531 41.2501 58.2006 43.8907 58.787C44.7415 58.9759 42.104 64.5516 37.5287 63.3257C32.1344 61.8803 33.7659 55.7762 34.8907 56.1878Z" stroke="black" stroke-opacity="0.2" stroke-width="1.86206"/>
<path d="M29.3697 33.0895C31.3481 30.9559 36.0421 30.6455 38.3308 33.0895" stroke="#202020" stroke-width="1.86206" stroke-linecap="round"/>
<path d="M29.3697 33.0895C31.3481 30.9559 36.0421 30.6455 38.3308 33.0895" stroke="black" stroke-opacity="0.2" stroke-width="1.86206" stroke-linecap="round"/>
<ellipse cx="7.77929" cy="57.2801" rx="6.98273" ry="5.56665" transform="rotate(-112.004 7.77929 57.2801)" fill="#32E389"/>
<ellipse cx="6.98273" cy="5.56665" rx="6.98273" ry="5.56665" transform="matrix(0.374673 -0.927157 -0.927157 -0.374673 79.6875 65.8398)" fill="#32E389"/>
<path d="M44.183 46.0357C46.3942 43.4058 52.0968 43.0567 54.6203 46.0357" stroke="#202020" stroke-width="1.86206" stroke-linecap="round"/>
<path d="M44.183 46.0357C46.3942 43.4058 52.0968 43.0567 54.6203 46.0357" stroke="black" stroke-opacity="0.2" stroke-width="1.86206" stroke-linecap="round"/>
<path d="M40.7684 46.0657C38.444 43.2516 32.8547 43.0866 30.3311 46.0657" stroke="#202020" stroke-width="1.86206" stroke-linecap="round"/>
<path d="M40.7684 46.0657C38.444 43.2516 32.8547 43.0866 30.3311 46.0657" stroke="black" stroke-opacity="0.2" stroke-width="1.86206" stroke-linecap="round"/>
<path d="M66.3075 15.3122C66.2 14.794 66.5774 14.2734 67.1067 14.2734H68.6273C68.9355 14.2734 69.2098 14.459 69.273 14.7607C69.34 15.0808 69.4062 15.5618 69.4062 16.2131C69.4062 16.8643 69.34 17.3454 69.273 17.6655C69.2098 17.9672 68.9355 18.1527 68.6273 18.1527H67.1067C66.5774 18.1527 66.2 17.6322 66.3075 17.1139C66.3704 16.8105 66.4192 16.487 66.4192 16.2131C66.4192 15.9392 66.3704 15.6157 66.3075 15.3122Z" fill="#FCA8A8"/>
<path d="M77.1425 34.6663C76.7428 34.3194 76.7273 33.6766 77.1482 33.3557L78.3573 32.4337C78.6024 32.2467 78.933 32.228 79.1662 32.4296C79.4136 32.6435 79.7579 32.9858 80.1528 33.5037C80.5477 34.0215 80.7868 34.4442 80.9276 34.7394C81.0603 35.0176 80.9547 35.3315 80.7096 35.5184L79.5005 36.4404C79.0796 36.7613 78.4638 36.5763 78.235 36.099C78.1011 35.8195 77.9437 35.5327 77.7776 35.3149C77.6115 35.0972 77.3766 34.8695 77.1425 34.6663Z" fill="#C6B2FB"/>
<path d="M18.1542 77.4984C17.7545 77.1514 17.739 76.5087 18.1599 76.1877L19.369 75.2657C19.6141 75.0788 19.9447 75.06 20.1779 75.2616C20.4253 75.4755 20.7696 75.8178 21.1646 76.3357C21.5595 76.8536 21.7985 77.2762 21.9393 77.5714C22.072 77.8496 21.9664 78.1635 21.7213 78.3504L20.5122 79.2724C20.0913 79.5934 19.4755 79.4083 19.2467 78.9311C19.1128 78.6516 18.9554 78.3648 18.7893 78.147C18.6232 77.9292 18.3883 77.7015 18.1542 77.4984Z" fill="#C6B2FB"/>
<path d="M10.8605 25.3278C10.968 24.8096 10.5905 24.2891 10.0613 24.2891H8.54071C8.23246 24.2891 7.95815 24.4746 7.89497 24.7763C7.82794 25.0964 7.76173 25.5775 7.76173 26.2287C7.76173 26.88 7.82794 27.361 7.89497 27.6811C7.95815 27.9828 8.23246 28.1684 8.54071 28.1684H10.0613C10.5905 28.1684 10.968 27.6478 10.8605 27.1296C10.7976 26.8261 10.7488 26.5026 10.7488 26.2287C10.7488 25.9548 10.7976 25.6313 10.8605 25.3278Z" fill="#8AE6D8"/>
<path d="M79.6306 10.0868C79.9998 9.70761 79.9613 9.06578 79.515 8.78127L78.2328 7.9639C77.9729 7.7982 77.6418 7.80722 77.4264 8.02766C77.1978 8.26156 76.8834 8.63158 76.5333 9.18074C76.1832 9.72991 75.9805 10.1711 75.8649 10.4771C75.756 10.7654 75.8876 11.0694 76.1475 11.2351L77.4297 12.0524C77.876 12.3369 78.4741 12.1009 78.6621 11.6061C78.7721 11.3164 78.9049 11.0174 79.0521 10.7864C79.1993 10.5555 79.4143 10.3089 79.6306 10.0868Z" fill="#8AE6D8"/>
<path d="M32.3527 1.03878C32.4602 0.52053 32.0827 0 31.5534 0H30.0329C29.7246 0 29.4503 0.18556 29.3872 0.487264C29.3201 0.807376 29.2539 1.28839 29.2539 1.93965C29.2539 2.5909 29.3201 3.07192 29.3872 3.39203C29.4503 3.69373 29.7246 3.87929 30.0329 3.87929H31.5534C32.0827 3.87929 32.4602 3.35876 32.3527 2.84051C32.2897 2.53701 32.241 2.21352 32.241 1.93965C32.241 1.66577 32.2897 1.34228 32.3527 1.03878Z" fill="#FF8686"/>
<path d="M79.216 87.1599C79.3235 86.6416 78.946 86.1211 78.4167 86.1211H76.8962C76.5879 86.1211 76.3136 86.3067 76.2504 86.6084C76.1834 86.9285 76.1172 87.4095 76.1172 88.0607C76.1172 88.712 76.1834 89.193 76.2504 89.5131C76.3136 89.8148 76.5879 90.0004 76.8962 90.0004H78.4167C78.946 90.0004 79.3235 89.4799 79.216 88.9616C79.153 88.6581 79.1043 88.3346 79.1043 88.0607C79.1043 87.7869 79.153 87.4634 79.216 87.1599Z" fill="#FF8686"/>
<path d="M23.2432 14.6483C23.0724 14.1473 22.4828 13.8909 22.0269 14.1599L20.7174 14.9327C20.452 15.0894 20.31 15.3886 20.409 15.6806C20.5139 15.9903 20.7014 16.4382 21.0324 16.9991C21.3634 17.5599 21.6649 17.9405 21.8853 18.1822C22.0931 18.4099 22.4237 18.4303 22.6891 18.2736L23.9986 17.5008C24.4544 17.2317 24.5149 16.5916 24.159 16.1999C23.9505 15.9706 23.7441 15.7167 23.6049 15.4809C23.4657 15.245 23.3433 14.9416 23.2432 14.6483Z" fill="#F55A5A"/>
<path d="M4.72951 13.3369C4.80772 12.9156 4.52957 12.5108 4.10827 12.4326L3.05407 12.2369C2.487 12.1316 1.91946 12.6822 1.86951 13.2568C1.8511 13.4686 1.81999 13.7069 1.77088 13.9715C1.72177 14.236 1.66526 14.4696 1.60642 14.6739C1.4468 15.2281 1.77891 15.9457 2.34598 16.051L3.40018 16.2467C3.82147 16.3249 4.22637 16.047 4.30459 15.6257C4.37216 15.2617 4.45222 14.8305 4.51705 14.4813C4.58188 14.1321 4.66193 13.7009 4.72951 13.3369Z" fill="#CBBDEE"/>
<defs>
<linearGradient id="paint0_linear_2336_47396" x1="44.0936" y1="70.3218" x2="44.0936" y2="85.5286" gradientUnits="userSpaceOnUse">
<stop offset="0.5" stop-color="#202020"/>
<stop offset="1" stop-color="#474747"/>
</linearGradient>
<linearGradient id="paint1_linear_2336_47396" x1="62.2459" y1="69.2398" x2="62.2459" y2="84.4466" gradientUnits="userSpaceOnUse">
<stop offset="0.5" stop-color="#202020"/>
<stop offset="1" stop-color="#474747"/>
</linearGradient>
<linearGradient id="paint2_linear_2336_47396" x1="42.4272" y1="20.7891" x2="42.4272" y2="74.623" gradientUnits="userSpaceOnUse">
<stop stop-color="#32E389"/>
<stop offset="1" stop-color="#1FC16F"/>
</linearGradient>
</defs>
</svg>
