<svg width="1095" height="1160" viewBox="0 0 1095 1160" fill="none" xmlns="http://www.w3.org/2000/svg">
<ellipse cx="568.282" cy="1004.47" rx="122.5" ry="98" transform="rotate(43.6501 568.282 1004.47)" fill="url(#paint0_linear_2282_46843)"/>
<ellipse cx="802.282" cy="990.466" rx="122.5" ry="98" transform="rotate(43.65 802.282 990.466)" fill="url(#paint1_linear_2282_46843)"/>
<path d="M546.812 268C585.576 268 622.936 273.686 658.01 284.225C651.841 294.56 648.296 306.642 648.296 319.553C648.296 349.139 666.911 374.376 693.066 384.195C692.355 388.171 691.983 392.264 691.983 396.444C691.984 434.567 722.888 465.471 761.011 465.471C770.585 465.471 779.704 463.52 787.992 459.997C800.438 478.08 821.281 489.937 844.893 489.937C859.374 489.936 872.813 485.476 883.913 477.855C903.057 519.904 913.661 566.247 913.661 614.934C913.661 806.54 749.417 961.867 546.812 961.867C344.206 961.867 179.961 806.54 179.961 614.934C179.961 423.327 344.206 268 546.812 268Z" fill="url(#paint2_linear_2282_46843)"/>
<path d="M449.726 724.256C483.726 736.698 531.691 750.198 565.726 757.756C576.692 760.191 542.697 832.056 483.726 816.256C414.199 797.626 435.229 718.951 449.726 724.256Z" fill="#202020"/>
<path d="M449.726 724.256C483.726 736.698 531.691 750.198 565.726 757.756C576.692 760.191 542.697 832.056 483.726 816.256C414.199 797.626 435.229 718.951 449.726 724.256Z" fill="black" fill-opacity="0.2"/>
<path d="M449.726 724.256C483.726 736.698 531.691 750.198 565.726 757.756C576.692 760.191 542.697 832.056 483.726 816.256C414.199 797.626 435.229 718.951 449.726 724.256Z" stroke="#202020" stroke-width="24"/>
<path d="M449.726 724.256C483.726 736.698 531.691 750.198 565.726 757.756C576.692 760.191 542.697 832.056 483.726 816.256C414.199 797.626 435.229 718.951 449.726 724.256Z" stroke="black" stroke-opacity="0.2" stroke-width="24"/>
<path d="M381.219 444.363C395.781 406.903 453.022 384.795 490.146 416.525" stroke="#202020" stroke-width="24" stroke-linecap="round"/>
<path d="M381.219 444.363C395.781 406.903 453.022 384.795 490.146 416.525" stroke="black" stroke-opacity="0.2" stroke-width="24" stroke-linecap="round"/>
<ellipse cx="100.247" cy="738.326" rx="90" ry="71.7482" transform="rotate(-112.004 100.247 738.326)" fill="#1FC16F"/>
<ellipse cx="90" cy="71.7482" rx="90" ry="71.7482" transform="matrix(0.374673 -0.927157 -0.927157 -0.374673 1027.05 848.652)" fill="#1FC16F"/>
<circle cx="626.751" cy="591.356" r="99.4385" fill="white"/>
<mask id="mask0_2282_46843" style="mask-type:alpha" maskUnits="userSpaceOnUse" x="527" y="491" width="200" height="200">
<circle cx="626.751" cy="591.356" r="99.4385" fill="#D9D9D9"/>
</mask>
<g mask="url(#mask0_2282_46843)">
<circle cx="630.033" cy="590.72" r="61.7204" fill="#202020"/>
<circle cx="630.033" cy="590.72" r="61.7204" fill="black" fill-opacity="0.2"/>
</g>
<circle cx="460.446" cy="591.356" r="99.4385" fill="white"/>
<mask id="mask1_2282_46843" style="mask-type:alpha" maskUnits="userSpaceOnUse" x="361" y="491" width="199" height="200">
<circle cx="460.446" cy="591.356" r="99.4385" fill="#D9D9D9"/>
</mask>
<g mask="url(#mask1_2282_46843)">
<circle cx="463.728" cy="590.72" r="61.7204" fill="#202020"/>
<circle cx="463.728" cy="590.72" r="61.7204" fill="black" fill-opacity="0.2"/>
</g>
<path d="M854.584 197.389C853.198 190.709 858.063 184 864.885 184H884.483C888.456 184 891.992 186.392 892.806 190.28C893.67 194.406 894.523 200.606 894.523 209C894.523 217.394 893.67 223.594 892.806 227.72C891.992 231.608 888.456 234 884.483 234H864.885C858.063 234 853.198 227.291 854.584 220.611C855.395 216.699 856.023 212.53 856.023 209C856.023 205.47 855.395 201.301 854.584 197.389Z" fill="#FCA8A8"/>
<path d="M994.27 446.797C989.118 442.326 988.918 434.041 994.343 429.904L1009.93 418.02C1013.09 415.611 1017.35 415.369 1020.35 417.967C1023.54 420.724 1027.98 425.137 1033.07 431.812C1038.16 438.486 1041.24 443.934 1043.06 447.738C1044.77 451.324 1043.4 455.37 1040.25 457.779L1024.66 469.663C1019.24 473.8 1011.3 471.415 1008.35 465.263C1006.62 461.661 1004.6 457.964 1002.46 455.157C1000.32 452.35 997.287 449.416 994.27 446.797Z" fill="#C6B2FB"/>
<path d="M233.973 998.865C228.821 994.393 228.621 986.108 234.046 981.972L249.63 970.088C252.789 967.679 257.051 967.436 260.056 970.035C263.245 972.792 267.683 977.204 272.773 983.879C277.863 990.554 280.944 996.001 282.759 999.806C284.469 1003.39 283.108 1007.44 279.949 1009.85L264.365 1021.73C258.94 1025.87 251.003 1023.48 248.055 1017.33C246.328 1013.73 244.299 1010.03 242.159 1007.22C240.018 1004.42 236.99 1001.48 233.973 998.865Z" fill="#C6B2FB"/>
<path d="M139.963 326.389C141.349 319.709 136.484 313 129.662 313H110.064C106.091 313 102.555 315.392 101.741 319.28C100.877 323.406 100.023 329.606 100.023 338C100.023 346.394 100.877 352.594 101.741 356.72C102.555 360.608 106.091 363 110.064 363H129.662C136.484 363 141.349 356.291 139.963 349.611C139.152 345.699 138.523 341.53 138.523 338C138.523 334.47 139.152 330.301 139.963 326.389Z" fill="#8AE6D8"/>
<path d="M1026.35 129.987C1031.11 125.099 1030.61 116.826 1024.86 113.159L1008.33 102.624C1004.98 100.489 1000.72 100.605 997.938 103.446C994.992 106.461 990.94 111.23 986.428 118.308C981.915 125.386 979.302 131.073 977.813 135.016C976.409 138.733 978.105 142.65 981.455 144.786L997.981 155.321C1003.73 158.988 1011.44 155.946 1013.86 149.568C1015.28 145.834 1016.99 141.98 1018.89 139.003C1020.79 136.027 1023.56 132.849 1026.35 129.987Z" fill="#8AE6D8"/>
<path d="M416.963 13.3888C418.349 6.70908 413.484 0 406.662 0H387.064C383.091 0 379.555 2.39167 378.741 6.28032C377.877 10.4062 377.023 16.606 377.023 25C377.023 33.394 377.877 39.5938 378.741 43.7197C379.555 47.6083 383.091 50 387.064 50H406.662C413.484 50 418.349 43.2909 416.963 36.6112C416.152 32.6994 415.523 28.53 415.523 25C415.523 21.47 416.152 17.3006 416.963 13.3888Z" fill="#FF8686"/>
<path d="M1020.96 1123.39C1022.35 1116.71 1017.48 1110 1010.66 1110H991.064C987.091 1110 983.555 1112.39 982.741 1116.28C981.877 1120.41 981.023 1126.61 981.023 1135C981.023 1143.39 981.877 1149.59 982.741 1153.72C983.555 1157.61 987.091 1160 991.064 1160H1010.66C1017.48 1160 1022.35 1153.29 1020.96 1146.61C1020.15 1142.7 1019.52 1138.53 1019.52 1135C1019.52 1131.47 1020.15 1127.3 1020.96 1123.39Z" fill="#FF8686"/>
<path d="M299.536 188.755C297.334 182.298 289.734 178.993 283.859 182.46L266.981 192.421C263.56 194.441 261.73 198.297 263.005 202.06C264.358 206.053 266.775 211.825 271.041 219.054C275.307 226.283 279.193 231.189 282.034 234.303C284.712 237.238 288.973 237.501 292.394 235.482L309.272 225.521C315.147 222.053 315.927 213.803 311.339 208.754C308.652 205.798 305.991 202.526 304.197 199.486C302.403 196.446 300.825 192.536 299.536 188.755Z" fill="#F55A5A"/>
<path d="M60.9251 171.9C61.9332 166.47 58.3481 161.253 52.918 160.245L39.3305 157.722C32.0216 156.366 24.7065 163.462 24.0628 170.868C23.8255 173.598 23.4245 176.669 22.7915 180.079C22.1585 183.489 21.4302 186.5 20.6718 189.133C18.6144 196.277 22.895 205.526 30.204 206.882L43.7915 209.405C49.2215 210.413 54.4402 206.831 55.4483 201.401C56.3193 196.709 57.3512 191.151 58.1867 186.65C59.0223 182.15 60.0541 176.592 60.9251 171.9Z" fill="#CBBDEE"/>
<defs>
<linearGradient id="paint0_linear_2282_46843" x1="568.282" y1="906.466" x2="568.282" y2="1102.47" gradientUnits="userSpaceOnUse">
<stop offset="0.5" stop-color="#202020"/>
<stop offset="1" stop-color="#474747"/>
</linearGradient>
<linearGradient id="paint1_linear_2282_46843" x1="802.282" y1="892.466" x2="802.282" y2="1088.47" gradientUnits="userSpaceOnUse">
<stop offset="0.5" stop-color="#202020"/>
<stop offset="1" stop-color="#474747"/>
</linearGradient>
<linearGradient id="paint2_linear_2282_46843" x1="546.811" y1="268" x2="546.811" y2="961.867" gradientUnits="userSpaceOnUse">
<stop stop-color="#32E389"/>
<stop offset="1" stop-color="#1FC16F"/>
</linearGradient>
</defs>
</svg>
