<svg width="1074" height="981" viewBox="0 0 1074 981" fill="none" xmlns="http://www.w3.org/2000/svg">
<g clip-path="url(#clip0_2282_46810)">
<path d="M291.888 96.3505C290.864 81.6272 300.269 67.4871 314.987 61.654C329.705 55.8208 346.244 59.6787 355.583 71.1064C359.259 67.5138 363.519 64.6684 368.342 62.757C377.163 59.2608 386.908 59.1492 395.432 62.4468C403.957 65.7444 410.562 72.1809 413.796 80.3405C419.344 94.339 413.88 110.655 400.648 119.993L420.172 169.256C421.393 172.336 419.885 175.823 416.805 177.044L319.862 215.465C316.781 216.686 313.294 215.179 312.073 212.098L292.549 162.836C284.741 163.945 276.901 162.596 270.254 159C263.607 155.403 258.526 149.762 255.806 142.956C252.573 134.797 252.975 125.583 256.926 117.341C260.877 109.099 268.053 102.504 276.874 99.0083C281.697 97.0969 286.75 96.2512 291.888 96.3505Z" fill="#EBEBEB"/>
</g>
<ellipse cx="347.5" cy="882.475" rx="122.5" ry="98" fill="url(#paint0_linear_2282_46810)"/>
<ellipse cx="691.5" cy="882.475" rx="122.5" ry="98" fill="url(#paint1_linear_2282_46810)"/>
<path d="M519.851 188.486C558.615 188.486 595.975 194.173 631.049 204.711C624.88 215.046 621.335 227.128 621.335 240.039C621.335 269.625 639.95 294.862 666.105 304.682C665.394 308.657 665.022 312.751 665.022 316.931C665.023 355.053 695.927 385.957 734.05 385.957C743.624 385.957 752.743 384.007 761.031 380.483C773.477 398.567 794.32 410.423 817.932 410.423C832.413 410.423 845.852 405.962 856.952 398.342C876.096 440.39 886.7 486.734 886.7 535.42C886.7 727.026 722.456 882.353 519.851 882.354C317.245 882.354 153 727.026 153 535.42C153 343.814 317.245 188.486 519.851 188.486Z" fill="url(#paint2_linear_2282_46810)"/>
<circle cx="599.743" cy="504.842" r="99.4385" fill="white"/>
<mask id="mask0_2282_46810" style="mask-type:alpha" maskUnits="userSpaceOnUse" x="500" y="405" width="200" height="200">
<circle cx="599.743" cy="504.842" r="99.4385" fill="#D9D9D9"/>
</mask>
<g mask="url(#mask0_2282_46810)">
<circle cx="628.603" cy="536.552" r="61.7204" fill="#202020"/>
<circle cx="628.603" cy="536.552" r="61.7204" fill="black" fill-opacity="0.2"/>
</g>
<circle cx="433.438" cy="504.842" r="99.4385" fill="white"/>
<mask id="mask1_2282_46810" style="mask-type:alpha" maskUnits="userSpaceOnUse" x="334" y="405" width="199" height="200">
<circle cx="433.438" cy="504.842" r="99.4385" fill="#D9D9D9"/>
</mask>
<g mask="url(#mask1_2282_46810)">
<circle cx="462.299" cy="536.552" r="61.7204" fill="#202020"/>
<circle cx="462.299" cy="536.552" r="61.7204" fill="black" fill-opacity="0.2"/>
</g>
<path d="M425 633.992C437.47 695.924 503.81 721.728 546 671.266" stroke="#202020" stroke-width="24" stroke-linecap="round"/>
<path d="M425 633.992C437.47 695.924 503.81 721.728 546 671.266" stroke="black" stroke-opacity="0.2" stroke-width="24" stroke-linecap="round"/>
<path d="M338.258 348.365C352.821 310.905 410.061 288.797 447.185 320.527" stroke="#202020" stroke-width="24" stroke-linecap="round"/>
<path d="M338.258 348.365C352.821 310.905 410.061 288.797 447.185 320.527" stroke="black" stroke-opacity="0.2" stroke-width="24" stroke-linecap="round"/>
<g clip-path="url(#clip1_2282_46810)">
<path d="M961.856 582.647C974.19 579.148 987.015 586.314 990.511 598.636L997.901 624.683C1004.29 647.192 1003.55 671.129 995.773 693.198C987.994 715.267 973.564 734.38 954.469 747.905L957.941 760.142C959.306 764.953 958.704 770.109 956.267 774.475C953.831 778.842 949.76 782.062 944.949 783.427L884.488 800.581C879.678 801.945 874.522 801.343 870.156 798.907C865.789 796.47 862.569 792.399 861.204 787.589L857.732 775.351C834.38 773.869 812.062 765.182 793.852 750.487C775.643 735.791 762.439 715.811 756.059 693.298L748.669 667.252C745.17 654.918 752.336 642.092 764.658 638.596L961.856 582.647Z" fill="#EBEBEB"/>
</g>
<ellipse cx="90" cy="71.7482" rx="90" ry="71.7482" transform="matrix(0.716692 -0.69739 -0.69739 -0.716692 914.078 894.365)" fill="#1FC16F"/>
<path d="M192.94 634.19C188.228 626.715 186.479 618.055 187.536 609.752C191.461 578.923 232.278 552.869 269.18 557.568C289.553 560.161 303.978 578.795 301.384 599.168C296.686 636.07 261.236 669.057 230.407 665.132C222.104 664.075 214.159 660.212 208.103 653.777L105.657 733.117C100.24 737.311 92.4371 736.317 88.2439 730.9C84.0507 725.484 85.0442 717.68 90.4609 713.487L192.94 634.19Z" fill="#ECC581"/>
<ellipse cx="99.3516" cy="721.827" rx="90" ry="71.7482" transform="rotate(-111.112 99.3516 721.827)" fill="#1FC16F"/>
<defs>
<linearGradient id="paint0_linear_2282_46810" x1="347.5" y1="784.475" x2="347.5" y2="980.475" gradientUnits="userSpaceOnUse">
<stop offset="0.5" stop-color="#202020"/>
<stop offset="1" stop-color="#474747"/>
</linearGradient>
<linearGradient id="paint1_linear_2282_46810" x1="691.5" y1="784.475" x2="691.5" y2="980.475" gradientUnits="userSpaceOnUse">
<stop offset="0.5" stop-color="#202020"/>
<stop offset="1" stop-color="#474747"/>
</linearGradient>
<linearGradient id="paint2_linear_2282_46810" x1="519.85" y1="188.486" x2="519.85" y2="882.354" gradientUnits="userSpaceOnUse">
<stop stop-color="#32E389"/>
<stop offset="1" stop-color="#1FC16F"/>
</linearGradient>
<clipPath id="clip0_2282_46810">
<rect width="198.564" height="198.564" fill="white" transform="translate(212.523 73.1611) rotate(-21.6198)"/>
</clipPath>
<clipPath id="clip1_2282_46810">
<rect width="301.665" height="301.665" fill="white" transform="translate(701 591.331) rotate(-15.8397)"/>
</clipPath>
</defs>
</svg>
