<svg width="86" height="72" viewBox="0 0 86 72" fill="none" xmlns="http://www.w3.org/2000/svg">
<path d="M63.7136 13.0829C63.2493 12.6007 63.5522 10.8177 64.4224 9.97976C65.2925 9.14187 66.1968 9.35493 66.8648 10.0486C67.5327 10.7423 67.7115 11.654 66.8413 12.4919C65.9711 13.3298 64.1779 13.5651 63.7136 13.0829Z" fill="#8AD2E6"/>
<path d="M71.243 13.4111C70.9408 12.8138 71.7541 11.1984 72.832 10.6531C73.9099 10.1077 74.7117 10.577 75.1464 11.4363C75.5812 12.2956 75.4842 13.2195 74.4063 13.7649C73.3284 14.3102 71.5452 14.0084 71.243 13.4111Z" fill="#8AD2E6"/>
<path d="M73.3525 3.9061C72.9754 3.353 73.5725 1.6458 74.5706 0.965368C75.5688 0.284938 76.4246 0.646333 76.967 1.44205C77.5095 2.23776 77.5331 3.16647 76.535 3.8469C75.5369 4.52733 73.7295 4.4592 73.3525 3.9061Z" fill="#8AD2E6"/>
<path d="M81.2675 8.87212C81.0257 8.24792 81.9944 6.72061 83.1209 6.28427C84.2473 5.84793 84.9989 6.394 85.3467 7.292C85.6946 8.19 85.507 9.09987 84.3805 9.53621C83.2541 9.97255 81.5093 9.49632 81.2675 8.87212Z" fill="#8AD2E6"/>
<path d="M15.0563 12.8872C14.6425 13.4134 12.8348 13.3585 11.8852 12.6119C10.9356 11.8652 11.0223 10.9402 11.6175 10.1832C12.2128 9.42619 13.0912 9.12377 14.0408 9.87045C14.9904 10.6171 15.4701 12.3609 15.0563 12.8872Z" fill="#8AD2E6"/>
<path d="M15.6889 5.60562C15.1092 5.94032 13.4513 5.21744 12.8473 4.17129C12.2433 3.12513 12.6676 2.29867 13.5016 1.81716C14.3356 1.33565 15.2635 1.38143 15.8675 2.42759C16.4715 3.47374 16.2686 5.27093 15.6889 5.60562Z" fill="#8AD2E6"/>
<path d="M4.70189 7.10083C4.48247 7.73324 2.75575 8.27126 1.6145 7.87529C0.473244 7.47932 0.253381 6.5767 0.569052 5.66689C0.884723 4.75708 1.61639 4.1846 2.75764 4.58058C3.8989 4.97655 4.92132 6.46843 4.70189 7.10083Z" fill="#8AD2E6"/>
<ellipse cx="56.4776" cy="58.4234" rx="9.63726" ry="7.70981" transform="rotate(-38 56.4776 58.4234)" fill="url(#paint0_linear_2336_46946)"/>
<path d="M38.8076 8.89062C35.7584 8.89062 32.8196 9.33911 30.0605 10.168C30.5458 10.981 30.8242 11.9317 30.8242 12.9473C30.8241 15.2743 29.3598 17.2585 27.3027 18.0312C27.3586 18.3437 27.3887 18.6656 27.3887 18.9941C27.3885 21.9931 24.957 24.4238 21.958 24.4238C21.205 24.4238 20.4879 24.2702 19.8359 23.9932C18.857 25.4171 17.216 26.3506 15.3574 26.3506C14.2188 26.3505 13.1629 25.9985 12.29 25.3994C10.7834 28.7079 9.94631 32.3536 9.94629 36.1846C9.94629 51.2585 22.8683 63.4785 38.8076 63.4785C54.7468 63.4784 67.668 51.2584 67.668 36.1846C67.6679 21.1108 54.7467 8.89076 38.8076 8.89062Z" fill="url(#paint1_linear_2336_46946)"/>
<ellipse cx="7.08044" cy="5.64454" rx="7.08044" ry="5.64454" transform="matrix(0.374673 -0.927157 -0.927157 -0.374673 72.3359 46.3906)" fill="#1FC16F"/>
<ellipse cx="23.2781" cy="59.6836" rx="9.63726" ry="7.70981" transform="rotate(-124.99 23.2781 59.6836)" fill="url(#paint2_linear_2336_46946)"/>
<defs>
<linearGradient id="paint0_linear_2336_46946" x1="56.4776" y1="50.7136" x2="56.4776" y2="66.1332" gradientUnits="userSpaceOnUse">
<stop offset="0.5" stop-color="#202020"/>
<stop offset="1" stop-color="#474747"/>
</linearGradient>
<linearGradient id="paint1_linear_2336_46946" x1="38.8071" y1="8.89062" x2="38.8071" y2="63.4785" gradientUnits="userSpaceOnUse">
<stop stop-color="#32E389"/>
<stop offset="1" stop-color="#1FC16F"/>
</linearGradient>
<linearGradient id="paint2_linear_2336_46946" x1="23.2781" y1="51.9738" x2="23.2781" y2="67.3934" gradientUnits="userSpaceOnUse">
<stop offset="0.5" stop-color="#202020"/>
<stop offset="1" stop-color="#474747"/>
</linearGradient>
</defs>
</svg>
