<svg width="75" height="60" viewBox="0 0 75 60" fill="none" xmlns="http://www.w3.org/2000/svg">
<ellipse cx="24.2297" cy="52.4669" rx="9.261" ry="7.4088" fill="url(#paint0_linear_2282_48312)"/>
<ellipse cx="50.2376" cy="52.4669" rx="9.261" ry="7.4088" fill="url(#paint1_linear_2282_48312)"/>
<path d="M37.2656 0C40.1973 3.83997e-05 43.0224 0.431219 45.6748 1.22852C45.209 2.00952 44.9404 2.92208 44.9404 3.89746C44.9405 6.13488 46.3497 8.04244 48.3281 8.78418C48.2743 9.08464 48.2451 9.39403 48.2451 9.70996C48.2452 12.5919 50.582 14.9286 53.4639 14.9287C54.187 14.9287 54.8758 14.7805 55.502 14.5146C56.4428 15.8815 58.0179 16.7782 59.8027 16.7783C60.8958 16.7783 61.9097 16.4408 62.748 15.8662C64.1951 19.0449 64.999 22.5472 64.999 26.2275C64.999 40.7128 52.5824 52.4559 37.2656 52.4561C21.9486 52.4561 9.53125 40.713 9.53125 26.2275C9.53149 11.7423 21.9488 0 37.2656 0Z" fill="url(#paint2_linear_2282_48312)"/>
<circle cx="43.3574" cy="24.4409" r="7.51755" fill="white"/>
<mask id="mask0_2282_48312" style="mask-type:alpha" maskUnits="userSpaceOnUse" x="35" y="16" width="16" height="16">
<circle cx="43.3574" cy="24.4409" r="7.51755" fill="#D9D9D9"/>
</mask>
<g mask="url(#mask0_2282_48312)">
<circle cx="46.5958" cy="23.5875" r="4.66607" fill="#202020"/>
<circle cx="46.5958" cy="23.5875" r="4.66607" fill="black" fill-opacity="0.2"/>
</g>
<circle cx="30.7832" cy="24.4409" r="7.51755" fill="white"/>
<mask id="mask1_2282_48312" style="mask-type:alpha" maskUnits="userSpaceOnUse" x="23" y="16" width="16" height="16">
<circle cx="30.7832" cy="24.4409" r="7.51755" fill="#D9D9D9"/>
</mask>
<g mask="url(#mask1_2282_48312)">
<circle cx="34.0176" cy="23.5875" r="4.66607" fill="#202020"/>
<circle cx="34.0176" cy="23.5875" r="4.66607" fill="black" fill-opacity="0.2"/>
</g>
<path d="M30.0977 34.2319C31.0404 38.9139 36.0557 40.8648 39.2453 37.0498" stroke="#202020" stroke-width="1.8144" stroke-linecap="round"/>
<path d="M30.0977 34.2319C31.0404 38.9139 36.0557 40.8648 39.2453 37.0498" stroke="black" stroke-opacity="0.2" stroke-width="1.8144" stroke-linecap="round"/>
<path d="M24.7399 13.3332C25.8408 10.5012 30.1682 8.82983 32.9748 11.2286" stroke="#202020" stroke-width="1.8144" stroke-linecap="round"/>
<path d="M24.7399 13.3332C25.8408 10.5012 30.1682 8.82983 32.9748 11.2286" stroke="black" stroke-opacity="0.2" stroke-width="1.8144" stroke-linecap="round"/>
<ellipse cx="7.57743" cy="42.5876" rx="6.804" ry="5.42417" transform="rotate(-112.004 7.57743 42.5876)" fill="#1FC16F"/>
<ellipse cx="6.804" cy="5.42417" rx="6.804" ry="5.42417" transform="matrix(0.374673 -0.927157 -0.927157 -0.374673 69.6719 50.9282)" fill="#1FC16F"/>
<defs>
<linearGradient id="paint0_linear_2282_48312" x1="24.2297" y1="45.0581" x2="24.2297" y2="59.8757" gradientUnits="userSpaceOnUse">
<stop offset="0.5" stop-color="#202020"/>
<stop offset="1" stop-color="#474747"/>
</linearGradient>
<linearGradient id="paint1_linear_2282_48312" x1="50.2376" y1="45.0581" x2="50.2376" y2="59.8757" gradientUnits="userSpaceOnUse">
<stop offset="0.5" stop-color="#202020"/>
<stop offset="1" stop-color="#474747"/>
</linearGradient>
<linearGradient id="paint2_linear_2282_48312" x1="37.2651" y1="0" x2="37.2651" y2="52.4561" gradientUnits="userSpaceOnUse">
<stop stop-color="#32E389"/>
<stop offset="1" stop-color="#1FC16F"/>
</linearGradient>
</defs>
</svg>
