<svg width="87" height="46" viewBox="0 0 87 46" fill="none" xmlns="http://www.w3.org/2000/svg">
<path d="M43.1035 7.31641C59.0427 7.31655 71.9639 16.5066 71.9639 24.7373C71.9639 32.968 59.0427 37.123 43.1035 37.123C27.1642 37.123 14.2422 32.968 14.2422 24.7373C14.2422 16.5066 27.1642 7.31641 43.1035 7.31641Z" fill="url(#paint0_linear_2336_46929)"/>
<path d="M37.8828 12.8242C39.2596 9.55935 46.694 9.44134 48.5035 12.0375" stroke="#202020" stroke-width="1.88812" stroke-linecap="round"/>
<path d="M37.8828 12.8242C39.2596 9.55935 46.694 9.44134 48.5035 12.0375" stroke="black" stroke-opacity="0.2" stroke-width="1.88812" stroke-linecap="round"/>
<path d="M63.8047 1.88672C63.8047 3.2571 63.8047 4.79701 63.8047 5.89897" stroke="#C3C3C3" stroke-width="1.57343" stroke-linecap="round"/>
<path d="M66.793 1.88672C66.793 3.95572 66.793 6.28069 66.793 7.94443" stroke="#C3C3C3" stroke-width="1.57343" stroke-linecap="round"/>
<path d="M69.7812 1.88672C69.7812 4.43939 69.7812 7.30785 69.7812 9.36051" stroke="#C3C3C3" stroke-width="1.57343" stroke-linecap="round"/>
<ellipse cx="7.88522" cy="28.1916" rx="7.08044" ry="5.64454" transform="rotate(-112.004 7.88522 28.1916)" fill="#1FC16F"/>
<ellipse cx="7.08044" cy="5.64454" rx="7.08044" ry="5.64454" transform="matrix(0.374673 -0.927157 -0.927157 -0.374673 80.9531 36.8711)" fill="#1FC16F"/>
<ellipse cx="29.2223" cy="35.9575" rx="9.63726" ry="7.70981" transform="rotate(13 29.2223 35.9575)" fill="url(#paint1_linear_2336_46929)"/>
<ellipse cx="56.9801" cy="35.9576" rx="9.63726" ry="7.70981" transform="rotate(-13 56.9801 35.9576)" fill="url(#paint2_linear_2336_46929)"/>
<path d="M19.8887 1.66602C21.3428 0.336366 22.931 -0.486664 23.6084 0.318359C24.2857 1.1234 23.7959 3.25142 22.3418 4.58105C21.17 5.65237 19.6421 5.9915 18.7383 5.66211C18.9734 7.03895 19.0628 9.00705 18.75 9.45508C18.4613 9.8676 16.9347 10.0537 16.79 9.70312C16.5174 9.04099 17.0596 6.45525 17.4902 5.70117C16.5823 6.00926 15.0786 5.66703 13.9219 4.60938C12.4678 3.27973 11.9779 1.15073 12.6553 0.345703C13.3327 -0.459042 14.9211 0.363936 16.375 1.69336C17.1964 2.44442 17.8421 3.25354 18.127 3.95996C18.4058 3.2471 19.0567 2.42686 19.8887 1.66602Z" fill="#1FC16F"/>
<defs>
<linearGradient id="paint0_linear_2336_46929" x1="43.103" y1="7.31641" x2="43.103" y2="37.123" gradientUnits="userSpaceOnUse">
<stop stop-color="#32E389"/>
<stop offset="1" stop-color="#1FC16F"/>
</linearGradient>
<linearGradient id="paint1_linear_2336_46929" x1="29.2223" y1="28.2477" x2="29.2223" y2="43.6673" gradientUnits="userSpaceOnUse">
<stop offset="0.5" stop-color="#202020"/>
<stop offset="1" stop-color="#474747"/>
</linearGradient>
<linearGradient id="paint2_linear_2336_46929" x1="56.9801" y1="28.2478" x2="56.9801" y2="43.6674" gradientUnits="userSpaceOnUse">
<stop offset="0.5" stop-color="#202020"/>
<stop offset="1" stop-color="#474747"/>
</linearGradient>
</defs>
</svg>
