<svg width="297" height="330" viewBox="0 0 297 330" fill="none" xmlns="http://www.w3.org/2000/svg">
<ellipse cx="96.1484" cy="300.404" rx="36.75" ry="29.4" fill="url(#paint0_linear_6482_91602)"/>
<ellipse cx="199.352" cy="300.404" rx="36.75" ry="29.4" fill="url(#paint1_linear_6482_91602)"/>
<path fill-rule="evenodd" clip-rule="evenodd" d="M147.853 92.2036C159.483 92.2036 170.691 93.9118 181.214 97.0737C179.364 100.174 178.301 103.797 178.301 107.669C178.301 116.545 183.885 124.115 191.731 127.061C191.518 128.254 191.407 129.482 191.407 130.737C191.407 142.174 200.678 151.445 212.115 151.445C214.988 151.445 217.724 150.86 220.211 149.802C223.945 155.227 230.197 158.785 237.28 158.785C241.623 158.785 245.652 157.446 248.981 155.162C254.724 167.776 257.907 181.678 257.907 196.284C257.907 253.765 208.634 300.364 147.853 300.364C87.0708 300.364 37.7969 253.766 37.7969 196.284C37.797 138.802 87.0709 92.2036 147.853 92.2036Z" fill="url(#paint2_linear_6482_91602)"/>
<circle cx="172.042" cy="189.191" r="29.8315" fill="white"/>
<mask id="mask0_6482_91602" style="mask-type:alpha" maskUnits="userSpaceOnUse" x="142" y="159" width="60" height="61">
<circle cx="172.042" cy="189.191" r="29.8315" fill="#D9D9D9"/>
</mask>
<g mask="url(#mask0_6482_91602)">
<circle cx="172.118" cy="189.316" r="18.5161" fill="#202020"/>
<circle cx="172.118" cy="189.316" r="18.5161" fill="black" fill-opacity="0.2"/>
</g>
<circle cx="122.152" cy="189.191" r="29.8315" fill="white"/>
<mask id="mask1_6482_91602" style="mask-type:alpha" maskUnits="userSpaceOnUse" x="92" y="159" width="60" height="61">
<circle cx="122.152" cy="189.191" r="29.8315" fill="#D9D9D9"/>
</mask>
<g mask="url(#mask1_6482_91602)">
<circle cx="122.016" cy="189.316" r="18.5161" fill="#202020"/>
<circle cx="122.016" cy="189.316" r="18.5161" fill="black" fill-opacity="0.2"/>
</g>
<path d="M119.438 228.045C123.178 246.624 143.081 254.366 155.738 239.227" stroke="#202020" stroke-width="7.2" stroke-linecap="round"/>
<path d="M119.438 228.045C123.178 246.624 143.081 254.366 155.738 239.227" stroke="black" stroke-opacity="0.2" stroke-width="7.2" stroke-linecap="round"/>
<path d="M98.1758 145.113C102.545 133.875 119.717 127.242 130.854 136.761" stroke="#202020" stroke-width="7.2" stroke-linecap="round"/>
<path d="M98.1758 145.113C102.545 133.875 119.717 127.242 130.854 136.761" stroke="black" stroke-opacity="0.2" stroke-width="7.2" stroke-linecap="round"/>
<ellipse cx="30.067" cy="111.8" rx="27" ry="21.5245" transform="rotate(-112.004 30.067 111.8)" fill="#1FC16F"/>
<ellipse cx="27" cy="21.5245" rx="27" ry="21.5245" transform="matrix(0.374673 -0.927157 -0.927157 -0.374673 276.469 144.897)" fill="#1FC16F"/>
<path d="M243.419 6.8501H207.796C202.802 6.8501 198.422 10.2237 198.223 15.0838C197.97 21.1974 202.271 25.256 206.786 29.0681C213.036 34.3426 216.16 36.9798 216.485 40.3158C216.538 40.8387 216.538 41.3615 216.485 41.8844C216.16 45.2238 213.036 47.8576 206.786 53.1321C202.145 57.0469 197.956 60.6911 198.223 67.1164C198.418 71.9799 202.795 75.3501 207.793 75.3501H243.416C248.41 75.3501 252.79 71.9765 252.992 67.1164C253.15 63.2462 251.715 59.3964 248.67 56.7181C247.283 55.4954 245.841 54.3274 244.423 53.1321C238.176 47.8576 235.052 45.2204 234.727 41.8844C234.675 41.3628 234.675 40.8374 234.727 40.3158C235.052 36.9764 238.179 34.3426 244.426 29.0681C249.016 25.1944 253.253 21.4337 252.989 15.0838C252.797 10.2203 248.413 6.8501 243.419 6.8501Z" fill="#EBEBEB"/>
<path d="M215.336 74.1101C215.336 72.5963 215.336 71.8393 215.637 71.1783C215.685 71.073 215.737 70.9701 215.795 70.87C216.161 70.2433 216.781 69.8015 218.021 68.9144C221.467 66.4518 223.193 65.2222 225.149 65.0921C225.457 65.0715 225.765 65.0715 226.073 65.0921C228.032 65.2222 229.755 66.4518 233.197 68.9144C234.441 69.8015 235.061 70.2433 235.427 70.87C235.486 70.9728 235.539 71.0756 235.585 71.1783C235.886 71.8393 235.886 72.5963 235.886 74.1101V75.35H215.336V74.1101Z" fill="#C3C3C3"/>
<defs>
<linearGradient id="paint0_linear_6482_91602" x1="96.1484" y1="271.004" x2="96.1484" y2="329.804" gradientUnits="userSpaceOnUse">
<stop offset="0.5" stop-color="#202020"/>
<stop offset="1" stop-color="#474747"/>
</linearGradient>
<linearGradient id="paint1_linear_6482_91602" x1="199.352" y1="271.004" x2="199.352" y2="329.804" gradientUnits="userSpaceOnUse">
<stop offset="0.5" stop-color="#202020"/>
<stop offset="1" stop-color="#474747"/>
</linearGradient>
<linearGradient id="paint2_linear_6482_91602" x1="147.852" y1="92.2036" x2="147.852" y2="300.364" gradientUnits="userSpaceOnUse">
<stop stop-color="#32E389"/>
<stop offset="1" stop-color="#1FC16F"/>
</linearGradient>
</defs>
</svg>
