<svg width="95" height="67" viewBox="0 0 95 67" fill="none" xmlns="http://www.w3.org/2000/svg">
<ellipse cx="26.9189" cy="58.2955" rx="10.29" ry="8.232" fill="url(#paint0_linear_2282_49133)"/>
<ellipse cx="55.8134" cy="58.2955" rx="10.29" ry="8.232" fill="url(#paint1_linear_2282_49133)"/>
<path d="M41.3936 0C44.6492 0 47.7866 0.479341 50.7324 1.36426C50.2148 2.23209 49.9171 3.24627 49.917 4.33008C49.9171 6.81589 51.4817 8.93542 53.6797 9.75977C53.6198 10.0938 53.5869 10.4378 53.5869 10.7891C53.5869 13.9914 56.1834 16.5879 59.3857 16.5879C60.1901 16.5878 60.956 16.423 61.6523 16.127C62.6978 17.6456 64.4476 18.6416 66.4307 18.6416C67.6472 18.6416 68.7755 18.2662 69.708 17.626C71.3168 21.1587 72.209 25.052 72.209 29.1426C72.2089 45.2374 58.4124 58.2852 41.3936 58.2852C24.3749 58.285 10.5782 45.2373 10.5781 29.1426C10.5781 13.0478 24.3748 0.000156764 41.3936 0Z" fill="url(#paint2_linear_2282_49133)"/>
<path d="M33.0671 38.3252C35.9231 39.3703 39.9521 40.5043 42.8111 41.1392C43.7322 41.3438 40.8766 47.3804 35.9231 46.0532C30.0828 44.4883 31.8493 37.8796 33.0671 38.3252Z" fill="#202020"/>
<path d="M33.0671 38.3252C35.9231 39.3703 39.9521 40.5043 42.8111 41.1392C43.7322 41.3438 40.8766 47.3804 35.9231 46.0532C30.0828 44.4883 31.8493 37.8796 33.0671 38.3252Z" fill="black" fill-opacity="0.2"/>
<path d="M33.0671 38.3252C35.9231 39.3703 39.9521 40.5043 42.8111 41.1392C43.7322 41.3438 40.8766 47.3804 35.9231 46.0532C30.0828 44.4883 31.8493 37.8796 33.0671 38.3252Z" stroke="#202020" stroke-width="2.016"/>
<path d="M33.0671 38.3252C35.9231 39.3703 39.9521 40.5043 42.8111 41.1392C43.7322 41.3438 40.8766 47.3804 35.9231 46.0532C30.0828 44.4883 31.8493 37.8796 33.0671 38.3252Z" stroke="black" stroke-opacity="0.2" stroke-width="2.016"/>
<circle cx="48.1692" cy="27.1565" r="8.35283" fill="white"/>
<mask id="mask0_2282_49133" style="mask-type:alpha" maskUnits="userSpaceOnUse" x="39" y="18" width="18" height="18">
<circle cx="48.1692" cy="27.1565" r="8.35283" fill="#D9D9D9"/>
</mask>
<g mask="url(#mask0_2282_49133)">
<circle cx="51.0947" cy="24.8632" r="5.18452" fill="#202020"/>
<circle cx="51.0947" cy="24.8632" r="5.18452" fill="black" fill-opacity="0.2"/>
</g>
<circle cx="34.2005" cy="27.1565" r="8.35283" fill="white"/>
<mask id="mask1_2282_49133" style="mask-type:alpha" maskUnits="userSpaceOnUse" x="25" y="18" width="18" height="18">
<circle cx="34.2005" cy="27.1565" r="8.35283" fill="#D9D9D9"/>
</mask>
<g mask="url(#mask1_2282_49133)">
<circle cx="37.1259" cy="24.8632" r="5.18452" fill="#202020"/>
<circle cx="37.1259" cy="24.8632" r="5.18452" fill="black" fill-opacity="0.2"/>
</g>
<path d="M27.4866 14.8148C28.7098 11.6681 33.518 9.81104 36.6365 12.4764" stroke="#202020" stroke-width="2.016" stroke-linecap="round"/>
<path d="M27.4866 14.8148C28.7098 11.6681 33.518 9.81104 36.6365 12.4764" stroke="black" stroke-opacity="0.2" stroke-width="2.016" stroke-linecap="round"/>
<ellipse cx="8.41937" cy="47.3185" rx="7.56" ry="6.02685" transform="rotate(-112.004 8.41937 47.3185)" fill="#1FC16F"/>
<ellipse cx="7.56" cy="6.02685" rx="7.56" ry="6.02685" transform="matrix(0.993757 0.111564 0.111564 -0.993757 73.7656 34.2598)" fill="#1FC16F"/>
<g clip-path="url(#clip0_2282_49133)">
<path fill-rule="evenodd" clip-rule="evenodd" d="M93.4671 4.05594C93.4671 5.04254 93.0752 5.98874 92.3776 6.68637C91.6799 7.38401 90.7337 7.77594 89.7471 7.77594C88.7605 7.77594 87.8143 7.38401 87.1167 6.68637C86.4191 5.98874 86.0271 5.04254 86.0271 4.05594C86.0271 3.06933 86.4191 2.12314 87.1167 1.4255C87.8143 0.727865 88.7605 0.335938 89.7471 0.335938C90.7337 0.335938 91.6799 0.727865 92.3776 1.4255C93.0752 2.12314 93.4671 3.06933 93.4671 4.05594ZM84.8516 1.37307C83.8281 1.06314 82.7462 0.997189 81.6926 1.1805C80.639 1.36381 79.6429 1.79129 78.7842 2.42871C77.9255 3.06612 77.228 3.89576 76.7475 4.85118C76.2671 5.8066 76.017 6.86126 76.0173 7.93069V12.9497C76.0173 13.0855 75.9906 13.22 75.9386 13.3455C75.8867 13.4709 75.8105 13.5849 75.7144 13.681C75.6184 13.777 75.5044 13.8532 75.3789 13.9052C75.2535 13.9571 75.119 13.9839 74.9832 13.9839C74.6872 13.9839 74.4033 14.1015 74.1941 14.3107C73.9848 14.52 73.8672 14.8039 73.8672 15.0999C73.8672 15.3959 73.9848 15.6797 74.1941 15.889C74.4033 16.0983 74.6872 16.2159 74.9832 16.2159H90.7545C91.0505 16.2159 91.3343 16.0983 91.5436 15.889C91.7529 15.6797 91.8705 15.3959 91.8705 15.0999C91.8705 14.8039 91.7529 14.52 91.5436 14.3107C91.3343 14.1015 91.0505 13.9839 90.7545 13.9839C90.4802 13.9839 90.2172 13.8749 90.0232 13.681C89.8293 13.487 89.7203 13.224 89.7203 12.9497V9.63594C88.7533 9.63179 87.8039 9.37639 86.9653 8.89478C86.1268 8.41317 85.4277 7.72189 84.9368 6.88872C84.4459 6.05555 84.1799 5.10909 84.165 4.14216C84.15 3.17522 84.3866 2.22101 84.8516 1.37307ZM80.2656 19.3079C80.2656 19.012 80.3832 18.7281 80.5925 18.5188C80.8017 18.3095 81.0856 18.1919 81.3816 18.1919H84.3576C84.6536 18.1919 84.9374 18.3095 85.1467 18.5188C85.356 18.7281 85.4736 19.012 85.4736 19.3079C85.4736 19.6039 85.356 19.8878 85.1467 20.0971C84.9374 20.3064 84.6536 20.4239 84.3576 20.4239H81.3816C81.0856 20.4239 80.8017 20.3064 80.5925 20.0971C80.3832 19.8878 80.2656 19.6039 80.2656 19.3079Z" fill="#FFD95B"/>
</g>
<defs>
<linearGradient id="paint0_linear_2282_49133" x1="26.9189" y1="50.0635" x2="26.9189" y2="66.5275" gradientUnits="userSpaceOnUse">
<stop offset="0.5" stop-color="#202020"/>
<stop offset="1" stop-color="#474747"/>
</linearGradient>
<linearGradient id="paint1_linear_2282_49133" x1="55.8134" y1="50.0635" x2="55.8134" y2="66.5275" gradientUnits="userSpaceOnUse">
<stop offset="0.5" stop-color="#202020"/>
<stop offset="1" stop-color="#474747"/>
</linearGradient>
<linearGradient id="paint2_linear_2282_49133" x1="41.3936" y1="0" x2="41.3936" y2="58.2852" gradientUnits="userSpaceOnUse">
<stop stop-color="#32E389"/>
<stop offset="1" stop-color="#1FC16F"/>
</linearGradient>
<clipPath id="clip0_2282_49133">
<rect width="20.832" height="20.832" fill="white" transform="translate(73.75 0.335938)"/>
</clipPath>
</defs>
</svg>
