<svg width="295" height="268" viewBox="0 0 295 268" fill="none" xmlns="http://www.w3.org/2000/svg">
<g filter="url(#filter0_f_7452_57537)">
<ellipse cx="149.555" cy="245.898" rx="77" ry="11.5" fill="#D9D9D9"/>
</g>
<path d="M69.4062 196.148L82.1752 225.49" stroke="#C3C3C3" stroke-width="4" stroke-linecap="round" stroke-linejoin="round"/>
<path d="M72.482 183.177C74.8326 188.579 73.4545 194.387 69.4029 196.15C65.3512 197.914 60.1616 194.963 57.811 189.562C55.4605 184.161 56.8385 178.352 60.8902 176.589C64.9418 174.826 70.1315 177.776 72.482 183.177Z" fill="#C3C3C3" stroke="#C3C3C3" stroke-width="4" stroke-linecap="round" stroke-linejoin="round"/>
<path d="M236.382 165.464L215.946 214.727M228.481 163.63L223.372 175.946C220.818 182.104 228.207 185.169 228.207 185.169C228.207 185.169 235.597 188.234 238.151 182.076L243.26 169.761" stroke="#C3C3C3" stroke-width="4" stroke-linecap="round" stroke-linejoin="round"/>
<g filter="url(#filter1_d_7452_57537)">
<path d="M245.5 126.384C246.613 126.384 247.394 125.828 248.702 124.602L258.781 115.414L277.575 115.442C285.873 115.47 290.328 110.848 290.328 102.69V81.3614C290.328 73.2034 285.873 68.6094 277.576 68.6094H241.713C233.444 68.6094 228.961 73.1749 228.961 81.3614V102.69C228.961 110.875 233.443 115.442 241.713 115.414H243.022V123.516C243.022 125.243 243.94 126.384 245.5 126.384Z" fill="white"/>
</g>
<path d="M274.055 93.3095C274.055 93.8977 273.822 94.4617 273.406 94.8776C272.99 95.2935 272.426 95.5271 271.838 95.5271H247.444C246.856 95.5271 246.292 95.2935 245.876 94.8776C245.46 94.4617 245.227 93.8977 245.227 93.3095C245.227 92.7214 245.46 92.1573 245.876 91.7414C246.292 91.3255 246.856 91.0919 247.444 91.0919H271.838C272.426 91.0919 272.99 91.3255 273.406 91.7414C273.822 92.1573 274.055 92.7214 274.055 93.3095ZM250.771 97.7447H247.444C247.444 99.5091 248.145 101.201 249.393 102.449C250.64 103.697 252.333 104.398 254.097 104.398H265.185C266.949 104.398 268.642 103.697 269.889 102.449C271.137 101.201 271.838 99.5091 271.838 97.7447H250.771ZM249.662 88.8743H247.444V84.4391C247.444 83.2628 247.911 82.1347 248.743 81.3029C249.575 80.4712 250.703 80.0039 251.879 80.0039H267.403C268.579 80.0039 269.707 80.4712 270.539 81.3029C271.37 82.1347 271.838 83.2628 271.838 84.4391V88.8743H249.662ZM267.403 85.5479C267.403 85.842 267.519 86.124 267.727 86.3319C267.935 86.5399 268.217 86.6567 268.511 86.6567C268.805 86.6567 269.087 86.5399 269.295 86.3319C269.503 86.124 269.62 85.842 269.62 85.5479C269.62 85.2538 269.503 84.9718 269.295 84.7639C269.087 84.5559 268.805 84.4391 268.511 84.4391C268.217 84.4391 267.935 84.5559 267.727 84.7639C267.519 84.9718 267.403 85.2538 267.403 85.5479ZM262.967 83.3303C262.967 83.6244 263.084 83.9064 263.292 84.1143C263.5 84.3223 263.782 84.4391 264.076 84.4391C264.37 84.4391 264.652 84.3223 264.86 84.1143C265.068 83.9064 265.185 83.6244 265.185 83.3303C265.185 83.0362 265.068 82.7542 264.86 82.5463C264.652 82.3383 264.37 82.2215 264.076 82.2215C263.782 82.2215 263.5 82.3383 263.292 82.5463C263.084 82.7542 262.967 83.0362 262.967 83.3303ZM258.532 85.5479C258.532 85.842 258.649 86.124 258.857 86.3319C259.065 86.5399 259.347 86.6567 259.641 86.6567C259.935 86.6567 260.217 86.5399 260.425 86.3319C260.633 86.124 260.75 85.842 260.75 85.5479C260.75 85.2538 260.633 84.9718 260.425 84.7639C260.217 84.5559 259.935 84.4391 259.641 84.4391C259.347 84.4391 259.065 84.5559 258.857 84.7639C258.649 84.9718 258.532 85.2538 258.532 85.5479ZM254.097 83.3303C254.097 83.6244 254.214 83.9064 254.422 84.1143C254.63 84.3223 254.912 84.4391 255.206 84.4391C255.5 84.4391 255.782 84.3223 255.99 84.1143C256.198 83.9064 256.315 83.6244 256.315 83.3303C256.315 83.0362 256.198 82.7542 255.99 82.5463C255.782 82.3383 255.5 82.2215 255.206 82.2215C254.912 82.2215 254.63 82.3383 254.422 82.5463C254.214 82.7542 254.097 83.0362 254.097 83.3303ZM249.662 85.5479C249.662 85.842 249.779 86.124 249.987 86.3319C250.194 86.5399 250.476 86.6567 250.771 86.6567C251.065 86.6567 251.347 86.5399 251.555 86.3319C251.763 86.124 251.879 85.842 251.879 85.5479C251.879 85.2538 251.763 84.9718 251.555 84.7639C251.347 84.5559 251.065 84.4391 250.771 84.4391C250.476 84.4391 250.194 84.5559 249.987 84.7639C249.779 84.9718 249.662 85.2538 249.662 85.5479Z" fill="#E3AF6B"/>
<path d="M273.406 94.8786C273.822 94.4627 274.055 93.8986 274.055 93.3105C274.055 92.7223 273.822 92.1583 273.406 91.7424C272.99 91.3265 272.426 91.0929 271.838 91.0929H247.444C246.856 91.0929 246.292 91.3265 245.876 91.7424C245.46 92.1583 245.227 92.7223 245.227 93.3105C245.227 93.8986 245.46 94.4627 245.876 94.8786C246.292 95.2945 246.856 95.5281 247.444 95.5281H271.838C272.426 95.5281 272.99 95.2945 273.406 94.8786Z" fill="#A4662F"/>
<g filter="url(#filter2_d_7452_57537)">
<path d="M60.3399 116.012C58.9794 116.012 58.0255 115.333 56.4268 113.834L44.108 102.604L21.1374 102.638C10.9952 102.673 5.55017 97.0228 5.55017 87.052V60.9842C5.55017 51.0133 10.9952 45.3984 21.1359 45.3984H64.9689C75.0748 45.3984 80.5547 50.9785 80.5547 60.9842V87.052C80.5547 97.0562 75.0763 102.638 64.9689 102.604H63.3688V112.507C63.3688 114.617 62.2464 116.012 60.3399 116.012Z" fill="white"/>
</g>
<path d="M26.7969 69.1601C26.7969 66.9177 28.62 65.0945 30.8625 65.0945H30.9641C31.4342 62.7758 33.4861 61.0289 35.9445 61.0289C36.8974 61.0289 37.7867 61.2893 38.5426 61.7404C39.3875 60.1078 41.09 58.9961 43.0593 58.9961C45.0285 58.9961 46.731 60.1141 47.5759 61.7404C48.3382 61.2893 49.2276 61.0289 50.1741 61.0289C52.6325 61.0289 54.6843 62.7758 55.1544 65.0945H55.2561C57.4985 65.0945 59.3217 66.9177 59.3217 69.1601C59.3217 69.9033 59.1247 70.5958 58.7754 71.1929H27.3432C26.9938 70.5958 26.7969 69.9033 26.7969 69.1601ZM26.7969 75.9827C26.7969 75.0235 27.5782 74.2421 28.5375 74.2421H57.5747C58.534 74.2421 59.3153 75.0235 59.3153 75.9827C59.3153 80.4612 56.4948 84.2854 52.5372 85.7719L52.4292 86.693C52.3022 87.7094 51.4382 88.4717 50.4091 88.4717H35.7031C34.6803 88.4717 33.81 87.7094 33.683 86.693L33.5686 85.7782C29.6174 84.2854 26.7969 80.4612 26.7969 75.9827Z" fill="#ECECEC"/>
<path d="M28.5375 74.2421C27.5782 74.2421 26.7969 75.0235 26.7969 75.9827C26.7969 80.4612 29.6174 84.2854 33.5686 85.7782L33.683 86.693C33.81 87.7094 34.6803 88.4717 35.7031 88.4717H50.4091C51.4382 88.4717 52.3022 87.7094 52.4292 86.693L52.5372 85.7719C56.4948 84.2854 59.3153 80.4612 59.3153 75.9827C59.3153 75.0235 58.534 74.2421 57.5747 74.2421H28.5375Z" fill="#ECECEC"/>
<path d="M28.5375 74.2421C27.5782 74.2421 26.7969 75.0235 26.7969 75.9827C26.7969 80.4612 29.6174 84.2854 33.5686 85.7782L33.683 86.693C33.81 87.7094 34.6803 88.4717 35.7031 88.4717H50.4091C51.4382 88.4717 52.3022 87.7094 52.4292 86.693L52.5372 85.7719C56.4948 84.2854 59.3153 80.4612 59.3153 75.9827C59.3153 75.0235 58.534 74.2421 57.5747 74.2421H28.5375Z" fill="#5891DA"/>
<g filter="url(#filter3_d_7452_57537)">
<path d="M195.869 54.8936C196.9 54.8936 197.622 54.3788 198.833 53.2436L208.166 44.7362L225.568 44.7615C233.251 44.7879 237.376 40.5078 237.376 32.9541V13.2058C237.376 5.65214 233.251 1.39844 225.569 1.39844H192.362C184.706 1.39844 180.555 5.62574 180.555 13.2058V32.9541C180.555 40.5331 184.705 44.7615 192.362 44.7362H193.574V52.2382C193.574 53.8365 194.425 54.8936 195.869 54.8936Z" fill="white"/>
</g>
<path d="M208.967 10.9141C210.153 10.9141 210.937 11.7472 211.382 12.4956C211.835 13.2549 212.075 14.1434 212.107 14.7163C212.171 15.8559 212 16.8538 211.431 17.5746C210.84 18.3261 209.953 18.6141 208.967 18.6141C207.968 18.6141 207.084 18.2922 206.496 17.5407C205.927 16.8138 205.744 15.8236 205.818 14.7086C205.854 14.1665 206.097 13.2826 206.548 12.5203C206.99 11.7734 207.775 10.9141 208.967 10.9141ZM219.724 22.923L214.792 27.4506C214.641 27.5888 214.465 27.6956 214.272 27.7648C214.08 27.8341 213.876 27.8643 213.672 27.8539C213.468 27.8434 213.268 27.7924 213.083 27.7039C212.899 27.6153 212.734 27.491 212.599 27.3382L211.265 25.8367C210.976 25.511 210.621 25.2503 210.224 25.0717C209.827 24.8932 209.397 24.8009 208.961 24.8009C208.526 24.8009 208.095 24.8932 207.698 25.0717C207.301 25.2503 206.946 25.511 206.657 25.8367L205.325 27.3382C205.19 27.491 205.025 27.6153 204.841 27.7039C204.656 27.7924 204.456 27.8434 204.252 27.8539C204.048 27.8643 203.844 27.8341 203.652 27.7648C203.46 27.6956 203.283 27.5888 203.132 27.4506L198.198 22.923C198.278 22.1663 198.635 21.466 199.201 20.957C199.766 20.448 200.5 20.1664 201.261 20.1664H216.661C217.422 20.166 218.157 20.4474 218.723 20.9565C219.289 21.4655 219.644 22.166 219.724 22.923ZM198.181 24.9974L202.091 28.5856C202.392 28.8617 202.746 29.0751 203.13 29.2135C203.514 29.3518 203.923 29.4123 204.331 29.3914C204.739 29.3704 205.138 29.2685 205.507 29.0916C205.875 28.9147 206.204 28.6662 206.476 28.3607L207.809 26.8577C207.954 26.6948 208.131 26.5645 208.33 26.4752C208.528 26.3859 208.744 26.3398 208.961 26.3398C209.179 26.3398 209.394 26.3859 209.593 26.4752C209.791 26.5645 209.969 26.6948 210.113 26.8577L211.447 28.3607C211.718 28.6664 212.048 28.9151 212.416 29.0922C212.784 29.2692 213.184 29.3712 213.593 29.3921C214.001 29.4131 214.409 29.3525 214.794 29.2141C215.178 29.0756 215.532 28.8619 215.833 28.5856L219.741 24.9974V32.4864H220.511C220.715 32.4864 220.911 32.5675 221.056 32.7119C221.2 32.8563 221.281 33.0522 221.281 33.2564C221.281 33.4606 221.2 33.6565 221.056 33.8009C220.911 33.9453 220.715 34.0264 220.511 34.0264H197.411C197.207 34.0264 197.011 33.9453 196.867 33.8009C196.722 33.6565 196.641 33.4606 196.641 33.2564C196.641 33.0522 196.722 32.8563 196.867 32.7119C197.011 32.5675 197.207 32.4864 197.411 32.4864H198.181V24.9974Z" fill="#996E6E"/>
<path d="M211.383 12.4956C210.938 11.7472 210.154 10.9141 208.969 10.9141C207.777 10.9141 206.991 11.7734 206.549 12.5203C206.098 13.2826 205.855 14.1665 205.819 14.7086C205.745 15.8236 205.929 16.8138 206.497 17.5407C207.085 18.2922 207.969 18.6141 208.969 18.6141C209.954 18.6141 210.841 18.3261 211.433 17.5746C212.001 16.8538 212.172 15.8559 212.109 14.7163C212.076 14.1434 211.836 13.2549 211.383 12.4956Z" fill="#996E6E"/>
<path d="M211.383 12.4956C210.938 11.7472 210.154 10.9141 208.969 10.9141C207.777 10.9141 206.991 11.7734 206.549 12.5203C206.098 13.2826 205.855 14.1665 205.819 14.7086C205.745 15.8236 205.929 16.8138 206.497 17.5407C207.085 18.2922 207.969 18.6141 208.969 18.6141C209.954 18.6141 210.841 18.3261 211.433 17.5746C212.001 16.8538 212.172 15.8559 212.109 14.7163C212.076 14.1434 211.836 13.2549 211.383 12.4956Z" fill="#D65353"/>
<path fill-rule="evenodd" clip-rule="evenodd" d="M146.436 106.156C153.415 106.156 160.142 107.181 166.457 109.078C165.346 110.939 164.706 113.114 164.706 115.439C164.706 120.765 168.057 125.307 172.765 127.076C172.636 127.793 172.569 128.532 172.569 129.286C172.57 136.151 178.134 141.716 184.999 141.716C186.726 141.716 188.371 141.362 189.865 140.726C192.106 143.984 195.859 146.122 200.112 146.122C202.72 146.122 205.139 145.317 207.138 143.944C210.586 151.517 212.497 159.863 212.497 168.631C212.497 203.135 182.92 231.105 146.436 231.105C109.951 231.105 80.375 203.135 80.375 168.631C80.3751 134.127 109.951 106.156 146.436 106.156Z" fill="url(#paint0_linear_7452_57537)"/>
<g clip-path="url(#clip0_7452_57537)">
<path d="M173.844 188.718C172.404 193.363 175.476 197.029 177.598 200.116C178.347 201.205 179.074 202.238 180.029 202.534C180.984 202.83 182.167 202.391 183.402 201.915C186.899 200.573 191.506 199.288 192.946 194.644C194.387 190.001 190.156 185.075 184.473 188.208C181.56 182.409 175.285 184.074 173.844 188.718Z" fill="#F38D8D"/>
</g>
<circle cx="160.961" cy="164.375" r="17.9066" fill="white"/>
<mask id="mask0_7452_57537" style="mask-type:alpha" maskUnits="userSpaceOnUse" x="143" y="146" width="36" height="37">
<circle cx="160.961" cy="164.375" r="17.9066" fill="#D9D9D9"/>
</mask>
<g mask="url(#mask0_7452_57537)">
<circle cx="161.286" cy="164.458" r="11.1144" fill="#202020"/>
<circle cx="161.286" cy="164.458" r="11.1144" fill="black" fill-opacity="0.2"/>
</g>
<circle cx="165.471" cy="158.15" r="4.80653" fill="white"/>
<circle cx="131.016" cy="164.375" r="17.9066" fill="white"/>
<mask id="mask1_7452_57537" style="mask-type:alpha" maskUnits="userSpaceOnUse" x="113" y="146" width="36" height="37">
<circle cx="131.016" cy="164.375" r="17.9066" fill="#D9D9D9"/>
</mask>
<g mask="url(#mask1_7452_57537)">
<circle cx="130.7" cy="164.458" r="11.1144" fill="#202020"/>
<circle cx="130.7" cy="164.458" r="11.1144" fill="black" fill-opacity="0.2"/>
<circle cx="135.752" cy="158.15" r="4.80653" fill="white"/>
</g>
<path d="M116.611 137.914C117.382 131.935 127.869 125.379 136.167 130.185" stroke="#202020" stroke-width="4.32185" stroke-linecap="round"/>
<path d="M116.611 137.914C117.382 131.935 127.869 125.379 136.167 130.185" stroke="black" stroke-opacity="0.2" stroke-width="4.32185" stroke-linecap="round"/>
<path d="M140.549 199.024C139.779 193.045 133.663 188.826 125.365 193.632" stroke="#202020" stroke-width="4.32185" stroke-linecap="round"/>
<path d="M140.549 199.024C139.779 193.045 133.663 188.826 125.365 193.632" stroke="black" stroke-opacity="0.2" stroke-width="4.32185" stroke-linecap="round"/>
<ellipse cx="82.5786" cy="222.543" rx="16.2069" ry="12.9202" transform="rotate(-112.004 82.5786 222.543)" fill="#1FC16F"/>
<ellipse cx="121.365" cy="231.128" rx="22.0594" ry="17.6475" transform="rotate(20 121.365 231.128)" fill="url(#paint1_linear_7452_57537)"/>
<ellipse cx="177.054" cy="231.128" rx="22.0594" ry="17.6475" transform="rotate(-20 177.054 231.128)" fill="url(#paint2_linear_7452_57537)"/>
<ellipse cx="16.2069" cy="12.9202" rx="16.2069" ry="12.9202" transform="matrix(0.374673 -0.927157 -0.927157 -0.374673 221.93 229.266)" fill="#1FC16F"/>
<defs>
<filter id="filter0_f_7452_57537" x="62.5547" y="224.398" width="174" height="43" filterUnits="userSpaceOnUse" color-interpolation-filters="sRGB">
<feFlood flood-opacity="0" result="BackgroundImageFix"/>
<feBlend mode="normal" in="SourceGraphic" in2="BackgroundImageFix" result="shape"/>
<feGaussianBlur stdDeviation="5" result="effect1_foregroundBlur_7452_57537"/>
</filter>
<filter id="filter1_d_7452_57537" x="224.425" y="67.0974" width="70.4392" height="66.8454" filterUnits="userSpaceOnUse" color-interpolation-filters="sRGB">
<feFlood flood-opacity="0" result="BackgroundImageFix"/>
<feColorMatrix in="SourceAlpha" type="matrix" values="0 0 0 0 0 0 0 0 0 0 0 0 0 0 0 0 0 0 127 0" result="hardAlpha"/>
<feMorphology radius="7.56" operator="erode" in="SourceAlpha" result="effect1_dropShadow_7452_57537"/>
<feOffset dy="3.024"/>
<feGaussianBlur stdDeviation="6.048"/>
<feComposite in2="hardAlpha" operator="out"/>
<feColorMatrix type="matrix" values="0 0 0 0 0.54695 0 0 0 0 0.54695 0 0 0 0 0.54695 0 0 0 0.13 0"/>
<feBlend mode="normal" in2="BackgroundImageFix" result="effect1_dropShadow_7452_57537"/>
<feBlend mode="normal" in="SourceGraphic" in2="effect1_dropShadow_7452_57537" result="shape"/>
</filter>
<filter id="filter2_d_7452_57537" x="0.00287437" y="43.5504" width="86.0958" height="81.7013" filterUnits="userSpaceOnUse" color-interpolation-filters="sRGB">
<feFlood flood-opacity="0" result="BackgroundImageFix"/>
<feColorMatrix in="SourceAlpha" type="matrix" values="0 0 0 0 0 0 0 0 0 0 0 0 0 0 0 0 0 0 127 0" result="hardAlpha"/>
<feMorphology radius="9.24" operator="erode" in="SourceAlpha" result="effect1_dropShadow_7452_57537"/>
<feOffset dy="3.696"/>
<feGaussianBlur stdDeviation="7.392"/>
<feComposite in2="hardAlpha" operator="out"/>
<feColorMatrix type="matrix" values="0 0 0 0 0.54695 0 0 0 0 0.54695 0 0 0 0 0.54695 0 0 0 0.13 0"/>
<feBlend mode="normal" in2="BackgroundImageFix" result="effect1_dropShadow_7452_57537"/>
<feBlend mode="normal" in="SourceGraphic" in2="effect1_dropShadow_7452_57537" result="shape"/>
</filter>
<filter id="filter3_d_7452_57537" x="176.355" y="-0.00156236" width="65.2203" height="61.8961" filterUnits="userSpaceOnUse" color-interpolation-filters="sRGB">
<feFlood flood-opacity="0" result="BackgroundImageFix"/>
<feColorMatrix in="SourceAlpha" type="matrix" values="0 0 0 0 0 0 0 0 0 0 0 0 0 0 0 0 0 0 127 0" result="hardAlpha"/>
<feMorphology radius="7" operator="erode" in="SourceAlpha" result="effect1_dropShadow_7452_57537"/>
<feOffset dy="2.8"/>
<feGaussianBlur stdDeviation="5.6"/>
<feComposite in2="hardAlpha" operator="out"/>
<feColorMatrix type="matrix" values="0 0 0 0 0.54695 0 0 0 0 0.54695 0 0 0 0 0.54695 0 0 0 0.13 0"/>
<feBlend mode="normal" in2="BackgroundImageFix" result="effect1_dropShadow_7452_57537"/>
<feBlend mode="normal" in="SourceGraphic" in2="effect1_dropShadow_7452_57537" result="shape"/>
</filter>
<linearGradient id="paint0_linear_7452_57537" x1="146.436" y1="106.156" x2="146.436" y2="231.105" gradientUnits="userSpaceOnUse">
<stop stop-color="#32E389"/>
<stop offset="1" stop-color="#1FC16F"/>
</linearGradient>
<linearGradient id="paint1_linear_7452_57537" x1="121.365" y1="213.48" x2="121.365" y2="248.776" gradientUnits="userSpaceOnUse">
<stop offset="0.5" stop-color="#202020"/>
<stop offset="1" stop-color="#474747"/>
</linearGradient>
<linearGradient id="paint2_linear_7452_57537" x1="177.054" y1="213.481" x2="177.054" y2="248.776" gradientUnits="userSpaceOnUse">
<stop offset="0.5" stop-color="#202020"/>
<stop offset="1" stop-color="#474747"/>
</linearGradient>
<clipPath id="clip0_7452_57537">
<rect width="24" height="24" fill="white" transform="translate(174.641 179.398) rotate(17.2327)"/>
</clipPath>
</defs>
</svg>
