<svg width="85" height="90" viewBox="0 0 85 90" fill="none" xmlns="http://www.w3.org/2000/svg">
<path d="M73.5 85.6094C73.5 87.5424 59.8447 89.1094 43 89.1094C26.1553 89.1094 12.5 87.5424 12.5 85.6094C12.5 83.6764 26.1553 82.1094 43 82.1094C59.8447 82.1094 73.5 83.6764 73.5 85.6094Z" fill="#8AD2E6" fill-opacity="0.7"/>
<ellipse cx="29.06" cy="79.7378" rx="10.185" ry="8.148" fill="url(#paint0_linear_3415_40707)"/>
<ellipse cx="57.6616" cy="79.7378" rx="10.185" ry="8.148" fill="url(#paint1_linear_3415_40707)"/>
<path d="M43.3916 22.0352C46.6141 22.0352 49.7199 22.5088 52.6357 23.3848C52.1235 24.2435 51.8292 25.2477 51.8291 26.3203C51.8293 28.7807 53.3781 30.8795 55.5537 31.6953C55.4945 32.0258 55.4619 32.3663 55.4619 32.7139C55.4622 35.8833 58.0317 38.4531 61.2012 38.4531C61.9972 38.4531 62.7552 38.29 63.4443 37.9971C64.4792 39.4999 66.2111 40.4863 68.1738 40.4863C69.3775 40.4863 70.4942 40.1147 71.417 39.4814C73.0093 42.978 73.8926 46.8312 73.8926 50.8799C73.8926 66.8106 60.2368 79.7246 43.3916 79.7246C26.5465 79.7244 12.8906 66.8105 12.8906 50.8799C12.8907 34.9494 26.5466 22.0353 43.3916 22.0352Z" fill="url(#paint2_linear_3415_40707)"/>
<path d="M34.9413 59.906C37.8556 60.66 41.9339 61.3886 44.8114 61.7383C45.7385 61.8509 43.5078 68.0729 38.5001 67.2433C32.596 66.2649 33.6987 59.5845 34.9413 59.906Z" fill="#202020"/>
<path d="M34.9413 59.906C37.8556 60.66 41.9339 61.3886 44.8114 61.7383C45.7385 61.8509 43.5078 68.0729 38.5001 67.2433C32.596 66.2649 33.6987 59.5845 34.9413 59.906Z" fill="black" fill-opacity="0.2"/>
<path d="M34.9413 59.906C37.8556 60.66 41.9339 61.3886 44.8114 61.7383C45.7385 61.8509 43.5078 68.0729 38.5001 67.2433C32.596 66.2649 33.6987 59.5845 34.9413 59.906Z" stroke="#202020" stroke-width="1.99543"/>
<path d="M34.9413 59.906C37.8556 60.66 41.9339 61.3886 44.8114 61.7383C45.7385 61.8509 43.5078 68.0729 38.5001 67.2433C32.596 66.2649 33.6987 59.5845 34.9413 59.906Z" stroke="black" stroke-opacity="0.2" stroke-width="1.99543"/>
<circle cx="50.0957" cy="48.916" r="8.2676" fill="white"/>
<mask id="mask0_3415_40707" style="mask-type:alpha" maskUnits="userSpaceOnUse" x="41" y="40" width="18" height="18">
<circle cx="50.0957" cy="48.916" r="8.2676" fill="#D9D9D9"/>
</mask>
<g mask="url(#mask0_3415_40707)">
<circle cx="50.116" cy="48.9519" r="5.13162" fill="#202020"/>
<circle cx="50.116" cy="48.9519" r="5.13162" fill="black" fill-opacity="0.2"/>
</g>
<circle cx="36.2676" cy="48.916" r="8.2676" fill="white"/>
<mask id="mask1_3415_40707" style="mask-type:alpha" maskUnits="userSpaceOnUse" x="28" y="40" width="17" height="18">
<circle cx="36.2676" cy="48.916" r="8.2676" fill="#D9D9D9"/>
</mask>
<g mask="url(#mask1_3415_40707)">
<circle cx="36.2254" cy="48.9519" r="5.13162" fill="#202020"/>
<circle cx="36.2254" cy="48.9519" r="5.13162" fill="black" fill-opacity="0.2"/>
</g>
<path d="M29.0606 36.3769C30.2714 33.2624 33.5098 30.9725 37.8745 31.6792" stroke="#202020" stroke-width="1.99543" stroke-linecap="round"/>
<path d="M29.0606 36.3769C30.2714 33.2624 33.5098 30.9725 37.8745 31.6792" stroke="black" stroke-opacity="0.2" stroke-width="1.99543" stroke-linecap="round"/>
<ellipse cx="7.48286" cy="5.96536" rx="7.48286" ry="5.96536" transform="matrix(-0.374673 0.927157 0.927157 0.374673 11.3242 18.4609)" fill="#1FC16F"/>
<ellipse cx="72.9564" cy="27.6338" rx="7.48286" ry="5.96536" transform="rotate(67.9959 72.9564 27.6338)" fill="#1FC16F"/>
<path fill-rule="evenodd" clip-rule="evenodd" d="M45.3415 14.2365C46.8781 12.8314 48.5562 11.9623 49.2722 12.8126C49.988 13.6634 49.4708 15.9123 47.9343 17.3175C46.7153 18.4322 45.131 18.7975 44.1706 18.4767C44.4141 19.9299 44.5014 21.9785 44.1735 22.4474C43.8684 22.8834 42.2553 23.0795 42.1022 22.7091C41.8175 22.0176 42.3726 19.3399 42.8249 18.508C41.8633 18.8219 40.287 18.455 39.0729 17.3449C37.5365 15.9396 37.0192 13.6907 37.7351 12.84C38.4511 11.9897 40.1292 12.8597 41.6657 14.2648C42.5151 15.0415 43.1863 15.8765 43.4968 16.6115C43.8018 15.8696 44.4811 15.0232 45.3415 14.2365Z" fill="#1FC16F"/>
<path d="M21.7959 8.81433C22.5034 8.81433 23.6387 10.352 23.6387 11.6286C23.6387 12.9053 22.8137 13.4375 21.7959 13.4375C20.7782 13.4375 19.9531 12.9053 19.9531 11.6286C19.9531 10.352 21.0885 8.81433 21.7959 8.81433Z" fill="#8AD2E6"/>
<path d="M14.0655 2.32996C14.7729 2.32996 15.9083 3.86761 15.9083 5.14426C15.9083 6.42091 15.0832 6.95312 14.0655 6.95312C13.0477 6.95312 12.2227 6.42091 12.2227 5.14426C12.2227 3.86761 13.358 2.32996 14.0655 2.32996Z" fill="#8AD2E6"/>
<path d="M1.8428 34.5057C2.55024 34.5057 3.6856 36.0434 3.6856 37.32C3.6856 38.5967 2.86055 39.1289 1.8428 39.1289C0.82505 39.1289 0 38.5967 0 37.32C0 36.0434 1.13536 34.5057 1.8428 34.5057Z" fill="#8AD2E6"/>
<path d="M58.96 0.00183113C59.6674 0.00183113 60.8028 1.53948 60.8028 2.81614C60.8028 4.09279 59.9777 4.625 58.96 4.625C57.9422 4.625 57.1172 4.09279 57.1172 2.81614C57.1172 1.53948 58.2526 0.00183113 58.96 0.00183113Z" fill="#8AD2E6"/>
<path d="M62.6201 10.1464C63.3276 10.1464 64.4629 11.684 64.4629 12.9607C64.4629 14.2373 63.6379 14.7695 62.6201 14.7695C61.6024 14.7695 60.7773 14.2373 60.7773 12.9607C60.7773 11.684 61.9127 10.1464 62.6201 10.1464Z" fill="#8AD2E6"/>
<path d="M78.167 2.32996C78.8745 2.32996 80.0098 3.86761 80.0098 5.14426C80.0098 6.42091 79.1848 6.95312 78.167 6.95312C77.1493 6.95312 76.3242 6.42091 76.3242 5.14426C76.3242 3.86761 77.4596 2.32996 78.167 2.32996Z" fill="#8AD2E6"/>
<path d="M81.8272 16.1307C82.5346 16.1307 83.67 17.6684 83.67 18.945C83.67 20.2217 82.8449 20.7539 81.8272 20.7539C80.8094 20.7539 79.9844 20.2217 79.9844 18.945C79.9844 17.6684 81.1197 16.1307 81.8272 16.1307Z" fill="#8AD2E6"/>
<path d="M83.1553 45.1464C83.8627 45.1464 84.9981 46.684 84.9981 47.9607C84.9981 49.2373 84.1731 49.7695 83.1553 49.7695C82.1376 49.7695 81.3125 49.2373 81.3125 47.9607C81.3125 46.684 82.4479 45.1464 83.1553 45.1464Z" fill="#8AD2E6"/>
<path d="M7.58108 13.4706C8.28852 13.4706 9.42388 15.0082 9.42388 16.2849C9.42388 17.5615 8.59883 18.0938 7.58108 18.0938C6.56333 18.0938 5.73828 17.5615 5.73828 16.2849C5.73828 15.0082 6.87365 13.4706 7.58108 13.4706Z" fill="#8AD2E6"/>
<defs>
<linearGradient id="paint0_linear_3415_40707" x1="29.06" y1="71.5898" x2="29.06" y2="87.8859" gradientUnits="userSpaceOnUse">
<stop offset="0.5" stop-color="#202020"/>
<stop offset="1" stop-color="#474747"/>
</linearGradient>
<linearGradient id="paint1_linear_3415_40707" x1="57.6616" y1="71.5898" x2="57.6616" y2="87.8859" gradientUnits="userSpaceOnUse">
<stop offset="0.5" stop-color="#202020"/>
<stop offset="1" stop-color="#474747"/>
</linearGradient>
<linearGradient id="paint2_linear_3415_40707" x1="43.3916" y1="22.0352" x2="43.3916" y2="79.7246" gradientUnits="userSpaceOnUse">
<stop stop-color="#32E389"/>
<stop offset="1" stop-color="#1FC16F"/>
</linearGradient>
</defs>
</svg>
