<svg width="77" height="58" viewBox="0 0 77 58" fill="none" xmlns="http://www.w3.org/2000/svg">
<g opacity="0.5">
<ellipse cx="23.5045" cy="50.5924" rx="8.93025" ry="7.1442" fill="url(#paint0_linear_2258_29764)"/>
<ellipse cx="48.5826" cy="50.5924" rx="8.93025" ry="7.1442" fill="url(#paint1_linear_2258_29764)"/>
<path d="M36.0674 0C38.8945 0 41.6189 0.415685 44.1768 1.18457C43.7281 1.93721 43.4698 2.81695 43.4697 3.75684C43.4699 5.91259 44.8261 7.75134 46.7314 8.46777C46.6793 8.75818 46.6514 9.05788 46.6514 9.36328C46.6518 12.142 48.9047 14.3945 51.6836 14.3945C52.3822 14.3945 53.0477 14.2524 53.6523 13.9951C54.5596 15.3135 56.0794 16.1787 57.8008 16.1787C58.8547 16.1787 59.8322 15.8528 60.6406 15.2988C62.0362 18.3641 62.8105 21.7418 62.8105 25.291C62.8105 39.2591 50.8373 50.582 36.0674 50.582C21.2974 50.582 9.32422 39.2591 9.32422 25.291C9.32424 11.3229 21.2974 7.21446e-06 36.0674 0Z" fill="url(#paint2_linear_2258_29764)"/>
<circle cx="41.9483" cy="23.5674" r="7.24907" fill="white"/>
<mask id="mask0_2258_29764" style="mask-type:alpha" maskUnits="userSpaceOnUse" x="34" y="16" width="16" height="15">
<circle cx="41.9483" cy="23.5674" r="7.24907" fill="#D9D9D9"/>
</mask>
<g mask="url(#mask0_2258_29764)">
<circle cx="41.9604" cy="23.5981" r="4.49942" fill="#202020"/>
<circle cx="41.9604" cy="23.5981" r="4.49942" fill="black" fill-opacity="0.2"/>
</g>
<circle cx="29.8233" cy="23.5674" r="7.24907" fill="white"/>
<mask id="mask1_2258_29764" style="mask-type:alpha" maskUnits="userSpaceOnUse" x="22" y="16" width="16" height="15">
<circle cx="29.8233" cy="23.5674" r="7.24907" fill="#D9D9D9"/>
</mask>
<g mask="url(#mask1_2258_29764)">
<circle cx="29.7885" cy="23.5981" r="4.49942" fill="#202020"/>
<circle cx="29.7885" cy="23.5981" r="4.49942" fill="black" fill-opacity="0.2"/>
</g>
<path d="M29.168 37.6748C30.077 33.16 34.9132 31.2788 37.9889 34.9576" stroke="#202020" stroke-width="1.7496" stroke-linecap="round"/>
<path d="M29.168 37.6748C30.077 33.16 34.9132 31.2788 37.9889 34.9576" stroke="black" stroke-opacity="0.2" stroke-width="1.7496" stroke-linecap="round"/>
<path d="M31.7595 9.33125C30.2158 11.7369 26.2428 12.9398 23.8735 12.4295" stroke="#202020" stroke-width="1.7496" stroke-linecap="round"/>
<path d="M31.7595 9.33125C30.2158 11.7369 26.2428 12.9398 23.8735 12.4295" stroke="black" stroke-opacity="0.2" stroke-width="1.7496" stroke-linecap="round"/>
<ellipse cx="7.30918" cy="41.7951" rx="6.561" ry="5.23045" transform="rotate(-112.004 7.30918 41.7951)" fill="#1FC16F"/>
<ellipse cx="6.561" cy="5.23045" rx="6.561" ry="5.23045" transform="matrix(0.374673 -0.927157 -0.927157 -0.374673 71.3711 37.4453)" fill="#1FC16F"/>
<circle cx="43.3682" cy="22.0889" r="1.458" fill="white"/>
<circle cx="47.8955" cy="29.2334" r="1.458" fill="white"/>
<circle cx="31.2744" cy="22.0889" r="1.458" fill="white"/>
</g>
<defs>
<linearGradient id="paint0_linear_2258_29764" x1="23.5045" y1="43.4482" x2="23.5045" y2="57.7366" gradientUnits="userSpaceOnUse">
<stop offset="0.5" stop-color="#202020"/>
<stop offset="1" stop-color="#474747"/>
</linearGradient>
<linearGradient id="paint1_linear_2258_29764" x1="48.5826" y1="43.4482" x2="48.5826" y2="57.7366" gradientUnits="userSpaceOnUse">
<stop offset="0.5" stop-color="#202020"/>
<stop offset="1" stop-color="#474747"/>
</linearGradient>
<linearGradient id="paint2_linear_2258_29764" x1="36.0674" y1="0" x2="36.0674" y2="50.582" gradientUnits="userSpaceOnUse">
<stop stop-color="#32E389"/>
<stop offset="1" stop-color="#1FC16F"/>
</linearGradient>
</defs>
</svg>
