<svg width="80" height="60" viewBox="0 0 80 60" fill="none" xmlns="http://www.w3.org/2000/svg">
<ellipse cx="21.7137" cy="52.9651" rx="8.79187" ry="7.0335" fill="url(#paint0_linear_2329_45285)"/>
<ellipse cx="46.4012" cy="52.9651" rx="8.79187" ry="7.0335" fill="url(#paint1_linear_2329_45285)"/>
<path d="M34.083 3.15625C36.8659 3.15628 39.5476 3.56553 42.0654 4.32227C41.6238 5.06328 41.3702 5.92927 41.3701 6.85449C41.3701 8.97837 42.7071 10.7888 44.585 11.4932C44.5337 11.7789 44.5059 12.0735 44.5059 12.374C44.506 15.1099 46.724 17.3281 49.46 17.3281C50.1471 17.3281 50.8016 17.1875 51.3965 16.9346C52.2897 18.2325 53.7848 19.0839 55.4795 19.084C56.5171 19.084 57.4795 18.7641 58.2754 18.2188C59.6492 21.2364 60.4121 24.5617 60.4121 28.0557C60.4121 41.8072 48.624 52.9549 34.083 52.9551C19.5419 52.9551 7.75391 41.8073 7.75391 28.0557C7.75399 14.3041 19.542 3.15625 34.083 3.15625Z" fill="url(#paint2_linear_2329_45285)"/>
<circle cx="27.9375" cy="26.3594" r="7.13674" fill="white"/>
<mask id="mask0_2329_45285" style="mask-type:alpha" maskUnits="userSpaceOnUse" x="20" y="19" width="16" height="15">
<circle cx="27.9375" cy="26.3594" r="7.13674" fill="#D9D9D9"/>
</mask>
<g mask="url(#mask0_2329_45285)">
<circle cx="31.0117" cy="25.5488" r="4.4297" fill="#202020"/>
<circle cx="31.0117" cy="25.5488" r="4.4297" fill="black" fill-opacity="0.2"/>
</g>
<path d="M37.3596 27.6315C39.118 24.3659 42.9577 23.1817 47.2658 26.4536" stroke="#202020" stroke-width="1.72249" stroke-linecap="round"/>
<path d="M37.3596 27.6315C39.118 24.3659 42.9577 23.1817 47.2658 26.4536" stroke="black" stroke-opacity="0.2" stroke-width="1.72249" stroke-linecap="round"/>
<path d="M27.2891 35.6562C28.184 40.1011 32.9453 41.9531 35.9733 38.3314" stroke="#202020" stroke-width="1.72249" stroke-linecap="round"/>
<path d="M27.2891 35.6562C28.184 40.1011 32.9453 41.9531 35.9733 38.3314" stroke="black" stroke-opacity="0.2" stroke-width="1.72249" stroke-linecap="round"/>
<path d="M21.8641 14.6707C23.6227 12.3843 28.0112 12.0161 29.9282 14.9504" stroke="#202020" stroke-width="1.72249" stroke-linecap="round"/>
<path d="M21.8641 14.6707C23.6227 12.3843 28.0112 12.0161 29.9282 14.9504" stroke="black" stroke-opacity="0.2" stroke-width="1.72249" stroke-linecap="round"/>
<ellipse cx="7.78205" cy="8.2035" rx="6.45933" ry="5.1494" transform="rotate(-58.1622 7.78205 8.2035)" fill="#32E389"/>
<ellipse cx="6.45933" cy="5.1494" rx="6.45933" ry="5.1494" transform="matrix(1 0 0 -1 57.6914 48.7363)" fill="#32E389"/>
<path d="M65.1475 21.3506C66.3917 21.3507 67.4004 22.3592 67.4004 23.6035C67.4004 23.6043 67.3992 23.6157 67.4199 23.6396C67.4438 23.6672 67.4863 23.6972 67.542 23.71C72.264 24.7885 75.2089 29.0745 75.209 34.0088V34.6006C75.209 35.1743 75.0218 35.7033 74.709 36.1348C75.6036 36.3995 76.2566 37.2266 76.2568 38.207C76.2568 39.4011 75.2888 40.3691 74.0947 40.3691H55.2373C54.0432 40.3691 53.0752 39.4011 53.0752 38.207C53.0754 37.2269 53.7278 36.3997 54.6221 36.1348C54.3095 35.7033 54.123 35.1741 54.123 34.6006V34.0088C54.1231 29.0745 57.068 24.7885 61.79 23.71C61.8457 23.6972 61.8883 23.6672 61.9121 23.6396C61.9328 23.6157 61.9316 23.6043 61.9316 23.6035C61.9317 22.3592 62.9403 21.3506 64.1846 21.3506H65.1475Z" fill="#C3C3C3" stroke="white" stroke-width="2.22488"/>
<defs>
<linearGradient id="paint0_linear_2329_45285" x1="21.7137" y1="45.9316" x2="21.7137" y2="59.9986" gradientUnits="userSpaceOnUse">
<stop offset="0.5" stop-color="#202020"/>
<stop offset="1" stop-color="#474747"/>
</linearGradient>
<linearGradient id="paint1_linear_2329_45285" x1="46.4012" y1="45.9316" x2="46.4012" y2="59.9986" gradientUnits="userSpaceOnUse">
<stop offset="0.5" stop-color="#202020"/>
<stop offset="1" stop-color="#474747"/>
</linearGradient>
<linearGradient id="paint2_linear_2329_45285" x1="34.0831" y1="3.15625" x2="34.0831" y2="52.955" gradientUnits="userSpaceOnUse">
<stop stop-color="#32E389"/>
<stop offset="1" stop-color="#1FC16F"/>
</linearGradient>
</defs>
</svg>
