<svg width="60" height="57" viewBox="0 0 60 57" fill="none" xmlns="http://www.w3.org/2000/svg">
<ellipse cx="17.8228" cy="49.186" rx="8.68221" ry="6.94577" fill="url(#paint0_linear_3605_39209)"/>
<ellipse cx="42.2056" cy="49.186" rx="8.68221" ry="6.94577" fill="url(#paint1_linear_3605_39209)"/>
<path fill-rule="evenodd" clip-rule="evenodd" d="M30.0479 0C32.7935 1.7247e-05 35.4394 0.403436 37.9238 1.14941C37.4864 1.88195 37.2344 2.73822 37.2344 3.65332C37.2344 5.74937 38.5537 7.53682 40.4062 8.2334C40.3555 8.51572 40.3282 8.80661 40.3281 9.10352C40.3281 11.8053 42.5189 13.9959 45.2207 13.9961C45.8992 13.9961 46.5454 13.8571 47.1328 13.6074C48.0148 14.8896 49.4932 15.7303 51.167 15.7305C52.1953 15.7304 53.149 15.4122 53.9365 14.8701C55.2944 17.8513 56.0479 21.1367 56.0479 24.5889C56.0478 38.1689 44.4075 49.1776 30.0479 49.1777C15.6882 49.1777 4.04693 38.1689 4.04688 24.5889C4.04688 11.0087 15.6881 0 30.0479 0Z" fill="url(#paint2_linear_3605_39209)"/>
<circle cx="35.7508" cy="22.9139" r="7.04772" fill="white"/>
<mask id="mask0_3605_39209" style="mask-type:alpha" maskUnits="userSpaceOnUse" x="28" y="15" width="15" height="15">
<circle cx="35.7469" cy="22.913" r="7.04772" fill="#D9D9D9"/>
</mask>
<g mask="url(#mask0_3605_39209)">
<circle cx="35.7651" cy="22.9418" r="4.37445" fill="#202020"/>
<circle cx="35.7651" cy="22.9418" r="4.37445" fill="black" fill-opacity="0.2"/>
</g>
<circle cx="23.9696" cy="22.9139" r="7.04772" fill="white"/>
<mask id="mask1_3605_39209" style="mask-type:alpha" maskUnits="userSpaceOnUse" x="16" y="15" width="16" height="15">
<circle cx="23.9696" cy="22.913" r="7.04772" fill="#D9D9D9"/>
</mask>
<g mask="url(#mask1_3605_39209)">
<circle cx="23.9369" cy="22.9418" r="4.37445" fill="#202020"/>
<circle cx="23.9369" cy="22.9418" r="4.37445" fill="black" fill-opacity="0.2"/>
</g>
<path d="M25.8438 9.07272C22.8235 8.00962 19.3152 9.53343 18.1769 12.0849" stroke="#202020" stroke-width="1.701" stroke-linecap="round"/>
<path d="M25.8438 9.07272C22.8235 8.00962 19.3152 9.53343 18.1769 12.0849" stroke="black" stroke-opacity="0.2" stroke-width="1.701" stroke-linecap="round"/>
<ellipse cx="7.10605" cy="37.9423" rx="6.37876" ry="5.08517" transform="rotate(-112.004 7.10605 37.9423)" fill="#1FC16F"/>
<ellipse cx="6.37877" cy="5.08517" rx="6.37877" ry="5.08517" transform="matrix(0.374673 -0.927157 -0.927157 -0.374673 55.2227 45.7617)" fill="#1FC16F"/>
<circle cx="37.1402" cy="21.4741" r="1.4175" fill="white"/>
<circle cx="25.3784" cy="21.4741" r="1.4175" fill="white"/>
<path d="M23.9293 33.706C25.6363 30.6268 32.4607 31.5088 32.1508 36.0803C31.9623 38.8619 29.0307 40.9534 26.3391 40.2265C23.597 39.486 22.5522 36.1901 23.9293 33.706Z" fill="#202020"/>
<path d="M23.9293 33.706C25.6363 30.6268 32.4607 31.5088 32.1508 36.0803C31.9623 38.8619 29.0307 40.9534 26.3391 40.2265C23.597 39.486 22.5522 36.1901 23.9293 33.706Z" fill="black" fill-opacity="0.2"/>
<path d="M23.9293 33.706C25.6363 30.6268 32.4607 31.5088 32.1508 36.0803C31.9623 38.8619 29.0307 40.9534 26.3391 40.2265C23.597 39.486 22.5522 36.1901 23.9293 33.706Z" stroke="#202020" stroke-width="1.701"/>
<path d="M23.9293 33.706C25.6363 30.6268 32.4607 31.5088 32.1508 36.0803C31.9623 38.8619 29.0307 40.9534 26.3391 40.2265C23.597 39.486 22.5522 36.1901 23.9293 33.706Z" stroke="black" stroke-opacity="0.2" stroke-width="1.701"/>
<defs>
<linearGradient id="paint0_linear_3605_39209" x1="17.8228" y1="42.2402" x2="17.8228" y2="56.1318" gradientUnits="userSpaceOnUse">
<stop offset="0.5" stop-color="#202020"/>
<stop offset="1" stop-color="#474747"/>
</linearGradient>
<linearGradient id="paint1_linear_3605_39209" x1="42.2056" y1="42.2402" x2="42.2056" y2="56.1318" gradientUnits="userSpaceOnUse">
<stop offset="0.5" stop-color="#202020"/>
<stop offset="1" stop-color="#474747"/>
</linearGradient>
<linearGradient id="paint2_linear_3605_39209" x1="30.0474" y1="0" x2="30.0474" y2="49.178" gradientUnits="userSpaceOnUse">
<stop stop-color="#32E389"/>
<stop offset="1" stop-color="#1FC16F"/>
</linearGradient>
</defs>
</svg>
