<svg width="75" height="60" viewBox="0 0 75 60" fill="none" xmlns="http://www.w3.org/2000/svg">
<g opacity="0.5">
<ellipse cx="23.8779" cy="52.5746" rx="9.28024" ry="7.42419" fill="url(#paint0_linear_2274_40646)"/>
<ellipse cx="49.9365" cy="52.5746" rx="9.28024" ry="7.42419" fill="url(#paint1_linear_2274_40646)"/>
<path d="M36.9277 0C39.8645 2.38099e-07 42.6944 0.43207 45.3516 1.23047C44.885 2.0129 44.6162 2.92722 44.6162 3.9043C44.6162 6.14557 46.0274 8.05686 48.0088 8.80078C47.9547 9.10221 47.9248 9.41251 47.9248 9.72949C47.9249 12.6174 50.2665 14.9588 53.1543 14.959C53.8799 14.9589 54.5711 14.8101 55.1992 14.543C56.142 15.9129 57.7211 16.8114 59.5098 16.8115C60.6058 16.8114 61.6225 16.4729 62.4629 15.8965C63.9137 19.0825 64.7187 22.5932 64.7188 26.2822C64.7188 40.7977 52.2766 52.5645 36.9277 52.5645C21.5789 52.5645 9.13672 40.7977 9.13672 26.2822C9.13674 11.7667 21.5789 0 36.9277 0Z" fill="url(#paint2_linear_2274_40646)"/>
<circle cx="30.4433" cy="24.4902" r="7.53317" fill="white"/>
<mask id="mask0_2274_40646" style="mask-type:alpha" maskUnits="userSpaceOnUse" x="22" y="16" width="16" height="17">
<circle cx="30.4433" cy="24.4902" r="7.53317" fill="#D9D9D9"/>
</mask>
<g mask="url(#mask0_2274_40646)">
<circle cx="30.4687" cy="24.5058" r="3.74997" fill="#202020"/>
<circle cx="30.4687" cy="24.5058" r="3.74997" fill="black" fill-opacity="0.2"/>
</g>
<circle cx="43.041" cy="24.4902" r="7.53317" fill="white"/>
<mask id="mask1_2274_40646" style="mask-type:alpha" maskUnits="userSpaceOnUse" x="35" y="16" width="16" height="17">
<circle cx="43.041" cy="24.4902" r="7.53317" fill="#D9D9D9"/>
</mask>
<g mask="url(#mask1_2274_40646)">
<circle cx="43.0468" cy="24.5058" r="3.74997" fill="#202020"/>
<circle cx="43.0468" cy="24.5058" r="3.74997" fill="black" fill-opacity="0.2"/>
</g>
<path d="M30.1272 36.6667C31.9519 33.3754 39.2463 34.3182 38.9151 39.2045C38.7135 42.1778 35.58 44.4133 32.703 43.6363C29.7721 42.8448 28.6553 39.3219 30.1272 36.6667Z" fill="#202020"/>
<path d="M30.1272 36.6667C31.9519 33.3754 39.2463 34.3182 38.9151 39.2045C38.7135 42.1778 35.58 44.4133 32.703 43.6363C29.7721 42.8448 28.6553 39.3219 30.1272 36.6667Z" fill="black" fill-opacity="0.2"/>
<path d="M30.1272 36.6667C31.9519 33.3754 39.2463 34.3182 38.9151 39.2045C38.7135 42.1778 35.58 44.4133 32.703 43.6363C29.7721 42.8448 28.6553 39.3219 30.1272 36.6667Z" stroke="#202020" stroke-width="1.81817"/>
<path d="M30.1272 36.6667C31.9519 33.3754 39.2463 34.3182 38.9151 39.2045C38.7135 42.1778 35.58 44.4133 32.703 43.6363C29.7721 42.8448 28.6553 39.3219 30.1272 36.6667Z" stroke="black" stroke-opacity="0.2" stroke-width="1.81817"/>
<path d="M25.8289 10.1402C26.4162 6.43848 31.829 5.64211 33.8744 8.10422" stroke="#202020" stroke-width="1.81817" stroke-linecap="round"/>
<path d="M25.8289 10.1402C26.4162 6.43848 31.829 5.64211 33.8744 8.10422" stroke="black" stroke-opacity="0.2" stroke-width="1.81817" stroke-linecap="round"/>
<ellipse cx="7.59431" cy="43.0932" rx="6.81813" ry="5.43544" transform="rotate(-112.004 7.59431 43.0932)" fill="#32E389"/>
<ellipse cx="6.81813" cy="5.43544" rx="6.81813" ry="5.43544" transform="matrix(0.374673 -0.927157 -0.927157 -0.374673 69.5078 51.4512)" fill="#32E389"/>
</g>
<defs>
<linearGradient id="paint0_linear_2274_40646" x1="23.8779" y1="45.1504" x2="23.8779" y2="59.9988" gradientUnits="userSpaceOnUse">
<stop offset="0.5" stop-color="#202020"/>
<stop offset="1" stop-color="#474747"/>
</linearGradient>
<linearGradient id="paint1_linear_2274_40646" x1="49.9365" y1="45.1504" x2="49.9365" y2="59.9988" gradientUnits="userSpaceOnUse">
<stop offset="0.5" stop-color="#202020"/>
<stop offset="1" stop-color="#474747"/>
</linearGradient>
<linearGradient id="paint2_linear_2274_40646" x1="36.9277" y1="0" x2="36.9277" y2="52.5645" gradientUnits="userSpaceOnUse">
<stop stop-color="#32E389"/>
<stop offset="1" stop-color="#1FC16F"/>
</linearGradient>
</defs>
</svg>
