<svg width="87" height="80" viewBox="0 0 87 80" fill="none" xmlns="http://www.w3.org/2000/svg">
<ellipse cx="21.5634" cy="71.5585" rx="10.3369" ry="8.26948" fill="url(#paint0_linear_2336_47450)"/>
<ellipse cx="50.5908" cy="71.5585" rx="10.3369" ry="8.26948" fill="url(#paint1_linear_2336_47450)"/>
<path d="M36.1084 12.9922C39.3815 12.9922 42.5358 13.4729 45.4971 14.3633C44.9765 15.2355 44.6778 16.2552 44.6777 17.3447C44.6779 19.8405 46.248 21.9679 48.4541 22.7969C48.3939 23.1325 48.3613 23.4781 48.3613 23.8311C48.3613 27.0478 50.9689 29.656 54.1855 29.6562C54.995 29.6562 55.7663 29.4898 56.4668 29.1914C57.517 30.7175 59.275 31.7188 61.2676 31.7188C62.4866 31.7187 63.6175 31.3434 64.5527 30.7031C66.1674 34.2506 67.0644 38.1593 67.0645 42.2666C67.0645 58.4348 53.2047 71.5419 36.1084 71.542C19.012 71.542 5.15234 58.4348 5.15234 42.2666C5.15254 26.0986 19.0121 12.9922 36.1084 12.9922Z" fill="url(#paint2_linear_2336_47450)"/>
<path d="M30.59 53.8914C31.6658 51.9298 34.999 51.0375 35.6107 53.8914C36.1412 56.3658 33.3832 58.8238 31.4352 58.0452C29.8727 57.4206 29.7221 55.4738 30.59 53.8914Z" fill="#202020"/>
<path d="M30.59 53.8914C31.6658 51.9298 34.999 51.0375 35.6107 53.8914C36.1412 56.3658 33.3832 58.8238 31.4352 58.0452C29.8727 57.4206 29.7221 55.4738 30.59 53.8914Z" fill="black" fill-opacity="0.2"/>
<path d="M30.59 53.8914C31.6658 51.9298 34.999 51.0375 35.6107 53.8914C36.1412 56.3658 33.3832 58.8238 31.4352 58.0452C29.8727 57.4206 29.7221 55.4738 30.59 53.8914Z" stroke="#202020" stroke-width="2.02518"/>
<path d="M30.59 53.8914C31.6658 51.9298 34.999 51.0375 35.6107 53.8914C36.1412 56.3658 33.3832 58.8238 31.4352 58.0452C29.8727 57.4206 29.7221 55.4738 30.59 53.8914Z" stroke="black" stroke-opacity="0.2" stroke-width="2.02518"/>
<circle cx="42.9026" cy="40.2737" r="8.39087" fill="white"/>
<mask id="mask0_2336_47450" style="mask-type:alpha" maskUnits="userSpaceOnUse" x="34" y="31" width="18" height="18">
<circle cx="42.9026" cy="40.2737" r="8.39087" fill="#D9D9D9"/>
</mask>
<g mask="url(#mask0_2336_47450)">
<circle cx="45.8487" cy="37.9698" r="5.20812" fill="#202020"/>
<circle cx="45.8487" cy="37.9698" r="5.20812" fill="black" fill-opacity="0.2"/>
</g>
<circle cx="28.8713" cy="40.2737" r="8.39087" fill="white"/>
<mask id="mask1_2336_47450" style="mask-type:alpha" maskUnits="userSpaceOnUse" x="20" y="31" width="18" height="18">
<circle cx="28.8713" cy="40.2737" r="8.39087" fill="#D9D9D9"/>
</mask>
<g mask="url(#mask1_2336_47450)">
<circle cx="31.8136" cy="37.9698" r="5.20812" fill="#202020"/>
<circle cx="31.8136" cy="37.9698" r="5.20812" fill="black" fill-opacity="0.2"/>
</g>
<path d="M22.1288 27.873C23.3577 24.7121 28.1877 22.8465 31.3204 25.524" stroke="#202020" stroke-width="2.02518" stroke-linecap="round"/>
<path d="M22.1288 27.873C23.3577 24.7121 28.1877 22.8465 31.3204 25.524" stroke="black" stroke-opacity="0.2" stroke-width="2.02518" stroke-linecap="round"/>
<ellipse cx="8.45926" cy="52.7685" rx="7.59442" ry="6.05429" transform="rotate(-112.004 8.45926 52.7685)" fill="#32E389"/>
<ellipse cx="7.59442" cy="6.05429" rx="7.59442" ry="6.05429" transform="matrix(0.374673 -0.927157 -0.927157 -0.374673 72.2773 69.8398)" fill="#32E389"/>
<path d="M65.4166 19.4265C65.9891 19.4265 66.5382 19.654 66.9431 20.0588C67.3479 20.4637 67.5754 21.0128 67.5754 21.5853C67.5754 22.1579 67.3479 22.707 66.9431 23.1118C66.5382 23.5167 65.9891 23.7441 65.4166 23.7441C64.8441 23.7441 64.295 23.5167 63.8901 23.1118C63.4853 22.707 63.2578 22.1579 63.2578 21.5853C63.2578 21.0128 63.4853 20.4637 63.8901 20.0588C64.295 19.654 64.8441 19.4265 65.4166 19.4265ZM71.3533 16.1883C72.0689 16.1883 72.7553 16.4727 73.2614 16.9787C73.7674 17.4848 74.0517 18.1712 74.0517 18.8868C74.0517 19.6025 73.7674 20.2889 73.2614 20.7949C72.7553 21.301 72.0689 21.5853 71.3533 21.5853C70.6376 21.5853 69.9512 21.301 69.4451 20.7949C68.9391 20.2889 68.6548 19.6025 68.6548 18.8868C68.6548 18.1712 68.9391 17.4848 69.4451 16.9787C69.9512 16.4727 70.6376 16.1883 71.3533 16.1883ZM74.0517 2.15625C75.4247 2.15652 76.7538 2.6402 77.8057 3.52245C78.8577 4.40471 79.5655 5.62919 79.8049 6.98113H79.8934C80.9712 6.98113 82.0049 7.40929 82.767 8.17143C83.5292 8.93356 83.9573 9.96723 83.9573 11.045C83.9573 12.1229 83.5292 13.1565 82.767 13.9187C82.0049 14.6808 80.9712 15.109 79.8934 15.109H68.2101C67.1322 15.109 66.0986 14.6808 65.3364 13.9187C64.5743 13.1565 64.1462 12.1229 64.1462 11.045C64.1462 9.96723 64.5743 8.93356 65.3364 8.17143C66.0986 7.40929 67.1322 6.98113 68.2101 6.98113H68.2986C68.538 5.62919 69.2457 4.40471 70.2977 3.52245C71.3497 2.6402 72.6788 2.15652 74.0517 2.15625Z" fill="#EBEBEB"/>
<defs>
<linearGradient id="paint0_linear_2336_47450" x1="21.5634" y1="63.2891" x2="21.5634" y2="79.828" gradientUnits="userSpaceOnUse">
<stop offset="0.5" stop-color="#202020"/>
<stop offset="1" stop-color="#474747"/>
</linearGradient>
<linearGradient id="paint1_linear_2336_47450" x1="50.5908" y1="63.2891" x2="50.5908" y2="79.828" gradientUnits="userSpaceOnUse">
<stop offset="0.5" stop-color="#202020"/>
<stop offset="1" stop-color="#474747"/>
</linearGradient>
<linearGradient id="paint2_linear_2336_47450" x1="36.1084" y1="12.9922" x2="36.1084" y2="71.542" gradientUnits="userSpaceOnUse">
<stop stop-color="#32E389"/>
<stop offset="1" stop-color="#1FC16F"/>
</linearGradient>
</defs>
</svg>
