<svg width="64" height="56" viewBox="0 0 64 56" fill="none" xmlns="http://www.w3.org/2000/svg">
<path d="M29.8994 0C32.6402 0 35.2818 0.402394 37.7617 1.14746C37.3258 1.8781 37.0752 2.73193 37.0752 3.64453C37.0753 5.73727 38.3926 7.5212 40.2432 8.21484C40.1928 8.49589 40.166 8.78553 40.166 9.08105C40.1662 11.7762 42.3507 13.9607 45.0459 13.9609C45.7227 13.9609 46.3681 13.8233 46.9541 13.5742C47.8341 14.8525 49.3074 15.6913 50.9766 15.6914C51.9995 15.6913 52.948 15.375 53.7324 14.8369C55.0866 17.8105 55.8378 21.0872 55.8379 24.5303C55.8379 38.0781 44.225 49.0615 29.8994 49.0615C15.5739 49.0614 3.96094 38.078 3.96094 24.5303C3.96117 10.9827 15.5741 0.000101503 29.8994 0Z" fill="url(#paint0_linear_2329_45205)"/>
<circle cx="35.6013" cy="22.8591" r="7.03096" fill="white"/>
<mask id="mask0_2329_45205" style="mask-type:alpha" maskUnits="userSpaceOnUse" x="28" y="15" width="15" height="15">
<circle cx="35.6013" cy="22.8591" r="7.03096" fill="#D9D9D9"/>
</mask>
<g mask="url(#mask0_2329_45205)">
<circle cx="38.4187" cy="23.7586" r="4.36404" fill="#202020"/>
<circle cx="38.4187" cy="23.7586" r="4.36404" fill="black" fill-opacity="0.2"/>
</g>
<circle cx="23.8435" cy="22.8591" r="7.03096" fill="white"/>
<mask id="mask1_2329_45205" style="mask-type:alpha" maskUnits="userSpaceOnUse" x="16" y="15" width="15" height="15">
<circle cx="23.8435" cy="22.8591" r="7.03096" fill="#D9D9D9"/>
</mask>
<g mask="url(#mask1_2329_45205)">
<circle cx="26.6609" cy="23.7586" r="4.36404" fill="#202020"/>
<circle cx="26.6609" cy="23.7586" r="4.36404" fill="black" fill-opacity="0.2"/>
</g>
<path d="M23.2031 32.0156C24.9959 34.9285 29.4151 35.7062 31.7586 34.6511" stroke="#202020" stroke-width="1.69696" stroke-linecap="round"/>
<path d="M23.2031 32.0156C24.9959 34.9285 29.4151 35.7062 31.7586 34.6511" stroke="black" stroke-opacity="0.2" stroke-width="1.69696" stroke-linecap="round"/>
<path d="M18.1917 12.4708C19.2214 9.82218 23.2686 8.25897 25.8936 10.5025" stroke="#202020" stroke-width="1.69696" stroke-linecap="round"/>
<path d="M18.1917 12.4708C19.2214 9.82218 23.2686 8.25897 25.8936 10.5025" stroke="black" stroke-opacity="0.2" stroke-width="1.69696" stroke-linecap="round"/>
<g clip-path="url(#clip0_2329_45205)">
<path d="M51.493 28.6167C50.1093 27.8287 48.1302 27.3486 45.4491 27.1427C45.1964 27.121 44.9431 27.1768 44.7229 27.3028C44.5422 27.4068 44.3898 27.5536 44.2791 27.7304C44.1684 27.9071 44.1028 28.1083 44.0882 28.3164L43.2673 39.6656C43.2118 40.4328 43.7158 41.0511 44.4393 41.1034C47.2586 41.3073 50.0675 41.7753 51.6456 43.4988C51.6672 43.5225 51.6952 43.5393 51.7263 43.5472C51.7573 43.555 51.79 43.5536 51.8203 43.543C51.8505 43.5325 51.877 43.5133 51.8964 43.4878C51.9158 43.4623 51.9273 43.4317 51.9295 43.3997L52.8967 30.027C52.9033 29.9367 52.8904 29.8462 52.859 29.7613C52.8276 29.6765 52.7783 29.5994 52.7146 29.5353C52.3506 29.1755 51.9397 28.8665 51.493 28.6167ZM62.647 28.598C62.4471 28.442 62.2044 28.3508 61.9513 28.3363C59.2684 28.1543 57.241 28.343 55.7582 28.9252C55.2803 29.1077 54.8291 29.3538 54.4169 29.6568C54.3447 29.7112 54.2849 29.7804 54.2417 29.8599C54.1985 29.9393 54.1728 30.027 54.1662 30.1172L53.1989 43.4907C53.1967 43.5214 53.2036 43.5521 53.2187 43.5789C53.2338 43.6057 53.2566 43.6275 53.284 43.6414C53.3114 43.6554 53.3424 43.6609 53.373 43.6574C53.4035 43.6538 53.4324 43.6413 53.4559 43.6214C54.5473 42.6835 56.3956 41.967 60.9432 42.2963C61.2799 42.3207 61.6124 42.2103 61.8677 41.9894C62.123 41.7686 62.2801 41.4554 62.3044 41.1187L63.1308 29.6941C63.1463 29.4857 63.1103 29.2767 63.0259 29.0856C62.9415 28.8944 62.8114 28.727 62.647 28.598Z" fill="#EBEBEB"/>
</g>
<ellipse cx="7.0888" cy="46.125" rx="6.36359" ry="5.07307" transform="rotate(-112.004 7.0888 46.125)" fill="#32E389"/>
<ellipse cx="6.36359" cy="5.07307" rx="6.36359" ry="5.07307" transform="matrix(0.374673 -0.927157 -0.927157 -0.374673 55.4375 53.9258)" fill="#32E389"/>
<ellipse cx="19.4819" cy="49.0699" rx="8.66156" ry="6.92925" fill="url(#paint1_linear_2329_45205)"/>
<ellipse cx="40.6928" cy="49.0699" rx="8.66156" ry="6.92925" fill="url(#paint2_linear_2329_45205)"/>
<defs>
<linearGradient id="paint0_linear_2329_45205" x1="29.8994" y1="0" x2="29.8994" y2="49.0615" gradientUnits="userSpaceOnUse">
<stop stop-color="#32E389"/>
<stop offset="1" stop-color="#1FC16F"/>
</linearGradient>
<linearGradient id="paint1_linear_2329_45205" x1="19.4819" y1="42.1406" x2="19.4819" y2="55.9991" gradientUnits="userSpaceOnUse">
<stop offset="0.5" stop-color="#202020"/>
<stop offset="1" stop-color="#474747"/>
</linearGradient>
<linearGradient id="paint2_linear_2329_45205" x1="40.6928" y1="42.1406" x2="40.6928" y2="55.9991" gradientUnits="userSpaceOnUse">
<stop offset="0.5" stop-color="#202020"/>
<stop offset="1" stop-color="#474747"/>
</linearGradient>
<clipPath id="clip0_2329_45205">
<rect width="20.3635" height="20.3635" fill="white" transform="translate(43.6836 25.1016) rotate(4.13698)"/>
</clipPath>
</defs>
</svg>
